M48
;Layer_Color=9474304
;FILE_FORMAT=2:4
INCH,LZ
;TYPE=PLATED
T1F00S00C0.0118
T2F00S00C0.0310
T3F00S00C0.0340
T4F00S00C0.0350
T5F00S00C0.0354
T6F00S00C0.0360
T7F00S00C0.0394
T8F00S00C0.0433
T9F00S00C0.0450
T10F00S00C0.0600
%
T01
X023136Y01169
X024136
X025136
X026136
X027136
X027976Y01177
X026636Y01269
X025636
X026136Y01369
X027136
X026636Y01469
X025636
X025136Y01369
X024136
X023136
X023636Y01469
Y01269
X029636
X029546Y01339
X029636Y01469
X030636
Y01269
X031636
X032636
X032716Y01338
X033256Y01409
X033636Y01469
X034636
X035636
X036636
X037636
X038636
X039636
X040136Y01369
X039136
X039636Y01269
X040636
X041636
X042416Y01419
X043636Y01469
X044636
X045636
X046636
X046136Y01369
X045136
X044136
X046636Y01269
X037636
X036636
X035636
X034636
X033636
X034136Y01369
X035136
X036136
X037136
X032636Y01469
X033136Y01169
X032136
X047636Y01269
X048636
X049636
X050136Y01369
X049136
X048136
X047136
X047636Y01469
X048636
X049636
X050636
X051636
X052636
X053636
X053136Y01369
X053636Y01269
X052636
X051636
X052136Y01169
X053136
X051136
Y01569
X050136
X049136
X048136
X047136
X047636Y01669
X048636
X049636
X050636
X051636
X052636
X053636
X053136Y01769
X053636Y01869
X052636
X051636
X050636
X049636
X048636
X047636
X048136Y01969
X049136
X050136
X051136
X051636Y02069
X052636
X053636
X053136Y02169
X053636Y02269
X052636
X051636
X050636
X049636
X048636
X047636
X048136Y02369
X049136
X050136
X051136
X051636Y02469
X052636
X053636
X053136Y02569
X053636Y02669
X052636
X051136Y02569
X050136
X049136
X049636Y02469
X050636
X048636
X047636
X047136Y02569
Y02369
Y02169
X048136
X049136
X050136
X051136
X050636Y02069
X049636
X048636
X047636
X047136Y01969
Y01769
X049136
X050136
X051136
X053136Y01969
Y02369
Y030394
X052136
X051136
X053136Y01569
X046636Y01669
X045636
X046136Y01769
X045136
X045636Y01869
X046636
X046136Y01969
X045136
X045636Y02069
X046636
X046136Y02169
X045136
X045636Y02269
X046636
X045136Y02369
X044136
X043136
X042136
X041136
X041636Y02469
X040636
X039636
X039136Y02569
X041136
X043136
X044136
X045136
X046136
X045636Y02469
X044636
X043636
Y02269
X042636
X041636
X040636
X039636
X040136Y02169
X041136
X042136
X043136
X042636Y02069
X041636
X040636
X039636
X038636
X037636
X037168Y020727
X036636Y02069
X036136Y01969
X035636Y01869
X034636
X035136Y01769
X035036Y01738
X034136Y01769
X033136
X032706Y01705
X032636Y01669
X031636
Y01869
X032636
X032706Y01977
X032044Y020275
X031554Y0219
X032136Y02369
X033136
X033636Y02269
X034636
X035636
X036136Y02369
X036346Y02548
X036636Y02669
X037136Y02769
X034136Y02569
X033136
X032636Y02544
X032136Y02569
X031826Y02512
X032136Y030394
X033136
X034136Y02169
X035136
X037666Y02204
X039136Y02169
Y02369
Y01969
X040136
X041136
X042136
X043136
X042636Y01869
X041636
X040636
X039636
X038636
X037636
X038136Y01969
Y01769
X039136
X040136
X041136
X041636Y01669
X040636
X039636
X040136Y01569
X041136
X042136
X044636Y01869
Y02069
X037636Y01669
X036636
X035636
X036136Y01769
X034136Y01969
X030986Y02013
X030636Y01869
Y01669
X029636
X029536Y01703
X028636Y01869
Y02069
X029636
X030136Y02169
X029636Y02269
X028636
Y02469
X029636
X030636
X030989Y025087
X030136Y02369
X029636Y02669
X028636
X025236Y02658
X023636Y02669
X024136Y02569
X023846Y02514
X023636Y02469
X024136Y02369
X025136
X026136
X026636Y02469
X026256Y02513
X025636Y02269
Y02069
X024636
X023636
X024136Y02169
X023136
X023636Y02269
X023136Y02369
Y02569
Y02769
Y030394
X024136
X025136
X026136
X027136
X027976Y030474
X026136Y01969
X025136
X024136
X023136
X023636Y01869
X024636
X025636
X026636
X026136Y01769
X026636Y01669
X025636
X026136Y01569
X027136
X024136
X023136
X023636Y01669
X024136Y01769
X023136
X023636Y031394
X024136Y032394
X025136
X026136
X027136
X026636Y033394
X025636
X026136Y034394
X027136
X026636Y035394
X025636
X026136Y036394
X026636Y037394
X025636
X024636
X023636
X024136Y038394
X025136
X026136
X025636Y039394
X024636
X023636
X024136Y040394
X023136
X023636Y041394
X024136Y042394
X025136
X026136
X026636Y043394
X026256Y043834
X023846Y043844
X023636Y043394
X024136Y044394
X023136
X023636Y045394
X023136Y046394
X025236Y045284
X028636Y045394
X029636
Y043394
X030636
X030989Y043791
X030136Y042394
X029636Y041394
X028636
Y043394
Y039394
X029636
X030136Y040394
X030986Y038834
X030636Y037394
Y035394
X029636
X029536Y035734
X029636Y033394
X030636
Y031394
X029636
X029546Y032094
X026636Y031394
X025636
X023136Y032394
X023636Y033394
X024136Y034394
X023136
X023636Y035394
X024136Y036394
X023136
Y038394
Y042394
X025636Y041394
X028636Y037394
X031636
X032636
X032706Y038474
X032044Y038979
X031554Y040604
X032136Y042394
X033136
X033636Y041394
X034636
X035636
X036136Y042394
X036346Y044184
X036636Y045394
X037136Y046394
X039136Y044394
X039636Y043394
X040636
X041636
X042136Y042394
X043136
X044136
X045136
X045636Y043394
X044636
X043636
X044136Y044394
X045136
X046136
X043136
X041136
Y042394
X041636Y041394
X042636
X043636
X043136Y040394
X042136
X041136
X040136
X039136
X039636Y041394
X040636
Y039394
X041636
X042636
X043136Y038394
X042136
X041136
X040136
X039136
X038136
X038636Y039394
X039636
Y037394
X040636
X041636
X042636
X044636
X045636
X046636
X046136Y038394
X045136
X045636Y039394
X046636
X046136Y040394
X045136
X045636Y041394
X046636
X044636Y039394
X045136Y036394
X046136
X046636Y035394
X045636
Y033394
X046636
X046136Y032394
X045136
X044136
X044636Y033394
X043636
X042416Y032894
X042136Y034394
X041136
X040136
X040636Y035394
X041636
X041136Y036394
X040136
X039136
X038136
X038636Y037394
X037636
Y039394
X037168Y039432
X036636Y039394
X036136Y038394
X035636Y037394
X034636
X035136Y036394
X035036Y036084
X034136Y036394
X033136
X032706Y035754
X032636Y035394
X031636
X032636Y033394
X033636
X033256Y032794
X032716Y032084
X032636Y031394
X033636
X034636
X035636
X036636
X037636
X037136Y032394
X036136
X035136
X034136
X034636Y033394
X035636
X036636
X037636
X038636
X039636
X040136Y032394
X039136
X039636Y031394
X040636
X041636
X046636
X039636Y035394
X037636
X036636
X035636
X036136Y036394
X034136Y038394
Y040394
X035136
X037666Y040744
X039136Y042394
X034136Y044394
X033136
X032636Y044144
X032136Y044394
X031826Y043824
X031636Y031394
X047636
X048636
X049636
X050136Y032394
X049136
X048136
X047136
X047636Y033394
X048636
X049636
X050636
X051636
X052636
X053636
X053136Y034394
X053636Y035394
X052636
X051636
X050636
X049636
X048636
X047636
X048136Y034394
X049136
X050136
X051136
Y036394
X050136
X049136
X049636Y037394
X050636
X051636
X052636
X053636
X053136Y038394
X053636Y039394
X052636
X051636
X050636
X049636
X048636
X047636
X048136Y040394
X049136
X050136
X051136
X051636Y041394
X052636
X053636
X053136Y042394
X053636Y043394
X052636
X051636
X050636
X049636
X048636
X047636
X048136Y042394
X049136
X050136
X051136
X050636Y041394
X049636
X048636
X047636
X047136Y042394
Y044394
X049136
X050136
X051136
X053136
X053636Y045394
X052636
X053136Y040394
Y036394
Y032394
X053636Y031394
X052636
X051636
X051136Y038394
X050136
X049136
X048136
X047136
X047636Y037394
X048636
X047136Y036394
Y034394
Y040394
T02
X041916Y01737
X042916
Y036074
X041916
T03
X029416Y02172
Y02372
Y040424
Y042424
T04
X040236Y02354
Y02554
X042236Y02454
Y043244
X040236Y044244
Y042244
T05
X042886Y01269
X043886
X044886
X045886
Y01569
X044886
X043886
X042886
Y031394
X043886
X044886
X045886
Y034394
X044886
X043886
X042886
T06
X03842Y013103
Y01589
Y031807
Y034594
T07
X046991Y029063
X047464
X047936
X048409
Y029851
X047936
X047464
X046991
X046519
Y029063
X030692
X03022
X029747
X029275
X028802
Y029851
X029275
X029747
X03022
X030692
T08
X047136Y02774
X048136
X049136
X050136
X051136
X052136
X053136
X046136
X045136
X044136
X043136
X042136
X041136
X040136
X039136
X038136
X036386
X035386
X034386
X033386
X031636
X030636
X029636
X028636
X027636
X025856Y02775
X024856
X023856
Y046454
X024856
X025856
X027636Y046444
X028636
X029636
X030636
X031636
X033386
X034386
X035386
X036386
X038136
X039136
X040136
X041136
X042136
X043136
X044136
X045136
X046136
X047136
X048136
X049136
X050136
X051136
X052136
X053136
T09
X024786Y013062
Y01444
Y01639
Y017768
Y031766
Y033144
Y035094
Y036472
T10
X048036Y01789
Y02589
Y036594
Y044594
M30
