M48
;Layer_Color=9474304
;FILE_FORMAT=2:4
INCH,LZ
;TYPE=PLATED
T1F00S00C0.0118
T2F00S00C0.0340
T3F00S00C0.0350
T4F00S00C0.0360
T5F00S00C0.0433
T6F00S00C0.0440
T7F00S00C0.0450
T8F00S00C0.0600
%
T01
X047Y026
X048
X049
X05
X0505Y027
X0495
X0485
X0475
X048Y028
X049
X05
X0505Y029
X0495
X0485
X049Y03
X05
X0505Y031
X0495
X0485
X048Y03
X047
Y028
X0465Y029
X046Y03
X045
X044
X043
X042
X041
X04016Y03062
X0405Y031
X0415
X0425
X0435
X0445
X0455
X0465
Y027
X0455
X0445
X0435
X0425
X0415
X0405
X0395
X0385
X0375
X03674Y02716
X037Y026
X038
X039
X04
X041
X042
X043
X044
X045
X046
X044Y028
X043
X042
X041
X04
X039
X038
X0385Y029
X0375
X038Y03
X039
X0385Y031
X0375
X0365
X0355
X0345
X0335
X0325
X0335Y029
X033Y028
X03316Y0276
X032Y028
Y026
X033
X034
X035
X036
Y028
Y03
X0435Y029
X0285
X029Y03
X028
X025
X02467Y03095
X0245Y029
X0255
X025Y028
Y026
X026
X027
X028
X029
X03
X031
X024
X023
X022
X021
X02
X019
X018
X017
X0175Y027
X0185
X018Y028
X017
Y03
X018
X019
X02
X021
X022
X023
X0235Y029
X0225
X0205
X0195
X0185
X02Y028
Y032
X019
X018
X017
Y034
X018
X019
X02
X021
X022
X023
X024
X025
X025149Y03336
X02531Y03232
X02563Y03179
X023Y032
X0225Y033
Y035
X0215
X0205
X0195
X0185
X01844Y03564
X018Y036
X017
Y038
Y04
X018
X02
X021
X022
X023
X024
X025
X026
X027
X028
X029
X03
X0305Y041
X0295
X0275
X0265
X0245
X0235
X0225
X0215
X0205
X0195
X019Y042
X018
X017
Y044
X018
X019
X02
X021
X022
X023
X024
X025
X026
X027
X028
X029
X03
X031
X0275Y043
X028Y038
X03
Y036
X031122Y035012
X03115Y031866
X03092Y03131
X0285Y033
X0275
X028Y034
X027
X02629Y03689
X0245Y037
X0235
X0225
X0215
X022Y038
X023
X024
X025
X024Y036
X023
X022
X021Y038
X02
X0195Y039
X01838Y03669
X0185Y033
X0195
X0205
X02106Y03241
X0215Y043
X0325
X033Y044
X034
X035
X036
X037
X038
X039
X04
X041
X042
X043
X044
X045
X046
X0465Y041
X0455
X0445
X0435
X0425
X0415
X0405
X041Y04
X042
X043
X0435Y039
X0445
X0455
X0465
X046Y04
X045
Y038
X046
X0465Y037
X0455
X0445
X0435
X0425
X0415
X0405
X0395
X0385
X0375
X0365
X0355
X0345
X0335
X034Y038
X035
X036
X037
X038
X039
X04
X041
X042
X043
X044
Y036
X045
X046
X0465Y035
X0455
X0445
X0435
X0425
X0415
X0405
X0395
X0385
X039Y036
X04
X041
X042
X043
Y034
X044
X045
X046
X0465Y033
X0455
X046Y032
X045
X0425Y033
X0415
X0405
X0395
X03906Y03357
X039Y034
X04
X041
X042
X03855Y03246
X0365Y033
X036Y034
X035
Y036
X036
X0355Y039
X0345
X0335
X034Y04
X035
X0355Y041
X0375
X0385
Y039
X0395
X0405
X0415
X0425
X04Y04
X037
X0375Y039
X0325Y041
X0315
X033Y042
X03225Y03557
X03279Y03403
X03197Y03187
X047Y032
X048
X049
X05
X0505Y033
X0495
X0485
X049Y034
X05
X0505Y035
X0495
X0485
X049Y036
X05
X0505Y037
X0495
X0485
X049Y038
X05
X0505Y039
X0495
X0485
X049Y04
X05
X0505Y041
X0495
X0485
X049Y042
X05
X0505Y043
X0495
X05Y044
X049
X048
X047
X048Y042
Y04
X047
Y038
X048
Y036
X047
Y034
X048
T02
X02309Y03296
Y03496
T03
X0363Y03855
Y04055
X0383Y03955
T04
X04228Y02893
X045067
T05
X01838Y03835
Y03935
Y04035
Y04135
X01841Y0434
X01941
X02041
X02244
X02344
X02444
X02544
X02644
X02839
X02939
X03039
X03139
X03341
X03441
X03541
X03641
X03741
X03841
X03941
X04041
X04141
X04241
X04341
X04441
X04541
X04641
X04741
X04841
T06
X02019Y03869
X02119
X02219
X02319
X02419
X02519
X02619
X02719
X02819
X02919
Y04169
X02819
X02719
X02619
X02519
X02419
X02319
X02219
X02119
X02019
T07
X0213Y02794
Y029318
T08
X04408Y0324
Y0404
M30
