G04*
G04 #@! TF.GenerationSoftware,Altium Limited,Altium Designer,21.9.2 (33)*
G04*
G04 Layer_Color=16711935*
%FSTAX24Y24*%
%MOIN*%
G70*
G04*
G04 #@! TF.SameCoordinates,42221833-7155-40BC-9F66-F4787AFC6187*
G04*
G04*
G04 #@! TF.FilePolarity,Negative*
G04*
G01*
G75*
%ADD37R,0.0454X0.0395*%
%ADD38R,0.0395X0.0454*%
%ADD50C,0.0710*%
%ADD51R,0.0710X0.0710*%
%ADD52C,0.0740*%
%ADD53R,0.0740X0.0740*%
%ADD54R,0.0710X0.0710*%
%ADD55R,0.0980X0.0980*%
%ADD56C,0.0980*%
%ADD57C,0.0880*%
%ADD58R,0.0880X0.0880*%
%ADD59R,0.0880X0.0880*%
%ADD60C,0.0830*%
%ADD61R,0.0830X0.0830*%
D37*
X02106Y032974D02*
D03*
Y033526D02*
D03*
D38*
X030146Y04248D02*
D03*
X029594D02*
D03*
D50*
X03039Y0434D02*
D03*
X02939D02*
D03*
X02839D02*
D03*
X01841D02*
D03*
X01941D02*
D03*
X02244D02*
D03*
X02344D02*
D03*
X02544D02*
D03*
X02444D02*
D03*
X03341D02*
D03*
X03441D02*
D03*
X03741D02*
D03*
X03841D02*
D03*
X03941D02*
D03*
X04141D02*
D03*
X04241D02*
D03*
X04441D02*
D03*
X04641D02*
D03*
X04741D02*
D03*
X04541D02*
D03*
X04341D02*
D03*
X04041D02*
D03*
X03641D02*
D03*
X03541D02*
D03*
X01838Y03935D02*
D03*
Y04035D02*
D03*
Y04135D02*
D03*
D51*
X03139Y0434D02*
D03*
X02041D02*
D03*
X02644D02*
D03*
X04841D02*
D03*
D52*
X02919Y03869D02*
D03*
X02819D02*
D03*
X02719D02*
D03*
X02619D02*
D03*
X02519D02*
D03*
X02419D02*
D03*
X02319D02*
D03*
X02219D02*
D03*
X02119D02*
D03*
X02019D02*
D03*
Y04169D02*
D03*
X02119D02*
D03*
X02219D02*
D03*
X02319D02*
D03*
X02419D02*
D03*
X02519D02*
D03*
X02619D02*
D03*
X02719D02*
D03*
X02819D02*
D03*
D53*
X02919D02*
D03*
D54*
X01838Y03835D02*
D03*
D55*
X04408Y0324D02*
D03*
D56*
Y0404D02*
D03*
D57*
X04228Y02893D02*
D03*
X0213Y02794D02*
D03*
D58*
X045067Y02893D02*
D03*
D59*
X0213Y029318D02*
D03*
D60*
X02309Y03496D02*
D03*
Y03296D02*
D03*
X0383Y03955D02*
D03*
X0363Y03855D02*
D03*
D61*
Y04055D02*
D03*
M02*
