G04*
G04 #@! TF.GenerationSoftware,Altium Limited,Altium Designer,21.9.2 (33)*
G04*
G04 Layer_Color=32896*
%FSTAX24Y24*%
%MOIN*%
G70*
G04*
G04 #@! TF.SameCoordinates,42221833-7155-40BC-9F66-F4787AFC6187*
G04*
G04*
G04 #@! TF.FilePolarity,Positive*
G04*
G01*
G75*
%ADD13C,0.0079*%
%ADD16C,0.0060*%
%ADD19C,0.0100*%
D13*
X032851Y04287D02*
Y04393D01*
X048969D01*
Y04287D02*
Y04393D01*
X032851Y04287D02*
X048969D01*
D16*
X03371Y0422D02*
X033577D01*
X033643D01*
Y0426D01*
X03371Y042533D01*
X03311Y0426D02*
X033243Y042533D01*
X033377Y0424D01*
Y042267D01*
X03331Y0422D01*
X033177D01*
X03311Y042267D01*
Y042333D01*
X033177Y0424D01*
X033377D01*
X04849Y0422D02*
X048357D01*
X048423D01*
Y0426D01*
X04849Y042533D01*
D19*
X034672Y04455D02*
Y0442D01*
X034497D01*
X034438Y044258D01*
Y044317D01*
X034497Y044375D01*
X034672D01*
X034497D01*
X034438Y044433D01*
Y044492D01*
X034497Y04455D01*
X034672D01*
X034322D02*
Y0442D01*
X034088D01*
X035702Y04455D02*
Y0442D01*
X035527D01*
X035468Y044258D01*
Y044492D01*
X035527Y04455D01*
X035702D01*
X035352D02*
X035118D01*
Y044492D01*
X035352Y044258D01*
Y0442D01*
X036682Y04455D02*
Y0442D01*
X036507D01*
X036448Y044258D01*
Y044492D01*
X036507Y04455D01*
X036682D01*
X036098D02*
X036215Y044492D01*
X036332Y044375D01*
Y044258D01*
X036273Y0442D01*
X036157D01*
X036098Y044258D01*
Y044317D01*
X036157Y044375D01*
X036332D01*
X037692Y04455D02*
Y0442D01*
X037517D01*
X037458Y044258D01*
Y044492D01*
X037517Y04455D01*
X037692D01*
X037108D02*
X037342D01*
Y044375D01*
X037225Y044433D01*
X037167D01*
X037108Y044375D01*
Y044258D01*
X037167Y0442D01*
X037283D01*
X037342Y044258D01*
X038702Y04455D02*
Y0442D01*
X038527D01*
X038468Y044258D01*
Y044492D01*
X038527Y04455D01*
X038702D01*
X038177Y0442D02*
Y04455D01*
X038352Y044375D01*
X038118D01*
X039702Y04455D02*
Y0442D01*
X039527D01*
X039468Y044258D01*
Y044492D01*
X039527Y04455D01*
X039702D01*
X039352Y044492D02*
X039293Y04455D01*
X039177D01*
X039118Y044492D01*
Y044433D01*
X039177Y044375D01*
X039235D01*
X039177D01*
X039118Y044317D01*
Y044258D01*
X039177Y0442D01*
X039293D01*
X039352Y044258D01*
X040682Y04455D02*
Y0442D01*
X040507D01*
X040448Y044258D01*
Y044492D01*
X040507Y04455D01*
X040682D01*
X040098Y0442D02*
X040332D01*
X040098Y044433D01*
Y044492D01*
X040157Y04455D01*
X040273D01*
X040332Y044492D01*
X041633Y04455D02*
Y0442D01*
X041458D01*
X0414Y044258D01*
Y044492D01*
X041458Y04455D01*
X041633D01*
X041283Y0442D02*
X041167D01*
X041225D01*
Y04455D01*
X041283Y044492D01*
X042702Y04455D02*
Y0442D01*
X042527D01*
X042468Y044258D01*
Y044492D01*
X042527Y04455D01*
X042702D01*
X042352Y044492D02*
X042293Y04455D01*
X042177D01*
X042118Y044492D01*
Y044258D01*
X042177Y0442D01*
X042293D01*
X042352Y044258D01*
Y044492D01*
X043468Y04455D02*
X043702D01*
Y0442D01*
X043468D01*
X043702Y044375D02*
X043585D01*
X043352Y0442D02*
Y04455D01*
X043118Y0442D01*
Y04455D01*
X044712Y0442D02*
Y04455D01*
X044537D01*
X044478Y044492D01*
Y044375D01*
X044537Y044317D01*
X044712D01*
X044595D02*
X044478Y0442D01*
X044362Y04455D02*
Y0442D01*
X044245Y044317D01*
X044128Y0442D01*
Y04455D01*
X045692Y0442D02*
Y04455D01*
X045517D01*
X045458Y044492D01*
Y044375D01*
X045517Y044317D01*
X045692D01*
X045575D02*
X045458Y0442D01*
X045108Y044492D02*
X045167Y04455D01*
X045283D01*
X045342Y044492D01*
Y044433D01*
X045283Y044375D01*
X045167D01*
X045108Y044317D01*
Y044258D01*
X045167Y0442D01*
X045283D01*
X045342Y044258D01*
X046702Y04455D02*
Y044317D01*
X046585Y0442D01*
X046468Y044317D01*
Y04455D01*
X046118D02*
X046352D01*
Y0442D01*
X046118D01*
X046352Y044375D02*
X046235D01*
X047468Y04455D02*
X047702D01*
Y044375D01*
X047585Y044433D01*
X047527D01*
X047468Y044375D01*
Y044258D01*
X047527Y0442D01*
X047643D01*
X047702Y044258D01*
X047352Y04455D02*
Y044317D01*
X047235Y0442D01*
X047118Y044317D01*
Y04455D01*
X033623Y044492D02*
X033682Y04455D01*
X033798D01*
X033857Y044492D01*
Y044258D01*
X033798Y0442D01*
X033682D01*
X033623Y044258D01*
Y044375D01*
X03374D01*
X033507Y0442D02*
Y04455D01*
X033273Y0442D01*
Y04455D01*
X033157D02*
Y0442D01*
X032982D01*
X032923Y044258D01*
Y044492D01*
X032982Y04455D01*
X033157D01*
X048663Y044492D02*
X048722Y04455D01*
X048838D01*
X048897Y044492D01*
Y044258D01*
X048838Y0442D01*
X048722D01*
X048663Y044258D01*
Y044375D01*
X04878D01*
X048547Y0442D02*
Y04455D01*
X048313Y0442D01*
Y04455D01*
X048197D02*
Y0442D01*
X048022D01*
X047963Y044258D01*
Y044492D01*
X048022Y04455D01*
X048197D01*
X049962Y043265D02*
Y043615D01*
X049787D01*
X049728Y043557D01*
Y04344D01*
X049787Y043382D01*
X049962D01*
X049378Y043615D02*
X049612D01*
Y04344D01*
X049495Y043498D01*
X049437D01*
X049378Y04344D01*
Y043323D01*
X049437Y043265D01*
X049553D01*
X049612Y043323D01*
X031057Y042602D02*
X031115Y04266D01*
X031232D01*
X03129Y042602D01*
Y042368D01*
X031232Y04231D01*
X031115D01*
X031057Y042368D01*
X03094Y042602D02*
X030882Y04266D01*
X030765D01*
X030707Y042602D01*
Y042543D01*
X030765Y042485D01*
X030707Y042427D01*
Y042368D01*
X030765Y04231D01*
X030882D01*
X03094Y042368D01*
Y042427D01*
X030882Y042485D01*
X03094Y042543D01*
Y042602D01*
X030882Y042485D02*
X030765D01*
X021117Y034382D02*
X021175Y03444D01*
X021292D01*
X02135Y034382D01*
Y034148D01*
X021292Y03409D01*
X021175D01*
X021117Y034148D01*
X020767Y03444D02*
X020883Y034382D01*
X021Y034265D01*
Y034148D01*
X020942Y03409D01*
X020825D01*
X020767Y034148D01*
Y034207D01*
X020825Y034265D01*
X021D01*
M02*
