G04*
G04 #@! TF.GenerationSoftware,Altium Limited,Altium Designer,21.9.2 (33)*
G04*
G04 Layer_Color=32768*
%FSTAX24Y24*%
%MOIN*%
G70*
G04*
G04 #@! TF.SameCoordinates,42221833-7155-40BC-9F66-F4787AFC6187*
G04*
G04*
G04 #@! TF.FilePolarity,Positive*
G04*
G01*
G75*
%ADD76C,0.0039*%
%ADD77C,0.0020*%
%ADD78C,0.0079*%
D76*
X02063Y035453D02*
Y035847D01*
X020433Y03565D02*
X020827D01*
X01988Y0353D02*
X02143D01*
X01988Y036D02*
X02143D01*
Y0353D02*
Y036D01*
X01988Y0353D02*
Y036D01*
X02063Y036503D02*
Y036897D01*
X020433Y0367D02*
X020827D01*
X01988Y03635D02*
X02143D01*
X01988Y03705D02*
X02143D01*
Y03635D02*
Y03705D01*
X01988Y03635D02*
Y03705D01*
X032613Y032246D02*
X032967D01*
X03279Y032068D02*
Y032423D01*
X027166Y030653D02*
Y031007D01*
X026988Y03083D02*
X027343D01*
X025906Y030653D02*
Y031007D01*
X025728Y03083D02*
X026083D01*
X02467Y031703D02*
Y032057D01*
X024493Y03188D02*
X024847D01*
X02467Y033083D02*
Y033437D01*
X024493Y03326D02*
X024847D01*
X02467Y034463D02*
Y034817D01*
X024493Y03464D02*
X024847D01*
X020883Y03325D02*
X021237D01*
X02106Y033073D02*
Y033427D01*
X028903Y030683D02*
X031737D01*
X028903Y027257D02*
X031737D01*
Y030683D01*
X028903Y027257D02*
Y030683D01*
X03032Y028773D02*
Y029167D01*
X030123Y02897D02*
X030517D01*
X033203Y030693D02*
X036037D01*
X033203Y027267D02*
X036037D01*
Y030693D01*
X033203Y027267D02*
Y030693D01*
X03462Y028783D02*
Y029177D01*
X034423Y02898D02*
X034817D01*
X02987Y042303D02*
Y042657D01*
X029693Y04248D02*
X030047D01*
X026987Y03612D02*
X027342D01*
X027164Y035943D02*
Y036297D01*
X023953Y02876D02*
X024347D01*
X02415Y028563D02*
Y028957D01*
X03279Y033217D02*
Y033572D01*
X032613Y033394D02*
X032967D01*
X03854Y033158D02*
Y033513D01*
X038363Y033336D02*
X038717D01*
X039713Y03015D02*
X040067D01*
X03989Y029973D02*
Y030327D01*
X019023Y0367D02*
X019377D01*
X0192Y036523D02*
Y036877D01*
X019027Y03565D02*
X019382D01*
X019204Y035473D02*
Y035827D01*
X030253Y03159D02*
X030607D01*
X03043Y031413D02*
Y031767D01*
X02976Y036693D02*
Y037047D01*
X029583Y03687D02*
X029937D01*
X02603Y035943D02*
Y036297D01*
X025853Y03612D02*
X026207D01*
D77*
X032028Y042792D02*
Y044008D01*
X027752D02*
X032028D01*
X027752Y042792D02*
Y044008D01*
Y042792D02*
X032028D01*
X02989Y043203D02*
Y043597D01*
X029693Y0434D02*
X030087D01*
X021047Y042792D02*
Y044008D01*
X017772D02*
X021047D01*
X017772Y042792D02*
Y044008D01*
Y042792D02*
X021047D01*
X01941Y043203D02*
Y043597D01*
X019213Y0434D02*
X019606D01*
X027078Y042792D02*
Y044008D01*
X021802D02*
X027078D01*
X021802Y042792D02*
Y044008D01*
Y042792D02*
X027078D01*
X02444Y043203D02*
Y043597D01*
X024243Y0434D02*
X024637D01*
X032495Y031714D02*
Y032777D01*
X033085Y031714D02*
Y032777D01*
X032495Y031714D02*
X033085D01*
X032495Y032777D02*
X033085D01*
X026634Y031125D02*
X027697D01*
X026634Y030535D02*
X027697D01*
X026634D02*
Y031125D01*
X027697Y030535D02*
Y031125D01*
X025374D02*
X026437D01*
X025374Y030535D02*
X026437D01*
X025374D02*
Y031125D01*
X026437Y030535D02*
Y031125D01*
X024375Y032411D02*
X024965D01*
X024375Y031349D02*
X024965D01*
Y032411D01*
X024375Y031349D02*
Y032411D01*
Y033791D02*
X024965D01*
X024375Y032729D02*
X024965D01*
Y033791D01*
X024375Y032729D02*
Y033791D01*
Y035171D02*
X024965D01*
X024375Y034109D02*
X024965D01*
Y035171D01*
X024375Y034109D02*
Y035171D01*
X040713Y0434D02*
X041107D01*
X04091Y043203D02*
Y043597D01*
X032772Y044008D02*
X049048D01*
X032772Y042792D02*
Y044008D01*
Y042792D02*
X049048D01*
Y044008D01*
X017772Y037712D02*
X018988D01*
Y041988D01*
X017772D02*
X018988D01*
X017772Y037712D02*
Y041988D01*
X018183Y03985D02*
X018577D01*
X01838Y039653D02*
Y040047D01*
X021355Y032719D02*
Y033781D01*
X020765Y032719D02*
Y033781D01*
Y032719D02*
X021355D01*
X020765Y033781D02*
X021355D01*
X029339Y042775D02*
X030401D01*
X029339Y042185D02*
X030401D01*
Y042775D01*
X029339Y042185D02*
Y042775D01*
X026633Y035825D02*
Y036415D01*
X027696Y035825D02*
Y036415D01*
X026633D02*
X027696D01*
X026633Y035825D02*
X027696D01*
X023363Y027579D02*
Y029941D01*
X024937Y027579D02*
Y029941D01*
X023363Y027579D02*
X024937D01*
X023363Y029941D02*
X024937D01*
X032495Y032863D02*
X033085D01*
X032495Y033926D02*
X033085D01*
X032495Y032863D02*
Y033926D01*
X033085Y032863D02*
Y033926D01*
X038245Y033867D02*
X038835D01*
X038245Y032804D02*
X038835D01*
Y033867D01*
X038245Y032804D02*
Y033867D01*
X040422Y029855D02*
Y030445D01*
X039358Y029855D02*
Y030445D01*
Y029855D02*
X040422D01*
X039358Y030445D02*
X040422D01*
X0255Y030108D02*
X0268D01*
X0255Y027352D02*
X0268D01*
Y030108D01*
X0255Y027352D02*
Y030108D01*
X02615Y028533D02*
Y028927D01*
X025953Y02873D02*
X026347D01*
X018669Y036405D02*
Y036995D01*
X019732Y036405D02*
Y036995D01*
X018669D02*
X019732D01*
X018669Y036405D02*
X019732D01*
X025789Y034746D02*
X026324D01*
Y035026D01*
X026604D01*
Y035561D01*
X029076D01*
Y035026D02*
Y035561D01*
Y035026D02*
X029356D01*
Y034746D02*
Y035026D01*
Y034746D02*
X029891D01*
Y032274D02*
Y034746D01*
X029356Y032274D02*
X029891D01*
X029356Y031994D02*
Y032274D01*
X029076Y031994D02*
X029356D01*
X029076Y031459D02*
Y031994D01*
X026604Y031459D02*
X029076D01*
X026604D02*
Y031994D01*
X026324D02*
X026604D01*
X026324D02*
Y032274D01*
X025789D02*
X026324D01*
X025789D02*
Y034746D01*
X018673Y035355D02*
Y035945D01*
X019736Y035355D02*
Y035945D01*
X018673D02*
X019736D01*
X018673Y035355D02*
X019736D01*
X030725Y031058D02*
Y032122D01*
X030135Y031058D02*
Y032122D01*
X030725D01*
X030135Y031058D02*
X030725D01*
X029228Y037165D02*
X030292D01*
X029228Y036575D02*
X030292D01*
X029228D02*
Y037165D01*
X030292Y036575D02*
Y037165D01*
X025498Y036415D02*
X026562D01*
X025498Y035825D02*
X026562D01*
X025498D02*
Y036415D01*
X026562Y035825D02*
Y036415D01*
D78*
X033387Y032186D02*
Y036434D01*
X038033Y032186D02*
Y036434D01*
X033387Y032186D02*
X038033D01*
X033387Y036434D02*
X038033D01*
M02*
