G04*
G04 #@! TF.GenerationSoftware,Altium Limited,Altium Designer,21.9.2 (33)*
G04*
G04 Layer_Color=65535*
%FSTAX24Y24*%
%MOIN*%
G70*
G04*
G04 #@! TF.SameCoordinates,42221833-7155-40BC-9F66-F4787AFC6187*
G04*
G04*
G04 #@! TF.FilePolarity,Positive*
G04*
G01*
G75*
%ADD10C,0.0000*%
%ADD11C,0.0080*%
%ADD12C,0.0098*%
%ADD13C,0.0079*%
%ADD14C,0.0070*%
%ADD15C,0.0050*%
%ADD16C,0.0060*%
%ADD17C,0.0040*%
%ADD18C,0.0158*%
%ADD19C,0.0100*%
%ADD20C,0.0250*%
%ADD21R,0.0500X0.1000*%
G36*
X02348Y033845D02*
X02269D01*
Y034075D01*
X02348D01*
Y033845D01*
D02*
G37*
G36*
X049238Y030524D02*
X04924Y030524D01*
X049311Y030491D01*
X049311Y03049D01*
X049312Y03049D01*
X04937Y030453D01*
X04937Y030452D01*
X049371Y030452D01*
X04945Y030381D01*
X04945Y030381D01*
X04945Y030381D01*
X049513Y030323D01*
X049513Y030322D01*
X049513Y030322D01*
X049576Y030239D01*
X049576Y030239D01*
X049576Y030239D01*
X04961Y030193D01*
X04961Y030192D01*
X04961Y030192D01*
X049639Y030125D01*
X049639Y030125D01*
X049639Y030125D01*
X04966Y030075D01*
X04966Y030074D01*
X049661Y030074D01*
X049686Y029961D01*
X049686Y029961D01*
X049686Y029961D01*
X049702Y029882D01*
X049702Y029882D01*
X049702Y029882D01*
X049715Y029794D01*
X049715Y029794D01*
X049715Y029793D01*
Y029702D01*
X049715Y029701D01*
X049715Y029701D01*
X049706Y029572D01*
X049706Y029572D01*
X049706Y029572D01*
X049698Y029464D01*
X049698Y029463D01*
X049698Y029463D01*
X04969Y029413D01*
X04969Y029413D01*
X04969Y029413D01*
X049673Y029325D01*
X049673Y029325D01*
X049673Y029325D01*
X049662Y02929D01*
X049662Y02929D01*
X049662Y02929D01*
X049634Y029226D01*
X049634Y029225D01*
X049634Y029225D01*
X049598Y029173D01*
X049597Y029172D01*
X049597Y029172D01*
X049541Y029108D01*
X049541Y029108D01*
X04954Y029107D01*
X049527Y029097D01*
X049527Y029064D01*
X049527Y029063D01*
X049527Y029062D01*
X049526Y029061D01*
X049526Y02906D01*
X049525Y029059D01*
X049524Y029058D01*
X049523Y029058D01*
X049521Y029058D01*
X04952Y029058D01*
X049519Y029058D01*
X049415Y029087D01*
X049414Y029088D01*
X049413Y029088D01*
X049359Y029121D01*
X049359Y029122D01*
X049359Y029122D01*
X049263Y029197D01*
X049262Y029197D01*
X049262Y029198D01*
X049178Y029306D01*
X049178Y029307D01*
X049178Y029307D01*
X04914Y029374D01*
X04914Y029374D01*
X04914Y029374D01*
X049102Y029474D01*
X049073Y029549D01*
X049073Y02955D01*
X049073Y02955D01*
X049052Y029633D01*
X049052Y029633D01*
X049052Y029633D01*
X049031Y029717D01*
X049032Y029717D01*
X049031Y029718D01*
X049027Y029793D01*
X049027Y029793D01*
X049027Y029793D01*
Y029952D01*
X049027Y029952D01*
X049027Y029952D01*
X049035Y030048D01*
X049035Y030048D01*
X049035Y030048D01*
X049048Y030161D01*
X049048Y030161D01*
X049048Y030162D01*
X049077Y030241D01*
X049077Y030241D01*
X049077Y030241D01*
X049107Y030316D01*
X049107Y030317D01*
X049107Y030317D01*
X049166Y030413D01*
X049166Y030413D01*
X049166Y030414D01*
X049211Y03048D01*
X049232Y030521D01*
X049234Y030523D01*
X049236Y030524D01*
X049236Y030524D01*
X049236Y030524D01*
X049238Y030524D01*
D02*
G37*
G36*
X04879Y029294D02*
X048791Y029293D01*
X048791Y029294D01*
X048883Y029269D01*
X048883Y029268D01*
X048883Y029268D01*
X04895Y029247D01*
X04895Y029247D01*
X048951Y029247D01*
X049022Y02921D01*
X049023Y029209D01*
X049084Y029176D01*
X049085Y029176D01*
X049085Y029176D01*
X049206Y029097D01*
X049206Y029096D01*
X049207Y029095D01*
X049324Y028945D01*
X049324Y028945D01*
X049324Y028945D01*
X049403Y028816D01*
X049403Y028816D01*
X049403Y028816D01*
X049428Y028774D01*
X049429Y028772D01*
X049429Y02877D01*
X049409Y028632D01*
X049408Y028631D01*
X049408Y028631D01*
X049407Y02863D01*
X049407Y028628D01*
X049406Y028628D01*
X049406Y028628D01*
X049406Y028628D01*
X049405Y028627D01*
X049238Y028548D01*
X049238Y028548D01*
X049237Y028548D01*
X049049Y028506D01*
X049049Y028506D01*
X049048Y028506D01*
X048903Y028502D01*
X048902Y028502D01*
X048901Y028502D01*
X048726Y028527D01*
X048726Y028527D01*
X048726Y028527D01*
X048613Y02856D01*
X048613Y02856D01*
X048612D01*
X048542Y02859D01*
X048541Y02859D01*
X04854Y028591D01*
X04849Y028628D01*
X04849Y028628D01*
X04849Y028628D01*
X048411Y028691D01*
X04841Y028691D01*
X04841Y028691D01*
X048348Y028758D01*
X048347Y028759D01*
X048347Y028759D01*
X048242Y028938D01*
X048242Y028938D01*
X048242Y028939D01*
X048192Y029043D01*
X048192Y029043D01*
X048192Y029043D01*
X048163Y029114D01*
X048163Y029116D01*
X048163Y029118D01*
X048163Y029118D01*
X048163Y029119D01*
X048164Y02912D01*
X048165Y029122D01*
X048274Y029193D01*
X048274Y029193D01*
X048274Y029193D01*
X048395Y029255D01*
X048396Y029255D01*
X048396Y029256D01*
X048471Y029281D01*
X048471Y029281D01*
X048471Y029281D01*
X04853Y029297D01*
X04853Y029297D01*
X048531Y029298D01*
X048606Y029306D01*
X048606Y029306D01*
X048607Y029306D01*
X04879Y029294D01*
D02*
G37*
G36*
X050237Y029253D02*
X050237Y029253D01*
X050337Y029236D01*
X050338Y029236D01*
X050338Y029236D01*
X050429Y029215D01*
X05043Y029215D01*
X050431Y029215D01*
X050497Y029186D01*
X050497Y029186D01*
X050497D01*
X050564Y029157D01*
X050564Y029156D01*
X050565Y029156D01*
X050648Y029098D01*
X050649Y029096D01*
X050651Y029094D01*
X050651Y029094D01*
X050651Y029093D01*
X050651Y029091D01*
X05065Y029089D01*
X050634Y029056D01*
X050609Y028994D01*
X050609Y028994D01*
X050609Y028994D01*
X050571Y028919D01*
X050571Y028919D01*
X050571Y028919D01*
X050525Y028827D01*
X050525Y028827D01*
X050525Y028826D01*
X050475Y028763D01*
X050475Y028763D01*
X050475Y028763D01*
X050425Y028705D01*
X050424Y028704D01*
X050423Y028704D01*
X050344Y028646D01*
X050344Y028645D01*
X050344Y028645D01*
X050227Y02857D01*
X050227Y02857D01*
X050226Y02857D01*
X050126Y028532D01*
X050126Y028532D01*
X050126Y028532D01*
X050072Y028516D01*
X050071Y028516D01*
X05007Y028515D01*
X049966Y028507D01*
X049966Y028507D01*
X049965Y028507D01*
X049769Y028528D01*
X049769Y028528D01*
X049769Y028528D01*
X049681Y02854D01*
X049681Y028541D01*
X049681Y02854D01*
X049618Y028557D01*
X049618Y028557D01*
X049618Y028557D01*
X049568Y028574D01*
X049567Y028574D01*
X049566Y028574D01*
X049496Y028616D01*
X049495Y028617D01*
X049494Y028617D01*
X049494Y028618D01*
X049494Y028618D01*
X049494Y028619D01*
X049493Y02862D01*
X049493Y028621D01*
X049493Y028622D01*
X049493Y028622D01*
X049493Y028623D01*
X049513Y028752D01*
X049514Y028753D01*
X049514Y028754D01*
X049585Y028891D01*
X049585Y028892D01*
X049585Y028892D01*
X049635Y028967D01*
X049636Y028967D01*
X049636Y028968D01*
X049706Y029038D01*
X049706Y029038D01*
X049707Y029038D01*
X049795Y02911D01*
X049795Y02911D01*
X049795Y02911D01*
X049805Y029117D01*
X049805Y029117D01*
X049806Y029117D01*
X049826Y02913D01*
X049826Y02913D01*
X049826Y02913D01*
X049847Y029141D01*
X049847Y029141D01*
X049847Y029141D01*
X049869Y029152D01*
X049869Y029152D01*
X049869Y029152D01*
X04988Y029156D01*
X04995Y02919D01*
X04995Y02919D01*
X049951Y02919D01*
X050042Y029228D01*
X050043Y029228D01*
X050043Y029228D01*
X050123Y029245D01*
X050123Y029245D01*
X050124Y029245D01*
X050236Y029253D01*
X050237Y029253D01*
D02*
G37*
G36*
X02034Y029798D02*
X020353Y029768D01*
Y028768D01*
X02034Y028738D01*
X02031Y028725D01*
X01981D01*
X01978Y028738D01*
X019767Y028768D01*
Y029768D01*
X01978Y029798D01*
X01981Y029811D01*
X02031D01*
X02034Y029798D01*
D02*
G37*
G36*
X048273Y028428D02*
X048274Y028428D01*
X048444Y028415D01*
X048445Y028415D01*
X048446Y028415D01*
X048579Y028377D01*
X048579Y028377D01*
X04858Y028377D01*
X048759Y028302D01*
X048759Y028302D01*
X04876Y028302D01*
X048847Y028252D01*
X048848Y028251D01*
X048848Y028251D01*
X048898Y028205D01*
X048899Y028204D01*
X048899Y028204D01*
X048941Y028146D01*
X048941Y028146D01*
X048941Y028146D01*
X048991Y028071D01*
X048991Y02807D01*
X048991Y02807D01*
X049074Y027941D01*
X049074Y027941D01*
X049075Y027941D01*
X0491Y027891D01*
X049129Y027833D01*
X049129Y027831D01*
X04913Y02783D01*
Y027813D01*
X049129Y027812D01*
X049129Y027811D01*
X04908Y027687D01*
X04908Y027687D01*
X04908Y027686D01*
X049079Y027686D01*
X049079Y027685D01*
X049078Y027685D01*
X049077Y027684D01*
X049076Y027684D01*
X049076Y027683D01*
X049Y027665D01*
X048946Y027649D01*
X048946Y027649D01*
X048945Y027648D01*
X048866Y027632D01*
X048866Y027632D01*
X048866Y027632D01*
X048758Y027611D01*
X048758Y027611D01*
X048758Y027611D01*
X048662Y027594D01*
X048661Y027594D01*
X048661Y027594D01*
X048569D01*
X048569Y027594D01*
X048568Y027594D01*
X048477Y027602D01*
X048476Y027603D01*
X048476Y027602D01*
X048405Y027619D01*
X048405Y027619D01*
X048405Y027619D01*
X048305Y027649D01*
X048304Y027649D01*
X048304Y027649D01*
X048191Y027711D01*
X048191Y027712D01*
X048191Y027712D01*
X048132Y027749D01*
X048132Y02775D01*
X048131Y02775D01*
X048014Y027871D01*
X048014Y027871D01*
X048014Y027871D01*
X047944Y027946D01*
X047944Y027946D01*
X047943Y027946D01*
X047897Y028001D01*
X047897Y028001D01*
X047897Y028002D01*
X047863Y028064D01*
X047797Y02818D01*
X047797Y028181D01*
X047797Y028181D01*
X047763Y028243D01*
X047763Y028245D01*
X047763Y028248D01*
X047763Y028248D01*
X047763Y028248D01*
X047764Y02825D01*
X047765Y028252D01*
X047882Y028331D01*
X047883Y028331D01*
X047883Y028331D01*
X047958Y028365D01*
X047958Y028365D01*
X047959Y028365D01*
X048055Y028394D01*
X048055Y028394D01*
X048055Y028394D01*
X048142Y028419D01*
X048143Y028419D01*
X048144Y028419D01*
X048273Y028428D01*
X048273Y028428D01*
D02*
G37*
G36*
X050013Y028278D02*
X050014Y028278D01*
X050093Y02827D01*
X050094Y02827D01*
X050094Y02827D01*
X050169Y028249D01*
X050319Y028212D01*
X05032Y028211D01*
X05032D01*
X05037Y028191D01*
X05037Y02819D01*
X050371Y02819D01*
X050483Y028132D01*
X050483Y028132D01*
X050484Y028132D01*
X050584Y028065D01*
X050584Y028065D01*
X050584Y028065D01*
X050626Y028031D01*
X050626Y02803D01*
X050628Y028029D01*
X050628Y028028D01*
X050628Y028027D01*
X050628Y028026D01*
X050628Y028024D01*
X050599Y027949D01*
X050598Y027949D01*
X050598Y027948D01*
X050552Y027861D01*
X050552Y027861D01*
X050552Y027861D01*
X050519Y027798D01*
X050519Y027798D01*
X050519Y027798D01*
X050431Y027673D01*
X050431Y027672D01*
X050431Y027672D01*
X050372Y027613D01*
X050372Y027613D01*
X050371Y027613D01*
X050305Y027567D01*
X050304Y027567D01*
X050304Y027566D01*
X050237Y027533D01*
X050237Y027533D01*
X050237Y027533D01*
X050141Y027487D01*
X050141Y027487D01*
X050141Y027487D01*
X050083Y027462D01*
X050082Y027462D01*
X050081Y027462D01*
X049981Y027445D01*
X049981Y027445D01*
X04998Y027445D01*
X04983Y027441D01*
X04983Y027441D01*
X04983Y027441D01*
X049671Y027449D01*
X049671Y027449D01*
X04967Y027449D01*
X04955Y027474D01*
X049549Y027474D01*
X049549Y027474D01*
X049449Y027504D01*
X049449Y027504D01*
X049448Y027504D01*
X049348Y02755D01*
X049348Y02755D01*
X049348Y02755D01*
X049273Y027596D01*
X049272Y027596D01*
X049272Y027596D01*
X049218Y027638D01*
X049218Y027638D01*
X049217Y027638D01*
X049217Y027639D01*
X049216Y02764D01*
X049216Y027641D01*
X049215Y027642D01*
X049215Y027643D01*
X049215Y027643D01*
X049216Y027644D01*
X049216Y027645D01*
X049295Y027895D01*
X049296Y027897D01*
X049297Y027898D01*
X049322Y027914D01*
X049413Y028022D01*
X049454Y028072D01*
X049455Y028072D01*
X049455Y028073D01*
X049517Y028127D01*
X049518Y028127D01*
X049518Y028127D01*
X049623Y028194D01*
X049623Y028194D01*
X049623Y028194D01*
X049711Y028236D01*
X049711Y028236D01*
X049712Y028237D01*
X049862Y028266D01*
X049862Y028266D01*
X049863Y028266D01*
X050013Y028278D01*
X050013Y028278D01*
D02*
G37*
G36*
X020358Y028446D02*
X020374Y028408D01*
Y027408D01*
X020358Y02737D01*
X02032Y027354D01*
X01982D01*
X019782Y02737D01*
X019766Y027408D01*
Y028408D01*
X019782Y028446D01*
X01982Y028462D01*
X02032D01*
X020358Y028446D01*
D02*
G37*
G36*
X017651Y031106D02*
X017672D01*
Y031095D01*
X017694D01*
Y031084D01*
X017704D01*
Y031063D01*
X017715D01*
Y031041D01*
X017726D01*
Y027322D01*
X017715D01*
Y027301D01*
X017704D01*
Y027279D01*
X017694D01*
Y027268D01*
X017672D01*
Y027257D01*
X017651D01*
Y027247D01*
X016745D01*
Y027257D01*
X016723D01*
Y027268D01*
X016702D01*
Y027279D01*
X016691D01*
Y027301D01*
X01668D01*
Y027322D01*
X01667D01*
Y031041D01*
X01668D01*
Y031063D01*
X016691D01*
Y031084D01*
X016702D01*
Y031095D01*
X016723D01*
Y031106D01*
X016745D01*
Y031117D01*
X017651D01*
Y031106D01*
D02*
G37*
%LPC*%
G36*
X01764Y031052D02*
X016756D01*
Y031041D01*
X016745D01*
Y03103D01*
X016734D01*
Y027333D01*
X016745D01*
Y027322D01*
X016756D01*
Y027311D01*
X01764D01*
Y027322D01*
X017651D01*
Y027333D01*
X017661D01*
Y03103D01*
X017651D01*
Y031041D01*
X01764D01*
Y031052D01*
D02*
G37*
%LPD*%
G36*
X01737Y030879D02*
X017403D01*
Y030869D01*
X017424D01*
Y030858D01*
X017435D01*
Y030847D01*
X017446D01*
Y030836D01*
X017457D01*
Y030815D01*
X017467D01*
Y030739D01*
X017457D01*
Y030718D01*
X017446D01*
Y030707D01*
X017457D01*
Y030696D01*
X017467D01*
Y030664D01*
X017457D01*
Y030653D01*
X017392D01*
Y030642D01*
X017327D01*
Y030632D01*
X017295D01*
Y030642D01*
X017284D01*
Y030664D01*
X017295D01*
Y030685D01*
X017306D01*
Y030696D01*
X017338D01*
Y030707D01*
X017359D01*
Y030718D01*
X017381D01*
Y030729D01*
X017403D01*
Y030739D01*
X017413D01*
Y030761D01*
X017424D01*
Y030772D01*
X017413D01*
Y030793D01*
X017359D01*
Y030782D01*
X017338D01*
Y030772D01*
X017316D01*
Y030761D01*
X017295D01*
Y03075D01*
X017273D01*
Y030739D01*
X017262D01*
Y030729D01*
X017241D01*
Y030718D01*
X017219D01*
Y030707D01*
X017209D01*
Y030696D01*
X017187D01*
Y030685D01*
X017165D01*
Y030675D01*
X017144D01*
Y030664D01*
X017122D01*
Y030653D01*
X017101D01*
Y030642D01*
X017068D01*
Y030632D01*
X017015D01*
Y030621D01*
X016971D01*
Y030632D01*
X016918D01*
Y030642D01*
X016896D01*
Y030653D01*
X016874D01*
Y030664D01*
X016864D01*
Y030675D01*
X016853D01*
Y030696D01*
X016842D01*
Y030761D01*
X016853D01*
Y030782D01*
X016864D01*
Y030804D01*
X016853D01*
Y030815D01*
X016842D01*
Y030858D01*
X016896D01*
Y030869D01*
X016961D01*
Y030879D01*
X017015D01*
Y030836D01*
X017004D01*
Y030826D01*
X016993D01*
Y030815D01*
X016971D01*
Y030804D01*
X01695D01*
Y030793D01*
X016928D01*
Y030782D01*
X016907D01*
Y030772D01*
X016896D01*
Y030729D01*
X016939D01*
Y030739D01*
X016971D01*
Y03075D01*
X016993D01*
Y030761D01*
X017015D01*
Y030772D01*
X017036D01*
Y030782D01*
X017047D01*
Y030793D01*
X017068D01*
Y030804D01*
X01709D01*
Y030815D01*
X017101D01*
Y030826D01*
X017122D01*
Y030836D01*
X017144D01*
Y030847D01*
X017165D01*
Y030858D01*
X017187D01*
Y030869D01*
X017219D01*
Y030879D01*
X017252D01*
Y03089D01*
X01737D01*
Y030879D01*
D02*
G37*
G36*
Y030588D02*
X017403D01*
Y030578D01*
X017424D01*
Y030567D01*
X017435D01*
Y030556D01*
X017446D01*
Y030545D01*
X017457D01*
Y030524D01*
X017467D01*
Y030448D01*
X017457D01*
Y030427D01*
X017446D01*
Y030416D01*
X017457D01*
Y030405D01*
X017467D01*
Y030373D01*
X017457D01*
Y030362D01*
X017392D01*
Y030351D01*
X017327D01*
Y03034D01*
X017295D01*
Y030351D01*
X017284D01*
Y030373D01*
X017295D01*
Y030394D01*
X017306D01*
Y030405D01*
X017338D01*
Y030416D01*
X017359D01*
Y030427D01*
X017381D01*
Y030438D01*
X017403D01*
Y030448D01*
X017413D01*
Y03047D01*
X017424D01*
Y030481D01*
X017413D01*
Y030502D01*
X017359D01*
Y030491D01*
X017338D01*
Y030481D01*
X017316D01*
Y03047D01*
X017295D01*
Y030459D01*
X017273D01*
Y030448D01*
X017262D01*
Y030438D01*
X017241D01*
Y030427D01*
X017219D01*
Y030416D01*
X017209D01*
Y030405D01*
X017187D01*
Y030394D01*
X017165D01*
Y030384D01*
X017144D01*
Y030373D01*
X017122D01*
Y030362D01*
X017101D01*
Y030351D01*
X017068D01*
Y03034D01*
X017015D01*
Y03033D01*
X016971D01*
Y03034D01*
X016918D01*
Y030351D01*
X016896D01*
Y030362D01*
X016874D01*
Y030373D01*
X016864D01*
Y030384D01*
X016853D01*
Y030405D01*
X016842D01*
Y03047D01*
X016853D01*
Y030491D01*
X016864D01*
Y030513D01*
X016853D01*
Y030524D01*
X016842D01*
Y030567D01*
X016896D01*
Y030578D01*
X016961D01*
Y030588D01*
X017015D01*
Y030545D01*
X017004D01*
Y030535D01*
X016993D01*
Y030524D01*
X016971D01*
Y030513D01*
X01695D01*
Y030502D01*
X016928D01*
Y030491D01*
X016907D01*
Y030481D01*
X016896D01*
Y03047D01*
Y030438D01*
X016939D01*
Y030448D01*
X016971D01*
Y030459D01*
X016993D01*
Y03047D01*
X017015D01*
Y030481D01*
X017036D01*
Y030491D01*
X017047D01*
Y030502D01*
X017068D01*
Y030513D01*
X01709D01*
Y030524D01*
X017101D01*
Y030535D01*
X017122D01*
Y030545D01*
X017144D01*
Y030556D01*
X017165D01*
Y030567D01*
X017187D01*
Y030578D01*
X017219D01*
Y030588D01*
X017252D01*
Y030599D01*
X01737D01*
Y030588D01*
D02*
G37*
G36*
X017252Y030287D02*
X017295D01*
Y030276D01*
X017327D01*
Y030265D01*
X017359D01*
Y030254D01*
X017381D01*
Y030243D01*
X017392D01*
Y030233D01*
X017413D01*
Y030222D01*
X017424D01*
Y030211D01*
X017435D01*
Y0302D01*
X017446D01*
Y030179D01*
X017457D01*
Y030157D01*
X017467D01*
Y03006D01*
X017457D01*
Y030028D01*
X017446D01*
Y030017D01*
X017435D01*
Y030006D01*
X017424D01*
Y029996D01*
X017413D01*
Y029985D01*
X017403D01*
Y029974D01*
X017381D01*
Y029963D01*
X017359D01*
Y029952D01*
X017338D01*
Y029942D01*
X017295D01*
Y029931D01*
X017252D01*
Y02992D01*
X017068D01*
Y029931D01*
X017015D01*
Y029942D01*
X016982D01*
Y029952D01*
X01695D01*
Y029963D01*
X016928D01*
Y029974D01*
X016918D01*
Y029985D01*
X016907D01*
Y029996D01*
X016885D01*
Y030006D01*
X016874D01*
Y030028D01*
X016864D01*
Y030039D01*
X016853D01*
Y030071D01*
X016842D01*
Y030146D01*
X016853D01*
Y030179D01*
X016864D01*
Y03019D01*
X016874D01*
Y030211D01*
X016885D01*
Y030222D01*
X016907D01*
Y030233D01*
X016918D01*
Y030243D01*
X016939D01*
Y030254D01*
X016961D01*
Y030265D01*
X016982D01*
Y030276D01*
X017015D01*
Y030287D01*
X017068D01*
Y030297D01*
X017252D01*
Y030287D01*
D02*
G37*
G36*
X017457Y029877D02*
X017467D01*
Y029758D01*
X017457D01*
Y029748D01*
X017446D01*
Y029737D01*
X017424D01*
Y029726D01*
X017209D01*
Y029715D01*
X017198D01*
Y029661D01*
X017392D01*
Y029672D01*
X017413D01*
Y029683D01*
X017457D01*
Y029672D01*
X017467D01*
Y02951D01*
X017457D01*
Y0295D01*
X017446D01*
Y029489D01*
X017424D01*
Y0295D01*
X017403D01*
Y029521D01*
X016907D01*
Y0295D01*
X016896D01*
Y029489D01*
X016864D01*
Y0295D01*
X016853D01*
Y029769D01*
X016864D01*
Y029791D01*
X016874D01*
Y029812D01*
X016885D01*
Y029823D01*
X016896D01*
Y029834D01*
X016907D01*
Y029845D01*
X016918D01*
Y029855D01*
X016939D01*
Y029866D01*
X016971D01*
Y029877D01*
X017068D01*
Y029866D01*
X017101D01*
Y029855D01*
X017112D01*
Y029845D01*
X017122D01*
Y029834D01*
X017133D01*
Y029823D01*
X017144D01*
Y029812D01*
X017155D01*
Y029791D01*
X017165D01*
Y029769D01*
X017176D01*
Y029801D01*
X017187D01*
Y029812D01*
X017198D01*
Y029834D01*
X017209D01*
Y029845D01*
X01723D01*
Y029855D01*
X017252D01*
Y029866D01*
X017403D01*
Y029877D01*
X017413D01*
Y029888D01*
X017457D01*
Y029877D01*
D02*
G37*
G36*
X017392Y029457D02*
X017413D01*
Y029446D01*
X017435D01*
Y029435D01*
X017446D01*
Y029413D01*
X017457D01*
Y029403D01*
X017467D01*
Y029306D01*
X017457D01*
Y029284D01*
X017446D01*
Y029273D01*
X017435D01*
Y029262D01*
X017424D01*
Y029252D01*
X017413D01*
Y029241D01*
X017392D01*
Y02923D01*
X01737D01*
Y029219D01*
X017349D01*
Y029209D01*
X017316D01*
Y029198D01*
X017262D01*
Y029187D01*
X017025D01*
Y029198D01*
X016982D01*
Y029209D01*
X016961D01*
Y029219D01*
X016928D01*
Y02923D01*
X016907D01*
Y029241D01*
X016896D01*
Y029252D01*
X016885D01*
Y029262D01*
X016874D01*
Y029273D01*
X016864D01*
Y029284D01*
X016853D01*
Y029306D01*
X016842D01*
Y02937D01*
X016853D01*
Y029392D01*
X016864D01*
Y029403D01*
X016853D01*
Y029413D01*
X016842D01*
Y029457D01*
X016874D01*
Y029467D01*
X017025D01*
Y029424D01*
X017015D01*
Y029413D01*
X016971D01*
Y029403D01*
X016928D01*
Y029392D01*
X016907D01*
Y029381D01*
X016896D01*
Y02936D01*
X016907D01*
Y029349D01*
X017413D01*
Y02936D01*
X017424D01*
Y029381D01*
X017413D01*
Y029392D01*
X017392D01*
Y029403D01*
X017338D01*
Y029413D01*
X017316D01*
Y029467D01*
X017392D01*
Y029457D01*
D02*
G37*
G36*
X017457Y029144D02*
X017467D01*
Y028971D01*
X017457D01*
Y028961D01*
X017424D01*
Y028971D01*
X017413D01*
Y028982D01*
X017403D01*
Y028993D01*
X017359D01*
Y028982D01*
X017327D01*
Y028885D01*
X017403D01*
Y028896D01*
X017413D01*
Y028907D01*
X017424D01*
Y028918D01*
X017457D01*
Y028907D01*
X017467D01*
Y028799D01*
X017457D01*
Y028788D01*
X017424D01*
Y028799D01*
X017413D01*
Y02881D01*
X017392D01*
Y028821D01*
X017349D01*
Y028831D01*
X017273D01*
Y028842D01*
X017209D01*
Y028853D01*
X017144D01*
Y028864D01*
X017079D01*
Y028874D01*
X017015D01*
Y028885D01*
X016939D01*
Y028896D01*
X016918D01*
Y028885D01*
X016907D01*
Y028874D01*
X016885D01*
Y028864D01*
X016864D01*
Y028874D01*
X016853D01*
Y029047D01*
X016874D01*
Y029058D01*
X01695D01*
Y029068D01*
X017015D01*
Y029079D01*
X01709D01*
Y02909D01*
X017165D01*
Y029101D01*
X01723D01*
Y029112D01*
X017306D01*
Y029122D01*
X01737D01*
Y029133D01*
X017403D01*
Y029144D01*
X017413D01*
Y029155D01*
X017457D01*
Y029144D01*
D02*
G37*
G36*
X016982Y028799D02*
X016993D01*
Y028756D01*
X016971D01*
Y028745D01*
X016918D01*
Y028734D01*
X016896D01*
Y028713D01*
X017403D01*
Y028723D01*
X017413D01*
Y028734D01*
X017424D01*
Y028745D01*
X017446D01*
Y028734D01*
X017457D01*
Y028723D01*
X017467D01*
Y028551D01*
X017457D01*
Y02854D01*
X017413D01*
Y028551D01*
X017403D01*
Y028562D01*
X017392D01*
Y028573D01*
X016896D01*
Y02854D01*
X016918D01*
Y028529D01*
X016982D01*
Y028519D01*
X016993D01*
Y028465D01*
X016907D01*
Y028476D01*
X016853D01*
Y028767D01*
Y028777D01*
Y028799D01*
X01695D01*
Y02881D01*
X016982D01*
Y028799D01*
D02*
G37*
G36*
X017359Y028497D02*
X017435D01*
Y028486D01*
X017457D01*
Y028476D01*
X017467D01*
Y028217D01*
X017457D01*
Y028206D01*
X017424D01*
Y028217D01*
X017413D01*
Y028228D01*
X017403D01*
Y028238D01*
X016907D01*
Y028217D01*
X016885D01*
Y028206D01*
X016864D01*
Y028217D01*
X016853D01*
Y028411D01*
X016907D01*
Y028389D01*
X016918D01*
Y028379D01*
X017413D01*
Y028422D01*
X017403D01*
Y028432D01*
X01737D01*
Y028443D01*
X017338D01*
Y028454D01*
X017327D01*
Y028465D01*
X017316D01*
Y028497D01*
X017327D01*
Y028508D01*
X017359D01*
Y028497D01*
D02*
G37*
G36*
X01737Y028174D02*
X017435D01*
Y028163D01*
X017457D01*
Y028152D01*
X017467D01*
Y027893D01*
X017457D01*
Y027883D01*
X017413D01*
Y027904D01*
X017403D01*
Y027915D01*
X016907D01*
Y027893D01*
X016896D01*
Y027883D01*
X016853D01*
Y028152D01*
X016864D01*
Y028163D01*
X016918D01*
Y028174D01*
X016982D01*
Y028131D01*
X016971D01*
Y02812D01*
X016939D01*
Y028109D01*
X016918D01*
Y028098D01*
X016896D01*
Y028055D01*
X017112D01*
Y028098D01*
X01709D01*
Y028109D01*
X017058D01*
Y02812D01*
X017047D01*
Y028141D01*
X017058D01*
Y028152D01*
X017068D01*
Y028163D01*
X017209D01*
Y028152D01*
X017219D01*
Y028109D01*
X017187D01*
Y028098D01*
X017165D01*
Y028087D01*
X017155D01*
Y028055D01*
X017413D01*
Y028098D01*
X017403D01*
Y028109D01*
X017381D01*
Y02812D01*
X017349D01*
Y028131D01*
X017327D01*
Y028141D01*
X017316D01*
Y028184D01*
X01737D01*
Y028174D01*
D02*
G37*
G36*
X017273Y02784D02*
X017316D01*
Y027829D01*
X017349D01*
Y027818D01*
X01737D01*
Y027807D01*
X017392D01*
Y027796D01*
X017403D01*
Y027786D01*
X017413D01*
Y027775D01*
X017424D01*
Y027764D01*
X017435D01*
Y027753D01*
X017446D01*
Y027732D01*
X017457D01*
Y027689D01*
X017467D01*
Y027473D01*
X017457D01*
Y027462D01*
X017413D01*
Y027473D01*
X017403D01*
Y027484D01*
X017392D01*
Y027495D01*
X016918D01*
Y027484D01*
X016907D01*
Y027473D01*
X016896D01*
Y027462D01*
X016853D01*
Y027721D01*
X016864D01*
Y027743D01*
X016874D01*
Y027764D01*
X016885D01*
Y027775D01*
X016896D01*
Y027786D01*
X016907D01*
Y027796D01*
X016918D01*
Y027807D01*
X016939D01*
Y027818D01*
X016961D01*
Y027829D01*
X016993D01*
Y02784D01*
X017036D01*
Y02785D01*
X017273D01*
Y02784D01*
D02*
G37*
%LPC*%
G36*
X017413Y030136D02*
X016896D01*
Y030125D01*
X016885D01*
Y030093D01*
X016896D01*
Y030082D01*
X017413D01*
Y030093D01*
X017424D01*
Y030125D01*
X017413D01*
Y030136D01*
D02*
G37*
G36*
X017122Y029726D02*
X016918D01*
Y029715D01*
X016907D01*
Y029704D01*
X016896D01*
Y029661D01*
X017144D01*
Y029715D01*
X017122D01*
Y029726D01*
D02*
G37*
G36*
X017284Y028971D02*
X017209D01*
Y028961D01*
X017133D01*
Y02895D01*
X017047D01*
Y028939D01*
X017025D01*
Y028928D01*
X017101D01*
Y028918D01*
X017165D01*
Y028907D01*
X017241D01*
Y028896D01*
X017284D01*
Y028971D01*
D02*
G37*
G36*
X017403Y027689D02*
X016918D01*
Y027678D01*
X016907D01*
Y027667D01*
X016896D01*
Y027635D01*
X017424D01*
Y027667D01*
X017413D01*
Y027678D01*
X017403D01*
Y027689D01*
D02*
G37*
%LPD*%
D10*
X02999Y04031D02*
G03*
X02999Y04007I0J-00012D01*
G01*
D11*
X045584Y033115D02*
G03*
X042588Y033111I-001504J004135D01*
G01*
X046104Y02893D02*
G03*
X046104Y02893I-002574J0D01*
G01*
X04558Y031912D02*
Y0331D01*
X04258Y031912D02*
X04558D01*
X04258D02*
Y0331D01*
X044675Y029936D02*
Y030386D01*
X044451D01*
X044376Y030311D01*
Y030236D01*
X044451Y030161D01*
X044675D01*
X044451D01*
X044376Y030086D01*
Y030011D01*
X044451Y029936D01*
X044675D01*
X044226Y030011D02*
X043926Y030311D01*
X044226D02*
X043926Y030011D01*
X044226Y030161D02*
X043926D01*
X044076Y030311D02*
Y030011D01*
X043776Y030386D02*
X043626D01*
X043701D01*
Y029936D01*
X043776Y030011D01*
D12*
X031688Y030112D02*
G03*
X031688Y030112I-000049J0D01*
G01*
X035988Y030122D02*
G03*
X035988Y030122I-000049J0D01*
G01*
X040049Y028579D02*
G03*
X040049Y028579I-000049J0D01*
G01*
X026721Y030069D02*
G03*
X026721Y030069I-000049J0D01*
G01*
D13*
X025537Y034671D02*
G03*
X025537Y034671I-000059J0D01*
G01*
X027831Y04393D02*
X031949D01*
Y04287D02*
Y04393D01*
X027831Y04287D02*
X031949D01*
X027831D02*
Y04393D01*
X01785D02*
X020969D01*
Y04287D02*
Y04393D01*
X01785Y04287D02*
X020969D01*
X01785D02*
Y04393D01*
X021881D02*
X026999D01*
Y04287D02*
Y04393D01*
X021881Y04287D02*
X026999D01*
X021881D02*
Y04393D01*
X01891Y037791D02*
Y041909D01*
X01785Y037791D02*
X01891D01*
X01785D02*
Y041909D01*
X01891D01*
X029001Y029521D02*
X031639D01*
X029001Y028419D02*
X031639D01*
Y029521D01*
X029001Y028419D02*
Y029521D01*
X033301Y029531D02*
X035939D01*
X033301Y028429D02*
X035939D01*
Y029531D01*
X033301Y028429D02*
Y029531D01*
X023557Y028228D02*
Y029292D01*
X024743Y028228D02*
Y029292D01*
X026701Y027647D02*
Y029813D01*
X025599Y027647D02*
Y029813D01*
X026613D02*
X026701D01*
X026613Y027647D02*
X026701D01*
X025599Y029813D02*
X025687D01*
X025599Y027647D02*
X025687D01*
D14*
X02399Y035019D02*
G03*
X02219Y03501I-0009J-000006D01*
G01*
X02219Y03291D02*
G03*
X023989Y03291I000899J-00003D01*
G01*
X02384Y035007D02*
G03*
X02234Y035I-00075J-000005D01*
G01*
Y03287D02*
G03*
X02384Y032877I00075J000005D01*
G01*
X036763Y038506D02*
G03*
X038411Y039131I000547J001044D01*
G01*
X038401Y039969D02*
G03*
X036753Y040594I-001101J-000419D01*
G01*
X02032Y027408D02*
Y028408D01*
X01982Y027408D02*
X02032D01*
X01982D02*
Y028408D01*
X02032D01*
X01981Y028768D02*
Y029768D01*
Y028768D02*
X02031D01*
Y029768D01*
X01981D02*
X02031D01*
X0231Y03344D02*
Y03375D01*
X02271D02*
X02345D01*
X0231Y03416D02*
Y03446D01*
X02271Y03416D02*
X02346D01*
X02219Y03291D02*
Y03501D01*
X02399Y03291D02*
Y035019D01*
X02234Y0329D02*
Y035D01*
X02384Y03289D02*
Y03499D01*
X03586Y04033D02*
Y04084D01*
Y03824D02*
Y03875D01*
X03876Y039135D02*
Y04001D01*
X03867Y04055D02*
X03876Y04001D01*
X03836Y04086D02*
X03867Y04055D01*
X03661Y04086D02*
X03836D01*
X036Y03887D02*
Y04024D01*
X03662Y03825D02*
X03837D01*
X03867Y03855D01*
X03876Y039135D01*
X03659Y03888D02*
Y04023D01*
X03716Y04047D02*
X03743D01*
X03716Y0397D02*
Y04047D01*
X03686Y0397D02*
X03716D01*
X03686Y03943D02*
Y0397D01*
Y03943D02*
X03715D01*
Y03863D02*
Y03943D01*
Y03863D02*
X03744D01*
Y03942D01*
X03769D01*
Y03969D01*
X03743D02*
X03769D01*
X03743D02*
Y04046D01*
D15*
X01988Y0353D02*
Y036D01*
X02133D02*
X02143Y0359D01*
X02133Y0353D02*
X02143Y0354D01*
Y0359D01*
X01988Y036D02*
X02043D01*
X02083D02*
X02133D01*
X01988Y0353D02*
X02043D01*
X02083D02*
X02133D01*
X01988Y03635D02*
Y03705D01*
X02133D02*
X02143Y03695D01*
X02133Y03635D02*
X02143Y03645D01*
Y03695D01*
X01988Y03705D02*
X02043D01*
X02083D02*
X02133D01*
X01988Y03635D02*
X02043D01*
X02083D02*
X02133D01*
X03215Y02883D02*
X03282D01*
Y0273D02*
Y02883D01*
X03215Y0273D02*
X03282D01*
X03215D02*
Y02883D01*
X02746Y02908D02*
X02813D01*
Y02755D02*
Y02908D01*
X02746Y02755D02*
X02813D01*
X02746D02*
Y02908D01*
X03215Y02891D02*
X03282D01*
X03215D02*
Y03044D01*
X03282D01*
Y02891D02*
Y03044D01*
X03641Y03045D02*
X03708D01*
Y02892D02*
Y03045D01*
X03641Y02892D02*
X03708D01*
X03641D02*
Y03045D01*
X026423Y034927D02*
X026576D01*
X026423Y034774D02*
Y034927D01*
Y032093D02*
Y032246D01*
Y032093D02*
X026576D01*
X029104D02*
X029257D01*
Y032246D01*
Y034774D02*
Y034927D01*
X029104D02*
X029257D01*
D16*
X02971Y04149D02*
X02999D01*
Y04031D02*
Y04149D01*
Y04007D02*
Y04031D01*
Y03889D02*
Y04007D01*
X01939Y03889D02*
X01971D01*
X01939D02*
Y04149D01*
X01971D01*
X02967Y03889D02*
X02999D01*
X026487Y042731D02*
X026354D01*
X026421D01*
Y042331D01*
X026487Y042397D01*
X022323Y042331D02*
X02259D01*
Y042531D01*
X022456Y042464D01*
X02239D01*
X022323Y042531D01*
Y042664D01*
X02239Y042731D01*
X022523D01*
X02259Y042664D01*
D17*
X03224Y02789D02*
Y02823D01*
X03274Y02789D02*
Y02823D01*
X02755Y02814D02*
Y02848D01*
X02805Y02814D02*
Y02848D01*
X03273Y02951D02*
Y02985D01*
X03223Y02951D02*
Y02985D01*
X0365Y02951D02*
Y02985D01*
X037Y02951D02*
Y02985D01*
D18*
X049458Y028937D02*
X04947Y029278D01*
X049453Y028846D02*
X049458Y028937D01*
X049445Y028742D02*
X049453Y028846D01*
X049437Y028637D02*
X049445Y028742D01*
X049414Y028537D02*
X049437Y028637D01*
X049377Y028366D02*
X049414Y028537D01*
X049339Y0282D02*
X049377Y028366D01*
X049327Y028146D02*
X049339Y0282D01*
X049202Y027791D02*
X049327Y028146D01*
X049131Y027621D02*
X049202Y027791D01*
X049052Y027504D02*
X049131Y027621D01*
X048981Y027412D02*
X049052Y027504D01*
X048827Y027266D02*
X048981Y027412D01*
X04871Y027171D02*
X048827Y027266D01*
X048385Y026971D02*
X04871Y027171D01*
X048162Y026869D02*
X048385Y026971D01*
X047872Y026766D02*
X048162Y026869D01*
D19*
X0223Y027168D02*
Y030118D01*
X0198D02*
X0228D01*
Y027152D02*
Y030118D01*
X0198Y027152D02*
X0228D01*
X0198D02*
Y030118D01*
X02032Y03214D02*
X02077D01*
X02133D02*
X02178D01*
Y03436D01*
X02032Y03214D02*
Y03436D01*
X0208Y03275D02*
Y03375D01*
X0213D01*
Y03275D02*
Y03375D01*
X0208Y03275D02*
X0213D01*
X02032Y03436D02*
X02077D01*
X02133D02*
X02178D01*
X01912Y027473D02*
X019353D01*
X01947Y027589D01*
X019353Y027706D01*
X01912D01*
Y027823D02*
Y027939D01*
Y027881D01*
X01947D01*
Y027823D01*
Y027939D01*
Y028114D02*
X01912D01*
X01947Y028347D01*
X01912D01*
X019178Y029217D02*
X01912Y029158D01*
Y029042D01*
X019178Y028983D01*
X019412D01*
X01947Y029042D01*
Y029158D01*
X019412Y029217D01*
X019295D01*
Y0291D01*
X01947Y029333D02*
X01912D01*
X01947Y029567D01*
X01912D01*
Y029683D02*
X01947D01*
Y029858D01*
X019412Y029917D01*
X019178D01*
X01912Y029858D01*
Y029683D01*
X016973Y039163D02*
Y039513D01*
X017148D01*
X017207Y039455D01*
Y039338D01*
X017148Y03928D01*
X016973D01*
X01709D02*
X017207Y039163D01*
X017323Y039397D02*
X017557Y039163D01*
X01744Y03928D01*
X017557Y039397D01*
X017323Y039163D01*
X016973Y040517D02*
X017207D01*
X01709D01*
Y040167D01*
X017323Y0404D02*
X017557Y040167D01*
X01744Y040283D01*
X017557Y0404D01*
X017323Y040167D01*
X016857Y041462D02*
X016798Y04152D01*
X016682D01*
X016623Y041462D01*
Y041228D01*
X016682Y04117D01*
X016798D01*
X016857Y041228D01*
Y041345D01*
X01674D01*
X016973Y04117D02*
Y04152D01*
X017207Y04117D01*
Y04152D01*
X017323D02*
Y04117D01*
X017498D01*
X017557Y041228D01*
Y041462D01*
X017498Y04152D01*
X017323D01*
X016623Y038452D02*
X016682Y03851D01*
X016798D01*
X016857Y038452D01*
Y038393D01*
X016798Y038335D01*
X01674D01*
X016798D01*
X016857Y038277D01*
Y038218D01*
X016798Y03816D01*
X016682D01*
X016623Y038218D01*
X016973Y03851D02*
Y038277D01*
X01709Y03816D01*
X017207Y038277D01*
Y03851D01*
X017323Y038452D02*
X017382Y03851D01*
X017498D01*
X017557Y038452D01*
Y038393D01*
X017498Y038335D01*
X01744D01*
X017498D01*
X017557Y038277D01*
Y038218D01*
X017498Y03816D01*
X017382D01*
X017323Y038218D01*
X031358Y04459D02*
X031474D01*
X031416D01*
Y04424D01*
X031358D01*
X031474D01*
X031824Y04459D02*
X031707D01*
X031649Y044532D01*
Y044298D01*
X031707Y04424D01*
X031824D01*
X031882Y044298D01*
Y044532D01*
X031824Y04459D01*
X028037Y044532D02*
X027978Y04459D01*
X027862D01*
X027803Y044532D01*
Y044298D01*
X027862Y04424D01*
X027978D01*
X028037Y044298D01*
X028153Y04459D02*
Y04424D01*
X028387D01*
X028503Y04459D02*
Y04424D01*
Y044357D01*
X028737Y04459D01*
X028562Y044415D01*
X028737Y04424D01*
X030133Y044532D02*
X030192Y04459D01*
X030308D01*
X030367Y044532D01*
Y044473D01*
X030308Y044415D01*
X03025D01*
X030308D01*
X030367Y044357D01*
Y044298D01*
X030308Y04424D01*
X030192D01*
X030133Y044298D01*
X030483Y04459D02*
Y044357D01*
X0306Y04424D01*
X030717Y044357D01*
Y04459D01*
X030833Y044532D02*
X030892Y04459D01*
X031008D01*
X031067Y044532D01*
Y044473D01*
X031008Y044415D01*
X03095D01*
X031008D01*
X031067Y044357D01*
Y044298D01*
X031008Y04424D01*
X030892D01*
X030833Y044298D01*
X029217Y044532D02*
X029158Y04459D01*
X029042D01*
X028983Y044532D01*
Y044298D01*
X029042Y04424D01*
X029158D01*
X029217Y044298D01*
Y044415D01*
X0291D01*
X029333Y04424D02*
Y04459D01*
X029567Y04424D01*
Y04459D01*
X029683D02*
Y04424D01*
X029858D01*
X029917Y044298D01*
Y044532D01*
X029858Y04459D01*
X029683D01*
X026432Y044532D02*
X026373Y04459D01*
X026257D01*
X026198Y044532D01*
Y044473D01*
X026257Y044415D01*
X026373D01*
X026432Y044357D01*
Y044298D01*
X026373Y04424D01*
X026257D01*
X026198Y044298D01*
X026548Y04459D02*
Y04424D01*
X026665Y044357D01*
X026782Y04424D01*
Y04459D01*
X025248D02*
Y04424D01*
X025423D01*
X025482Y044298D01*
Y044532D01*
X025423Y04459D01*
X025248D01*
X025598D02*
X025832D01*
X025715D01*
Y04424D01*
X024472Y044532D02*
X024413Y04459D01*
X024297D01*
X024238Y044532D01*
Y044473D01*
X024297Y044415D01*
X024413D01*
X024472Y044357D01*
Y044298D01*
X024413Y04424D01*
X024297D01*
X024238Y044298D01*
X024588Y04459D02*
Y04424D01*
X024705Y044357D01*
X024822Y04424D01*
Y04459D01*
X022137Y044532D02*
X022078Y04459D01*
X021962D01*
X021903Y044532D01*
Y044298D01*
X021962Y04424D01*
X022078D01*
X022137Y044298D01*
Y044415D01*
X02202D01*
X022253Y04424D02*
Y04459D01*
X022487Y04424D01*
Y04459D01*
X022603D02*
Y04424D01*
X022778D01*
X022837Y044298D01*
Y044532D01*
X022778Y04459D01*
X022603D01*
X023073Y044532D02*
X023132Y04459D01*
X023248D01*
X023307Y044532D01*
Y044473D01*
X023248Y044415D01*
X02319D01*
X023248D01*
X023307Y044357D01*
Y044298D01*
X023248Y04424D01*
X023132D01*
X023073Y044298D01*
X023423Y04459D02*
Y044357D01*
X02354Y04424D01*
X023657Y044357D01*
Y04459D01*
X023773Y044532D02*
X023832Y04459D01*
X023948D01*
X024007Y044532D01*
Y044473D01*
X023948Y044415D01*
X02389D01*
X023948D01*
X024007Y044357D01*
Y044298D01*
X023948Y04424D01*
X023832D01*
X023773Y044298D01*
X019148Y04459D02*
X019032D01*
X018973Y044532D01*
Y044298D01*
X019032Y04424D01*
X019148D01*
X019207Y044298D01*
Y044532D01*
X019148Y04459D01*
X019323D02*
Y044298D01*
X019382Y04424D01*
X019498D01*
X019557Y044298D01*
Y04459D01*
X019673D02*
X019907D01*
X01979D01*
Y04424D01*
X020103Y044532D02*
X020162Y04459D01*
X020278D01*
X020337Y044532D01*
Y044473D01*
X020278Y044415D01*
X02022D01*
X020278D01*
X020337Y044357D01*
Y044298D01*
X020278Y04424D01*
X020162D01*
X020103Y044298D01*
X020453Y04459D02*
Y044357D01*
X02057Y04424D01*
X020687Y044357D01*
Y04459D01*
X020803Y044532D02*
X020862Y04459D01*
X020978D01*
X021037Y044532D01*
Y044473D01*
X020978Y044415D01*
X02092D01*
X020978D01*
X021037Y044357D01*
Y044298D01*
X020978Y04424D01*
X020862D01*
X020803Y044298D01*
X018067Y044532D02*
X018008Y04459D01*
X017892D01*
X017833Y044532D01*
Y044298D01*
X017892Y04424D01*
X018008D01*
X018067Y044298D01*
Y044415D01*
X01795D01*
X018183Y04424D02*
Y04459D01*
X018417Y04424D01*
Y04459D01*
X018533D02*
Y04424D01*
X018708D01*
X018767Y044298D01*
Y044532D01*
X018708Y04459D01*
X018533D01*
X027655Y043138D02*
X027305D01*
Y043313D01*
X027363Y043372D01*
X02748D01*
X027538Y043313D01*
Y043138D01*
X027655Y043663D02*
X027305D01*
X02748Y043488D01*
Y043722D01*
X017515Y043118D02*
X017165D01*
Y043293D01*
X017223Y043352D01*
X01734D01*
X017398Y043293D01*
Y043118D01*
X017223Y043468D02*
X017165Y043527D01*
Y043643D01*
X017223Y043702D01*
X017282D01*
X01734Y043643D01*
Y043585D01*
Y043643D01*
X017398Y043702D01*
X017457D01*
X017515Y043643D01*
Y043527D01*
X017457Y043468D01*
X021625Y043138D02*
X021275D01*
Y043313D01*
X021333Y043372D01*
X02145D01*
X021508Y043313D01*
Y043138D01*
X021275Y043488D02*
Y043722D01*
X021333D01*
X021567Y043488D01*
X021625D01*
X048977Y02646D02*
Y027022D01*
X049258D01*
X049352Y026929D01*
Y026741D01*
X049258Y026647D01*
X048977D01*
X049539Y027022D02*
X049726D01*
X049633D01*
Y02646D01*
X049539D01*
X049726D01*
X050382Y027022D02*
X050008D01*
Y026741D01*
X050195D01*
X050008D01*
Y02646D01*
X019318Y042645D02*
Y042353D01*
X019377Y042295D01*
X019493D01*
X019552Y042353D01*
Y042645D01*
X019902Y042295D02*
X019668D01*
X019902Y042528D01*
Y042587D01*
X019843Y042645D01*
X019727D01*
X019668Y042587D01*
X03974Y04199D02*
Y04234D01*
X039915D01*
X039973Y042282D01*
Y042165D01*
X039915Y042107D01*
X03974D01*
X040323Y04199D02*
X04009D01*
X040323Y042223D01*
Y042282D01*
X040265Y04234D01*
X040148D01*
X04009Y042282D01*
X02286Y03674D02*
Y036682D01*
X022977Y036565D01*
X023093Y036682D01*
Y03674D01*
X022977Y036565D02*
Y03639D01*
X02321D02*
X023327D01*
X023268D01*
Y03674D01*
X02321Y036682D01*
X03523Y04188D02*
Y041647D01*
X035347Y04153D01*
X035463Y041647D01*
Y04188D01*
X03558Y04153D02*
Y04188D01*
X035755D01*
X035813Y041822D01*
Y041705D01*
X035755Y041647D01*
X03558D01*
X035697D02*
X035813Y04153D01*
X03593D02*
X036046D01*
X035988D01*
Y04188D01*
X03593Y041822D01*
X02548Y03622D02*
Y035928D01*
X025538Y03587D01*
X025655D01*
X025713Y035928D01*
Y03622D01*
X02583Y03587D02*
X025947D01*
X025888D01*
Y03622D01*
X02583Y036162D01*
X019733Y033372D02*
X019675Y03343D01*
X019558D01*
X0195Y033372D01*
Y033313D01*
X019558Y033255D01*
X019675D01*
X019733Y033197D01*
Y033138D01*
X019675Y03308D01*
X019558D01*
X0195Y033138D01*
X01985Y03308D02*
X019967D01*
X019908D01*
Y03343D01*
X01985Y033372D01*
X02672Y03673D02*
Y03708D01*
X026895D01*
X026953Y037022D01*
Y036905D01*
X026895Y036847D01*
X02672D01*
X026837D02*
X026953Y03673D01*
X02707Y036788D02*
X027128Y03673D01*
X027245D01*
X027303Y036788D01*
Y037022D01*
X027245Y03708D01*
X027128D01*
X02707Y037022D01*
Y036963D01*
X027128Y036905D01*
X027303D01*
X01778Y03548D02*
Y03583D01*
X017955D01*
X018013Y035772D01*
Y035655D01*
X017955Y035597D01*
X01778D01*
X017897D02*
X018013Y03548D01*
X01813Y035772D02*
X018188Y03583D01*
X018305D01*
X018363Y035772D01*
Y035713D01*
X018305Y035655D01*
X018363Y035597D01*
Y035538D01*
X018305Y03548D01*
X018188D01*
X01813Y035538D01*
Y035597D01*
X018188Y035655D01*
X01813Y035713D01*
Y035772D01*
X018188Y035655D02*
X018305D01*
X01778Y03653D02*
Y03688D01*
X017955D01*
X018013Y036822D01*
Y036705D01*
X017955Y036647D01*
X01778D01*
X017897D02*
X018013Y03653D01*
X01813Y03688D02*
X018363D01*
Y036822D01*
X01813Y036588D01*
Y03653D01*
X02801Y03066D02*
Y03101D01*
X028185D01*
X028243Y030952D01*
Y030835D01*
X028185Y030777D01*
X02801D01*
X028127D02*
X028243Y03066D01*
X028593Y03101D02*
X028477Y030952D01*
X02836Y030835D01*
Y030718D01*
X028418Y03066D01*
X028535D01*
X028593Y030718D01*
Y030777D01*
X028535Y030835D01*
X02836D01*
X03945Y03076D02*
Y03111D01*
X039625D01*
X039683Y031052D01*
Y030935D01*
X039625Y030877D01*
X03945D01*
X039567D02*
X039683Y03076D01*
X040033Y03111D02*
X0398D01*
Y030935D01*
X039917Y030993D01*
X039975D01*
X040033Y030935D01*
Y030818D01*
X039975Y03076D01*
X039858D01*
X0398Y030818D01*
X03833Y03418D02*
Y03453D01*
X038505D01*
X038563Y034472D01*
Y034355D01*
X038505Y034297D01*
X03833D01*
X038447D02*
X038563Y03418D01*
X038855D02*
Y03453D01*
X03868Y034355D01*
X038913D01*
X03258Y03424D02*
Y03459D01*
X032755D01*
X032813Y034532D01*
Y034415D01*
X032755Y034357D01*
X03258D01*
X032697D02*
X032813Y03424D01*
X03293Y034532D02*
X032988Y03459D01*
X033105D01*
X033163Y034532D01*
Y034473D01*
X033105Y034415D01*
X033047D01*
X033105D01*
X033163Y034357D01*
Y034298D01*
X033105Y03424D01*
X032988D01*
X03293Y034298D01*
X02448Y03066D02*
Y03101D01*
X024655D01*
X024713Y030952D01*
Y030835D01*
X024655Y030777D01*
X02448D01*
X024597D02*
X024713Y03066D01*
X025063D02*
X02483D01*
X025063Y030893D01*
Y030952D01*
X025005Y03101D01*
X024888D01*
X02483Y030952D01*
X033257Y031855D02*
Y032205D01*
X033432D01*
X03349Y032147D01*
Y03203D01*
X033432Y031972D01*
X033257D01*
X033373D02*
X03349Y031855D01*
X033607D02*
X033723D01*
X033665D01*
Y032205D01*
X033607Y032147D01*
X039663Y027748D02*
Y027982D01*
X039605Y02804D01*
X039488D01*
X03943Y027982D01*
Y027748D01*
X039488Y02769D01*
X039605D01*
X039547Y027807D02*
X039663Y02769D01*
X039605D02*
X039663Y027748D01*
X03978Y02769D02*
X039897D01*
X039838D01*
Y02804D01*
X03978Y027982D01*
X01786Y0423D02*
Y04265D01*
X018035D01*
X018093Y042592D01*
Y042475D01*
X018035Y042417D01*
X01786D01*
X018443Y04265D02*
X018327Y042592D01*
X01821Y042475D01*
Y042358D01*
X018268Y0423D01*
X018385D01*
X018443Y042358D01*
Y042417D01*
X018385Y042475D01*
X01821D01*
X01985Y03047D02*
Y03082D01*
X020025D01*
X020083Y030762D01*
Y030645D01*
X020025Y030587D01*
X01985D01*
X0202Y03047D02*
X020317D01*
X020258D01*
Y03082D01*
X0202Y030762D01*
X03345Y03712D02*
X033567D01*
X033508D01*
Y03677D01*
X03345D01*
X033567D01*
X033975Y037062D02*
X033917Y03712D01*
X0338D01*
X033742Y037062D01*
Y036828D01*
X0338Y03677D01*
X033917D01*
X033975Y036828D01*
X034091Y037062D02*
X03415Y03712D01*
X034266D01*
X034325Y037062D01*
Y037003D01*
X034266Y036945D01*
X034208D01*
X034266D01*
X034325Y036887D01*
Y036828D01*
X034266Y03677D01*
X03415D01*
X034091Y036828D01*
X03328Y03136D02*
X033397D01*
X033338D01*
Y03101D01*
X03328D01*
X033397D01*
X033805Y031302D02*
X033747Y03136D01*
X03363D01*
X033572Y031302D01*
Y031068D01*
X03363Y03101D01*
X033747D01*
X033805Y031068D01*
X034155Y03101D02*
X033921D01*
X034155Y031243D01*
Y031302D01*
X034096Y03136D01*
X03398D01*
X033921Y031302D01*
X02898Y03135D02*
X029097D01*
X029038D01*
Y031D01*
X02898D01*
X029097D01*
X029505Y031292D02*
X029447Y03135D01*
X02933D01*
X029272Y031292D01*
Y031058D01*
X02933Y031D01*
X029447D01*
X029505Y031058D01*
X029621Y031D02*
X029738D01*
X02968D01*
Y03135D01*
X029621Y031292D01*
X024153Y02727D02*
X02392D01*
Y027095D01*
X024037D01*
X02392D01*
Y02692D01*
X02427D02*
X024387D01*
X024328D01*
Y02727D01*
X02427Y027212D01*
X02036Y03498D02*
Y03463D01*
X020535D01*
X020593Y034688D01*
Y034922D01*
X020535Y03498D01*
X02036D01*
X02071Y034922D02*
X020768Y03498D01*
X020885D01*
X020943Y034922D01*
Y034863D01*
X020885Y034805D01*
X020827D01*
X020885D01*
X020943Y034747D01*
Y034688D01*
X020885Y03463D01*
X020768D01*
X02071Y034688D01*
X02036Y03773D02*
Y03738D01*
X020535D01*
X020593Y037438D01*
Y037672D01*
X020535Y03773D01*
X02036D01*
X020943Y03738D02*
X02071D01*
X020943Y037613D01*
Y037672D01*
X020885Y03773D01*
X020768D01*
X02071Y037672D01*
X02592Y02704D02*
Y02669D01*
X026095D01*
X026153Y026748D01*
Y026982D01*
X026095Y02704D01*
X02592D01*
X02627Y02669D02*
X026387D01*
X026328D01*
Y02704D01*
X02627Y026982D01*
X024013Y031656D02*
X023955Y031598D01*
Y031481D01*
X024013Y031423D01*
X024247D01*
X024305Y031481D01*
Y031598D01*
X024247Y031656D01*
X024305Y031773D02*
Y031889D01*
Y031831D01*
X023955D01*
X024013Y031773D01*
X024305Y032297D02*
Y032064D01*
X024072Y032297D01*
X024013D01*
X023955Y032239D01*
Y032122D01*
X024013Y032064D01*
X030453Y032722D02*
X030395Y03278D01*
X030278D01*
X03022Y032722D01*
Y032488D01*
X030278Y03243D01*
X030395D01*
X030453Y032488D01*
X03057Y03243D02*
X030687D01*
X030628D01*
Y03278D01*
X03057Y032722D01*
X030861Y03243D02*
X030978D01*
X03092D01*
Y03278D01*
X030861Y032722D01*
X029553Y037772D02*
X029495Y03783D01*
X029378D01*
X02932Y037772D01*
Y037538D01*
X029378Y03748D01*
X029495D01*
X029553Y037538D01*
X02967Y03748D02*
X029787D01*
X029728D01*
Y03783D01*
X02967Y037772D01*
X029961D02*
X03002Y03783D01*
X030136D01*
X030195Y037772D01*
Y037538D01*
X030136Y03748D01*
X03002D01*
X029961Y037538D01*
Y037772D01*
X025823Y037022D02*
X025765Y03708D01*
X025648D01*
X02559Y037022D01*
Y036788D01*
X025648Y03673D01*
X025765D01*
X025823Y036788D01*
X02594D02*
X025998Y03673D01*
X026115D01*
X026173Y036788D01*
Y037022D01*
X026115Y03708D01*
X025998D01*
X02594Y037022D01*
Y036963D01*
X025998Y036905D01*
X026173D01*
X025093Y033192D02*
X025035Y033133D01*
Y033017D01*
X025093Y032958D01*
X025327D01*
X025385Y033017D01*
Y033133D01*
X025327Y033192D01*
X025035Y033308D02*
Y033542D01*
X025093D01*
X025327Y033308D01*
X025385D01*
X024613Y035772D02*
X024555Y03583D01*
X024438D01*
X02438Y035772D01*
Y035538D01*
X024438Y03548D01*
X024555D01*
X024613Y035538D01*
X024963Y03583D02*
X02473D01*
Y035655D01*
X024847Y035713D01*
X024905D01*
X024963Y035655D01*
Y035538D01*
X024905Y03548D01*
X024788D01*
X02473Y035538D01*
X036713Y031072D02*
X036655Y03113D01*
X036538D01*
X03648Y031072D01*
Y030838D01*
X036538Y03078D01*
X036655D01*
X036713Y030838D01*
X037005Y03078D02*
Y03113D01*
X03683Y030955D01*
X037063D01*
X032453Y026922D02*
X032395Y02698D01*
X032278D01*
X03222Y026922D01*
Y026688D01*
X032278Y02663D01*
X032395D01*
X032453Y026688D01*
X03257Y026922D02*
X032628Y02698D01*
X032745D01*
X032803Y026922D01*
Y026863D01*
X032745Y026805D01*
X032687D01*
X032745D01*
X032803Y026747D01*
Y026688D01*
X032745Y02663D01*
X032628D01*
X03257Y026688D01*
X032453Y031052D02*
X032395Y03111D01*
X032278D01*
X03222Y031052D01*
Y030818D01*
X032278Y03076D01*
X032395D01*
X032453Y030818D01*
X032803Y03076D02*
X03257D01*
X032803Y030993D01*
Y031052D01*
X032745Y03111D01*
X032628D01*
X03257Y031052D01*
X027773Y029692D02*
X027715Y02975D01*
X027598D01*
X02754Y029692D01*
Y029458D01*
X027598Y0294D01*
X027715D01*
X027773Y029458D01*
X02789Y0294D02*
X028007D01*
X027948D01*
Y02975D01*
X02789Y029692D01*
D20*
X04728Y029368D02*
X04653D01*
X046905Y028993D02*
Y029743D01*
D21*
X02105Y033249D02*
D03*
M02*
