G04*
G04 #@! TF.GenerationSoftware,Altium Limited,Altium Designer,21.9.2 (33)*
G04*
G04 Layer_Physical_Order=1*
G04 Layer_Color=255*
%FSTAX24Y24*%
%MOIN*%
G70*
G04*
G04 #@! TF.SameCoordinates,42221833-7155-40BC-9F66-F4787AFC6187*
G04*
G04*
G04 #@! TF.FilePolarity,Positive*
G04*
G01*
G75*
%ADD19C,0.0100*%
%ADD22R,0.0433X0.0472*%
%ADD23R,0.0374X0.0315*%
%ADD24R,0.0315X0.0374*%
%ADD25R,0.0550X0.0500*%
%ADD26R,0.0394X0.0945*%
%ADD27R,0.1299X0.0945*%
%ADD28R,0.1264X0.0610*%
%ADD29R,0.0150X0.0150*%
%ADD30R,0.0866X0.0236*%
%ADD31R,0.0472X0.0335*%
%ADD32R,0.0610X0.0827*%
G04:AMPARAMS|DCode=33|XSize=11mil|YSize=61.4mil|CornerRadius=2.8mil|HoleSize=0mil|Usage=FLASHONLY|Rotation=90.000|XOffset=0mil|YOffset=0mil|HoleType=Round|Shape=RoundedRectangle|*
%AMROUNDEDRECTD33*
21,1,0.0110,0.0559,0,0,90.0*
21,1,0.0055,0.0614,0,0,90.0*
1,1,0.0055,0.0280,0.0028*
1,1,0.0055,0.0280,-0.0028*
1,1,0.0055,-0.0280,-0.0028*
1,1,0.0055,-0.0280,0.0028*
%
%ADD33ROUNDEDRECTD33*%
G04:AMPARAMS|DCode=34|XSize=11mil|YSize=61.4mil|CornerRadius=2.8mil|HoleSize=0mil|Usage=FLASHONLY|Rotation=0.000|XOffset=0mil|YOffset=0mil|HoleType=Round|Shape=RoundedRectangle|*
%AMROUNDEDRECTD34*
21,1,0.0110,0.0559,0,0,0.0*
21,1,0.0055,0.0614,0,0,0.0*
1,1,0.0055,0.0028,-0.0280*
1,1,0.0055,-0.0028,-0.0280*
1,1,0.0055,-0.0028,0.0280*
1,1,0.0055,0.0028,0.0280*
%
%ADD34ROUNDEDRECTD34*%
%ADD35R,0.0315X0.0472*%
%ADD62C,0.0300*%
%ADD63C,0.0630*%
%ADD64R,0.0630X0.0630*%
%ADD65C,0.0660*%
%ADD66R,0.0660X0.0660*%
%ADD67R,0.0630X0.0630*%
%ADD68R,0.0900X0.0900*%
%ADD69C,0.0900*%
%ADD70C,0.0800*%
%ADD71R,0.0800X0.0800*%
%ADD72R,0.0800X0.0800*%
%ADD73C,0.0750*%
%ADD74R,0.0750X0.0750*%
%ADD75C,0.0236*%
G36*
X050824Y025869D02*
X015949D01*
Y044996D01*
X050824D01*
Y025869D01*
D02*
G37*
%LPC*%
G36*
X018464Y043815D02*
X01846D01*
Y04345D01*
X018824D01*
Y043455D01*
X018796Y04356D01*
X018742Y043655D01*
X018664Y043732D01*
X01857Y043787D01*
X018464Y043815D01*
D02*
G37*
G36*
X033465D02*
X03346D01*
Y04345D01*
X033825D01*
Y043455D01*
X033797Y04356D01*
X033742Y043655D01*
X033665Y043732D01*
X03357Y043787D01*
X033465Y043815D01*
D02*
G37*
G36*
X022495D02*
X02249D01*
Y04345D01*
X022855D01*
Y043455D01*
X022827Y04356D01*
X022772Y043655D01*
X022695Y043732D01*
X0226Y043787D01*
X022495Y043815D01*
D02*
G37*
G36*
X048825D02*
X04846D01*
Y04345D01*
X048825D01*
Y043815D01*
D02*
G37*
G36*
X029445D02*
X02944D01*
Y04345D01*
X029805D01*
Y043455D01*
X029777Y04356D01*
X029722Y043655D01*
X029645Y043732D01*
X02955Y043787D01*
X029445Y043815D01*
D02*
G37*
G36*
X03336D02*
X033355D01*
X03325Y043787D01*
X033155Y043732D01*
X033078Y043655D01*
X033023Y04356D01*
X032995Y043455D01*
Y04345D01*
X03336D01*
Y043815D01*
D02*
G37*
G36*
X02239D02*
X022385D01*
X02228Y043787D01*
X022185Y043732D01*
X022108Y043655D01*
X022053Y04356D01*
X022025Y043455D01*
Y04345D01*
X02239D01*
Y043815D01*
D02*
G37*
G36*
X04836D02*
X047995D01*
Y04345D01*
X04836D01*
Y043815D01*
D02*
G37*
G36*
X02934D02*
X029335D01*
X02923Y043787D01*
X029135Y043732D01*
X029058Y043655D01*
X029003Y04356D01*
X028975Y043455D01*
Y04345D01*
X02934D01*
Y043815D01*
D02*
G37*
G36*
X01836D02*
X018355D01*
X018249Y043787D01*
X018155Y043732D01*
X018077Y043655D01*
X018023Y04356D01*
X017995Y043455D01*
Y04345D01*
X01836D01*
Y043815D01*
D02*
G37*
G36*
X047462Y043795D02*
X047358D01*
X047258Y043768D01*
X047167Y043716D01*
X047094Y043643D01*
X047042Y043552D01*
X047015Y043452D01*
Y043348D01*
X047042Y043248D01*
X047094Y043157D01*
X047167Y043084D01*
X047258Y043032D01*
X047358Y043005D01*
X047462D01*
X047562Y043032D01*
X047653Y043084D01*
X047726Y043157D01*
X047778Y043248D01*
X047805Y043348D01*
Y043452D01*
X047778Y043552D01*
X047726Y043643D01*
X047653Y043716D01*
X047562Y043768D01*
X047462Y043795D01*
D02*
G37*
G36*
X042462D02*
X042358D01*
X042258Y043768D01*
X042167Y043716D01*
X042094Y043643D01*
X042042Y043552D01*
X042015Y043452D01*
Y043348D01*
X042042Y043248D01*
X042094Y043157D01*
X042167Y043084D01*
X042258Y043032D01*
X042358Y043005D01*
X042462D01*
X042562Y043032D01*
X042653Y043084D01*
X042726Y043157D01*
X042778Y043248D01*
X042805Y043348D01*
Y043452D01*
X042778Y043552D01*
X042726Y043643D01*
X042653Y043716D01*
X042562Y043768D01*
X042462Y043795D01*
D02*
G37*
G36*
X041462D02*
X041358D01*
X041258Y043768D01*
X041167Y043716D01*
X041094Y043643D01*
X041042Y043552D01*
X041015Y043452D01*
Y043348D01*
X041042Y043248D01*
X041094Y043157D01*
X041167Y043084D01*
X041258Y043032D01*
X041358Y043005D01*
X041462D01*
X041562Y043032D01*
X041653Y043084D01*
X041726Y043157D01*
X041778Y043248D01*
X041805Y043348D01*
Y043452D01*
X041778Y043552D01*
X041726Y043643D01*
X041653Y043716D01*
X041562Y043768D01*
X041462Y043795D01*
D02*
G37*
G36*
X040462D02*
X040358D01*
X040258Y043768D01*
X040167Y043716D01*
X040094Y043643D01*
X040042Y043552D01*
X040015Y043452D01*
Y043348D01*
X040042Y043248D01*
X040094Y043157D01*
X040167Y043084D01*
X040258Y043032D01*
X040358Y043005D01*
X040462D01*
X040562Y043032D01*
X040653Y043084D01*
X040726Y043157D01*
X040778Y043248D01*
X040805Y043348D01*
Y043452D01*
X040778Y043552D01*
X040726Y043643D01*
X040653Y043716D01*
X040562Y043768D01*
X040462Y043795D01*
D02*
G37*
G36*
X039462D02*
X039358D01*
X039258Y043768D01*
X039167Y043716D01*
X039094Y043643D01*
X039042Y043552D01*
X039015Y043452D01*
Y043348D01*
X039042Y043248D01*
X039094Y043157D01*
X039167Y043084D01*
X039258Y043032D01*
X039358Y043005D01*
X039462D01*
X039562Y043032D01*
X039653Y043084D01*
X039726Y043157D01*
X039778Y043248D01*
X039805Y043348D01*
Y043452D01*
X039778Y043552D01*
X039726Y043643D01*
X039653Y043716D01*
X039562Y043768D01*
X039462Y043795D01*
D02*
G37*
G36*
X034462D02*
X034358D01*
X034258Y043768D01*
X034167Y043716D01*
X034094Y043643D01*
X034042Y043552D01*
X034015Y043452D01*
Y043348D01*
X034042Y043248D01*
X034094Y043157D01*
X034167Y043084D01*
X034258Y043032D01*
X034358Y043005D01*
X034462D01*
X034562Y043032D01*
X034653Y043084D01*
X034726Y043157D01*
X034778Y043248D01*
X034805Y043348D01*
Y043452D01*
X034778Y043552D01*
X034726Y043643D01*
X034653Y043716D01*
X034562Y043768D01*
X034462Y043795D01*
D02*
G37*
G36*
X030442D02*
X030338D01*
X030238Y043768D01*
X030147Y043716D01*
X030074Y043643D01*
X030022Y043552D01*
X029995Y043452D01*
Y043348D01*
X030022Y043248D01*
X030074Y043157D01*
X030147Y043084D01*
X030238Y043032D01*
X030338Y043005D01*
X030442D01*
X030542Y043032D01*
X030633Y043084D01*
X030706Y043157D01*
X030758Y043248D01*
X030785Y043348D01*
Y043452D01*
X030758Y043552D01*
X030706Y043643D01*
X030633Y043716D01*
X030542Y043768D01*
X030442Y043795D01*
D02*
G37*
G36*
X023492D02*
X023388D01*
X023288Y043768D01*
X023197Y043716D01*
X023124Y043643D01*
X023072Y043552D01*
X023045Y043452D01*
Y043348D01*
X023072Y043248D01*
X023124Y043157D01*
X023197Y043084D01*
X023288Y043032D01*
X023388Y043005D01*
X023492D01*
X023592Y043032D01*
X023683Y043084D01*
X023756Y043157D01*
X023808Y043248D01*
X023835Y043348D01*
Y043452D01*
X023808Y043552D01*
X023756Y043643D01*
X023683Y043716D01*
X023592Y043768D01*
X023492Y043795D01*
D02*
G37*
G36*
X020804D02*
X020015D01*
Y043005D01*
X020804D01*
Y043795D01*
D02*
G37*
G36*
X019462D02*
X019358D01*
X019257Y043768D01*
X019167Y043716D01*
X019093Y043643D01*
X019041Y043552D01*
X019015Y043452D01*
Y043348D01*
X019041Y043248D01*
X019093Y043157D01*
X019167Y043084D01*
X019257Y043032D01*
X019358Y043005D01*
X019462D01*
X019562Y043032D01*
X019652Y043084D01*
X019726Y043157D01*
X019778Y043248D01*
X019804Y043348D01*
Y043452D01*
X019778Y043552D01*
X019726Y043643D01*
X019652Y043716D01*
X019562Y043768D01*
X019462Y043795D01*
D02*
G37*
G36*
X046462D02*
X046358D01*
X046258Y043768D01*
X046167Y043716D01*
X046094Y043643D01*
X046042Y043552D01*
X046015Y043452D01*
Y043413D01*
X046014Y043406D01*
X046012Y043362D01*
X046006Y043284D01*
X046001Y043252D01*
X045995Y043224D01*
X045988Y0432D01*
X045981Y04318D01*
X045973Y043164D01*
X045966Y043153D01*
X045965Y043153D01*
X045115Y042303D01*
X044555D01*
X044536Y042349D01*
X045151Y042964D01*
X045152Y042964D01*
X045163Y042972D01*
X045178Y042979D01*
X045198Y042986D01*
X045221Y042992D01*
X045249Y042997D01*
X045279Y043001D01*
X045355Y043004D01*
X045399Y043004D01*
X045406Y043005D01*
X045462D01*
X045562Y043032D01*
X045653Y043084D01*
X045726Y043157D01*
X045778Y043248D01*
X045805Y043348D01*
Y043452D01*
X045778Y043552D01*
X045726Y043643D01*
X045653Y043716D01*
X045562Y043768D01*
X045462Y043795D01*
X045358D01*
X045258Y043768D01*
X045167Y043716D01*
X045094Y043643D01*
X045042Y043552D01*
X045015Y043452D01*
Y043413D01*
X045014Y043406D01*
X045012Y043362D01*
X045006Y043284D01*
X045001Y043252D01*
X044995Y043224D01*
X044988Y0432D01*
X044981Y04318D01*
X044973Y043164D01*
X044966Y043153D01*
X044965Y043153D01*
X044295Y042483D01*
X043735D01*
X043716Y042529D01*
X044151Y042964D01*
X044152Y042964D01*
X044163Y042972D01*
X044178Y042979D01*
X044198Y042986D01*
X044221Y042992D01*
X044249Y042997D01*
X044279Y043001D01*
X044355Y043004D01*
X044399Y043004D01*
X044406Y043005D01*
X044462D01*
X044562Y043032D01*
X044653Y043084D01*
X044726Y043157D01*
X044778Y043248D01*
X044805Y043348D01*
Y043452D01*
X044778Y043552D01*
X044726Y043643D01*
X044653Y043716D01*
X044562Y043768D01*
X044462Y043795D01*
X044358D01*
X044258Y043768D01*
X044167Y043716D01*
X044094Y043643D01*
X044042Y043552D01*
X044015Y043452D01*
Y043413D01*
X044014Y043406D01*
X044012Y043362D01*
X044006Y043284D01*
X044001Y043252D01*
X043995Y043224D01*
X043988Y0432D01*
X043981Y04318D01*
X043973Y043164D01*
X043966Y043153D01*
X043965Y043153D01*
X043475Y042663D01*
X042915D01*
X042896Y042709D01*
X043151Y042964D01*
X043152Y042964D01*
X043163Y042972D01*
X043178Y042979D01*
X043198Y042986D01*
X043221Y042992D01*
X043249Y042997D01*
X043279Y043001D01*
X043355Y043004D01*
X043399Y043004D01*
X043406Y043005D01*
X043462D01*
X043562Y043032D01*
X043653Y043084D01*
X043726Y043157D01*
X043778Y043248D01*
X043805Y043348D01*
Y043452D01*
X043778Y043552D01*
X043726Y043643D01*
X043653Y043716D01*
X043562Y043768D01*
X043462Y043795D01*
X043358D01*
X043258Y043768D01*
X043167Y043716D01*
X043094Y043643D01*
X043042Y043552D01*
X043015Y043452D01*
Y043413D01*
X043014Y043406D01*
X043012Y043362D01*
X043006Y043284D01*
X043001Y043252D01*
X042995Y043224D01*
X042988Y0432D01*
X042981Y04318D01*
X042973Y043164D01*
X042966Y043153D01*
X042965Y043153D01*
X042655Y042843D01*
X038095D01*
X038076Y042889D01*
X038151Y042964D01*
X038152Y042964D01*
X038163Y042972D01*
X038178Y042979D01*
X038198Y042986D01*
X038221Y042992D01*
X038249Y042997D01*
X038279Y043001D01*
X038355Y043004D01*
X038399Y043004D01*
X038406Y043005D01*
X038462D01*
X038562Y043032D01*
X038653Y043084D01*
X038726Y043157D01*
X038778Y043248D01*
X038805Y043348D01*
Y043452D01*
X038778Y043552D01*
X038726Y043643D01*
X038653Y043716D01*
X038562Y043768D01*
X038462Y043795D01*
X038358D01*
X038258Y043768D01*
X038167Y043716D01*
X038094Y043643D01*
X038042Y043552D01*
X038015Y043452D01*
Y043413D01*
X038014Y043406D01*
X038012Y043362D01*
X038006Y043284D01*
X038001Y043252D01*
X037995Y043224D01*
X037988Y0432D01*
X037981Y04318D01*
X037973Y043164D01*
X037966Y043153D01*
X037965Y043153D01*
X037143Y04233D01*
X036583D01*
X036564Y042376D01*
X037151Y042964D01*
X037152Y042964D01*
X037163Y042972D01*
X037178Y042979D01*
X037198Y042986D01*
X037221Y042992D01*
X037249Y042997D01*
X037279Y043001D01*
X037355Y043004D01*
X037399Y043004D01*
X037406Y043005D01*
X037462D01*
X037562Y043032D01*
X037653Y043084D01*
X037726Y043157D01*
X037778Y043248D01*
X037805Y043348D01*
Y043452D01*
X037778Y043552D01*
X037726Y043643D01*
X037653Y043716D01*
X037562Y043768D01*
X037462Y043795D01*
X037358D01*
X037258Y043768D01*
X037167Y043716D01*
X037094Y043643D01*
X037042Y043552D01*
X037015Y043452D01*
Y043413D01*
X037014Y043406D01*
X037012Y043362D01*
X037006Y043284D01*
X037001Y043252D01*
X036995Y043224D01*
X036988Y0432D01*
X036981Y04318D01*
X036973Y043164D01*
X036966Y043153D01*
X036965Y043153D01*
X036323Y04251D01*
X035763D01*
X035744Y042556D01*
X036151Y042964D01*
X036152Y042964D01*
X036163Y042972D01*
X036178Y042979D01*
X036198Y042986D01*
X036221Y042992D01*
X036249Y042997D01*
X036279Y043001D01*
X036355Y043004D01*
X036399Y043004D01*
X036406Y043005D01*
X036462D01*
X036562Y043032D01*
X036653Y043084D01*
X036726Y043157D01*
X036778Y043248D01*
X036805Y043348D01*
Y043452D01*
X036778Y043552D01*
X036726Y043643D01*
X036653Y043716D01*
X036562Y043768D01*
X036462Y043795D01*
X036358D01*
X036258Y043768D01*
X036167Y043716D01*
X036094Y043643D01*
X036042Y043552D01*
X036015Y043452D01*
Y043413D01*
X036014Y043406D01*
X036012Y043362D01*
X036006Y043284D01*
X036001Y043252D01*
X035995Y043224D01*
X035988Y0432D01*
X035981Y04318D01*
X035973Y043164D01*
X035966Y043153D01*
X035965Y043153D01*
X035503Y04269D01*
X034943D01*
X034924Y042736D01*
X035151Y042964D01*
X035152Y042964D01*
X035163Y042972D01*
X035178Y042979D01*
X035198Y042986D01*
X035221Y042992D01*
X035249Y042997D01*
X035279Y043001D01*
X035355Y043004D01*
X035399Y043004D01*
X035406Y043005D01*
X035462D01*
X035562Y043032D01*
X035653Y043084D01*
X035726Y043157D01*
X035778Y043248D01*
X035805Y043348D01*
Y043452D01*
X035778Y043552D01*
X035726Y043643D01*
X035653Y043716D01*
X035562Y043768D01*
X035462Y043795D01*
X035358D01*
X035258Y043768D01*
X035167Y043716D01*
X035094Y043643D01*
X035042Y043552D01*
X035015Y043452D01*
Y043413D01*
X035014Y043406D01*
X035012Y043362D01*
X035006Y043284D01*
X035001Y043252D01*
X034995Y043224D01*
X034988Y0432D01*
X034981Y04318D01*
X034973Y043164D01*
X034966Y043153D01*
X034965Y043153D01*
X031399Y039586D01*
X031353Y039605D01*
Y043005D01*
X031785D01*
Y043795D01*
X030995D01*
Y043005D01*
X031087D01*
Y035516D01*
X029945Y034374D01*
X029895Y034395D01*
Y034423D01*
X029885Y034473D01*
X029859Y034512D01*
X029867Y034523D01*
X029875Y034565D01*
Y03462D01*
X029867Y034662D01*
X029843Y034698D01*
X029807Y034722D01*
X029765Y03473D01*
X029617D01*
Y036473D01*
X029618Y036527D01*
X029624Y036603D01*
X029722D01*
Y037054D01*
X029722Y037056D01*
X029722Y037057D01*
X029722Y037058D01*
X029722Y037074D01*
Y037137D01*
X029721D01*
X029719Y037216D01*
Y038334D01*
X029719Y038334D01*
X029701Y038424D01*
X02965Y0385D01*
X029582Y038568D01*
X0296Y038636D01*
Y038744D01*
X029572Y038848D01*
X029518Y038942D01*
X029442Y039018D01*
X029348Y039072D01*
X029244Y0391D01*
X029136D01*
X029032Y039072D01*
X028938Y039018D01*
X028862Y038942D01*
X028833Y038891D01*
X028783Y038904D01*
Y04128D01*
X0296D01*
Y0421D01*
X029158D01*
X029137Y04215D01*
X029164Y042176D01*
X029192Y042219D01*
X029203Y04227D01*
Y04237D01*
X029192Y042421D01*
X029164Y042464D01*
X029084Y042544D01*
X029041Y042572D01*
X02899Y042583D01*
X028838D01*
X028825Y042607D01*
X02882Y042633D01*
X028914Y042726D01*
X028942Y042769D01*
X028953Y04282D01*
Y04316D01*
X028942Y043211D01*
X028914Y043254D01*
X0289Y043267D01*
X02876Y043547D01*
X028758Y043552D01*
X028706Y043643D01*
X028633Y043716D01*
X028542Y043768D01*
X028442Y043795D01*
X028338D01*
X028238Y043768D01*
X028147Y043716D01*
X028074Y043643D01*
X028022Y043552D01*
X027995Y043452D01*
Y043348D01*
X028022Y043248D01*
X028074Y043157D01*
X028147Y043084D01*
X028238Y043032D01*
X028338Y043005D01*
X028442D01*
X028542Y043032D01*
X02856Y043042D01*
X028561Y043042D01*
X028593Y043057D01*
X028621Y043067D01*
X028637Y043072D01*
X028659Y043062D01*
X028682Y043042D01*
X028687Y04303D01*
Y042875D01*
X028665Y042853D01*
X02826D01*
X028209Y042842D01*
X028166Y042814D01*
X028105Y042752D01*
X028076Y042709D01*
X028066Y042658D01*
Y042522D01*
X028076Y042471D01*
X028105Y042428D01*
X028176Y042356D01*
X028219Y042328D01*
X02827Y042317D01*
X028619D01*
X02864Y042267D01*
X028556Y042184D01*
X028528Y042141D01*
X028517Y04209D01*
Y042008D01*
X028471Y041989D01*
X028442Y042018D01*
X028348Y042072D01*
X028244Y0421D01*
X028136D01*
X028131Y042099D01*
X028066Y042095D01*
X028031Y042096D01*
X027999Y042098D01*
X02797Y042102D01*
X027946Y042107D01*
X027927Y042114D01*
X027911Y042121D01*
X027899Y042129D01*
X027897Y04213D01*
X026865Y043162D01*
X02685Y043179D01*
X026839Y043192D01*
X026835Y043198D01*
Y043226D01*
X026835Y043228D01*
X026835Y04323D01*
Y043795D01*
X026045D01*
Y043073D01*
X025995Y043052D01*
X025889Y043159D01*
X025888Y043159D01*
X025881Y04317D01*
X025873Y043186D01*
X025866Y043206D01*
X025859Y04323D01*
X025852Y043259D01*
X025847Y043291D01*
X025838Y04337D01*
X025836Y043415D01*
X025835Y04342D01*
Y043452D01*
X025808Y043552D01*
X025756Y043643D01*
X025683Y043716D01*
X025592Y043768D01*
X025492Y043795D01*
X025388D01*
X025288Y043768D01*
X025197Y043716D01*
X025124Y043643D01*
X025072Y043552D01*
X025045Y043452D01*
Y043348D01*
X025072Y043248D01*
X025124Y043157D01*
X025197Y043084D01*
X025288Y043032D01*
X025388Y043005D01*
X025453D01*
X025459Y043004D01*
X025543Y043005D01*
X025577Y043004D01*
X025608Y043D01*
X025635Y042996D01*
X025658Y04299D01*
X025677Y042983D01*
X025692Y042976D01*
X025704Y042969D01*
X025704Y042968D01*
X026724Y041949D01*
X026725Y041948D01*
X026732Y041936D01*
X02674Y041919D01*
X026748Y041898D01*
X026756Y041872D01*
X026762Y041843D01*
X026776Y041722D01*
X026779Y041675D01*
X02678Y04167D01*
Y041636D01*
X026808Y041532D01*
X026862Y041438D01*
X026938Y041362D01*
X027032Y041308D01*
X027136Y04128D01*
X027244D01*
X027348Y041308D01*
X027442Y041362D01*
X027518Y041438D01*
X027572Y041532D01*
X0276Y041636D01*
Y041744D01*
X027572Y041848D01*
X027518Y041942D01*
X027442Y042018D01*
X027348Y042072D01*
X027244Y0421D01*
X027177D01*
X027171Y042101D01*
X027081Y0421D01*
X027045Y042101D01*
X027012Y042105D01*
X026983Y04211D01*
X026958Y042116D01*
X026938Y042123D01*
X026922Y04213D01*
X02691Y042138D01*
X026908Y042139D01*
X026092Y042955D01*
X026113Y043005D01*
X02661D01*
X026612Y043005D01*
X026614Y043005D01*
X026642D01*
X026647Y043002D01*
X026674Y042979D01*
X027716Y041937D01*
X027716Y041936D01*
X027724Y041924D01*
X027732Y041907D01*
X027741Y041886D01*
X027749Y041859D01*
X027756Y041829D01*
X027775Y041706D01*
X02778Y041658D01*
Y041658D01*
X02778Y041658D01*
X02778Y041658D01*
X02778Y041657D01*
Y041636D01*
X027808Y041532D01*
X027862Y041438D01*
X027938Y041362D01*
X028032Y041308D01*
X028136Y04128D01*
X028244D01*
X028348Y041308D01*
X028442Y041362D01*
X028471Y041391D01*
X028517Y041372D01*
Y039036D01*
X028471Y039017D01*
X028454Y039034D01*
X028356Y039091D01*
X028247Y03912D01*
X02824D01*
Y03869D01*
Y03826D01*
X028247D01*
X028356Y038289D01*
X028454Y038346D01*
X028471Y038363D01*
X028517Y038344D01*
Y037183D01*
X028471Y037164D01*
X027376Y038259D01*
X027376Y038261D01*
X027382Y038277D01*
X02739Y038294D01*
X0274Y038311D01*
X027411Y038328D01*
X027425Y038345D01*
X027441Y038361D01*
X027442Y038362D01*
X027448Y038368D01*
X027463Y038382D01*
X027465Y038385D01*
X027518Y038438D01*
X027572Y038532D01*
X0276Y038636D01*
Y038744D01*
X027572Y038848D01*
X027518Y038942D01*
X027442Y039018D01*
X027348Y039072D01*
X027244Y0391D01*
X027136D01*
X027032Y039072D01*
X026938Y039018D01*
X026862Y038942D01*
X026808Y038848D01*
X02678Y038744D01*
Y038636D01*
X026808Y038532D01*
X026862Y038438D01*
X026938Y038362D01*
X027032Y038308D01*
X027037Y038307D01*
X027039Y038306D01*
X027055Y038295D01*
X027069Y038285D01*
X02708Y038275D01*
X027088Y038265D01*
X027095Y038255D01*
X027099Y038246D01*
X027103Y038235D01*
X027105Y038224D01*
Y03821D01*
X027115Y038159D01*
X027144Y038116D01*
X027246Y038014D01*
X027227Y037968D01*
X027099D01*
X026648Y03842D01*
X026647Y038421D01*
X026639Y038433D01*
X026632Y038449D01*
X026624Y03847D01*
X026617Y038495D01*
X026611Y038525D01*
X026607Y038558D01*
X026602Y038641D01*
X026602Y038687D01*
X0266Y038695D01*
Y038744D01*
X026572Y038848D01*
X026518Y038942D01*
X026442Y039018D01*
X026348Y039072D01*
X026244Y0391D01*
X026136D01*
X026032Y039072D01*
X025938Y039018D01*
X025862Y038942D01*
X025808Y038848D01*
X02578Y038744D01*
Y038636D01*
X025808Y038532D01*
X025862Y038438D01*
X025938Y038362D01*
X026032Y038308D01*
X026136Y03828D01*
X026185D01*
X026193Y038278D01*
X026239Y038278D01*
X026322Y038273D01*
X026355Y038269D01*
X026385Y038263D01*
X02641Y038256D01*
X026431Y038248D01*
X026447Y038241D01*
X026459Y038233D01*
X02646Y038232D01*
X026858Y037834D01*
X026839Y037788D01*
X026279D01*
X025648Y03842D01*
X025647Y038421D01*
X025639Y038433D01*
X025632Y038449D01*
X025624Y03847D01*
X025617Y038495D01*
X025611Y038525D01*
X025607Y038558D01*
X025602Y038641D01*
X025602Y038687D01*
X0256Y038695D01*
Y038744D01*
X025572Y038848D01*
X025518Y038942D01*
X025442Y039018D01*
X025348Y039072D01*
X025244Y0391D01*
X025136D01*
X025032Y039072D01*
X024938Y039018D01*
X024862Y038942D01*
X024808Y038848D01*
X02478Y038744D01*
Y038636D01*
X024808Y038532D01*
X024862Y038438D01*
X024938Y038362D01*
X025032Y038308D01*
X025136Y03828D01*
X025185D01*
X025193Y038278D01*
X025239Y038278D01*
X025322Y038273D01*
X025355Y038269D01*
X025385Y038263D01*
X02541Y038256D01*
X025431Y038248D01*
X025447Y038241D01*
X025459Y038233D01*
X02546Y038232D01*
X026038Y037654D01*
X026019Y037608D01*
X020134D01*
X019193Y038549D01*
Y03967D01*
X019182Y039721D01*
X019154Y039764D01*
X01882Y040097D01*
X01882Y040098D01*
X018813Y040109D01*
X018805Y040124D01*
X018798Y040144D01*
X018792Y040168D01*
X018786Y040195D01*
X018782Y040226D01*
X018777Y040304D01*
X018777Y040347D01*
X018775Y040355D01*
Y040402D01*
X018748Y040502D01*
X018696Y040593D01*
X018623Y040666D01*
X018532Y040718D01*
X018432Y040745D01*
X018328D01*
X018228Y040718D01*
X018137Y040666D01*
X018064Y040593D01*
X018012Y040502D01*
X017985Y040402D01*
Y040298D01*
X018012Y040198D01*
X018064Y040107D01*
X018137Y040034D01*
X018228Y039982D01*
X018328Y039955D01*
X018375D01*
X018383Y039953D01*
X018426Y039953D01*
X018504Y039948D01*
X018535Y039944D01*
X018562Y039938D01*
X018586Y039932D01*
X018606Y039925D01*
X018621Y039917D01*
X018632Y03991D01*
X018633Y03991D01*
X018927Y039615D01*
Y039055D01*
X018881Y039036D01*
X01882Y039097D01*
X01882Y039098D01*
X018813Y039109D01*
X018805Y039124D01*
X018798Y039144D01*
X018792Y039168D01*
X018786Y039195D01*
X018782Y039226D01*
X018777Y039304D01*
X018777Y039347D01*
X018775Y039355D01*
Y039402D01*
X018748Y039502D01*
X018696Y039593D01*
X018623Y039666D01*
X018532Y039718D01*
X018432Y039745D01*
X018328D01*
X018228Y039718D01*
X018137Y039666D01*
X018064Y039593D01*
X018012Y039502D01*
X017985Y039402D01*
Y039298D01*
X018012Y039198D01*
X018064Y039107D01*
X018137Y039034D01*
X018228Y038982D01*
X018328Y038955D01*
X018375D01*
X018383Y038953D01*
X018426Y038953D01*
X018504Y038948D01*
X018535Y038944D01*
X018562Y038938D01*
X018586Y038932D01*
X018606Y038925D01*
X018621Y038917D01*
X018632Y03891D01*
X018633Y03891D01*
X018747Y038795D01*
Y038745D01*
X017985D01*
Y037955D01*
X018775D01*
Y038267D01*
X018825Y038288D01*
X018966Y038146D01*
X019926Y037186D01*
X019969Y037158D01*
X02002Y037147D01*
X025881D01*
X025896Y037097D01*
X025834Y037056D01*
X025589Y03681D01*
X025538Y036734D01*
X02552Y036644D01*
Y036387D01*
X025517D01*
Y036308D01*
X025517Y036306D01*
X025517Y036305D01*
X025517Y036305D01*
X025517Y036303D01*
Y035853D01*
X025618D01*
X025622Y035816D01*
Y035786D01*
X025632Y035735D01*
X025661Y035692D01*
X026291Y035062D01*
X026334Y035033D01*
X026384Y035023D01*
X02662D01*
Y034876D01*
X026628Y034834D01*
X026652Y034799D01*
X026688Y034775D01*
X02673Y034766D01*
X026785D01*
X026827Y034775D01*
X026838Y034782D01*
X026877Y034756D01*
X026904Y034751D01*
Y035156D01*
Y035445D01*
X026902D01*
X026902Y035447D01*
X026903Y035451D01*
X026903Y035464D01*
X026904Y035549D01*
Y035561D01*
X026877Y035555D01*
X026838Y035529D01*
X026827Y035537D01*
X026785Y035545D01*
X02673D01*
X026688Y035537D01*
X026652Y035513D01*
X026628Y035477D01*
X02662Y035435D01*
Y035288D01*
X026439D01*
X025924Y035803D01*
X025945Y035853D01*
X025992D01*
Y036304D01*
X025992Y036306D01*
X025992Y036307D01*
X025992Y036308D01*
X025992Y036324D01*
Y036387D01*
X025991D01*
X025989Y036466D01*
Y036547D01*
X026097Y036655D01*
X02629D01*
X02638Y036673D01*
X026456Y036724D01*
X026507Y0368D01*
X026525Y03689D01*
X026507Y03698D01*
X026456Y037056D01*
X026394Y037097D01*
X026409Y037147D01*
X026895D01*
X027606Y036437D01*
X027601Y036387D01*
X027203D01*
Y035853D01*
X027412D01*
Y035575D01*
X027375Y035545D01*
X02732D01*
X027278Y035537D01*
X027249Y035517D01*
X027221Y035537D01*
X027179Y035545D01*
X027123D01*
X027081Y035537D01*
X027071Y035529D01*
X027032Y035555D01*
X027004Y035561D01*
Y035549D01*
X027007Y035445D01*
X027004D01*
Y035156D01*
Y034751D01*
X027032Y034756D01*
X027071Y034782D01*
X027081Y034775D01*
X027123Y034766D01*
X027179D01*
X027221Y034775D01*
X027249Y034794D01*
X027278Y034775D01*
X02732Y034766D01*
X027375D01*
X027417Y034775D01*
X027446Y034794D01*
X027475Y034775D01*
X027517Y034766D01*
X027572D01*
X027614Y034775D01*
X027643Y034794D01*
X027672Y034775D01*
X027714Y034766D01*
X027769D01*
X027811Y034775D01*
X02784Y034794D01*
X027869Y034775D01*
X027911Y034766D01*
X027966D01*
X028008Y034775D01*
X028037Y034794D01*
X028066Y034775D01*
X028108Y034766D01*
X028163D01*
X028205Y034775D01*
X028234Y034794D01*
X028263Y034775D01*
X028305Y034766D01*
X02836D01*
X028402Y034775D01*
X028431Y034794D01*
X028459Y034775D01*
X028501Y034766D01*
X028557D01*
X028598Y034775D01*
X028627Y034794D01*
X028656Y034775D01*
X028698Y034766D01*
X028753D01*
X028795Y034775D01*
X028824Y034794D01*
X028853Y034775D01*
X028895Y034766D01*
X02895D01*
X028992Y034775D01*
X029028Y034799D01*
X029052Y034834D01*
X02906Y034876D01*
Y035435D01*
X029056Y035452D01*
X029055Y035507D01*
Y036779D01*
X029055Y036779D01*
X029045Y03683D01*
X029016Y036873D01*
X028783Y037107D01*
Y038476D01*
X028833Y038489D01*
X028862Y038438D01*
X028938Y038362D01*
X029032Y038308D01*
X029136Y03828D01*
X029207D01*
X02925Y038237D01*
Y037137D01*
X029247D01*
Y037058D01*
X029247Y037056D01*
X029247Y037055D01*
X029247Y037055D01*
X029247Y037053D01*
Y036603D01*
X029342D01*
X029352Y036484D01*
Y03473D01*
X029206D01*
X029164Y034722D01*
X029129Y034698D01*
X029105Y034662D01*
X029096Y03462D01*
Y034565D01*
X029105Y034523D01*
X029112Y034512D01*
X029086Y034473D01*
X029081Y034446D01*
X029486D01*
Y034346D01*
X029081D01*
X029086Y034318D01*
X029112Y034279D01*
X029105Y034269D01*
X029096Y034227D01*
Y034171D01*
X029105Y034129D01*
X029124Y034101D01*
X029105Y034072D01*
X029096Y03403D01*
Y033975D01*
X029105Y033933D01*
X029124Y033904D01*
X029105Y033875D01*
X029096Y033833D01*
Y033778D01*
X029105Y033736D01*
X029124Y033707D01*
X029105Y033678D01*
X029096Y033636D01*
Y033581D01*
X029105Y033539D01*
X029124Y03351D01*
X029105Y033481D01*
X029096Y033439D01*
Y033384D01*
X029105Y033342D01*
X029124Y033313D01*
X029105Y033284D01*
X029096Y033242D01*
Y033187D01*
X029105Y033145D01*
X029124Y033116D01*
X029105Y033087D01*
X029096Y033045D01*
Y03299D01*
X029105Y032948D01*
X029124Y032919D01*
X029105Y032891D01*
X029096Y032849D01*
Y032793D01*
X029105Y032752D01*
X029124Y032723D01*
X029105Y032694D01*
X029096Y032652D01*
Y032597D01*
X029105Y032555D01*
X029124Y032526D01*
X029105Y032497D01*
X029096Y032455D01*
Y0324D01*
X029105Y032358D01*
X029129Y032322D01*
X029164Y032298D01*
X029206Y03229D01*
X029765D01*
X029782Y032294D01*
X029837Y032295D01*
X030717D01*
X030768Y032305D01*
X030811Y032334D01*
X032505Y034028D01*
X032555Y034007D01*
Y03394D01*
X032553Y033908D01*
X032553Y033907D01*
X032523D01*
Y033828D01*
X032523Y033826D01*
X032523Y033824D01*
Y033433D01*
X033057D01*
Y033824D01*
X033057Y033826D01*
X033057Y033828D01*
Y033907D01*
X033028D01*
X033025Y03396D01*
Y03403D01*
X033007Y03412D01*
X032956Y034196D01*
X03288Y034247D01*
X032809Y034261D01*
X032789Y034311D01*
X033004Y034526D01*
X033032Y034569D01*
X033043Y03462D01*
Y039328D01*
X03524Y041525D01*
X037421D01*
X037472Y041535D01*
X037515Y041564D01*
X038169Y042217D01*
X040715D01*
X040734Y042171D01*
X038622Y04006D01*
X038619Y040057D01*
X038605Y040049D01*
X038586Y04004D01*
X038561Y040031D01*
X038531Y040024D01*
X038495Y040017D01*
X038456Y040012D01*
X038359Y040007D01*
X038303Y040007D01*
X038296Y040005D01*
X03824D01*
X038124Y039974D01*
X038021Y039914D01*
X037936Y039829D01*
X037876Y039726D01*
X037845Y03961D01*
Y03949D01*
X037876Y039374D01*
X037936Y039271D01*
X038021Y039186D01*
X038124Y039126D01*
X03824Y039095D01*
X03836D01*
X038476Y039126D01*
X038579Y039186D01*
X038664Y039271D01*
X038724Y039374D01*
X038755Y03949D01*
Y039546D01*
X038757Y039553D01*
X038757Y039609D01*
X038762Y039706D01*
X038767Y039745D01*
X038774Y039781D01*
X038781Y039811D01*
X03879Y039836D01*
X038799Y039855D01*
X038807Y039869D01*
X03881Y039872D01*
X040975Y042037D01*
X04517D01*
X045221Y042048D01*
X045264Y042076D01*
X046151Y042964D01*
X046152Y042964D01*
X046163Y042972D01*
X046178Y042979D01*
X046198Y042986D01*
X046221Y042992D01*
X046249Y042997D01*
X046279Y043001D01*
X046355Y043004D01*
X046399Y043004D01*
X046406Y043005D01*
X046462D01*
X046562Y043032D01*
X046653Y043084D01*
X046726Y043157D01*
X046778Y043248D01*
X046805Y043348D01*
Y043452D01*
X046778Y043552D01*
X046726Y043643D01*
X046653Y043716D01*
X046562Y043768D01*
X046462Y043795D01*
D02*
G37*
G36*
X048825Y04335D02*
X04846D01*
Y042985D01*
X048825D01*
Y04335D01*
D02*
G37*
G36*
X04836D02*
X047995D01*
Y042985D01*
X04836D01*
Y04335D01*
D02*
G37*
G36*
X033825D02*
X03346D01*
Y042985D01*
X033465D01*
X03357Y043013D01*
X033665Y043068D01*
X033742Y043145D01*
X033797Y04324D01*
X033825Y043345D01*
Y04335D01*
D02*
G37*
G36*
X03336D02*
X032995D01*
Y043345D01*
X033023Y04324D01*
X033078Y043145D01*
X033155Y043068D01*
X03325Y043013D01*
X033355Y042985D01*
X03336D01*
Y04335D01*
D02*
G37*
G36*
X029805D02*
X02944D01*
Y042985D01*
X029445D01*
X02955Y043013D01*
X029645Y043068D01*
X029722Y043145D01*
X029777Y04324D01*
X029805Y043345D01*
Y04335D01*
D02*
G37*
G36*
X02934D02*
X028975D01*
Y043345D01*
X029003Y04324D01*
X029058Y043145D01*
X029135Y043068D01*
X02923Y043013D01*
X029335Y042985D01*
X02934D01*
Y04335D01*
D02*
G37*
G36*
X022855D02*
X02249D01*
Y042985D01*
X022495D01*
X0226Y043013D01*
X022695Y043068D01*
X022772Y043145D01*
X022827Y04324D01*
X022855Y043345D01*
Y04335D01*
D02*
G37*
G36*
X02239D02*
X022025D01*
Y043345D01*
X022053Y04324D01*
X022108Y043145D01*
X022185Y043068D01*
X02228Y043013D01*
X022385Y042985D01*
X02239D01*
Y04335D01*
D02*
G37*
G36*
X018824D02*
X01846D01*
Y042985D01*
X018464D01*
X01857Y043013D01*
X018664Y043068D01*
X018742Y043145D01*
X018796Y04324D01*
X018824Y043345D01*
Y04335D01*
D02*
G37*
G36*
X01836D02*
X017995D01*
Y043345D01*
X018023Y04324D01*
X018077Y043145D01*
X018155Y043068D01*
X018249Y043013D01*
X018355Y042985D01*
X01836D01*
Y04335D01*
D02*
G37*
G36*
X020247Y04212D02*
X02024D01*
Y04174D01*
X02062D01*
Y041747D01*
X020591Y041856D01*
X020534Y041954D01*
X020454Y042034D01*
X020356Y042091D01*
X020247Y04212D01*
D02*
G37*
G36*
X02014D02*
X020133D01*
X020024Y042091D01*
X019926Y042034D01*
X019846Y041954D01*
X019789Y041856D01*
X01976Y041747D01*
Y04174D01*
X02014D01*
Y04212D01*
D02*
G37*
G36*
X018435Y041765D02*
X01843D01*
Y0414D01*
X018795D01*
Y041405D01*
X018767Y04151D01*
X018712Y041605D01*
X018635Y041682D01*
X01854Y041737D01*
X018435Y041765D01*
D02*
G37*
G36*
X01833D02*
X018325D01*
X01822Y041737D01*
X018125Y041682D01*
X018048Y041605D01*
X017993Y04151D01*
X017965Y041405D01*
Y0414D01*
X01833D01*
Y041765D01*
D02*
G37*
G36*
X024492Y043795D02*
X024388D01*
X024288Y043768D01*
X024197Y043716D01*
X024124Y043643D01*
X024072Y043552D01*
X024045Y043452D01*
Y043348D01*
X024072Y043248D01*
X024124Y043157D01*
X024197Y043084D01*
X024288Y043032D01*
X024388Y043005D01*
X024453D01*
X024459Y043004D01*
X024543Y043005D01*
X024577Y043004D01*
X024608Y043D01*
X024635Y042996D01*
X024658Y04299D01*
X024677Y042983D01*
X024692Y042976D01*
X024704Y042969D01*
X024704Y042968D01*
X025724Y041949D01*
X025725Y041948D01*
X025732Y041936D01*
X02574Y041919D01*
X025748Y041898D01*
X025756Y041872D01*
X025762Y041843D01*
X025776Y041722D01*
X025779Y041675D01*
X02578Y04167D01*
Y041636D01*
X025808Y041532D01*
X025862Y041438D01*
X025938Y041362D01*
X026032Y041308D01*
X026136Y04128D01*
X026244D01*
X026348Y041308D01*
X026442Y041362D01*
X026518Y041438D01*
X026572Y041532D01*
X0266Y041636D01*
Y041744D01*
X026572Y041848D01*
X026518Y041942D01*
X026442Y042018D01*
X026348Y042072D01*
X026244Y0421D01*
X026177D01*
X026171Y042101D01*
X026081Y0421D01*
X026045Y042101D01*
X026012Y042105D01*
X025983Y04211D01*
X025958Y042116D01*
X025938Y042123D01*
X025922Y04213D01*
X02591Y042138D01*
X025908Y042139D01*
X024889Y043159D01*
X024888Y043159D01*
X024881Y04317D01*
X024873Y043186D01*
X024866Y043206D01*
X024859Y04323D01*
X024852Y043259D01*
X024847Y043291D01*
X024838Y04337D01*
X024836Y043415D01*
X024835Y04342D01*
Y043452D01*
X024808Y043552D01*
X024756Y043643D01*
X024683Y043716D01*
X024592Y043768D01*
X024492Y043795D01*
D02*
G37*
G36*
X025244Y0421D02*
X025136D01*
X025032Y042072D01*
X024938Y042018D01*
X024862Y041942D01*
X024808Y041848D01*
X02478Y041744D01*
Y041636D01*
X024808Y041532D01*
X024862Y041438D01*
X024938Y041362D01*
X025032Y041308D01*
X025136Y04128D01*
X025244D01*
X025348Y041308D01*
X025442Y041362D01*
X025518Y041438D01*
X025572Y041532D01*
X0256Y041636D01*
Y041744D01*
X025572Y041848D01*
X025518Y041942D01*
X025442Y042018D01*
X025348Y042072D01*
X025244Y0421D01*
D02*
G37*
G36*
X024244D02*
X024136D01*
X024032Y042072D01*
X023938Y042018D01*
X023862Y041942D01*
X023808Y041848D01*
X02378Y041744D01*
Y041636D01*
X023808Y041532D01*
X023862Y041438D01*
X023938Y041362D01*
X024032Y041308D01*
X024136Y04128D01*
X024244D01*
X024348Y041308D01*
X024442Y041362D01*
X024518Y041438D01*
X024572Y041532D01*
X0246Y041636D01*
Y041744D01*
X024572Y041848D01*
X024518Y041942D01*
X024442Y042018D01*
X024348Y042072D01*
X024244Y0421D01*
D02*
G37*
G36*
X023244D02*
X023136D01*
X023032Y042072D01*
X022938Y042018D01*
X022862Y041942D01*
X022808Y041848D01*
X02278Y041744D01*
Y041636D01*
X022808Y041532D01*
X022862Y041438D01*
X022938Y041362D01*
X023032Y041308D01*
X023136Y04128D01*
X023244D01*
X023348Y041308D01*
X023442Y041362D01*
X023518Y041438D01*
X023572Y041532D01*
X0236Y041636D01*
Y041744D01*
X023572Y041848D01*
X023518Y041942D01*
X023442Y042018D01*
X023348Y042072D01*
X023244Y0421D01*
D02*
G37*
G36*
X022244D02*
X022136D01*
X022032Y042072D01*
X021938Y042018D01*
X021862Y041942D01*
X021808Y041848D01*
X02178Y041744D01*
Y041636D01*
X021808Y041532D01*
X021862Y041438D01*
X021938Y041362D01*
X022032Y041308D01*
X022136Y04128D01*
X022244D01*
X022348Y041308D01*
X022442Y041362D01*
X022518Y041438D01*
X022572Y041532D01*
X0226Y041636D01*
Y041744D01*
X022572Y041848D01*
X022518Y041942D01*
X022442Y042018D01*
X022348Y042072D01*
X022244Y0421D01*
D02*
G37*
G36*
X021244D02*
X021136D01*
X021032Y042072D01*
X020938Y042018D01*
X020862Y041942D01*
X020808Y041848D01*
X02078Y041744D01*
Y041636D01*
X020808Y041532D01*
X020862Y041438D01*
X020938Y041362D01*
X021032Y041308D01*
X021136Y04128D01*
X021244D01*
X021348Y041308D01*
X021442Y041362D01*
X021518Y041438D01*
X021572Y041532D01*
X0216Y041636D01*
Y041744D01*
X021572Y041848D01*
X021518Y041942D01*
X021442Y042018D01*
X021348Y042072D01*
X021244Y0421D01*
D02*
G37*
G36*
X02062Y04164D02*
X02024D01*
Y04126D01*
X020247D01*
X020356Y041289D01*
X020454Y041346D01*
X020534Y041426D01*
X020591Y041524D01*
X02062Y041633D01*
Y04164D01*
D02*
G37*
G36*
X02014D02*
X01976D01*
Y041633D01*
X019789Y041524D01*
X019846Y041426D01*
X019926Y041346D01*
X020024Y041289D01*
X020133Y04126D01*
X02014D01*
Y04164D01*
D02*
G37*
G36*
X018795Y0413D02*
X01843D01*
Y040935D01*
X018435D01*
X01854Y040963D01*
X018635Y041018D01*
X018712Y041095D01*
X018767Y04119D01*
X018795Y041295D01*
Y0413D01*
D02*
G37*
G36*
X01833D02*
X017965D01*
Y041295D01*
X017993Y04119D01*
X018048Y041095D01*
X018125Y041018D01*
X01822Y040963D01*
X018325Y040935D01*
X01833D01*
Y0413D01*
D02*
G37*
G36*
X044152Y04095D02*
X04413D01*
Y04045D01*
X04463D01*
Y040472D01*
X044593Y040612D01*
X04452Y040738D01*
X044418Y04084D01*
X044292Y040913D01*
X044152Y04095D01*
D02*
G37*
G36*
X04403D02*
X044008D01*
X043868Y040913D01*
X043742Y04084D01*
X04364Y040738D01*
X043567Y040612D01*
X04353Y040472D01*
Y04045D01*
X04403D01*
Y04095D01*
D02*
G37*
G36*
X036755Y041005D02*
X035845D01*
Y040095D01*
X036755D01*
Y041005D01*
D02*
G37*
G36*
X04463Y04035D02*
X04413D01*
Y03985D01*
X044152D01*
X044292Y039887D01*
X044418Y03996D01*
X04452Y040062D01*
X044593Y040188D01*
X04463Y040328D01*
Y04035D01*
D02*
G37*
G36*
X04403D02*
X04353D01*
Y040328D01*
X043567Y040188D01*
X04364Y040062D01*
X043742Y03996D01*
X043868Y039887D01*
X044008Y03985D01*
X04403D01*
Y04035D01*
D02*
G37*
G36*
X02814Y03912D02*
X028133D01*
X028024Y039091D01*
X027926Y039034D01*
X027846Y038954D01*
X027789Y038856D01*
X02776Y038747D01*
Y03874D01*
X02814D01*
Y03912D01*
D02*
G37*
G36*
X036363Y039025D02*
X03635D01*
Y0386D01*
X036775D01*
Y038613D01*
X036743Y038733D01*
X03668Y038842D01*
X036592Y03893D01*
X036483Y038993D01*
X036363Y039025D01*
D02*
G37*
G36*
X03625D02*
X036237D01*
X036117Y038993D01*
X036008Y03893D01*
X03592Y038842D01*
X035857Y038733D01*
X035825Y038613D01*
Y0386D01*
X03625D01*
Y039025D01*
D02*
G37*
G36*
X024244Y0391D02*
X024136D01*
X024032Y039072D01*
X023938Y039018D01*
X023862Y038942D01*
X023808Y038848D01*
X02378Y038744D01*
Y038636D01*
X023808Y038532D01*
X023862Y038438D01*
X023938Y038362D01*
X024032Y038308D01*
X024136Y03828D01*
X024244D01*
X024348Y038308D01*
X024442Y038362D01*
X024518Y038438D01*
X024572Y038532D01*
X0246Y038636D01*
Y038744D01*
X024572Y038848D01*
X024518Y038942D01*
X024442Y039018D01*
X024348Y039072D01*
X024244Y0391D01*
D02*
G37*
G36*
X023244D02*
X023136D01*
X023032Y039072D01*
X022938Y039018D01*
X022862Y038942D01*
X022808Y038848D01*
X02278Y038744D01*
Y038636D01*
X022808Y038532D01*
X022862Y038438D01*
X022938Y038362D01*
X023032Y038308D01*
X023136Y03828D01*
X023244D01*
X023348Y038308D01*
X023442Y038362D01*
X023518Y038438D01*
X023572Y038532D01*
X0236Y038636D01*
Y038744D01*
X023572Y038848D01*
X023518Y038942D01*
X023442Y039018D01*
X023348Y039072D01*
X023244Y0391D01*
D02*
G37*
G36*
X022244D02*
X022136D01*
X022032Y039072D01*
X021938Y039018D01*
X021862Y038942D01*
X021808Y038848D01*
X02178Y038744D01*
Y038636D01*
X021808Y038532D01*
X021862Y038438D01*
X021938Y038362D01*
X022032Y038308D01*
X022136Y03828D01*
X022244D01*
X022348Y038308D01*
X022442Y038362D01*
X022518Y038438D01*
X022572Y038532D01*
X0226Y038636D01*
Y038744D01*
X022572Y038848D01*
X022518Y038942D01*
X022442Y039018D01*
X022348Y039072D01*
X022244Y0391D01*
D02*
G37*
G36*
X021244D02*
X021136D01*
X021032Y039072D01*
X020938Y039018D01*
X020862Y038942D01*
X020808Y038848D01*
X02078Y038744D01*
Y038636D01*
X020808Y038532D01*
X020862Y038438D01*
X020938Y038362D01*
X021032Y038308D01*
X021136Y03828D01*
X021244D01*
X021348Y038308D01*
X021442Y038362D01*
X021518Y038438D01*
X021572Y038532D01*
X0216Y038636D01*
Y038744D01*
X021572Y038848D01*
X021518Y038942D01*
X021442Y039018D01*
X021348Y039072D01*
X021244Y0391D01*
D02*
G37*
G36*
X020244D02*
X020136D01*
X020032Y039072D01*
X019938Y039018D01*
X019862Y038942D01*
X019808Y038848D01*
X01978Y038744D01*
Y038636D01*
X019808Y038532D01*
X019862Y038438D01*
X019938Y038362D01*
X020032Y038308D01*
X020136Y03828D01*
X020244D01*
X020348Y038308D01*
X020442Y038362D01*
X020518Y038438D01*
X020572Y038532D01*
X0206Y038636D01*
Y038744D01*
X020572Y038848D01*
X020518Y038942D01*
X020442Y039018D01*
X020348Y039072D01*
X020244Y0391D01*
D02*
G37*
G36*
X02814Y03864D02*
X02776D01*
Y038633D01*
X027789Y038524D01*
X027846Y038426D01*
X027926Y038346D01*
X028024Y038289D01*
X028133Y03826D01*
X02814D01*
Y03864D01*
D02*
G37*
G36*
X036775Y0385D02*
X03635D01*
Y038075D01*
X036363D01*
X036483Y038107D01*
X036592Y03817D01*
X03668Y038258D01*
X036743Y038367D01*
X036775Y038487D01*
Y0385D01*
D02*
G37*
G36*
X03625D02*
X035825D01*
Y038487D01*
X035857Y038367D01*
X03592Y038258D01*
X036008Y03817D01*
X036117Y038107D01*
X036237Y038075D01*
X03625D01*
Y0385D01*
D02*
G37*
G36*
X030293Y037157D02*
X030086D01*
Y03692D01*
X030293D01*
Y037157D01*
D02*
G37*
G36*
X029986D02*
X029778D01*
Y03692D01*
X029986D01*
Y037157D01*
D02*
G37*
G36*
X020513Y037016D02*
X01992D01*
Y036833D01*
X019713D01*
Y036967D01*
X019238D01*
Y036433D01*
X019713D01*
Y036567D01*
X01992D01*
Y036384D01*
X020513D01*
Y037016D01*
D02*
G37*
G36*
X030293Y03682D02*
X030086D01*
Y036685D01*
X030136D01*
X030126Y036684D01*
X030118Y036681D01*
X03011Y036676D01*
X030104Y036669D01*
X030098Y03666D01*
X030094Y036649D01*
X03009Y036636D01*
X030088Y036621D01*
X030086Y036603D01*
X030086Y036584D01*
Y036583D01*
X030293D01*
Y03682D01*
D02*
G37*
G36*
X029986D02*
X029778D01*
Y036583D01*
X029986D01*
Y036584D01*
X029986D01*
X029985Y036603D01*
X029984Y036621D01*
X029981Y036636D01*
X029978Y036649D01*
X029973Y03666D01*
X029968Y036669D01*
X029961Y036676D01*
X029954Y036681D01*
X029945Y036684D01*
X029936Y036685D01*
X029986D01*
Y03682D01*
D02*
G37*
G36*
X018768Y036967D02*
X018766Y036967D01*
X018687D01*
Y036942D01*
X018563Y036935D01*
X01839D01*
X0183Y036917D01*
X018224Y036866D01*
X018214Y036856D01*
X018163Y03678D01*
X018145Y03669D01*
X018163Y0366D01*
X018214Y036524D01*
X01829Y036473D01*
X01838Y036455D01*
X01843Y036465D01*
X018607D01*
X018617Y036465D01*
X018684Y03646D01*
X018687Y03646D01*
Y036433D01*
X018766D01*
X018768Y036433D01*
X018769Y036433D01*
X01877Y036433D01*
X018772Y036433D01*
X019162D01*
Y036967D01*
X018772D01*
X01877Y036967D01*
X018769Y036967D01*
X018768Y036967D01*
D02*
G37*
G36*
X026563Y036407D02*
X026356D01*
Y03617D01*
X026461D01*
Y03622D01*
X026462Y03621D01*
X026465Y036202D01*
X02647Y036195D01*
X026477Y036188D01*
X026486Y036182D01*
X026497Y036178D01*
X02651Y036174D01*
X026525Y036172D01*
X026543Y03617D01*
X026562Y03617D01*
X026563D01*
Y036407D01*
D02*
G37*
G36*
X026256D02*
X026048D01*
Y03617D01*
X026256D01*
Y036407D01*
D02*
G37*
G36*
X027146D02*
X026939D01*
Y03617D01*
X027146D01*
Y036407D01*
D02*
G37*
G36*
X026839D02*
X026631D01*
Y03617D01*
X026633D01*
Y03617D01*
X026652Y03617D01*
X026669Y036172D01*
X026684Y036174D01*
X026697Y036178D01*
X026708Y036182D01*
X026718Y036188D01*
X026725Y036195D01*
X02673Y036202D01*
X026733Y03621D01*
X026734Y03622D01*
Y03617D01*
X026839D01*
Y036407D01*
D02*
G37*
G36*
X034432Y036278D02*
X033949D01*
Y03611D01*
X034331D01*
Y03616D01*
X034332Y036151D01*
X034335Y036142D01*
X03434Y036135D01*
X034347Y036128D01*
X034356Y036123D01*
X034367Y036118D01*
X03438Y036114D01*
X034395Y036112D01*
X034412Y03611D01*
X034431Y03611D01*
X034432D01*
Y036278D01*
D02*
G37*
G36*
X038054D02*
X037571D01*
Y03611D01*
X038054D01*
Y036278D01*
D02*
G37*
G36*
X037471D02*
X036988D01*
Y03611D01*
X036989D01*
D01*
X037008Y03611D01*
X037026Y036112D01*
X037041Y036114D01*
X037054Y036118D01*
X037065Y036123D01*
X037074Y036128D01*
X037081Y036135D01*
X037086Y036142D01*
X037089Y036151D01*
X03709Y03616D01*
Y03611D01*
X037471D01*
Y036278D01*
D02*
G37*
G36*
X033849D02*
X033366D01*
Y03611D01*
X033849D01*
Y036278D01*
D02*
G37*
G36*
X026839Y03607D02*
X026734D01*
Y03602D01*
X026733Y03603D01*
X02673Y036038D01*
X026725Y036045D01*
X026718Y036052D01*
X026708Y036058D01*
X026697Y036062D01*
X026684Y036065D01*
X026669Y036068D01*
X026652Y03607D01*
X026633Y03607D01*
X026631D01*
Y035833D01*
X026839D01*
Y03607D01*
D02*
G37*
G36*
X026563Y03607D02*
X026562D01*
Y03607D01*
X026543Y03607D01*
X026525Y036068D01*
X02651Y036065D01*
X026497Y036062D01*
X026486Y036058D01*
X026477Y036052D01*
X02647Y036045D01*
X026465Y036038D01*
X026462Y03603D01*
X026461Y03602D01*
Y03607D01*
X026356D01*
Y035833D01*
X026563D01*
Y03607D01*
D02*
G37*
G36*
X037471Y03601D02*
X03709D01*
Y03596D01*
X037089Y03597D01*
X037086Y035978D01*
X037081Y035986D01*
X037074Y035992D01*
X037065Y035998D01*
X037054Y036002D01*
X037041Y036005D01*
X037026Y036008D01*
X037008Y03601D01*
X036989Y03601D01*
X036988D01*
Y035842D01*
X037471D01*
Y035843D01*
D01*
X037471Y035862D01*
X037469Y03588D01*
X037467Y035895D01*
X037463Y035908D01*
X037459Y035919D01*
X037453Y035928D01*
X037447Y035935D01*
X037439Y03594D01*
X037431Y035943D01*
X037421Y035944D01*
X037471D01*
Y03601D01*
D02*
G37*
G36*
X034432D02*
X034431D01*
D01*
X034412Y03601D01*
X034395Y036008D01*
X03438Y036005D01*
X034367Y036002D01*
X034356Y035998D01*
X034347Y035992D01*
X03434Y035986D01*
X034335Y035978D01*
X034332Y03597D01*
X034331Y03596D01*
Y03601D01*
X033949D01*
Y035944D01*
X033999D01*
X033989Y035943D01*
X033981Y03594D01*
X033973Y035935D01*
X033967Y035928D01*
X033961Y035919D01*
X033957Y035908D01*
X033953Y035895D01*
X033951Y03588D01*
X033949Y035862D01*
X033949Y035843D01*
Y035842D01*
X034432D01*
Y03601D01*
D02*
G37*
G36*
X038054D02*
X037571D01*
Y035944D01*
X037621D01*
X037612Y035943D01*
X037603Y03594D01*
X037596Y035935D01*
X037589Y035928D01*
X037584Y035919D01*
X037579Y035908D01*
X037576Y035895D01*
X037573Y03588D01*
X037572Y035862D01*
X037571Y035843D01*
Y035842D01*
X038054D01*
Y03601D01*
D02*
G37*
G36*
X033849D02*
X033366D01*
Y035842D01*
X033849D01*
Y035843D01*
D01*
X033848Y035862D01*
X033847Y03588D01*
X033844Y035895D01*
X033841Y035908D01*
X033836Y035919D01*
X033831Y035928D01*
X033824Y035935D01*
X033817Y03594D01*
X033808Y035943D01*
X033799Y035944D01*
X033849D01*
Y03601D01*
D02*
G37*
G36*
X027146Y03607D02*
X026939D01*
Y035935D01*
X027045Y035934D01*
X027037Y035933D01*
X02703Y03593D01*
X027024Y035925D01*
X027019Y035918D01*
X027014Y035909D01*
X027011Y035898D01*
X027008Y035885D01*
X027006Y03587D01*
X027005Y035853D01*
X027004Y035834D01*
X026939D01*
Y035833D01*
X027146D01*
Y03607D01*
D02*
G37*
G36*
X026256Y03607D02*
X026048D01*
Y035833D01*
X026256D01*
Y03607D01*
D02*
G37*
G36*
X020513Y035966D02*
X01992D01*
Y035783D01*
X019717D01*
Y035917D01*
X019243D01*
Y035383D01*
X019717D01*
Y035517D01*
X01992D01*
Y035334D01*
X020513D01*
Y035966D01*
D02*
G37*
G36*
X02136Y035986D02*
X021093D01*
Y0357D01*
X02136D01*
Y035986D01*
D02*
G37*
G36*
X020993D02*
X020727D01*
Y0357D01*
X020993D01*
Y035986D01*
D02*
G37*
G36*
X038054Y035778D02*
X037571D01*
Y035777D01*
D01*
X037572Y035758D01*
X037573Y03574D01*
X037576Y035725D01*
X037579Y035712D01*
X037584Y035701D01*
X037589Y035692D01*
X037596Y035685D01*
X037603Y03568D01*
X037612Y035677D01*
X037621Y035676D01*
X037571D01*
Y03561D01*
X038054D01*
Y035778D01*
D02*
G37*
G36*
X034432D02*
X033949D01*
Y035777D01*
D01*
X033949Y035758D01*
X033951Y03574D01*
X033953Y035725D01*
X033957Y035712D01*
X033961Y035701D01*
X033967Y035692D01*
X033973Y035685D01*
X033981Y03568D01*
X033989Y035677D01*
X033999Y035676D01*
X033949D01*
Y03561D01*
X034432D01*
Y035778D01*
D02*
G37*
G36*
X037471D02*
X036988D01*
Y03561D01*
X037471D01*
Y035676D01*
X037421D01*
X037431Y035677D01*
X037439Y03568D01*
X037447Y035685D01*
X037453Y035692D01*
X037459Y035701D01*
X037463Y035712D01*
X037467Y035725D01*
X037469Y03574D01*
X037471Y035758D01*
X037471Y035777D01*
Y035778D01*
D02*
G37*
G36*
X033849D02*
X033366D01*
Y03561D01*
X033849D01*
Y035676D01*
X033799D01*
X033808Y035677D01*
X033817Y03568D01*
X033824Y035685D01*
X033831Y035692D01*
X033836Y035701D01*
X033841Y035712D01*
X033844Y035725D01*
X033847Y03574D01*
X033848Y035758D01*
X033849Y035777D01*
Y035778D01*
D02*
G37*
G36*
X018773Y035917D02*
X018771Y035917D01*
X018691D01*
Y035892D01*
X018567Y035885D01*
X01845D01*
X01836Y035867D01*
X018284Y035816D01*
X018274Y035806D01*
X018223Y03573D01*
X018205Y03564D01*
X018223Y03555D01*
X018274Y035474D01*
X01835Y035423D01*
X01844Y035405D01*
X01849Y035415D01*
X018611D01*
X018621Y035415D01*
X018688Y03541D01*
X018691Y03541D01*
Y035383D01*
X018771D01*
X018773Y035383D01*
X018773Y035383D01*
X018774Y035383D01*
X018776Y035383D01*
X019166D01*
Y035917D01*
X018776D01*
X018774Y035917D01*
X018773Y035917D01*
X018773Y035917D01*
D02*
G37*
G36*
X038054Y03551D02*
X037571D01*
Y035444D01*
X037621D01*
X037612Y035443D01*
X037603Y03544D01*
X037596Y035435D01*
X037589Y035428D01*
X037584Y035419D01*
X037579Y035408D01*
X037576Y035395D01*
X037573Y03538D01*
X037572Y035362D01*
X037571Y035343D01*
Y035342D01*
X038054D01*
Y03551D01*
D02*
G37*
G36*
X037471D02*
X036988D01*
Y035342D01*
X037471D01*
Y035343D01*
D01*
X037471Y035362D01*
X037469Y03538D01*
X037467Y035395D01*
X037463Y035408D01*
X037459Y035419D01*
X037453Y035428D01*
X037447Y035435D01*
X037439Y03544D01*
X037431Y035443D01*
X037421Y035444D01*
X037471D01*
Y03551D01*
D02*
G37*
G36*
X034432D02*
X033949D01*
Y035444D01*
X033999D01*
X033989Y035443D01*
X033981Y03544D01*
X033973Y035435D01*
X033967Y035428D01*
X033961Y035419D01*
X033957Y035408D01*
X033953Y035395D01*
X033951Y03538D01*
X033949Y035362D01*
X033949Y035343D01*
Y035342D01*
X034432D01*
Y03551D01*
D02*
G37*
G36*
X033849D02*
X033366D01*
Y035342D01*
X033849D01*
Y035343D01*
D01*
X033848Y035362D01*
X033847Y03538D01*
X033844Y035395D01*
X033841Y035408D01*
X033836Y035419D01*
X033831Y035428D01*
X033824Y035435D01*
X033817Y03544D01*
X033808Y035443D01*
X033799Y035444D01*
X033849D01*
Y03551D01*
D02*
G37*
G36*
X02136Y0356D02*
X021093D01*
Y035314D01*
X02136D01*
Y0356D01*
D02*
G37*
G36*
X020993D02*
X020727D01*
Y035314D01*
X020993D01*
Y0356D01*
D02*
G37*
G36*
X038054Y035278D02*
X037571D01*
Y035277D01*
D01*
X037572Y035258D01*
X037573Y03524D01*
X037576Y035225D01*
X037579Y035212D01*
X037584Y035201D01*
X037589Y035192D01*
X037596Y035185D01*
X037603Y03518D01*
X037612Y035177D01*
X037621Y035176D01*
X037571D01*
Y03511D01*
X038054D01*
Y035278D01*
D02*
G37*
G36*
X034432D02*
X033949D01*
Y035277D01*
D01*
X033949Y035258D01*
X033951Y03524D01*
X033953Y035225D01*
X033957Y035212D01*
X033961Y035201D01*
X033967Y035192D01*
X033973Y035185D01*
X033981Y03518D01*
X033989Y035177D01*
X033999Y035176D01*
X033949D01*
Y03511D01*
X034432D01*
Y035278D01*
D02*
G37*
G36*
X037471D02*
X036988D01*
Y03511D01*
X037471D01*
Y035176D01*
X037421D01*
X037431Y035177D01*
X037439Y03518D01*
X037447Y035185D01*
X037453Y035192D01*
X037459Y035201D01*
X037463Y035212D01*
X037467Y035225D01*
X037469Y03524D01*
X037471Y035258D01*
X037471Y035277D01*
Y035278D01*
D02*
G37*
G36*
X033849D02*
X033366D01*
Y03511D01*
X033849D01*
Y035176D01*
X033799D01*
X033808Y035177D01*
X033817Y03518D01*
X033824Y035185D01*
X033831Y035192D01*
X033836Y035201D01*
X033841Y035212D01*
X033844Y035225D01*
X033847Y03524D01*
X033848Y035258D01*
X033849Y035277D01*
Y035278D01*
D02*
G37*
G36*
X02462Y035173D02*
X024383D01*
Y034966D01*
X02462D01*
Y035071D01*
X02457D01*
X02458Y035072D01*
X024588Y035075D01*
X024595Y03508D01*
X024602Y035087D01*
X024608Y035096D01*
X024612Y035107D01*
X024615Y03512D01*
X024618Y035135D01*
X02462Y035153D01*
X02462Y035172D01*
Y035173D01*
D02*
G37*
G36*
X038054Y03501D02*
X037571D01*
Y034944D01*
X037621D01*
X037612Y034943D01*
X037603Y03494D01*
X037596Y034935D01*
X037589Y034928D01*
X037584Y034919D01*
X037579Y034908D01*
X037576Y034895D01*
X037573Y03488D01*
X037572Y034862D01*
X037571Y034843D01*
Y034842D01*
X038054D01*
Y03501D01*
D02*
G37*
G36*
X037471D02*
X036988D01*
Y034842D01*
X037471D01*
Y034843D01*
D01*
X037471Y034862D01*
X037469Y03488D01*
X037467Y034895D01*
X037463Y034908D01*
X037459Y034919D01*
X037453Y034928D01*
X037447Y034935D01*
X037439Y03494D01*
X037431Y034943D01*
X037421Y034944D01*
X037471D01*
Y03501D01*
D02*
G37*
G36*
X034432D02*
X033949D01*
Y034944D01*
X033999D01*
X033989Y034943D01*
X033981Y03494D01*
X033973Y034935D01*
X033967Y034928D01*
X033961Y034919D01*
X033957Y034908D01*
X033953Y034895D01*
X033951Y03488D01*
X033949Y034862D01*
X033949Y034843D01*
Y034842D01*
X034432D01*
Y03501D01*
D02*
G37*
G36*
X033849D02*
X033366D01*
Y034842D01*
X033849D01*
Y034843D01*
D01*
X033848Y034862D01*
X033847Y03488D01*
X033844Y034895D01*
X033841Y034908D01*
X033836Y034919D01*
X033831Y034928D01*
X033824Y034935D01*
X033817Y03494D01*
X033808Y034943D01*
X033799Y034944D01*
X033849D01*
Y03501D01*
D02*
G37*
G36*
X021307Y034964D02*
X0211D01*
Y034678D01*
X021307D01*
Y034964D01*
D02*
G37*
G36*
X021D02*
X020793D01*
Y034678D01*
X021D01*
Y034964D01*
D02*
G37*
G36*
X024957Y034866D02*
X02472D01*
Y034658D01*
X024957D01*
Y034866D01*
D02*
G37*
G36*
X02462D02*
X024383D01*
Y034658D01*
X02462D01*
Y034866D01*
D02*
G37*
G36*
X038054Y034778D02*
X037571D01*
Y034777D01*
D01*
X037572Y034758D01*
X037573Y03474D01*
X037576Y034725D01*
X037579Y034712D01*
X037584Y034701D01*
X037589Y034692D01*
X037596Y034685D01*
X037603Y03468D01*
X037612Y034677D01*
X037621Y034676D01*
X037571D01*
Y03461D01*
X038054D01*
Y034778D01*
D02*
G37*
G36*
X034432D02*
X033949D01*
Y034777D01*
D01*
X033949Y034758D01*
X033951Y03474D01*
X033953Y034725D01*
X033957Y034712D01*
X033961Y034701D01*
X033967Y034692D01*
X033973Y034685D01*
X033981Y03468D01*
X033989Y034677D01*
X033999Y034676D01*
X033949D01*
Y03461D01*
X034432D01*
Y034778D01*
D02*
G37*
G36*
X037471D02*
X036988D01*
Y03461D01*
X037471D01*
Y034676D01*
X037421D01*
X037431Y034677D01*
X037439Y03468D01*
X037447Y034685D01*
X037453Y034692D01*
X037459Y034701D01*
X037463Y034712D01*
X037467Y034725D01*
X037469Y03474D01*
X037471Y034758D01*
X037471Y034777D01*
Y034778D01*
D02*
G37*
G36*
X033849D02*
X033366D01*
Y03461D01*
X033849D01*
Y034676D01*
X033799D01*
X033808Y034677D01*
X033817Y03468D01*
X033824Y034685D01*
X033831Y034692D01*
X033836Y034701D01*
X033841Y034712D01*
X033844Y034725D01*
X033847Y03474D01*
X033848Y034758D01*
X033849Y034777D01*
Y034778D01*
D02*
G37*
G36*
X038054Y03451D02*
X037571D01*
Y034342D01*
X038054D01*
Y03451D01*
D02*
G37*
G36*
X037471D02*
X036988D01*
Y034342D01*
X037471D01*
Y03451D01*
D02*
G37*
G36*
X034432D02*
X033949D01*
Y034444D01*
X033999D01*
X033989Y034443D01*
X033981Y03444D01*
X033973Y034435D01*
X033967Y034428D01*
X033961Y034419D01*
X033957Y034408D01*
X033953Y034395D01*
X033951Y03438D01*
X033949Y034362D01*
X033949Y034343D01*
Y034342D01*
X034432D01*
Y03451D01*
D02*
G37*
G36*
X033849D02*
X033366D01*
Y034342D01*
X033849D01*
Y034343D01*
D01*
X033848Y034362D01*
X033847Y03438D01*
X033844Y034395D01*
X033841Y034408D01*
X033836Y034419D01*
X033831Y034428D01*
X033824Y034435D01*
X033817Y03444D01*
X033808Y034443D01*
X033799Y034444D01*
X033849D01*
Y03451D01*
D02*
G37*
G36*
X021307Y034578D02*
X0211D01*
Y034292D01*
X021307D01*
Y034578D01*
D02*
G37*
G36*
X021D02*
X020793D01*
Y034292D01*
X021D01*
Y034578D01*
D02*
G37*
G36*
X034432Y034278D02*
X033949D01*
Y034277D01*
D01*
X033949Y034258D01*
X033951Y03424D01*
X033953Y034225D01*
X033957Y034212D01*
X033961Y034201D01*
X033967Y034192D01*
X033973Y034185D01*
X033981Y03418D01*
X033989Y034177D01*
X033999Y034176D01*
X033949D01*
Y03411D01*
X034432D01*
Y034278D01*
D02*
G37*
G36*
X033849D02*
X033366D01*
Y03411D01*
X033849D01*
Y034176D01*
X033799D01*
X033808Y034177D01*
X033817Y03418D01*
X033824Y034185D01*
X033831Y034192D01*
X033836Y034201D01*
X033841Y034212D01*
X033844Y034225D01*
X033847Y03424D01*
X033848Y034258D01*
X033849Y034277D01*
Y034278D01*
D02*
G37*
G36*
X02134Y037016D02*
X020747D01*
Y036384D01*
X02134D01*
Y036567D01*
X02395D01*
X024798Y035719D01*
Y035327D01*
X024808Y035276D01*
X024837Y035233D01*
X02485Y035219D01*
X024831Y035173D01*
X02472D01*
Y035172D01*
X02472Y035153D01*
X024722Y035135D01*
X024725Y03512D01*
X024728Y035107D01*
X024732Y035096D01*
X024738Y035087D01*
X024745Y03508D01*
X024752Y035075D01*
X02476Y035072D01*
X02477Y035071D01*
X02472D01*
Y034966D01*
X024957D01*
Y035047D01*
X025003Y035066D01*
X025762Y034307D01*
X025805Y034278D01*
X025805Y034228D01*
X025805Y034227D01*
Y034171D01*
X025813Y034129D01*
X025833Y034101D01*
X025813Y034072D01*
X025805Y03403D01*
Y033975D01*
X025775Y033938D01*
X025709D01*
X025189Y034458D01*
X025146Y034487D01*
X025095Y034497D01*
X024937D01*
Y034602D01*
X024403D01*
Y034497D01*
X02374D01*
X0236Y034638D01*
X023597Y034641D01*
X023589Y034655D01*
X02358Y034674D01*
X023571Y034699D01*
X023564Y034729D01*
X023557Y034765D01*
X023552Y034804D01*
X023547Y034901D01*
X023547Y034957D01*
X023545Y034964D01*
Y03502D01*
X023514Y035136D01*
X023454Y035239D01*
X023369Y035324D01*
X023266Y035384D01*
X02315Y035415D01*
X02303D01*
X022914Y035384D01*
X022811Y035324D01*
X022726Y035239D01*
X022666Y035136D01*
X022635Y03502D01*
Y0349D01*
X022666Y034784D01*
X022726Y034681D01*
X022811Y034596D01*
X022914Y034536D01*
X02303Y034505D01*
X023086D01*
X023093Y034503D01*
X023149Y034503D01*
X023246Y034498D01*
X023285Y034493D01*
X023321Y034486D01*
X023351Y034479D01*
X023376Y03447D01*
X023396Y034461D01*
X023409Y034453D01*
X023412Y03445D01*
X023592Y034271D01*
X023635Y034242D01*
X023686Y034232D01*
X024403D01*
Y034127D01*
X024937D01*
Y034232D01*
X02504D01*
X025485Y033787D01*
X025466Y033741D01*
X024937D01*
Y033773D01*
X024858D01*
X024856Y033773D01*
X024854Y033773D01*
X024403D01*
Y033668D01*
X023666D01*
X023615Y033658D01*
X023572Y033629D01*
X023412Y03347D01*
X023409Y033467D01*
X023396Y033459D01*
X023376Y03345D01*
X023351Y033441D01*
X023321Y033434D01*
X023285Y033427D01*
X023246Y033422D01*
X023149Y033417D01*
X023093Y033417D01*
X023086Y033415D01*
X02303D01*
X022914Y033384D01*
X022811Y033324D01*
X022726Y033239D01*
X022666Y033136D01*
X022635Y03302D01*
Y0329D01*
X022666Y032784D01*
X022726Y032681D01*
X022811Y032596D01*
X022914Y032536D01*
X02303Y032505D01*
X02315D01*
X023266Y032536D01*
X023369Y032596D01*
X023454Y032681D01*
X023514Y032784D01*
X023545Y0329D01*
Y032956D01*
X023547Y032963D01*
X023547Y033019D01*
X023552Y033116D01*
X023557Y033155D01*
X023564Y033191D01*
X023571Y033221D01*
X02358Y033246D01*
X023589Y033266D01*
X023597Y033279D01*
X0236Y033282D01*
X02372Y033403D01*
X024403D01*
Y033298D01*
X024909D01*
X024913Y033292D01*
X024882Y033242D01*
X02472D01*
Y032984D01*
Y032828D01*
X02477D01*
X02476Y032827D01*
X024752Y032824D01*
X024745Y032819D01*
X024738Y032812D01*
X024732Y032803D01*
X024728Y032792D01*
X024725Y032779D01*
X024722Y032764D01*
X02472Y032747D01*
X02472Y032728D01*
Y032727D01*
X024908D01*
X024931Y032695D01*
X024938Y032677D01*
X024929Y032633D01*
Y032413D01*
X02472D01*
Y032412D01*
X02472Y032393D01*
X024722Y032375D01*
X024725Y03236D01*
X024728Y032347D01*
X024732Y032336D01*
X024738Y032327D01*
X024745Y03232D01*
X024752Y032315D01*
X02476Y032312D01*
X02477Y032311D01*
X02472D01*
Y032156D01*
Y031898D01*
X024929D01*
Y031842D01*
X024403D01*
Y031367D01*
X024435D01*
Y03095D01*
X024453Y03086D01*
X024504Y030784D01*
X02458Y030733D01*
X02467Y030715D01*
X02476Y030733D01*
X024836Y030784D01*
X024887Y03086D01*
X024905Y03095D01*
Y031367D01*
X024937D01*
Y031472D01*
X024964D01*
X025015Y031482D01*
X025058Y031511D01*
X025156Y031608D01*
X025184Y031651D01*
X025194Y031702D01*
Y032099D01*
X025244Y032133D01*
X025271Y032122D01*
X025349D01*
X025422Y032152D01*
X025447Y032177D01*
X025497Y032157D01*
Y031953D01*
X025497Y031949D01*
X025496Y031944D01*
X025495Y031941D01*
X025494Y031938D01*
X025493Y031936D01*
X025492Y031935D01*
X025491Y031934D01*
X025487Y03193D01*
X025484Y031924D01*
X025462Y031902D01*
X025432Y031829D01*
Y031751D01*
X025462Y031678D01*
X025518Y031622D01*
X025591Y031592D01*
X025669D01*
X025742Y031622D01*
X025798Y031678D01*
X025828Y031751D01*
Y031829D01*
X025798Y031902D01*
X025776Y031924D01*
X025773Y03193D01*
X025769Y031934D01*
X025768Y031935D01*
X025767Y031936D01*
X025766Y031938D01*
X025765Y031941D01*
X025764Y031944D01*
X025763Y031949D01*
X025763Y031953D01*
Y032358D01*
X025813Y032363D01*
X025813Y032358D01*
X025837Y032322D01*
X025873Y032298D01*
X025915Y03229D01*
X026049D01*
Y031097D01*
X025944D01*
Y030563D01*
X026419D01*
Y030697D01*
X026653D01*
Y030563D01*
X027127D01*
Y031097D01*
X026653D01*
Y030963D01*
X026419D01*
Y031097D01*
X026314D01*
Y03229D01*
X026474D01*
X026516Y032298D01*
X026551Y032322D01*
X026575Y032358D01*
X026584Y0324D01*
Y032455D01*
X026575Y032497D01*
X026556Y032526D01*
X026575Y032555D01*
X026584Y032597D01*
Y032652D01*
X026575Y032694D01*
X026556Y032723D01*
X026575Y032752D01*
X026584Y032793D01*
Y032849D01*
X026575Y032891D01*
X026556Y032919D01*
X026575Y032948D01*
X026584Y03299D01*
Y033045D01*
X026575Y033087D01*
X026568Y033098D01*
X026594Y033137D01*
X026599Y033165D01*
X026194D01*
Y033265D01*
X026599D01*
X026594Y033292D01*
X026568Y033331D01*
X026575Y033342D01*
X026584Y033384D01*
Y033439D01*
X026575Y033481D01*
X026556Y03351D01*
X026575Y033539D01*
X026584Y033581D01*
Y033636D01*
X026575Y033678D01*
X026556Y033707D01*
X026575Y033736D01*
X026584Y033778D01*
Y033833D01*
X026575Y033875D01*
X026556Y033904D01*
X026575Y033933D01*
X026584Y033975D01*
Y03403D01*
X026575Y034072D01*
X026556Y034101D01*
X026575Y034129D01*
X026584Y034171D01*
Y034227D01*
X026575Y034269D01*
X026556Y034297D01*
X026575Y034326D01*
X026584Y034368D01*
Y034423D01*
X026575Y034465D01*
X026556Y034494D01*
X026575Y034523D01*
X026584Y034565D01*
Y03462D01*
X026575Y034662D01*
X026551Y034698D01*
X026516Y034722D01*
X026474Y03473D01*
X025915D01*
X025873Y034722D01*
X025837Y034698D01*
X025829Y034686D01*
X025769Y034676D01*
X025063Y035382D01*
Y035774D01*
X025063Y035774D01*
X025053Y035825D01*
X025024Y035868D01*
X024098Y036794D01*
X024055Y036822D01*
X024005Y036833D01*
X02134D01*
Y037016D01*
D02*
G37*
G36*
X038034Y034258D02*
X037008D01*
Y033862D01*
X038034D01*
Y034258D01*
D02*
G37*
G36*
X038807Y033849D02*
X038273D01*
Y033693D01*
X038034D01*
Y033758D01*
X037008D01*
Y033362D01*
X038034D01*
Y033427D01*
X038273D01*
Y033374D01*
X038807D01*
Y033437D01*
X038897D01*
X038901Y033437D01*
X038906Y033436D01*
X038909Y033435D01*
X038912Y033434D01*
X038914Y033433D01*
X038915Y033432D01*
X038916Y033431D01*
X03892Y033427D01*
X038926Y033424D01*
X038948Y033402D01*
X039021Y033372D01*
X039099D01*
X039172Y033402D01*
X039228Y033458D01*
X039258Y033531D01*
Y033609D01*
X039228Y033682D01*
X039172Y033738D01*
X039099Y033768D01*
X039021D01*
X038948Y033738D01*
X038926Y033716D01*
X03892Y033713D01*
X038916Y033709D01*
X038915Y033708D01*
X038914Y033707D01*
X038912Y033706D01*
X038909Y033705D01*
X038906Y033704D01*
X038901Y033703D01*
X038897Y033703D01*
X038807D01*
Y033849D01*
D02*
G37*
G36*
X02462Y033242D02*
X024383D01*
Y033034D01*
X024478D01*
X024482Y033039D01*
X024484Y033046D01*
X024485Y033054D01*
Y033034D01*
X02462D01*
Y033242D01*
D02*
G37*
G36*
Y032934D02*
X024485D01*
Y032869D01*
X024484Y032877D01*
X024482Y032884D01*
X024477Y032891D01*
X02447Y032896D01*
X024462Y032901D01*
X024452Y032905D01*
X024439Y032908D01*
X024425Y03291D01*
X024409Y032911D01*
X024392Y032912D01*
Y032934D01*
X024383D01*
Y032727D01*
X02462D01*
Y032728D01*
X02462Y032747D01*
X024618Y032764D01*
X024615Y032779D01*
X024612Y032792D01*
X024608Y032803D01*
X024602Y032812D01*
X024595Y032819D01*
X024588Y032824D01*
X02458Y032827D01*
X02457Y032828D01*
X02462D01*
Y032934D01*
D02*
G37*
G36*
X033057Y033356D02*
X032523D01*
Y033251D01*
X032169D01*
X032118Y033241D01*
X032075Y033213D01*
X031336Y032474D01*
X031308Y032431D01*
X031297Y03238D01*
Y032097D01*
X031253Y032073D01*
X03124Y032082D01*
X03115Y0321D01*
X030697D01*
Y032103D01*
X030618D01*
X030616Y032103D01*
X030615Y032103D01*
X030615Y032103D01*
X030613Y032103D01*
X030163D01*
Y032008D01*
X030044Y031998D01*
X02906D01*
Y032144D01*
X029052Y032186D01*
X029028Y032221D01*
X028992Y032245D01*
X02895Y032254D01*
X028895D01*
X028853Y032245D01*
X028842Y032238D01*
X028803Y032264D01*
X028776Y032269D01*
Y031864D01*
X028676D01*
Y032269D01*
X028649Y032264D01*
X028609Y032238D01*
X028598Y032245D01*
X028557Y032254D01*
X028501D01*
X028459Y032245D01*
X028431Y032226D01*
X028402Y032245D01*
X02836Y032254D01*
X028305D01*
X028263Y032245D01*
X028234Y032226D01*
X028205Y032245D01*
X028163Y032254D01*
X028108D01*
X028066Y032245D01*
X028037Y032226D01*
X028008Y032245D01*
X027966Y032254D01*
X027911D01*
X027869Y032245D01*
X02784Y032226D01*
X027811Y032245D01*
X027769Y032254D01*
X027714D01*
X027672Y032245D01*
X027643Y032226D01*
X027614Y032245D01*
X027572Y032254D01*
X027517D01*
X027475Y032245D01*
X027446Y032226D01*
X027417Y032245D01*
X027375Y032254D01*
X02732D01*
X027278Y032245D01*
X027249Y032226D01*
X027221Y032245D01*
X027179Y032254D01*
X027123D01*
X027081Y032245D01*
X027053Y032226D01*
X027024Y032245D01*
X026982Y032254D01*
X026927D01*
X026885Y032245D01*
X026856Y032226D01*
X026827Y032245D01*
X026785Y032254D01*
X02673D01*
X026688Y032245D01*
X026652Y032221D01*
X026628Y032186D01*
X02662Y032144D01*
Y031585D01*
X026628Y031543D01*
X026652Y031507D01*
X026688Y031483D01*
X02673Y031475D01*
X026785D01*
X026827Y031483D01*
X026856Y031503D01*
X026885Y031483D01*
X026927Y031475D01*
X026982D01*
X027024Y031483D01*
X027053Y031503D01*
X027081Y031483D01*
X027123Y031475D01*
X027179D01*
X027221Y031483D01*
X027249Y031503D01*
X027278Y031483D01*
X02732Y031475D01*
X027375D01*
X027417Y031483D01*
X027446Y031503D01*
X027475Y031483D01*
X027517Y031475D01*
X027572D01*
X027614Y031483D01*
X027643Y031503D01*
X027672Y031483D01*
X027714Y031475D01*
X027769D01*
X027811Y031483D01*
X02784Y031503D01*
X027869Y031483D01*
X027911Y031475D01*
X027966D01*
X028008Y031483D01*
X028037Y031503D01*
X028066Y031483D01*
X028108Y031475D01*
X028163D01*
X0282Y031445D01*
Y031313D01*
X02821Y031263D01*
X028238Y03122D01*
X028792Y030666D01*
X028835Y030638D01*
X028885Y030627D01*
X029138D01*
Y029642D01*
X029137Y02964D01*
X029138Y029639D01*
Y029637D01*
X029137Y029636D01*
X029138Y029635D01*
Y029559D01*
X029171D01*
X029172Y029555D01*
X02918Y029433D01*
Y028982D01*
X028293Y028095D01*
X028272Y028095D01*
X028232Y0281D01*
X0282Y028105D01*
X028175Y028112D01*
X028159Y028119D01*
X028155Y028121D01*
Y02819D01*
X028076D01*
X028074Y02819D01*
X028072Y02819D01*
X027528D01*
X027526Y02819D01*
X027524Y02819D01*
X027445D01*
Y028122D01*
X027442Y02812D01*
X027426Y028114D01*
X027401Y028107D01*
X027369Y028102D01*
X027304Y028096D01*
X027248D01*
X027183Y028102D01*
X027151Y028108D01*
X027126Y028114D01*
X027118Y028118D01*
X027108Y028248D01*
Y030075D01*
X027097Y030126D01*
X027069Y030169D01*
X026804Y030434D01*
X026761Y030462D01*
X02671Y030473D01*
X025835D01*
X025794Y030513D01*
X025815Y030563D01*
X025867D01*
Y031097D01*
X025393D01*
Y030563D01*
X025497D01*
Y03049D01*
X025508Y030439D01*
X025536Y030396D01*
X025686Y030246D01*
X025729Y030218D01*
X02578Y030207D01*
X026655D01*
X026842Y03002D01*
Y028259D01*
X026841Y028205D01*
X026835Y028125D01*
X026834Y028119D01*
X026824Y028114D01*
X026799Y028108D01*
X026766Y028102D01*
X026727Y028097D01*
X026703Y028096D01*
X026684D01*
X026656Y028099D01*
X026618Y028105D01*
X026587Y028113D01*
X026565Y028122D01*
X02655Y028131D01*
X026542Y028139D01*
X026538Y028145D01*
X026536Y028152D01*
X026535Y028158D01*
Y028357D01*
X025765D01*
Y02737D01*
X026535D01*
Y027566D01*
X026536Y027572D01*
X026538Y027579D01*
X026542Y027585D01*
X02655Y027592D01*
X026565Y027601D01*
X026587Y02761D01*
X026618Y027619D01*
X026656Y027625D01*
X026684Y027627D01*
X027303D01*
X027328Y027627D01*
X027367Y027622D01*
X0274Y027616D01*
X027425Y027609D01*
X027441Y027603D01*
X027445Y0276D01*
Y02753D01*
X027524D01*
X027526Y02753D01*
X027528Y02753D01*
X028072D01*
X028074Y02753D01*
X028076Y02753D01*
X028155D01*
Y027599D01*
X028159Y027601D01*
X028175Y027608D01*
X0282Y027615D01*
X028231Y02762D01*
X028296Y027625D01*
X02839D01*
X02848Y027643D01*
X028556Y027694D01*
X02958Y028719D01*
X029631Y028795D01*
X029649Y028884D01*
Y029463D01*
X029653Y029525D01*
X029657Y029553D01*
X029658Y029559D01*
X029691D01*
Y029635D01*
X029692Y029636D01*
X029691Y029637D01*
Y029639D01*
X029692Y02964D01*
X029691Y029642D01*
Y030627D01*
X030043D01*
Y029642D01*
X030043Y02964D01*
X030043Y029639D01*
Y029637D01*
X030043Y029636D01*
X030043Y029635D01*
Y029559D01*
X030077D01*
X030078Y029555D01*
X030085Y029433D01*
Y02928D01*
Y028529D01*
X030083Y028501D01*
X030077Y028463D01*
X030069Y028433D01*
X030059Y02841D01*
X030051Y028396D01*
X030043Y028388D01*
X030037Y028384D01*
X03003Y028381D01*
X030024Y028381D01*
X02959D01*
Y027276D01*
X030967D01*
X030969Y027275D01*
X03097Y027276D01*
X03105D01*
Y027347D01*
X031054Y02735D01*
X03107Y027357D01*
X031095Y027364D01*
X031126Y02737D01*
X031193Y027375D01*
X031995D01*
X032018Y027375D01*
X032058Y02737D01*
X03209Y027364D01*
X032115Y027358D01*
X032131Y027351D01*
X032135Y027349D01*
Y02728D01*
X032214D01*
X032216Y02728D01*
X032218Y02728D01*
X032762D01*
X032764Y02728D01*
X032766Y02728D01*
X032845D01*
Y027349D01*
X032849Y027351D01*
X032865Y027358D01*
X03289Y027364D01*
X032921Y02737D01*
X032986Y027375D01*
X03311D01*
X03316Y027365D01*
X03325Y027383D01*
X033326Y027434D01*
X033377Y02751D01*
X033395Y0276D01*
X033377Y02769D01*
X033326Y027766D01*
X033316Y027776D01*
X03324Y027827D01*
X03315Y027845D01*
X032985D01*
X032962Y027845D01*
X032922Y02785D01*
X03289Y027856D01*
X032865Y027862D01*
X032849Y027869D01*
X032845Y027871D01*
Y02794D01*
X032766D01*
X032764Y02794D01*
X032762Y02794D01*
X032218D01*
X032216Y02794D01*
X032214Y02794D01*
X032135D01*
Y027871D01*
X032131Y027869D01*
X032115Y027862D01*
X03209Y027856D01*
X032059Y02785D01*
X031994Y027845D01*
X031198D01*
X03117Y027847D01*
X031132Y027853D01*
X031102Y027861D01*
X031079Y027871D01*
X031065Y027879D01*
X031057Y027887D01*
X031053Y027893D01*
X03105Y0279D01*
X03105Y027907D01*
Y028381D01*
X030616D01*
X03061Y028381D01*
X030603Y028384D01*
X030597Y028388D01*
X030589Y028396D01*
X030581Y02841D01*
X030571Y028433D01*
X030563Y028463D01*
X030557Y028501D01*
X030555Y028529D01*
Y02888D01*
X030561Y028918D01*
X030572Y028951D01*
X030586Y028976D01*
X030603Y028997D01*
X030624Y029014D01*
X030649Y029028D01*
X030682Y029039D01*
X03072Y029045D01*
X03163D01*
X03172Y029063D01*
X031796Y029114D01*
X032059Y029377D01*
X032105Y029358D01*
Y02928D01*
X03243D01*
Y02958D01*
X032327D01*
X032308Y029626D01*
X032345Y029664D01*
X032401Y029716D01*
X032449Y029754D01*
X032493Y029784D01*
X03252Y0298D01*
X032752D01*
X032754Y0298D01*
X032756Y0298D01*
X032835D01*
Y029869D01*
X032839Y029871D01*
X032855Y029878D01*
X03288Y029885D01*
X032911Y02989D01*
X032976Y029895D01*
X033289D01*
X033317Y029893D01*
X033355Y029887D01*
X033386Y029879D01*
X033408Y029869D01*
X033422Y029861D01*
X03343Y029853D01*
X033435Y029847D01*
X033437Y02984D01*
X033438Y029834D01*
Y029569D01*
X033991D01*
Y030674D01*
X033438D01*
Y030426D01*
X033437Y03042D01*
X033435Y030413D01*
X03343Y030407D01*
X033422Y030399D01*
X033408Y030391D01*
X033386Y030381D01*
X033355Y030373D01*
X033317Y030367D01*
X033289Y030365D01*
X032975D01*
X032952Y030365D01*
X032912Y03037D01*
X03288Y030375D01*
X032855Y030382D01*
X032839Y030389D01*
X032835Y030391D01*
Y03046D01*
X032756D01*
X032754Y03046D01*
X032752Y03046D01*
X032125D01*
Y030141D01*
X032115Y030124D01*
X032085Y030081D01*
X032006Y029988D01*
X031572Y029554D01*
X031522Y029575D01*
Y030062D01*
X030929D01*
Y029539D01*
X030889Y029515D01*
X03072D01*
X030682Y029521D01*
X030649Y029532D01*
X030624Y029546D01*
X030603Y029563D01*
X030597Y02957D01*
Y029635D01*
X030597Y029636D01*
X030597Y029637D01*
Y029639D01*
X030597Y02964D01*
X030597Y029642D01*
Y030627D01*
X030929D01*
Y030162D01*
X031522D01*
Y030684D01*
X031327D01*
X031308Y03073D01*
X031704Y031126D01*
X031732Y031169D01*
X031743Y03122D01*
Y031706D01*
X031793Y031722D01*
X031804Y031704D01*
X03188Y031653D01*
X03197Y031635D01*
X03206Y031653D01*
X032136Y031704D01*
X032167Y031735D01*
X032523D01*
Y031733D01*
X032602D01*
X032604Y031732D01*
X032605Y031732D01*
X032605Y031732D01*
X032607Y031733D01*
X033057D01*
Y032207D01*
X032606D01*
X032604Y032208D01*
X032603Y032208D01*
X032602Y032208D01*
X032586Y032207D01*
X032523D01*
Y032206D01*
X032444Y032205D01*
X03207D01*
X03198Y032187D01*
X031904Y032136D01*
X031804Y032036D01*
X031793Y032018D01*
X031743Y032034D01*
Y032245D01*
X031886Y032389D01*
X032523D01*
Y032284D01*
X033057D01*
Y032427D01*
X033386D01*
Y032362D01*
X034412D01*
Y032758D01*
X033386D01*
Y032693D01*
X033057D01*
Y032759D01*
X032523D01*
Y032654D01*
X031957D01*
X031937Y0327D01*
X032224Y032986D01*
X032523D01*
Y032881D01*
X032974D01*
X032976Y032881D01*
X032978Y032881D01*
X033057D01*
Y032927D01*
X033386D01*
Y032862D01*
X034412D01*
Y033258D01*
X033386D01*
Y033193D01*
X033057D01*
Y033356D01*
D02*
G37*
G36*
X038034Y032758D02*
X037008D01*
Y032362D01*
X038034D01*
Y032758D01*
D02*
G37*
G36*
X02462Y032413D02*
X024383D01*
Y032206D01*
X02462D01*
Y032311D01*
X02457D01*
X02458Y032312D01*
X024588Y032315D01*
X024595Y03232D01*
X024602Y032327D01*
X024608Y032336D01*
X024612Y032347D01*
X024615Y03236D01*
X024618Y032375D01*
X02462Y032393D01*
X02462Y032412D01*
Y032413D01*
D02*
G37*
G36*
Y032106D02*
X024383D01*
Y031898D01*
X02462D01*
Y032106D01*
D02*
G37*
G36*
X034432Y03401D02*
X033899D01*
X033366D01*
Y033842D01*
X033881D01*
X033886Y033792D01*
X033809Y033777D01*
X033781Y033758D01*
X033386D01*
Y033362D01*
X033781D01*
X033809Y033343D01*
X033899Y033325D01*
X034673D01*
X036134Y031864D01*
X03621Y031813D01*
X0363Y031795D01*
X04371D01*
X0438Y031813D01*
X043876Y031864D01*
X043882Y03187D01*
X04461D01*
Y03293D01*
X04355D01*
Y032327D01*
X043549Y03232D01*
X043547Y032313D01*
X043543Y032307D01*
X043535Y032299D01*
X04352Y032291D01*
X043498Y032281D01*
X043467Y032273D01*
X043429Y032267D01*
X043401Y032265D01*
X038755D01*
X038729Y032315D01*
X038767Y03237D01*
X038785Y03246D01*
X038775Y03251D01*
Y032742D01*
X038775Y032753D01*
X03878Y03282D01*
X03878Y032823D01*
X038807D01*
Y032902D01*
X038807Y032904D01*
X038807Y032905D01*
X038807Y032906D01*
X038807Y032907D01*
Y033297D01*
X038356D01*
X038354Y033298D01*
X038353Y033298D01*
X038352Y033298D01*
X038336Y033297D01*
X038273D01*
Y033296D01*
X038194Y033295D01*
X037521D01*
X037431Y033277D01*
X037404Y033258D01*
X037008D01*
Y032862D01*
X037404D01*
X037431Y032843D01*
X037521Y032825D01*
X038273D01*
Y032823D01*
X038298D01*
X038305Y032698D01*
Y03247D01*
X038323Y03238D01*
X038367Y032315D01*
X038356Y032281D01*
X038343Y032265D01*
X036397D01*
X034936Y033726D01*
X03486Y033777D01*
X03477Y033795D01*
X034438D01*
X034432Y033842D01*
X034432Y033845D01*
Y03401D01*
D02*
G37*
G36*
X021099Y032608D02*
X021021D01*
X020948Y032578D01*
X020892Y032522D01*
X020862Y032449D01*
Y032371D01*
X020892Y032298D01*
X020914Y032276D01*
X020917Y03227D01*
X020921Y032266D01*
X020922Y032265D01*
X020923Y032264D01*
X020924Y032262D01*
X020925Y032259D01*
X020926Y032256D01*
X020927Y032251D01*
X020927Y032247D01*
Y032188D01*
X020813D01*
Y031556D01*
X021287D01*
Y032188D01*
X021193D01*
Y032247D01*
X021193Y032251D01*
X021194Y032256D01*
X021195Y032259D01*
X021196Y032262D01*
X021197Y032264D01*
X021198Y032265D01*
X021199Y032266D01*
X021203Y03227D01*
X021206Y032276D01*
X021228Y032298D01*
X021258Y032371D01*
Y032449D01*
X021228Y032522D01*
X021172Y032578D01*
X021099Y032608D01*
D02*
G37*
G36*
X027699Y031117D02*
X027491D01*
Y03088D01*
X027699D01*
Y031117D01*
D02*
G37*
G36*
X027391D02*
X027184D01*
Y03088D01*
X027391D01*
Y031117D01*
D02*
G37*
G36*
X027699Y03078D02*
X027491D01*
Y030543D01*
X027699D01*
Y03078D01*
D02*
G37*
G36*
X027391D02*
X027184D01*
Y030543D01*
X027391D01*
Y03078D01*
D02*
G37*
G36*
X037125Y03048D02*
X0368D01*
Y03018D01*
X037125D01*
Y03048D01*
D02*
G37*
G36*
X0367D02*
X036375D01*
Y03018D01*
X0367D01*
Y03048D01*
D02*
G37*
G36*
X035822Y030694D02*
X035576D01*
Y030172D01*
X035822D01*
Y030694D01*
D02*
G37*
G36*
X035476D02*
X035229D01*
Y030172D01*
X035476D01*
Y030694D01*
D02*
G37*
G36*
X040199Y030818D02*
X040121D01*
X040048Y030788D01*
X039992Y030732D01*
X039962Y030659D01*
Y030581D01*
X039992Y030508D01*
X04002Y03048D01*
X040024Y030474D01*
X040028Y03047D01*
X040028Y03047D01*
X040029Y030469D01*
X04003Y030467D01*
X040031Y030465D01*
X040028Y030455D01*
X040017Y030438D01*
X040002Y030417D01*
X039928D01*
Y029883D01*
X040403D01*
Y030417D01*
X040314D01*
X040299Y030465D01*
X0403Y03047D01*
X040301Y030474D01*
X040302Y030477D01*
X040303Y030479D01*
X040304Y030481D01*
X040305Y030483D01*
X040309Y030487D01*
X040311Y030491D01*
X040328Y030508D01*
X040358Y030581D01*
Y030659D01*
X040328Y030732D01*
X040272Y030788D01*
X040199Y030818D01*
D02*
G37*
G36*
X026535Y03009D02*
X025765D01*
Y029888D01*
X025764Y029881D01*
X025762Y029874D01*
X025758Y029868D01*
X02575Y029861D01*
X025735Y029852D01*
X025713Y029843D01*
X025682Y029835D01*
X025644Y029828D01*
X025616Y029826D01*
X025011D01*
X024983Y029828D01*
X024945Y029835D01*
X024915Y029843D01*
X024892Y029852D01*
X024878Y029861D01*
X02487Y029868D01*
X024866Y029874D01*
X024864Y029881D01*
X024862Y029898D01*
Y029972D01*
X024783D01*
X024781Y029972D01*
X024779Y029972D01*
X023438D01*
Y029202D01*
X024862D01*
Y029295D01*
X024863Y029302D01*
X024865Y029308D01*
X024869Y029315D01*
X024877Y029322D01*
X024892Y029331D01*
X024914Y02934D01*
X024945Y029348D01*
X024983Y029354D01*
X025011Y029357D01*
X025616D01*
X025644Y029354D01*
X025682Y029348D01*
X025713Y02934D01*
X025735Y029331D01*
X02575Y029322D01*
X025758Y029315D01*
X025762Y029309D01*
X025764Y029302D01*
X025765Y029295D01*
Y029103D01*
X026535D01*
Y03009D01*
D02*
G37*
G36*
X037125Y03008D02*
X0368D01*
Y02978D01*
X037125D01*
Y03008D01*
D02*
G37*
G36*
X0367D02*
X036375D01*
Y02978D01*
X0367D01*
Y03008D01*
D02*
G37*
G36*
X035822Y030072D02*
X035576D01*
Y029549D01*
X035822D01*
Y030072D01*
D02*
G37*
G36*
X035476D02*
X035229D01*
Y029549D01*
X035476D01*
Y030072D01*
D02*
G37*
G36*
X0218Y029818D02*
X02135D01*
Y029368D01*
X0218D01*
Y029818D01*
D02*
G37*
G36*
X02125D02*
X0208D01*
Y029368D01*
X02125D01*
Y029818D01*
D02*
G37*
G36*
X032855Y02958D02*
X03253D01*
Y02928D01*
X032855D01*
Y02958D01*
D02*
G37*
G36*
X042343Y02941D02*
X042217D01*
X042095Y029377D01*
X041985Y029314D01*
X041944Y029273D01*
X041938Y029269D01*
X041915Y029247D01*
X041892Y029229D01*
X041869Y029213D01*
X041845Y0292D01*
X041819Y029188D01*
X041792Y029179D01*
X041764Y029171D01*
X041734Y029166D01*
X04172Y029165D01*
X040942D01*
X040908Y029166D01*
Y029177D01*
X04083D01*
X040828Y029178D01*
X040828Y029178D01*
X040827Y029178D01*
X040825Y029177D01*
X040276D01*
Y028683D01*
X040825D01*
X040827Y028682D01*
X040829Y028683D01*
X04083D01*
X040832Y028682D01*
X040836Y028683D01*
X040908D01*
Y028687D01*
X041075Y028695D01*
X04172D01*
X041734Y028694D01*
X041764Y028689D01*
X041792Y028681D01*
X041819Y028672D01*
X041845Y02866D01*
X041869Y028647D01*
X041892Y028631D01*
X041915Y028613D01*
X041938Y028591D01*
X041944Y028587D01*
X041985Y028546D01*
X042095Y028483D01*
X042217Y02845D01*
X042343D01*
X042465Y028483D01*
X042575Y028546D01*
X042664Y028635D01*
X042727Y028745D01*
X04276Y028867D01*
Y028993D01*
X042727Y029115D01*
X042664Y029225D01*
X042575Y029314D01*
X042465Y029377D01*
X042343Y02941D01*
D02*
G37*
G36*
X039852Y030417D02*
X039377D01*
Y029883D01*
X039475D01*
Y029551D01*
X039292D01*
Y029057D01*
X039924D01*
Y029551D01*
X03974D01*
Y029883D01*
X039852D01*
Y030417D01*
D02*
G37*
G36*
X0218Y029268D02*
X02135D01*
Y028818D01*
X0218D01*
Y029268D01*
D02*
G37*
G36*
X02125D02*
X0208D01*
Y028818D01*
X02125D01*
Y029268D01*
D02*
G37*
G36*
X028175Y02911D02*
X02785D01*
Y02881D01*
X028175D01*
Y02911D01*
D02*
G37*
G36*
X02775D02*
X027425D01*
Y02881D01*
X02775D01*
Y02911D01*
D02*
G37*
G36*
X039946Y028827D02*
X03966D01*
Y02861D01*
X039946D01*
Y028827D01*
D02*
G37*
G36*
X03956D02*
X039274D01*
Y02861D01*
X03956D01*
Y028827D01*
D02*
G37*
G36*
X032855Y02918D02*
X03248D01*
X032105D01*
Y028906D01*
X032105Y02888D01*
X032115Y028834D01*
Y02856D01*
X03249D01*
X032865D01*
Y028834D01*
X032865Y02886D01*
X032855Y028906D01*
Y02918D01*
D02*
G37*
G36*
X045547Y02941D02*
X044587D01*
Y02845D01*
X045547D01*
Y02941D01*
D02*
G37*
G36*
X028175Y02871D02*
X02785D01*
Y02841D01*
X028175D01*
Y02871D01*
D02*
G37*
G36*
X02775D02*
X027425D01*
Y02841D01*
X02775D01*
Y02871D01*
D02*
G37*
G36*
X039946Y02851D02*
X03966D01*
Y028293D01*
X039946D01*
Y02851D01*
D02*
G37*
G36*
X03956D02*
X039274D01*
Y028293D01*
X03956D01*
Y02851D01*
D02*
G37*
G36*
X032865Y02846D02*
X03254D01*
Y02816D01*
X032865D01*
Y02846D01*
D02*
G37*
G36*
X03244D02*
X032115D01*
Y02816D01*
X03244D01*
Y02846D01*
D02*
G37*
G36*
X021363Y02842D02*
X021237D01*
X021115Y028387D01*
X021005Y028324D01*
X020916Y028235D01*
X020853Y028125D01*
X02082Y028003D01*
Y027877D01*
X020853Y027755D01*
X020916Y027645D01*
X021005Y027556D01*
X021115Y027493D01*
X021237Y02746D01*
X021363D01*
X021485Y027493D01*
X021595Y027556D01*
X021633Y027594D01*
X021639Y027598D01*
X021663Y02762D01*
X021685Y027638D01*
X021709Y027654D01*
X021733Y027667D01*
X021759Y027678D01*
X021786Y027688D01*
X021815Y027695D01*
X021845Y027701D01*
X021859Y027702D01*
X023289D01*
X023317Y0277D01*
X023356Y027693D01*
X023386Y027685D01*
X023408Y027676D01*
X023423Y027667D01*
X023431Y02766D01*
X023435Y027654D01*
X023437Y027647D01*
X023438Y02764D01*
Y027548D01*
X024862D01*
Y028318D01*
X023438D01*
Y028233D01*
X023437Y028226D01*
X023435Y028219D01*
X023431Y028213D01*
X023423Y028206D01*
X023408Y028197D01*
X023386Y028188D01*
X023356Y02818D01*
X023317Y028174D01*
X023289Y028171D01*
X021862D01*
X021847Y028173D01*
X021818Y028178D01*
X021789Y028186D01*
X021763Y028195D01*
X021737Y028207D01*
X021713Y02822D01*
X02169Y028236D01*
X021668Y028254D01*
X021644Y028276D01*
X021639Y02828D01*
X021595Y028324D01*
X021485Y028387D01*
X021363Y02842D01*
D02*
G37*
G36*
X034897Y030674D02*
X034343D01*
Y029652D01*
X034343Y02965D01*
X034343Y029649D01*
Y029647D01*
X034343Y029646D01*
X034343Y029645D01*
Y029569D01*
X034377D01*
X034378Y029565D01*
X034385Y029443D01*
Y02924D01*
Y028539D01*
X034383Y028511D01*
X034377Y028473D01*
X034369Y028443D01*
X034359Y02842D01*
X034351Y028406D01*
X034343Y028398D01*
X034337Y028394D01*
X03433Y028391D01*
X034324Y028391D01*
X03389D01*
Y027286D01*
X03535D01*
Y028391D01*
X034916D01*
X03491Y028391D01*
X034903Y028394D01*
X034897Y028398D01*
X034889Y028406D01*
X034881Y02842D01*
X034871Y028443D01*
X034863Y028473D01*
X034857Y028511D01*
X034855Y028539D01*
Y028995D01*
X036255D01*
X036278Y028995D01*
X036318Y02899D01*
X03635Y028984D01*
X036375Y028978D01*
X036391Y028971D01*
X036395Y028969D01*
Y0289D01*
X036468D01*
X036478Y028899D01*
X036478Y028899D01*
X036481Y028897D01*
X036486Y02889D01*
X036494Y028875D01*
X036502Y028851D01*
X036508Y028821D01*
X036515Y028751D01*
Y02721D01*
X036505Y02716D01*
X036523Y02707D01*
X036574Y026994D01*
X03665Y026943D01*
X03674Y026925D01*
X03683Y026943D01*
X036906Y026994D01*
X036916Y027004D01*
X036967Y02708D01*
X036985Y02717D01*
Y028759D01*
X036986Y028781D01*
X036991Y02882D01*
X036998Y028851D01*
X037006Y028875D01*
X037014Y02889D01*
X037019Y028897D01*
X037022Y028899D01*
X037022Y028899D01*
X037032Y0289D01*
X037105D01*
Y028979D01*
X037105Y028981D01*
X037105Y028983D01*
Y02956D01*
X036478D01*
X036476Y02956D01*
X036474Y02956D01*
X036395D01*
Y029491D01*
X036391Y029489D01*
X036375Y029482D01*
X03635Y029476D01*
X036319Y02947D01*
X036254Y029465D01*
X034902D01*
X034857Y029515D01*
X034859Y029535D01*
X034862Y029563D01*
X034863Y029569D01*
X034897D01*
Y029645D01*
X034897Y029646D01*
X034897Y029647D01*
Y029649D01*
X034897Y02965D01*
X034897Y029652D01*
Y030674D01*
D02*
G37*
G36*
X048025Y026925D02*
X047715D01*
Y026615D01*
X048025D01*
Y026925D01*
D02*
G37*
%LPD*%
G36*
X028835Y043216D02*
X028785Y043125D01*
X028768Y043139D01*
X028749Y043149D01*
X028729Y043157D01*
X028706Y043161D01*
X028681Y043162D01*
X028654Y043159D01*
X028626Y043154D01*
X028595Y043145D01*
X028562Y043132D01*
X028527Y043117D01*
X028678Y043527D01*
X028835Y043216D01*
D02*
G37*
G36*
X0464Y043085D02*
X046354Y043086D01*
X046272Y043082D01*
X046236Y043078D01*
X046203Y043072D01*
X046173Y043064D01*
X046147Y043054D01*
X046123Y043043D01*
X046103Y04303D01*
X046086Y043015D01*
X046017Y043088D01*
X046031Y043104D01*
X046044Y043124D01*
X046056Y043148D01*
X046066Y043174D01*
X046074Y043204D01*
X046081Y043238D01*
X046087Y043274D01*
X046094Y043357D01*
X046095Y043404D01*
X0464Y043085D01*
D02*
G37*
G36*
X0454D02*
X045354Y043086D01*
X045272Y043082D01*
X045236Y043078D01*
X045203Y043072D01*
X045173Y043064D01*
X045147Y043054D01*
X045123Y043043D01*
X045103Y04303D01*
X045086Y043015D01*
X045017Y043088D01*
X045031Y043104D01*
X045044Y043124D01*
X045056Y043148D01*
X045066Y043174D01*
X045074Y043204D01*
X045081Y043238D01*
X045087Y043274D01*
X045094Y043357D01*
X045095Y043404D01*
X0454Y043085D01*
D02*
G37*
G36*
X0444D02*
X044354Y043086D01*
X044272Y043082D01*
X044236Y043078D01*
X044203Y043072D01*
X044173Y043064D01*
X044147Y043054D01*
X044123Y043043D01*
X044103Y04303D01*
X044086Y043015D01*
X044017Y043088D01*
X044031Y043104D01*
X044044Y043124D01*
X044056Y043148D01*
X044066Y043174D01*
X044074Y043204D01*
X044081Y043238D01*
X044087Y043274D01*
X044094Y043357D01*
X044095Y043404D01*
X0444Y043085D01*
D02*
G37*
G36*
X0434D02*
X043354Y043086D01*
X043272Y043082D01*
X043236Y043078D01*
X043203Y043072D01*
X043173Y043064D01*
X043147Y043054D01*
X043123Y043043D01*
X043103Y04303D01*
X043086Y043015D01*
X043017Y043088D01*
X043031Y043104D01*
X043044Y043124D01*
X043056Y043148D01*
X043066Y043174D01*
X043074Y043204D01*
X043081Y043238D01*
X043087Y043274D01*
X043094Y043357D01*
X043095Y043404D01*
X0434Y043085D01*
D02*
G37*
G36*
X0384D02*
X038354Y043086D01*
X038272Y043082D01*
X038236Y043078D01*
X038203Y043072D01*
X038173Y043064D01*
X038147Y043054D01*
X038123Y043043D01*
X038103Y04303D01*
X038086Y043015D01*
X038017Y043088D01*
X038031Y043104D01*
X038044Y043124D01*
X038056Y043148D01*
X038066Y043174D01*
X038074Y043204D01*
X038081Y043238D01*
X038087Y043274D01*
X038094Y043357D01*
X038095Y043404D01*
X0384Y043085D01*
D02*
G37*
G36*
X0374D02*
X037354Y043086D01*
X037272Y043082D01*
X037236Y043078D01*
X037203Y043072D01*
X037173Y043064D01*
X037147Y043054D01*
X037123Y043043D01*
X037103Y04303D01*
X037086Y043015D01*
X037017Y043088D01*
X037031Y043104D01*
X037044Y043124D01*
X037056Y043148D01*
X037066Y043174D01*
X037074Y043204D01*
X037081Y043238D01*
X037087Y043274D01*
X037094Y043357D01*
X037095Y043404D01*
X0374Y043085D01*
D02*
G37*
G36*
X0364D02*
X036354Y043086D01*
X036272Y043082D01*
X036236Y043078D01*
X036203Y043072D01*
X036173Y043064D01*
X036147Y043054D01*
X036123Y043043D01*
X036103Y04303D01*
X036086Y043015D01*
X036017Y043088D01*
X036031Y043104D01*
X036044Y043124D01*
X036056Y043148D01*
X036066Y043174D01*
X036074Y043204D01*
X036081Y043238D01*
X036087Y043274D01*
X036094Y043357D01*
X036095Y043404D01*
X0364Y043085D01*
D02*
G37*
G36*
X0354D02*
X035354Y043086D01*
X035272Y043082D01*
X035236Y043078D01*
X035203Y043072D01*
X035173Y043064D01*
X035147Y043054D01*
X035123Y043043D01*
X035103Y04303D01*
X035086Y043015D01*
X035017Y043088D01*
X035031Y043104D01*
X035044Y043124D01*
X035056Y043148D01*
X035066Y043174D01*
X035074Y043204D01*
X035081Y043238D01*
X035087Y043274D01*
X035094Y043357D01*
X035095Y043404D01*
X0354Y043085D01*
D02*
G37*
G36*
X025757Y043364D02*
X025766Y04328D01*
X025772Y043243D01*
X02578Y04321D01*
X025788Y04318D01*
X025799Y043153D01*
X02581Y04313D01*
X025823Y04311D01*
X025837Y043094D01*
X02577Y04302D01*
X025752Y043035D01*
X025732Y043048D01*
X025708Y043059D01*
X025682Y043068D01*
X025652Y043075D01*
X025619Y043081D01*
X025584Y043085D01*
X025545Y043087D01*
X025457Y043086D01*
X025755Y043411D01*
X025757Y043364D01*
D02*
G37*
G36*
X026748Y04322D02*
X026745Y043211D01*
Y0432D01*
X026748Y043188D01*
X026754Y043175D01*
X026762Y04316D01*
X026774Y043144D01*
X026788Y043126D01*
X026824Y043086D01*
X026754Y043016D01*
X026733Y043035D01*
X026696Y043066D01*
X02668Y043078D01*
X026665Y043086D01*
X026652Y043092D01*
X02664Y043095D01*
X026629D01*
X02662Y043092D01*
X026612Y043086D01*
X026754Y043228D01*
X026748Y04322D01*
D02*
G37*
G36*
X031311Y043085D02*
X031302Y043082D01*
X031295Y043077D01*
X031288Y04307D01*
X031282Y043061D01*
X031278Y04305D01*
X031274Y043037D01*
X031272Y043022D01*
X03127Y043005D01*
X03127Y042986D01*
X03117D01*
X03117Y043005D01*
X031168Y043022D01*
X031165Y043037D01*
X031162Y04305D01*
X031158Y043061D01*
X031152Y04307D01*
X031146Y043077D01*
X031138Y043082D01*
X03113Y043085D01*
X03112Y043086D01*
X03132D01*
X031311Y043085D01*
D02*
G37*
G36*
X026861Y042072D02*
X026882Y042059D01*
X026907Y042047D01*
X026935Y042038D01*
X026966Y04203D01*
X027001Y042024D01*
X027039Y04202D01*
X02708Y042018D01*
X027173Y04202D01*
X02686Y041679D01*
X026858Y041729D01*
X026843Y041857D01*
X026835Y041892D01*
X026826Y041924D01*
X026815Y041952D01*
X026803Y041976D01*
X02679Y041997D01*
X026776Y042014D01*
X026843Y042087D01*
X026861Y042072D01*
D02*
G37*
G36*
X027851Y042063D02*
X027872Y042049D01*
X027897Y042038D01*
X027925Y042029D01*
X027956Y042022D01*
X02799Y042017D01*
X028027Y042014D01*
X028068Y042013D01*
X028158Y042018D01*
X027861Y041665D01*
X027856Y041716D01*
X027836Y041845D01*
X027828Y041881D01*
X027818Y041912D01*
X027807Y04194D01*
X027795Y041965D01*
X027782Y041985D01*
X027768Y042001D01*
X027833Y042078D01*
X027851Y042063D01*
D02*
G37*
G36*
X018695Y040301D02*
X018701Y040218D01*
X018706Y040182D01*
X018712Y040149D01*
X01872Y040119D01*
X01873Y040092D01*
X018741Y040069D01*
X018754Y040049D01*
X018769Y040032D01*
X018698Y039961D01*
X018681Y039976D01*
X018661Y039989D01*
X018638Y04D01*
X018611Y04001D01*
X018581Y040018D01*
X018548Y040024D01*
X018512Y040029D01*
X018429Y040035D01*
X018383Y040035D01*
X018695Y040347D01*
X018695Y040301D01*
D02*
G37*
G36*
X038757Y039937D02*
X038741Y039917D01*
X038727Y039894D01*
X038714Y039866D01*
X038703Y039834D01*
X038694Y039798D01*
X038687Y039758D01*
X038681Y039713D01*
X038675Y039611D01*
X038675Y039554D01*
X038304Y039925D01*
X038361Y039925D01*
X038463Y039931D01*
X038508Y039937D01*
X038548Y039944D01*
X038584Y039953D01*
X038616Y039964D01*
X038644Y039977D01*
X038667Y039991D01*
X038687Y040007D01*
X038757Y039937D01*
D02*
G37*
G36*
X018695Y039301D02*
X018701Y039218D01*
X018706Y039182D01*
X018712Y039149D01*
X01872Y039119D01*
X01873Y039092D01*
X018741Y039069D01*
X018754Y039049D01*
X018769Y039032D01*
X018698Y038961D01*
X018681Y038976D01*
X018661Y038989D01*
X018638Y039D01*
X018611Y03901D01*
X018581Y039018D01*
X018548Y039024D01*
X018512Y039029D01*
X018429Y039035D01*
X018383Y039035D01*
X018695Y039347D01*
X018695Y039301D01*
D02*
G37*
G36*
X02652Y038638D02*
X026526Y03855D01*
X026531Y038512D01*
X026538Y038477D01*
X026546Y038446D01*
X026556Y038418D01*
X026568Y038393D01*
X026581Y038372D01*
X026596Y038355D01*
X026525Y038284D01*
X026508Y038299D01*
X026487Y038312D01*
X026462Y038324D01*
X026434Y038334D01*
X026403Y038342D01*
X026368Y038349D01*
X02633Y038354D01*
X026242Y03836D01*
X026193Y03836D01*
X02652Y038687D01*
X02652Y038638D01*
D02*
G37*
G36*
X02552D02*
X025526Y03855D01*
X025531Y038512D01*
X025538Y038477D01*
X025546Y038446D01*
X025556Y038418D01*
X025568Y038393D01*
X025581Y038372D01*
X025596Y038355D01*
X025525Y038284D01*
X025508Y038299D01*
X025487Y038312D01*
X025462Y038324D01*
X025434Y038334D01*
X025403Y038342D01*
X025368Y038349D01*
X02533Y038354D01*
X025242Y03836D01*
X025193Y03836D01*
X02552Y038687D01*
X02552Y038638D01*
D02*
G37*
G36*
X02949Y03855D02*
X029493Y038546D01*
X029498Y038539D01*
X029504Y038531D01*
X029538Y038494D01*
X02959Y03844D01*
X029378Y038228D01*
X029244Y038365D01*
X02949Y038553D01*
X02949Y03855D01*
D02*
G37*
G36*
X027384Y03842D02*
X027364Y038399D01*
X027346Y038377D01*
X02733Y038354D01*
X027317Y038331D01*
X027307Y038308D01*
X027298Y038284D01*
X027292Y03826D01*
X027289Y038235D01*
X027287Y03821D01*
X027187D01*
X027186Y038233D01*
X027182Y038255D01*
X027175Y038276D01*
X027166Y038296D01*
X027154Y038314D01*
X027139Y038332D01*
X027121Y038348D01*
X027101Y038363D01*
X027078Y038377D01*
X027053Y03839D01*
X027407Y038441D01*
X027384Y03842D01*
D02*
G37*
G36*
X029641Y037056D02*
X029328D01*
X029329Y037059D01*
X02933Y037068D01*
X029331Y037083D01*
X029334Y037356D01*
X029634D01*
X029641Y037056D01*
D02*
G37*
G36*
X02958Y036751D02*
X02957Y036733D01*
X029562Y03671D01*
X029555Y036685D01*
X029584D01*
X029575Y036684D01*
X029566Y036681D01*
X029559Y036676D01*
X029552Y036669D01*
X029552Y036668D01*
X029548Y036652D01*
X029543Y036616D01*
X029537Y036531D01*
X029534Y036429D01*
X029434D01*
X029434Y036482D01*
X02942Y036652D01*
X029417Y036668D01*
X029416Y036669D01*
X02941Y036676D01*
X029402Y036681D01*
X029394Y036684D01*
X029384Y036685D01*
X029414D01*
X029407Y03671D01*
X029398Y036733D01*
X029389Y036751D01*
X029378Y036764D01*
X029591D01*
X02958Y036751D01*
D02*
G37*
G36*
X025911Y036306D02*
X025598D01*
X025599Y036309D01*
X0256Y036318D01*
X025601Y036333D01*
X025604Y036606D01*
X025904D01*
X025911Y036306D01*
D02*
G37*
G36*
X027596Y035934D02*
X027596Y035933D01*
X027596Y03593D01*
X027595Y035909D01*
X027595Y035834D01*
X027495D01*
X027494Y035853D01*
X027493Y03587D01*
X02749Y035886D01*
X027487Y035899D01*
X027482Y03591D01*
X027477Y035919D01*
X02747Y035926D01*
X027463Y035931D01*
X027454Y035934D01*
X027445Y035935D01*
X027596Y035934D01*
D02*
G37*
G36*
X025859Y036009D02*
X025847Y03599D01*
X025837Y035969D01*
X025829Y035948D01*
X025825Y035935D01*
X025854D01*
X025845Y035934D01*
X025836Y035931D01*
X025829Y035926D01*
X025822Y035919D01*
X025818Y035912D01*
X025815Y035899D01*
X02581Y035873D01*
X025807Y035845D01*
X025804Y035786D01*
X025704D01*
X025704Y035816D01*
X025698Y035873D01*
X025694Y035899D01*
X025691Y035912D01*
X025686Y035919D01*
X02568Y035926D01*
X025672Y035931D01*
X025664Y035934D01*
X025654Y035935D01*
X025684D01*
X02568Y035948D01*
X025672Y035969D01*
X025662Y03599D01*
X02565Y036009D01*
X025637Y036026D01*
X025871D01*
X025859Y036009D01*
D02*
G37*
G36*
X028975Y035445D02*
X02887D01*
X028871Y035447D01*
X028871Y035451D01*
X028872Y035464D01*
X028873Y035549D01*
X028973D01*
X028975Y035445D01*
D02*
G37*
G36*
X028778D02*
X028673D01*
X028674Y035447D01*
X028674Y035451D01*
X028675Y035464D01*
X028676Y035549D01*
X028776D01*
X028778Y035445D01*
D02*
G37*
G36*
X028581D02*
X028477D01*
X028477Y035447D01*
X028477Y035451D01*
X028478Y035464D01*
X028479Y035549D01*
X028579D01*
X028581Y035445D01*
D02*
G37*
G36*
X028385D02*
X02828D01*
X02828Y035447D01*
X028281Y035451D01*
X028281Y035464D01*
X028282Y035549D01*
X028382D01*
X028385Y035445D01*
D02*
G37*
G36*
X027991D02*
X027886D01*
X027886Y035447D01*
X027887Y035451D01*
X027888Y035464D01*
X027888Y035549D01*
X027988D01*
X027991Y035445D01*
D02*
G37*
G36*
X027794D02*
X027689D01*
X02769Y035447D01*
X02769Y035451D01*
X027691Y035464D01*
X027692Y035549D01*
X027792D01*
X027794Y035445D01*
D02*
G37*
G36*
X027597D02*
X027492D01*
X027493Y035447D01*
X027493Y035451D01*
X027494Y035464D01*
X027495Y035549D01*
X027595D01*
X027597Y035445D01*
D02*
G37*
G36*
X032326Y035479D02*
X032321Y035472D01*
X032316Y035464D01*
X032312Y035455D01*
X032308Y035446D01*
X032305Y035437D01*
X032303Y035426D01*
X032301Y035416D01*
X0323Y035404D01*
X0323Y035392D01*
X0322D01*
X0322Y035404D01*
X032199Y035416D01*
X032197Y035426D01*
X032195Y035437D01*
X032192Y035446D01*
X032188Y035455D01*
X032184Y035464D01*
X032179Y035472D01*
X032174Y035479D01*
X032167Y035486D01*
X032333D01*
X032326Y035479D01*
D02*
G37*
G36*
X026704Y035056D02*
X026703Y035065D01*
X0267Y035074D01*
X026695Y035081D01*
X026688Y035088D01*
X026679Y035093D01*
X026668Y035098D01*
X026655Y035101D01*
X026639Y035104D01*
X026622Y035105D01*
X026603Y035106D01*
Y035206D01*
X026622Y035206D01*
X026639Y035208D01*
X026655Y03521D01*
X026668Y035214D01*
X026679Y035218D01*
X026688Y035224D01*
X026695Y03523D01*
X0267Y035238D01*
X026703Y035246D01*
X026704Y035256D01*
Y035056D01*
D02*
G37*
G36*
X031121Y034894D02*
X031112Y034894D01*
X031102Y034892D01*
X031093Y03489D01*
X031084Y034887D01*
X031076Y034883D01*
X031067Y034879D01*
X031058Y034873D01*
X031049Y034867D01*
X03104Y034859D01*
X031031Y034851D01*
X030961Y034922D01*
X030969Y03493D01*
X030976Y034939D01*
X030983Y034948D01*
X030989Y034957D01*
X030993Y034966D01*
X030997Y034975D01*
X031Y034984D01*
X031002Y034993D01*
X031003Y035002D01*
X031004Y035011D01*
X031121Y034894D01*
D02*
G37*
G36*
X029535Y034728D02*
X029536Y034711D01*
X029539Y034695D01*
X029542Y034682D01*
X029547Y034671D01*
X029552Y034662D01*
X029559Y034655D01*
X029566Y03465D01*
X029575Y034647D01*
X029584Y034646D01*
X029384D01*
X029394Y034647D01*
X029402Y03465D01*
X02941Y034655D01*
X029416Y034662D01*
X029422Y034671D01*
X029426Y034682D01*
X02943Y034695D01*
X029432Y034711D01*
X029434Y034728D01*
X029434Y034747D01*
X029534D01*
X029535Y034728D01*
D02*
G37*
G36*
X029777Y034251D02*
X029781Y034251D01*
X029794Y03425D01*
X029879Y034249D01*
Y034149D01*
X029775Y034147D01*
Y034251D01*
X029777Y034251D01*
D02*
G37*
G36*
Y034054D02*
X029781Y034054D01*
X029794Y034053D01*
X029879Y034052D01*
Y033952D01*
X029775Y03395D01*
Y034055D01*
X029777Y034054D01*
D02*
G37*
G36*
X03294Y033991D02*
X032949Y033877D01*
X032953Y033859D01*
X032958Y033845D01*
X032963Y033834D01*
X032969Y033828D01*
X032976Y033826D01*
X032604D01*
X032611Y033828D01*
X032617Y033834D01*
X032622Y033845D01*
X032627Y033859D01*
X032631Y033877D01*
X032634Y0339D01*
X032639Y033957D01*
X03264Y03403D01*
X03294D01*
X03294Y033991D01*
D02*
G37*
G36*
X029885Y03376D02*
X029866Y03376D01*
X029783Y033756D01*
X029779Y033754D01*
X029775Y033753D01*
Y033858D01*
X029776Y033858D01*
X029779Y033859D01*
X029784Y033859D01*
X029849Y03386D01*
X029892Y03386D01*
X029885Y03376D01*
D02*
G37*
G36*
Y033564D02*
X029866Y033563D01*
X029783Y033559D01*
X029779Y033557D01*
X029775Y033556D01*
Y033661D01*
X029776Y033661D01*
X029779Y033662D01*
X029784Y033662D01*
X029849Y033663D01*
X029892Y033664D01*
X029885Y033564D01*
D02*
G37*
G36*
X029777Y033464D02*
X029781Y033463D01*
X029794Y033462D01*
X029879Y033462D01*
Y033362D01*
X029775Y033359D01*
Y033464D01*
X029777Y033464D01*
D02*
G37*
G36*
Y033267D02*
X029781Y033266D01*
X029794Y033266D01*
X029879Y033265D01*
Y033165D01*
X029775Y033162D01*
Y033267D01*
X029777Y033267D01*
D02*
G37*
G36*
Y03307D02*
X029781Y033069D01*
X029794Y033069D01*
X029879Y033068D01*
Y032968D01*
X029775Y032965D01*
Y03307D01*
X029777Y03307D01*
D02*
G37*
G36*
Y032873D02*
X029781Y032873D01*
X029794Y032872D01*
X029879Y032871D01*
Y032771D01*
X029775Y032769D01*
Y032873D01*
X029777Y032873D01*
D02*
G37*
G36*
Y032676D02*
X029781Y032676D01*
X029794Y032675D01*
X029879Y032674D01*
Y032574D01*
X029775Y032572D01*
Y032677D01*
X029777Y032676D01*
D02*
G37*
G36*
Y032479D02*
X029781Y032479D01*
X029794Y032478D01*
X029879Y032477D01*
Y032377D01*
X029775Y032375D01*
Y03248D01*
X029777Y032479D01*
D02*
G37*
G36*
X024757Y043364D02*
X024766Y04328D01*
X024772Y043243D01*
X02478Y04321D01*
X024788Y04318D01*
X024799Y043153D01*
X02481Y04313D01*
X024823Y04311D01*
X024837Y043094D01*
X02477Y04302D01*
X024752Y043035D01*
X024732Y043048D01*
X024708Y043059D01*
X024682Y043068D01*
X024652Y043075D01*
X024619Y043081D01*
X024584Y043085D01*
X024545Y043087D01*
X024457Y043086D01*
X024755Y043411D01*
X024757Y043364D01*
D02*
G37*
G36*
X025861Y042072D02*
X025882Y042059D01*
X025907Y042047D01*
X025935Y042038D01*
X025966Y04203D01*
X026001Y042024D01*
X026039Y04202D01*
X02608Y042018D01*
X026173Y04202D01*
X02586Y041679D01*
X025858Y041729D01*
X025843Y041857D01*
X025835Y041892D01*
X025826Y041924D01*
X025815Y041952D01*
X025803Y041976D01*
X02579Y041997D01*
X025776Y042014D01*
X025843Y042087D01*
X025861Y042072D01*
D02*
G37*
G36*
X020002Y0366D02*
X020001Y036609D01*
X019998Y036618D01*
X019993Y036625D01*
X019986Y036632D01*
X019977Y036637D01*
X019966Y036642D01*
X019953Y036646D01*
X019938Y036648D01*
X019921Y036649D01*
X019901Y03665D01*
Y03675D01*
X019921Y036751D01*
X019938Y036752D01*
X019953Y036755D01*
X019966Y036758D01*
X019977Y036762D01*
X019986Y036768D01*
X019993Y036774D01*
X019998Y036782D01*
X020001Y03679D01*
X020002Y0368D01*
Y0366D01*
D02*
G37*
G36*
X019633Y03679D02*
X019636Y036782D01*
X019641Y036774D01*
X019648Y036768D01*
X019657Y036762D01*
X019668Y036758D01*
X019681Y036755D01*
X019696Y036752D01*
X019713Y036751D01*
X019732Y03675D01*
Y03665D01*
X019713Y036649D01*
X019696Y036648D01*
X019681Y036646D01*
X019668Y036642D01*
X019657Y036637D01*
X019648Y036632D01*
X019641Y036625D01*
X019636Y036618D01*
X019633Y036609D01*
X019632Y0366D01*
Y0368D01*
X019633Y03679D01*
D02*
G37*
G36*
X018768Y036514D02*
X018765Y036521D01*
X018756Y036527D01*
X018741Y036532D01*
X01872Y036537D01*
X018693Y036541D01*
X018621Y036547D01*
X018468Y03655D01*
Y03685D01*
X018525Y03685D01*
X01872Y036863D01*
X018741Y036868D01*
X018756Y036873D01*
X018765Y036879D01*
X018768Y036886D01*
Y036514D01*
D02*
G37*
G36*
X020002Y03555D02*
X020001Y035559D01*
X019998Y035568D01*
X019993Y035575D01*
X019986Y035582D01*
X019977Y035587D01*
X019966Y035592D01*
X019953Y035596D01*
X019938Y035598D01*
X019921Y0356D01*
X019901Y0356D01*
Y0357D01*
X019921Y035701D01*
X019938Y035702D01*
X019953Y035705D01*
X019966Y035708D01*
X019977Y035712D01*
X019986Y035718D01*
X019993Y035724D01*
X019998Y035732D01*
X020001Y03574D01*
X020002Y03575D01*
Y03555D01*
D02*
G37*
G36*
X019637Y03574D02*
X01964Y035732D01*
X019645Y035724D01*
X019652Y035718D01*
X019661Y035712D01*
X019672Y035708D01*
X019685Y035705D01*
X0197Y035702D01*
X019717Y035701D01*
X019736Y0357D01*
Y0356D01*
X019717Y0356D01*
X0197Y035598D01*
X019685Y035596D01*
X019672Y035592D01*
X019661Y035587D01*
X019652Y035582D01*
X019645Y035575D01*
X01964Y035568D01*
X019637Y035559D01*
X019636Y03555D01*
Y03575D01*
X019637Y03574D01*
D02*
G37*
G36*
X018773Y035464D02*
X01877Y035471D01*
X018761Y035477D01*
X018746Y035482D01*
X018725Y035487D01*
X018698Y035491D01*
X018626Y035497D01*
X018473Y0355D01*
Y0358D01*
X01853Y0358D01*
X018725Y035813D01*
X018746Y035818D01*
X018761Y035823D01*
X01877Y035829D01*
X018773Y035836D01*
Y035464D01*
D02*
G37*
G36*
X02126Y03679D02*
X021263Y036782D01*
X021268Y036774D01*
X021275Y036768D01*
X021284Y036762D01*
X021295Y036758D01*
X021308Y036755D01*
X021323Y036752D01*
X02134Y036751D01*
X021359Y03675D01*
Y03665D01*
X02134Y036649D01*
X021323Y036648D01*
X021308Y036646D01*
X021295Y036642D01*
X021284Y036637D01*
X021275Y036632D01*
X021268Y036625D01*
X021263Y036618D01*
X02126Y036609D01*
X021259Y0366D01*
Y0368D01*
X02126Y03679D01*
D02*
G37*
G36*
X023465Y034899D02*
X023471Y034797D01*
X023477Y034752D01*
X023484Y034712D01*
X023493Y034676D01*
X023504Y034644D01*
X023517Y034616D01*
X023531Y034593D01*
X023547Y034573D01*
X023477Y034503D01*
X023457Y034519D01*
X023434Y034533D01*
X023406Y034546D01*
X023374Y034557D01*
X023338Y034566D01*
X023298Y034573D01*
X023253Y034579D01*
X023151Y034585D01*
X023094Y034585D01*
X023465Y034956D01*
X023465Y034899D01*
D02*
G37*
G36*
X024856Y034455D02*
X024859Y034446D01*
X024864Y034439D01*
X024871Y034432D01*
X02488Y034427D01*
X024891Y034422D01*
X024904Y034419D01*
X024919Y034416D01*
X024937Y034415D01*
X024956Y034414D01*
Y034314D01*
X024937Y034314D01*
X024919Y034312D01*
X024904Y03431D01*
X024891Y034306D01*
X02488Y034302D01*
X024871Y034296D01*
X024864Y03429D01*
X024859Y034282D01*
X024856Y034274D01*
X024855Y034264D01*
Y034464D01*
X024856Y034455D01*
D02*
G37*
G36*
X024485Y034264D02*
X024484Y034274D01*
X024481Y034282D01*
X024476Y03429D01*
X024469Y034296D01*
X02446Y034302D01*
X024449Y034306D01*
X024436Y03431D01*
X024421Y034312D01*
X024403Y034314D01*
X024384Y034314D01*
Y034414D01*
X024403Y034415D01*
X024421Y034416D01*
X024436Y034419D01*
X024449Y034422D01*
X02446Y034427D01*
X024469Y034432D01*
X024476Y034439D01*
X024481Y034446D01*
X024484Y034455D01*
X024485Y034464D01*
Y034264D01*
D02*
G37*
G36*
X025905Y033753D02*
X025903Y033753D01*
X025899Y033754D01*
X025886Y033754D01*
X025801Y033755D01*
Y033855D01*
X025905Y033858D01*
Y033753D01*
D02*
G37*
G36*
Y033556D02*
X025903Y033556D01*
X025899Y033557D01*
X025886Y033558D01*
X025801Y033558D01*
X025801Y033658D01*
X025905Y033661D01*
Y033556D01*
D02*
G37*
G36*
X024857Y033686D02*
X02486Y03368D01*
X024865Y033675D01*
X024872Y03367D01*
X024881Y033667D01*
X024892Y033664D01*
X024905Y033661D01*
X02492Y03366D01*
X024956Y033658D01*
Y033558D01*
X024937Y033558D01*
X024919Y033556D01*
X024904Y033554D01*
X024891Y03355D01*
X02488Y033546D01*
X024871Y03354D01*
X024864Y033534D01*
X024859Y033526D01*
X024856Y033518D01*
X024855Y033508D01*
X024856Y033692D01*
X024857Y033686D01*
D02*
G37*
G36*
X024485Y033436D02*
X024484Y033445D01*
X024481Y033454D01*
X024476Y033461D01*
X024469Y033468D01*
X02446Y033473D01*
X024449Y033478D01*
X024436Y033481D01*
X024421Y033484D01*
X024403Y033485D01*
X024384Y033486D01*
Y033586D01*
X024403Y033586D01*
X024421Y033588D01*
X024436Y03359D01*
X024449Y033594D01*
X02446Y033598D01*
X024469Y033604D01*
X024476Y03361D01*
X024481Y033618D01*
X024484Y033626D01*
X024485Y033636D01*
Y033436D01*
D02*
G37*
G36*
X025197Y033469D02*
X025203Y033467D01*
X02521Y033466D01*
X025226Y033464D01*
X025245Y033462D01*
X025281Y033462D01*
X025338Y033362D01*
X025326Y033361D01*
X025315Y03336D01*
X025305Y033358D01*
X025295Y033355D01*
X025287Y033352D01*
X02528Y033347D01*
X025274Y033342D01*
X025269Y033337D01*
X025264Y03333D01*
X025261Y033322D01*
X025191Y033471D01*
X025197Y033469D01*
D02*
G37*
G36*
X025905Y033162D02*
X025903Y033163D01*
X025899Y033163D01*
X025886Y033164D01*
X025801Y033165D01*
Y033265D01*
X025905Y033267D01*
Y033162D01*
D02*
G37*
G36*
X023547Y033347D02*
X023531Y033327D01*
X023517Y033304D01*
X023504Y033276D01*
X023493Y033244D01*
X023484Y033208D01*
X023477Y033168D01*
X023471Y033123D01*
X023465Y033021D01*
X023465Y032964D01*
X023094Y033335D01*
X023151Y033335D01*
X023253Y033341D01*
X023298Y033347D01*
X023338Y033354D01*
X023374Y033363D01*
X023406Y033374D01*
X023434Y033387D01*
X023457Y033401D01*
X023477Y033417D01*
X023547Y033347D01*
D02*
G37*
G36*
X024856Y033075D02*
X024859Y033066D01*
X024864Y033059D01*
X024871Y033052D01*
X02488Y033047D01*
X024891Y033042D01*
X024904Y033039D01*
X024919Y033036D01*
X024937Y033035D01*
X024956Y033034D01*
Y032934D01*
X024937Y032934D01*
X024919Y032932D01*
X024904Y03293D01*
X024891Y032926D01*
X02488Y032922D01*
X024871Y032916D01*
X024864Y03291D01*
X024859Y032902D01*
X024856Y032894D01*
X024855Y032884D01*
Y033084D01*
X024856Y033075D01*
D02*
G37*
G36*
X025905Y032769D02*
X025903Y032769D01*
X025899Y032769D01*
X025886Y03277D01*
X025801Y032771D01*
Y032871D01*
X025905Y032873D01*
Y032769D01*
D02*
G37*
G36*
Y032572D02*
X025903Y032572D01*
X025899Y032573D01*
X025886Y032573D01*
X025801Y032574D01*
Y032674D01*
X025905Y032677D01*
Y032572D01*
D02*
G37*
G36*
X02536Y032486D02*
X025361Y032474D01*
X025363Y032464D01*
X025365Y032453D01*
X025368Y032444D01*
X025372Y032435D01*
X025376Y032426D01*
X025381Y032418D01*
X025386Y032411D01*
X025393Y032404D01*
X025227D01*
X025234Y032411D01*
X025239Y032418D01*
X025244Y032426D01*
X025248Y032435D01*
X025252Y032444D01*
X025255Y032453D01*
X025257Y032464D01*
X025259Y032474D01*
X02526Y032486D01*
X02526Y032498D01*
X02536D01*
X02536Y032486D01*
D02*
G37*
G36*
X026272Y032373D02*
X026263Y03237D01*
X026256Y032365D01*
X026249Y032358D01*
X026244Y032349D01*
X026239Y032338D01*
X026236Y032325D01*
X026233Y032309D01*
X026232Y032292D01*
X026231Y032273D01*
X026131D01*
X026131Y032292D01*
X026129Y032309D01*
X026127Y032325D01*
X026123Y032338D01*
X026119Y032349D01*
X026113Y032358D01*
X026107Y032365D01*
X026099Y03237D01*
X026091Y032373D01*
X026081Y032374D01*
X026281D01*
X026272Y032373D01*
D02*
G37*
G36*
X02568Y031956D02*
X025681Y031944D01*
X025683Y031934D01*
X025685Y031923D01*
X025688Y031914D01*
X025692Y031905D01*
X025696Y031896D01*
X025701Y031888D01*
X025706Y031881D01*
X025713Y031874D01*
X025547D01*
X025554Y031881D01*
X025559Y031888D01*
X025564Y031896D01*
X025568Y031905D01*
X025572Y031914D01*
X025575Y031923D01*
X025577Y031934D01*
X025579Y031944D01*
X02558Y031956D01*
X02558Y031968D01*
X02568D01*
X02568Y031956D01*
D02*
G37*
G36*
X026232Y031097D02*
X026233Y031079D01*
X026236Y031064D01*
X026239Y031051D01*
X026244Y03104D01*
X026249Y031031D01*
X026256Y031024D01*
X026263Y031019D01*
X026272Y031016D01*
X026281Y031015D01*
X026081D01*
X026091Y031016D01*
X026099Y031019D01*
X026107Y031024D01*
X026113Y031031D01*
X026119Y03104D01*
X026123Y031051D01*
X026127Y031064D01*
X026129Y031079D01*
X026131Y031097D01*
X026131Y031116D01*
X026231D01*
X026232Y031097D01*
D02*
G37*
G36*
X026734Y03073D02*
X026733Y03074D01*
X02673Y030748D01*
X026725Y030756D01*
X026718Y030762D01*
X026709Y030768D01*
X026698Y030772D01*
X026685Y030775D01*
X02667Y030778D01*
X026653Y03078D01*
X026634Y03078D01*
Y03088D01*
X026653Y03088D01*
X02667Y030882D01*
X026685Y030884D01*
X026698Y030888D01*
X026709Y030893D01*
X026718Y030898D01*
X026725Y030905D01*
X02673Y030912D01*
X026733Y030921D01*
X026734Y03093D01*
Y03073D01*
D02*
G37*
G36*
X026337Y030921D02*
X02634Y030912D01*
X026345Y030905D01*
X026352Y030898D01*
X026362Y030893D01*
X026373Y030888D01*
X026386Y030884D01*
X026401Y030882D01*
X026418Y03088D01*
X026437Y03088D01*
Y03078D01*
X026418Y03078D01*
X026401Y030778D01*
X026386Y030775D01*
X026373Y030772D01*
X026362Y030768D01*
X026352Y030762D01*
X026345Y030756D01*
X02634Y030748D01*
X026337Y03074D01*
X026336Y03073D01*
Y03093D01*
X026337Y030921D01*
D02*
G37*
G36*
X038976Y033487D02*
X038969Y033494D01*
X038962Y033499D01*
X038954Y033504D01*
X038945Y033508D01*
X038936Y033512D01*
X038927Y033515D01*
X038916Y033517D01*
X038906Y033519D01*
X038894Y03352D01*
X038882Y03352D01*
Y03362D01*
X038894Y03362D01*
X038906Y033621D01*
X038916Y033623D01*
X038927Y033625D01*
X038936Y033628D01*
X038945Y033632D01*
X038954Y033636D01*
X038962Y033641D01*
X038969Y033646D01*
X038976Y033653D01*
Y033487D01*
D02*
G37*
G36*
X038726Y033661D02*
X038729Y033652D01*
X038734Y033644D01*
X038741Y033638D01*
X03875Y033633D01*
X038761Y033628D01*
X038774Y033624D01*
X038789Y033622D01*
X038807Y033621D01*
X038826Y03362D01*
Y03352D01*
X038807Y033519D01*
X038789Y033518D01*
X038774Y033516D01*
X038761Y033512D01*
X03875Y033507D01*
X038741Y033502D01*
X038734Y033496D01*
X038729Y033488D01*
X038726Y033479D01*
X038725Y03347D01*
Y03367D01*
X038726Y033661D01*
D02*
G37*
G36*
X038355Y03346D02*
X038354Y03347D01*
X038351Y033478D01*
X038346Y033486D01*
X038339Y033492D01*
X03833Y033498D01*
X038319Y033502D01*
X038306Y033505D01*
X038291Y033508D01*
X038273Y03351D01*
X038254Y03351D01*
Y03361D01*
X038273Y03361D01*
X038291Y033612D01*
X038306Y033614D01*
X038319Y033618D01*
X03833Y033623D01*
X038339Y033628D01*
X038346Y033635D01*
X038351Y033642D01*
X038354Y033651D01*
X038355Y03366D01*
Y03346D01*
D02*
G37*
G36*
X037954Y033651D02*
X037957Y033642D01*
X037962Y033635D01*
X037969Y033628D01*
X037978Y033623D01*
X037989Y033618D01*
X038002Y033614D01*
X038017Y033612D01*
X038034Y03361D01*
X038053Y03361D01*
Y03351D01*
X038034Y03351D01*
X038017Y033508D01*
X038002Y033505D01*
X037989Y033502D01*
X037978Y033498D01*
X037969Y033492D01*
X037962Y033486D01*
X037957Y033478D01*
X037954Y03347D01*
X037953Y03346D01*
Y03366D01*
X037954Y033651D01*
D02*
G37*
G36*
X032605Y033019D02*
X032604Y033028D01*
X032601Y033037D01*
X032596Y033044D01*
X032589Y033051D01*
X03258Y033056D01*
X032569Y033061D01*
X032556Y033064D01*
X032541Y033067D01*
X032523Y033068D01*
X032504Y033069D01*
Y033169D01*
X032523Y033169D01*
X032541Y033171D01*
X032556Y033173D01*
X032569Y033177D01*
X03258Y033181D01*
X032589Y033187D01*
X032596Y033193D01*
X032601Y033201D01*
X032604Y033209D01*
X032605Y033219D01*
Y033019D01*
D02*
G37*
G36*
X032976Y03315D02*
X032979Y033142D01*
X032984Y033135D01*
X032991Y033128D01*
X033Y033122D01*
X033011Y033118D01*
X033024Y033115D01*
X033039Y033112D01*
X033057Y03311D01*
X033076Y03311D01*
Y03301D01*
X033057Y03301D01*
X03304Y033008D01*
X033025Y033006D01*
X033012Y033002D01*
X033001Y032998D01*
X032992Y032993D01*
X032985Y032987D01*
X03298Y03298D01*
X032977Y032972D01*
X032976Y032963D01*
X032975Y03316D01*
X032976Y03315D01*
D02*
G37*
G36*
X033468Y03296D02*
X033467Y03297D01*
X033464Y032978D01*
X033459Y032985D01*
X033452Y032992D01*
X033443Y032998D01*
X033432Y033002D01*
X033419Y033005D01*
X033404Y033008D01*
X033386Y03301D01*
X033367Y03301D01*
Y03311D01*
X033386Y03311D01*
X033404Y033112D01*
X033419Y033115D01*
X033432Y033118D01*
X033443Y033122D01*
X033452Y033128D01*
X033459Y033135D01*
X033464Y033142D01*
X033467Y03315D01*
X033468Y03316D01*
Y03296D01*
D02*
G37*
G36*
Y03246D02*
X033467Y032469D01*
X033464Y032478D01*
X033459Y032485D01*
X033452Y032492D01*
X033443Y032497D01*
X033432Y032502D01*
X033419Y032506D01*
X033404Y032508D01*
X033386Y03251D01*
X033367Y03251D01*
Y03261D01*
X033386Y03261D01*
X033404Y032612D01*
X033419Y032615D01*
X033432Y032618D01*
X033443Y032622D01*
X033452Y032628D01*
X033459Y032634D01*
X033464Y032642D01*
X033467Y03265D01*
X033468Y03266D01*
Y03246D01*
D02*
G37*
G36*
X032976Y03265D02*
X032979Y032642D01*
X032984Y032634D01*
X032991Y032628D01*
X033Y032622D01*
X033011Y032618D01*
X033024Y032615D01*
X033039Y032612D01*
X033057Y03261D01*
X033076Y03261D01*
Y03251D01*
X033057Y03251D01*
X033039Y032508D01*
X033024Y032506D01*
X033011Y032502D01*
X033Y032497D01*
X032991Y032492D01*
X032984Y032485D01*
X032979Y032478D01*
X032976Y032469D01*
X032975Y03246D01*
Y03266D01*
X032976Y03265D01*
D02*
G37*
G36*
X032605Y032421D02*
X032604Y032431D01*
X032601Y032439D01*
X032596Y032447D01*
X032589Y032453D01*
X03258Y032459D01*
X032569Y032463D01*
X032556Y032467D01*
X032541Y032469D01*
X032523Y032471D01*
X032504Y032471D01*
Y032571D01*
X032523Y032572D01*
X032541Y032573D01*
X032556Y032576D01*
X032569Y032579D01*
X03258Y032584D01*
X032589Y032589D01*
X032596Y032596D01*
X032601Y032603D01*
X032604Y032612D01*
X032605Y032621D01*
Y032421D01*
D02*
G37*
G36*
X030324Y031759D02*
X030311Y03177D01*
X030293Y03178D01*
X03027Y031788D01*
X030245Y031795D01*
Y031766D01*
X030244Y031775D01*
X030241Y031784D01*
X030236Y031791D01*
X030229Y031798D01*
X030228Y031798D01*
X030212Y031802D01*
X030176Y031807D01*
X030091Y031813D01*
X029989Y031816D01*
Y031916D01*
X030042Y031916D01*
X030212Y03193D01*
X030228Y031933D01*
X030229Y031934D01*
X030236Y03194D01*
X030241Y031948D01*
X030244Y031956D01*
X030245Y031966D01*
Y031936D01*
X03027Y031943D01*
X030293Y031952D01*
X030311Y031961D01*
X030324Y031972D01*
Y031759D01*
D02*
G37*
G36*
X032604Y031814D02*
X032601Y031815D01*
X032592Y031816D01*
X032577Y031817D01*
X032304Y03182D01*
Y03212D01*
X032604Y032126D01*
Y031814D01*
D02*
G37*
G36*
X028977Y031956D02*
X02898Y031948D01*
X028985Y03194D01*
X028992Y031934D01*
X029001Y031928D01*
X029012Y031924D01*
X029025Y03192D01*
X029041Y031918D01*
X029058Y031916D01*
X029077Y031916D01*
Y031816D01*
X029058Y031815D01*
X029041Y031814D01*
X029025Y031811D01*
X029012Y031808D01*
X029001Y031803D01*
X028992Y031798D01*
X028985Y031791D01*
X02898Y031784D01*
X028977Y031775D01*
X028976Y031766D01*
Y031966D01*
X028977Y031956D01*
D02*
G37*
G36*
X030619Y032021D02*
X030628Y03202D01*
X030643Y032019D01*
X030916Y032016D01*
Y031716D01*
X030616Y031709D01*
Y032022D01*
X030619Y032021D01*
D02*
G37*
G36*
X028581Y031573D02*
X028581Y031569D01*
X02858Y031556D01*
X028579Y031471D01*
X028479D01*
X028477Y031575D01*
X028581D01*
X028581Y031573D01*
D02*
G37*
G36*
X028384D02*
X028384Y031569D01*
X028383Y031556D01*
X028382Y031471D01*
X028282D01*
X02828Y031575D01*
X028385D01*
X028384Y031573D01*
D02*
G37*
G36*
X030087Y031732D02*
X030163Y031726D01*
Y031628D01*
X030614D01*
X030616Y031628D01*
X030617Y031628D01*
X030618Y031628D01*
X030634Y031628D01*
X030697D01*
Y031629D01*
X030776Y031631D01*
X03115D01*
X03124Y031649D01*
X031253Y031658D01*
X031297Y031634D01*
Y031349D01*
X031176Y031228D01*
X031134Y031257D01*
X031135Y03126D01*
X03092D01*
Y03131D01*
X03087D01*
Y031525D01*
X030796Y031495D01*
X030767Y031465D01*
X030717Y031486D01*
Y031572D01*
X03048D01*
Y031314D01*
X03043D01*
Y031264D01*
X030143D01*
Y031073D01*
X029015D01*
X02868Y031407D01*
X028694Y031443D01*
X028703Y031455D01*
X028753D01*
X028803Y031465D01*
X028842Y031491D01*
X028853Y031483D01*
X028895Y031475D01*
X02895D01*
X028992Y031483D01*
X029028Y031507D01*
X029052Y031543D01*
X02906Y031585D01*
Y031733D01*
X030033D01*
X030087Y031732D01*
D02*
G37*
G36*
X025721Y030644D02*
X025712Y030641D01*
X025705Y030636D01*
X025698Y030629D01*
X025693Y03062D01*
X025688Y030609D01*
X025684Y030596D01*
X025682Y030581D01*
X02568Y030563D01*
X02568Y030544D01*
X02558D01*
X02558Y030563D01*
X025578Y030581D01*
X025575Y030596D01*
X025572Y030609D01*
X025568Y03062D01*
X025562Y030629D01*
X025556Y030636D01*
X025548Y030641D01*
X02554Y030644D01*
X02553Y030645D01*
X02573D01*
X025721Y030644D01*
D02*
G37*
G36*
X032655Y029882D02*
X032631Y029898D01*
X032603Y029906D01*
X03257Y029905D01*
X032534Y029896D01*
X032494Y029879D01*
X032449Y029853D01*
X032401Y02982D01*
X032348Y029778D01*
X032231Y029669D01*
X031994Y029856D01*
X032055Y029919D01*
X03215Y030031D01*
X032184Y03008D01*
X03221Y030125D01*
X032227Y030165D01*
X032235Y030201D01*
X032235Y030232D01*
X032225Y030258D01*
X032207Y03028D01*
X032655Y029882D01*
D02*
G37*
G36*
X032757Y03036D02*
X032766Y030343D01*
X032781Y030328D01*
X032802Y030316D01*
X032829Y030305D01*
X032862Y030296D01*
X032901Y030289D01*
X032946Y030284D01*
X033054Y03028D01*
Y02998D01*
X032997Y029979D01*
X032901Y029971D01*
X032862Y029964D01*
X032829Y029955D01*
X032802Y029944D01*
X032781Y029932D01*
X032766Y029917D01*
X032757Y0299D01*
X032754Y029881D01*
Y030379D01*
X032757Y03036D01*
D02*
G37*
G36*
X03352Y02983D02*
X033517Y029859D01*
X033508Y029884D01*
X033493Y029906D01*
X033472Y029926D01*
X033445Y029943D01*
X033412Y029956D01*
X033372Y029966D01*
X033327Y029974D01*
X033276Y029978D01*
X033219Y02998D01*
Y03028D01*
X033276Y030282D01*
X033327Y030286D01*
X033372Y030294D01*
X033412Y030304D01*
X033445Y030317D01*
X033472Y030334D01*
X033493Y030354D01*
X033508Y030376D01*
X033517Y030401D01*
X03352Y03043D01*
Y02983D01*
D02*
G37*
G36*
X029601Y029637D02*
X029594Y029628D01*
X029587Y029613D01*
X029581Y029592D01*
X029576Y029565D01*
X029572Y029532D01*
X029566Y029448D01*
X029564Y02934D01*
X029264D01*
X029264Y029397D01*
X029253Y029565D01*
X029248Y029592D01*
X029242Y029613D01*
X029235Y029628D01*
X029228Y029637D01*
X029219Y02964D01*
X02961D01*
X029601Y029637D01*
D02*
G37*
G36*
X030473Y029673D02*
X030479Y02964D01*
X030516D01*
X030507Y029637D01*
X030499Y029628D01*
X030492Y029613D01*
X030489Y029601D01*
X030497Y029577D01*
X030518Y029538D01*
X030545Y029505D01*
X030578Y029478D01*
X030617Y029457D01*
X030662Y029442D01*
X030713Y029433D01*
X03077Y02943D01*
Y02913D01*
X030713Y029127D01*
X030662Y029118D01*
X030617Y029103D01*
X030578Y029082D01*
X030545Y029055D01*
X030518Y029022D01*
X030497Y028983D01*
X030482Y028938D01*
X030473Y028887D01*
X03047Y02883D01*
X03017Y02928D01*
X03021Y02934D01*
X03017D01*
X03017Y029397D01*
X030159Y029565D01*
X030154Y029592D01*
X030148Y029613D01*
X030141Y029628D01*
X030133Y029637D01*
X030124Y02964D01*
X03041D01*
X03047Y02973D01*
X030473Y029673D01*
D02*
G37*
G36*
X030471Y028542D02*
X030476Y028491D01*
X030484Y028446D01*
X030494Y028407D01*
X030508Y028374D01*
X030524Y028347D01*
X030543Y028325D01*
X030566Y02831D01*
X030591Y028301D01*
X03062Y028298D01*
X03002D01*
X030048Y028301D01*
X030074Y02831D01*
X030096Y028325D01*
X030116Y028347D01*
X030133Y028374D01*
X030146Y028407D01*
X030157Y028446D01*
X030164Y028491D01*
X030168Y028542D01*
X03017Y0286D01*
X03047D01*
X030471Y028542D01*
D02*
G37*
G36*
X027026Y02825D02*
X027039Y02808D01*
X027041Y028072D01*
X027052Y028061D01*
X027073Y028048D01*
X0271Y028037D01*
X027133Y028028D01*
X027172Y028021D01*
X027268Y028013D01*
X027276Y028013D01*
X027283Y028013D01*
X027379Y028021D01*
X027418Y028027D01*
X027451Y028036D01*
X027478Y028047D01*
X027499Y028059D01*
X027514Y028074D01*
X027523Y02809D01*
X027526Y028109D01*
Y027611D01*
X027523Y02763D01*
X027514Y027647D01*
X027499Y027663D01*
X027478Y027676D01*
X027451Y027687D01*
X027418Y027696D01*
X027379Y027703D01*
X027334Y027708D01*
X027226Y027712D01*
Y027927D01*
X026975Y027712D01*
X026754Y027901D01*
Y027712D01*
X026697Y02771D01*
X026645Y027706D01*
X0266Y027698D01*
X026561Y027688D01*
X026528Y027674D01*
X026501Y027658D01*
X02648Y027638D01*
X026465Y027616D01*
X026456Y02759D01*
X026453Y027562D01*
Y028162D01*
X026456Y028133D01*
X026465Y028108D01*
X02648Y028085D01*
X026501Y028066D01*
X026528Y028049D01*
X026561Y028036D01*
X0266Y028025D01*
X026645Y028018D01*
X026687Y028014D01*
X026733Y028016D01*
X026778Y028021D01*
X026817Y028028D01*
X02685Y028037D01*
X026877Y028048D01*
X026898Y028061D01*
X026909Y028072D01*
X026911Y02808D01*
X026916Y028116D01*
X026923Y028201D01*
X026925Y028303D01*
X027025D01*
X027026Y02825D01*
D02*
G37*
G36*
X028077Y02809D02*
X028086Y028073D01*
X028101Y028058D01*
X028122Y028046D01*
X028149Y028035D01*
X028182Y028026D01*
X028221Y028019D01*
X028266Y028014D01*
X028374Y02801D01*
Y02771D01*
X028317Y027709D01*
X028221Y027701D01*
X028182Y027694D01*
X028149Y027685D01*
X028122Y027674D01*
X028101Y027662D01*
X028086Y027647D01*
X028077Y02763D01*
X028074Y027611D01*
Y028109D01*
X028077Y02809D01*
D02*
G37*
G36*
X032767Y02784D02*
X032776Y027823D01*
X032791Y027808D01*
X032812Y027796D01*
X032839Y027785D01*
X032872Y027776D01*
X032911Y027769D01*
X032956Y027764D01*
X033064Y02776D01*
Y02746D01*
X033007Y027459D01*
X032911Y027451D01*
X032872Y027444D01*
X032839Y027435D01*
X032812Y027424D01*
X032791Y027412D01*
X032776Y027397D01*
X032767Y02738D01*
X032764Y027361D01*
Y027859D01*
X032767Y02784D01*
D02*
G37*
G36*
X032216Y027361D02*
X032213Y02738D01*
X032204Y027397D01*
X032189Y027412D01*
X032168Y027424D01*
X032141Y027435D01*
X032108Y027444D01*
X032069Y027451D01*
X032024Y027456D01*
X031916Y02746D01*
Y02776D01*
X031973Y027761D01*
X032069Y027769D01*
X032108Y027776D01*
X032141Y027785D01*
X032168Y027796D01*
X032189Y027808D01*
X032204Y027823D01*
X032213Y02784D01*
X032216Y027859D01*
Y027361D01*
D02*
G37*
G36*
X03097Y027882D02*
X030979Y027856D01*
X030994Y027833D01*
X031016Y027814D01*
X031043Y027798D01*
X031076Y027784D01*
X031115Y027773D01*
X03116Y027766D01*
X031211Y027761D01*
X031268Y02776D01*
Y02746D01*
X031211Y027459D01*
X031115Y027451D01*
X031076Y027444D01*
X031043Y027434D01*
X031016Y027423D01*
X030995Y02741D01*
X03098Y027394D01*
X030971Y027377D01*
X030968Y027357D01*
X030967Y02791D01*
X03097Y027882D01*
D02*
G37*
%LPC*%
G36*
X03038Y031572D02*
X030143D01*
Y031364D01*
X03038D01*
Y031572D01*
D02*
G37*
G36*
X03097Y031525D02*
Y03136D01*
X031135D01*
X031105Y031434D01*
X031044Y031495D01*
X03097Y031525D01*
D02*
G37*
%LPD*%
G36*
X038354Y032904D02*
X038726D01*
X038719Y032901D01*
X038713Y032892D01*
X038708Y032877D01*
X038703Y032856D01*
X038699Y032829D01*
X038693Y032757D01*
X03869Y032604D01*
X03839D01*
X03839Y032661D01*
X038377Y032856D01*
X038372Y032877D01*
X038367Y032892D01*
X038361Y032901D01*
X038354Y032904D01*
X038351Y032905D01*
X038342Y032906D01*
X038327Y032907D01*
X038054Y03291D01*
Y03321D01*
X038354Y033216D01*
Y032904D01*
D02*
G37*
G36*
X043631Y031951D02*
X043331Y03188D01*
Y03218D01*
X043388Y032181D01*
X043439Y032186D01*
X043485Y032194D01*
X043524Y032204D01*
X043557Y032218D01*
X043584Y032234D01*
X043605Y032253D01*
X04362Y032276D01*
X043629Y032301D01*
X043632Y03233D01*
X043631Y031951D01*
D02*
G37*
G36*
X021136Y032319D02*
X021131Y032312D01*
X021126Y032304D01*
X021122Y032295D01*
X021118Y032286D01*
X021115Y032277D01*
X021113Y032266D01*
X021111Y032256D01*
X02111Y032244D01*
X02111Y032232D01*
X02101D01*
X02101Y032244D01*
X021009Y032256D01*
X021007Y032266D01*
X021005Y032277D01*
X021002Y032286D01*
X020998Y032295D01*
X020994Y032304D01*
X020989Y032312D01*
X020984Y032319D01*
X020977Y032326D01*
X021143D01*
X021136Y032319D01*
D02*
G37*
G36*
X02111Y032188D02*
X021112Y032171D01*
X021114Y032155D01*
X021118Y032142D01*
X021123Y032131D01*
X021128Y032122D01*
X021135Y032115D01*
X021142Y03211D01*
X021151Y032107D01*
X02116Y032106D01*
X02096D01*
X02097Y032107D01*
X020978Y03211D01*
X020986Y032115D01*
X020992Y032122D01*
X020998Y032131D01*
X021002Y032142D01*
X021005Y032155D01*
X021008Y032171D01*
X02101Y032188D01*
X02101Y032207D01*
X02111D01*
X02111Y032188D01*
D02*
G37*
G36*
X040241Y030533D02*
X040235Y030525D01*
X040231Y030517D01*
X040227Y030508D01*
X040223Y030499D01*
X040221Y03049D01*
X040218Y030479D01*
X040217Y030468D01*
X040216Y030457D01*
X040216Y030445D01*
X040116Y03044D01*
X040115Y030452D01*
X040114Y030463D01*
X040113Y030474D01*
X04011Y030484D01*
X040107Y030494D01*
X040103Y030502D01*
X040099Y030511D01*
X040094Y030518D01*
X040088Y030525D01*
X040081Y030532D01*
X040247Y03054D01*
X040241Y030533D01*
D02*
G37*
G36*
X040216Y030417D02*
X040218Y030399D01*
X04022Y030384D01*
X040224Y030371D01*
X040228Y03036D01*
X040234Y030351D01*
X04024Y030344D01*
X040248Y030339D01*
X040256Y030336D01*
X040266Y030335D01*
X040066D01*
X040075Y030336D01*
X040084Y030339D01*
X040091Y030344D01*
X040098Y030351D01*
X040103Y03036D01*
X040108Y030371D01*
X040111Y030384D01*
X040114Y030399D01*
X040115Y030417D01*
X040116Y030436D01*
X040216D01*
X040216Y030417D01*
D02*
G37*
G36*
X025847Y029291D02*
X025844Y02932D01*
X025835Y029345D01*
X02582Y029368D01*
X025799Y029387D01*
X025772Y029404D01*
X025739Y029417D01*
X0257Y029428D01*
X025655Y029435D01*
X025603Y02944D01*
X025546Y029441D01*
Y029741D01*
X025603Y029743D01*
X025655Y029747D01*
X0257Y029755D01*
X025739Y029765D01*
X025772Y029779D01*
X025799Y029795D01*
X02582Y029815D01*
X025835Y029837D01*
X025844Y029863D01*
X025847Y029891D01*
Y029291D01*
D02*
G37*
G36*
X024784Y029862D02*
X024793Y029837D01*
X024808Y029815D01*
X024829Y029795D01*
X024856Y029779D01*
X024889Y029765D01*
X024928Y029755D01*
X024973Y029747D01*
X025024Y029743D01*
X025081Y029741D01*
Y029441D01*
X025024Y02944D01*
X024972Y029435D01*
X024927Y029428D01*
X024888Y029417D01*
X024855Y029404D01*
X024828Y029387D01*
X024807Y029368D01*
X024792Y029345D01*
X024783Y02932D01*
X024779Y029291D01*
X024781Y029891D01*
X024784Y029862D01*
D02*
G37*
G36*
X04083Y029093D02*
X040839Y02909D01*
X040854Y029088D01*
X040875Y029086D01*
X040974Y029081D01*
X041127Y02908D01*
Y02878D01*
X040827Y028764D01*
Y029096D01*
X04083Y029093D01*
D02*
G37*
G36*
X041994Y02865D02*
X041968Y028675D01*
X041941Y028697D01*
X041912Y028716D01*
X041881Y028733D01*
X041849Y028747D01*
X041816Y028759D01*
X041782Y028768D01*
X041745Y028775D01*
X041708Y028779D01*
X041669Y02878D01*
Y02908D01*
X041708Y029081D01*
X041745Y029085D01*
X041782Y029092D01*
X041816Y029101D01*
X041849Y029113D01*
X041881Y029127D01*
X041912Y029144D01*
X041941Y029163D01*
X041968Y029185D01*
X041994Y02921D01*
Y02865D01*
D02*
G37*
G36*
X039698Y029964D02*
X03969Y029961D01*
X039682Y029956D01*
X039676Y029949D01*
X03967Y02994D01*
X039666Y029929D01*
X039662Y029916D01*
X03966Y029901D01*
X039658Y029883D01*
X039658Y029864D01*
X039558D01*
X039557Y029883D01*
X039556Y029901D01*
X039553Y029916D01*
X03955Y029929D01*
X039545Y02994D01*
X03954Y029949D01*
X039533Y029956D01*
X039526Y029961D01*
X039517Y029964D01*
X039508Y029965D01*
X039708D01*
X039698Y029964D01*
D02*
G37*
G36*
X039658Y029551D02*
X03966Y029534D01*
X039662Y029519D01*
X039666Y029505D01*
X03967Y029494D01*
X039676Y029485D01*
X039682Y029478D01*
X03969Y029473D01*
X039698Y02947D01*
X039708Y029469D01*
X039508D01*
X039517Y02947D01*
X039526Y029473D01*
X039533Y029478D01*
X03954Y029485D01*
X039545Y029494D01*
X03955Y029505D01*
X039553Y029519D01*
X039556Y029534D01*
X039557Y029551D01*
X039558Y02957D01*
X039658D01*
X039658Y029551D01*
D02*
G37*
G36*
X021614Y028193D02*
X021641Y02817D01*
X02167Y028151D01*
X0217Y028134D01*
X021732Y028119D01*
X021765Y028108D01*
X0218Y028098D01*
X021836Y028092D01*
X021873Y028088D01*
X021912Y028087D01*
X021909Y027787D01*
X021871Y027785D01*
X021833Y027781D01*
X021797Y027775D01*
X021762Y027766D01*
X021729Y027754D01*
X021697Y02774D01*
X021667Y027723D01*
X021637Y027704D01*
X02161Y027682D01*
X021583Y027658D01*
X021588Y028218D01*
X021614Y028193D01*
D02*
G37*
G36*
X023521Y027637D02*
X023517Y027665D01*
X023508Y027691D01*
X023493Y027713D01*
X023472Y027733D01*
X023445Y027749D01*
X023412Y027763D01*
X023373Y027773D01*
X023328Y027781D01*
X023277Y027785D01*
X023219Y027787D01*
Y028087D01*
X023277Y028088D01*
X023328Y028093D01*
X023373Y0281D01*
X023412Y028111D01*
X023445Y028124D01*
X023472Y028141D01*
X023493Y02816D01*
X023508Y028183D01*
X023517Y028208D01*
X023521Y028237D01*
Y027637D01*
D02*
G37*
G36*
X034807Y029647D02*
X034799Y029638D01*
X034792Y029623D01*
X034786Y029602D01*
X034781Y029575D01*
X034777Y029542D01*
X034772Y029458D01*
X03477Y02935D01*
X03447D01*
X03447Y029407D01*
X034459Y029575D01*
X034454Y029602D01*
X034448Y029623D01*
X034441Y029638D01*
X034433Y029647D01*
X034424Y02965D01*
X034816D01*
X034807Y029647D01*
D02*
G37*
G36*
X036476Y028981D02*
X037024D01*
X037Y028978D01*
X036979Y028969D01*
X036961Y028954D01*
X036945Y028933D01*
X036931Y028906D01*
X03692Y028873D01*
X036911Y028834D01*
X036905Y028789D01*
X036901Y028738D01*
X0369Y028681D01*
X0366D01*
X036599Y028738D01*
X036589Y028834D01*
X03658Y028873D01*
X036569Y028906D01*
X036555Y028933D01*
X036539Y028954D01*
X036521Y028969D01*
X0365Y028978D01*
X036476Y028981D01*
X036473Y029D01*
X036464Y029017D01*
X036449Y029032D01*
X036428Y029044D01*
X036401Y029055D01*
X036368Y029064D01*
X036329Y029071D01*
X036284Y029076D01*
X036176Y02908D01*
Y02938D01*
X036233Y029381D01*
X036329Y029389D01*
X036368Y029396D01*
X036401Y029405D01*
X036428Y029416D01*
X036449Y029428D01*
X036464Y029443D01*
X036473Y02946D01*
X036476Y029479D01*
Y028981D01*
D02*
G37*
G36*
X034771Y028552D02*
X034776Y028501D01*
X034783Y028456D01*
X034794Y028417D01*
X034808Y028384D01*
X034824Y028356D01*
X034843Y028335D01*
X034866Y02832D01*
X034892Y028311D01*
X03492Y028308D01*
X03432D01*
X034348Y028311D01*
X034374Y02832D01*
X034397Y028335D01*
X034416Y028356D01*
X034432Y028384D01*
X034446Y028417D01*
X034457Y028456D01*
X034464Y028501D01*
X034469Y028552D01*
X03447Y02861D01*
X03477D01*
X034771Y028552D01*
D02*
G37*
D19*
X025447Y033018D02*
X026194D01*
X025062Y032633D02*
X025447Y033018D01*
X024964Y031604D02*
X025062Y031702D01*
Y032633D01*
X02467Y031604D02*
X024964D01*
X025355Y033215D02*
X026194D01*
X025124Y032984D02*
X025355Y033215D01*
X025201Y033412D02*
X025877D01*
X024743Y033608D02*
X026194D01*
X02467Y032984D02*
X025124D01*
X02467Y033536D02*
X024743Y033608D01*
X025877Y033412D02*
X026194D01*
X025149Y03336D02*
X025201Y033412D01*
X02531Y032627D02*
X025504Y032821D01*
X02531Y03232D02*
Y032627D01*
X025504Y032821D02*
X026194D01*
X030916Y031314D02*
X03092Y03131D01*
X03043Y031314D02*
X030916D01*
X02896Y03094D02*
X031075D01*
X03143Y031295D01*
X03115Y03076D02*
X03161Y03122D01*
X028529Y031371D02*
X02896Y03094D01*
X028332Y031313D02*
X028885Y03076D01*
X03115D01*
X03122Y04323D02*
X03139Y0434D01*
X03122Y035461D02*
Y04323D01*
X029958Y034199D02*
X03122Y035461D01*
X03141Y03941D02*
X0354Y0434D01*
X031225Y034764D02*
X03141Y034949D01*
Y03941D01*
X030334Y033614D02*
X0316Y03488D01*
Y039345D02*
X034812Y042558D01*
X0316Y03488D02*
Y039345D01*
X0318Y03482D02*
Y039291D01*
X034887Y042378D01*
X030392Y033412D02*
X0318Y03482D01*
X030455Y033215D02*
X03199Y03475D01*
Y039226D02*
X034961Y042198D01*
X03199Y03475D02*
Y039226D01*
X030518Y033018D02*
X03225Y03475D01*
Y03557D01*
X029486Y032427D02*
X030717D01*
X03291Y03462D02*
Y039383D01*
X030717Y032427D02*
X03291Y03462D01*
X029486Y032821D02*
X030591D01*
X0325Y03473D01*
X0327Y03467D02*
Y039427D01*
X030654Y032624D02*
X0327Y03467D01*
X029486Y032624D02*
X030654D01*
X0325Y03473D02*
Y039482D01*
X029486Y034199D02*
X029958D01*
X029491Y03381D02*
X03027D01*
X031224Y034764D01*
X029491Y033614D02*
X030334D01*
X029486Y033215D02*
X030455D01*
X030112Y034002D02*
X031122Y035012D01*
X031224Y034764D02*
X031225D01*
X029486Y033018D02*
X030518D01*
X029486Y033412D02*
X030392D01*
X029486Y034002D02*
X030112D01*
X03291Y039383D02*
X035185Y041658D01*
X0327Y039427D02*
X035111Y041838D01*
X0325Y039482D02*
X035036Y042018D01*
X028923Y031864D02*
X028924Y031866D01*
X03043D01*
X029484Y034594D02*
X029486Y034593D01*
X029484Y034594D02*
Y03687D01*
X039608Y030143D02*
X039614Y03015D01*
X039608Y029304D02*
Y030143D01*
X01888Y03842D02*
Y03885D01*
X01838Y03935D02*
X01888Y03885D01*
X01906Y03824D02*
X02002Y03728D01*
X01888Y03842D02*
X01906Y03824D01*
Y038495D02*
Y03967D01*
X020079Y037476D02*
X027009D01*
X01906Y038495D02*
X020079Y037476D01*
X01838Y04035D02*
X01906Y03967D01*
X02002Y03728D02*
X02695D01*
X03854Y033611D02*
X038581Y03357D01*
X03906D01*
X040166Y03015D02*
Y030614D01*
X04016Y03062D02*
X040166Y030614D01*
X02563Y03179D02*
Y0325D01*
X025754Y032624D01*
X026194D01*
X02858Y0434D02*
X02882Y04316D01*
Y04282D02*
Y04316D01*
X02839Y0434D02*
X02858D01*
X02826Y04272D02*
X02872D01*
X02882Y04282D01*
X028198Y042522D02*
Y042658D01*
X02826Y04272D01*
X028198Y042522D02*
X02827Y04245D01*
X02899D01*
X02865Y04209D02*
X02877Y04221D01*
X02901D01*
X02907Y04227D01*
Y04237D01*
X02899Y04245D02*
X02907Y04237D01*
X028923Y035156D02*
Y036779D01*
X02865Y037052D02*
X028923Y036779D01*
X02865Y037052D02*
Y04209D01*
X03143Y031295D02*
Y03238D01*
X032169Y033119D01*
X03161Y0323D02*
X031831Y032521D01*
X03161Y03122D02*
Y0323D01*
X032169Y033119D02*
X03279D01*
X028332Y031313D02*
Y031572D01*
Y031864D01*
X031831Y032521D02*
X03279D01*
X028529Y031371D02*
Y031864D01*
X026975Y027862D02*
Y030075D01*
X02671Y03034D02*
X026975Y030075D01*
X02578Y03034D02*
X02671D01*
X02563Y03049D02*
X02578Y03034D01*
X02563Y03049D02*
Y03083D01*
X026384Y035156D02*
X026757D01*
X025754Y035786D02*
X026384Y035156D01*
X025754Y035786D02*
Y03612D01*
X02105Y031872D02*
X02106Y031882D01*
Y03241D01*
X023666Y033536D02*
X02467D01*
X025856Y034401D02*
X026189D01*
X02493Y035327D02*
X025856Y034401D01*
X02493Y035327D02*
Y035774D01*
X024005Y0367D02*
X02493Y035774D01*
X021043Y0367D02*
X024005D01*
X026189Y034401D02*
X026194Y034396D01*
X02695Y03728D02*
X027742Y036488D01*
X027009Y037476D02*
X027938Y036546D01*
Y035156D02*
Y036546D01*
X027742Y035156D02*
Y036488D01*
X02744Y03612D02*
X027545Y036015D01*
Y035156D02*
Y036015D01*
X026889Y03612D02*
X026954Y036055D01*
Y035156D02*
Y036055D01*
X026306Y03612D02*
X026889D01*
X028726Y035156D02*
Y036722D01*
X027237Y03821D02*
X028726Y036722D01*
X027237Y03821D02*
Y038643D01*
X02719Y03869D02*
X027237Y038643D01*
X028529Y035156D02*
Y036664D01*
X027357Y037836D02*
X028529Y036664D01*
X027044Y037836D02*
X027357D01*
X02619Y03869D02*
X027044Y037836D01*
X027283Y037656D02*
X028332Y036606D01*
Y035156D02*
Y036606D01*
X02519Y03869D02*
X026224Y037656D01*
X027283D01*
X04517Y04217D02*
X0464Y0434D01*
X0383Y03955D02*
X04092Y04217D01*
X04517D01*
X037421Y041658D02*
X038114Y04235D01*
X04435D02*
X0454Y0434D01*
X035185Y041658D02*
X037421D01*
X038114Y04235D02*
X04435D01*
X035111Y041838D02*
X037347D01*
X038039Y04253D02*
X04353D01*
X0444Y0434D01*
X037347Y041838D02*
X038039Y04253D01*
X037965Y04271D02*
X04271D01*
X0434Y0434D01*
X035036Y042018D02*
X037272D01*
X037965Y04271D01*
X033899Y03606D02*
X037521D01*
Y03556D02*
Y03606D01*
Y03506D02*
Y03556D01*
Y03456D02*
Y03506D01*
X033899Y03556D02*
Y03606D01*
Y03506D02*
Y03556D01*
Y03456D02*
Y03506D01*
Y03406D02*
Y03456D01*
X037198Y042198D02*
X0384Y0434D01*
X034961Y042198D02*
X037198D01*
X036378Y042378D02*
X0374Y0434D01*
X034887Y042378D02*
X036378D01*
X035558Y042558D02*
X0364Y0434D01*
X034812Y042558D02*
X035558D01*
X029486Y033608D02*
X029491Y033614D01*
X029486Y033805D02*
X029491Y03381D01*
X026181Y032422D02*
X026186Y032427D01*
X026181Y03083D02*
Y032422D01*
X026186Y032427D02*
X026194D01*
X026181Y03083D02*
X02689D01*
X030036Y034613D02*
Y03687D01*
X029824Y034401D02*
X030036Y034613D01*
X029491Y034401D02*
X029824D01*
X029486Y034396D02*
X029491Y034401D01*
X01948Y03565D02*
X020217D01*
X019476Y0367D02*
X020217D01*
X02467Y032156D02*
Y032984D01*
X024647Y032962D02*
X02467Y032984D01*
X02414Y03271D02*
X024392Y032962D01*
X024647D01*
X02414Y03159D02*
Y03271D01*
X02221Y03631D02*
X02414D01*
X02467Y034916D02*
Y03578D01*
X02414Y03631D02*
X02467Y03578D01*
X02202Y03612D02*
X02221Y03631D01*
X02202Y03161D02*
Y03612D01*
Y03161D02*
X02222Y03141D01*
X02396D01*
X02414Y03159D01*
X02309Y03296D02*
X023666Y033536D01*
X02309Y03496D02*
X023686Y034364D01*
X02467D01*
X025095D01*
X025654Y033805D01*
X026194D01*
X026194Y033608D02*
X026194Y033608D01*
X02446Y0434D02*
X02617Y04169D01*
X02444Y0434D02*
X02446D01*
X02617Y04169D02*
X02619D01*
X02717D02*
X02719D01*
X02544Y0434D02*
X02546D01*
X02717Y04169D01*
X02644Y0434D02*
X02815Y04169D01*
X02819D01*
X038489Y03356D02*
X03854Y033611D01*
X037521Y03356D02*
X038489D01*
X03279Y033119D02*
X032849Y03306D01*
X033899D01*
X03279Y032521D02*
X032829Y03256D01*
X033899D01*
D22*
X021043Y03565D02*
D03*
X020217D02*
D03*
X021043Y0367D02*
D03*
X020217D02*
D03*
D23*
X03279Y03197D02*
D03*
Y032521D02*
D03*
X02467Y032156D02*
D03*
Y031604D02*
D03*
Y033536D02*
D03*
Y032984D02*
D03*
Y034916D02*
D03*
Y034364D02*
D03*
X03279Y033119D02*
D03*
Y03367D02*
D03*
X03854Y033611D02*
D03*
Y03306D02*
D03*
X03043Y031866D02*
D03*
Y031314D02*
D03*
D24*
X02689Y03083D02*
D03*
X027441D02*
D03*
X02563D02*
D03*
X026181D02*
D03*
X026889Y03612D02*
D03*
X02744D02*
D03*
X040166Y03015D02*
D03*
X039614D02*
D03*
X018924Y0367D02*
D03*
X019476D02*
D03*
X018929Y03565D02*
D03*
X01948D02*
D03*
X029484Y03687D02*
D03*
X030036D02*
D03*
X025754Y03612D02*
D03*
X026306D02*
D03*
D25*
X03249Y02851D02*
D03*
Y02761D02*
D03*
X0278Y02876D02*
D03*
Y02786D02*
D03*
X03248Y02923D02*
D03*
Y03013D02*
D03*
X03675D02*
D03*
Y02923D02*
D03*
D26*
X031226Y030112D02*
D03*
X03032D02*
D03*
X029414D02*
D03*
X035526Y030122D02*
D03*
X03462D02*
D03*
X033714D02*
D03*
D27*
X03032Y027828D02*
D03*
X03462Y027838D02*
D03*
D28*
X02415Y027933D02*
D03*
Y029587D02*
D03*
D29*
X04787Y02677D02*
D03*
D30*
X037521Y03306D02*
D03*
X033899Y03406D02*
D03*
X037521Y03256D02*
D03*
Y03356D02*
D03*
Y03406D02*
D03*
X033899Y03356D02*
D03*
Y03456D02*
D03*
Y03506D02*
D03*
X037521D02*
D03*
X033899Y03606D02*
D03*
X037521Y03456D02*
D03*
Y03556D02*
D03*
X033899D02*
D03*
X037521Y03606D02*
D03*
X033899Y03306D02*
D03*
Y03256D02*
D03*
D31*
X040592Y02893D02*
D03*
X03961Y02856D02*
D03*
X039608Y029304D02*
D03*
D32*
X02615Y029596D02*
D03*
Y027864D02*
D03*
D33*
X026194Y034593D02*
D03*
Y034396D02*
D03*
Y034199D02*
D03*
Y034002D02*
D03*
Y033805D02*
D03*
Y033608D02*
D03*
Y033412D02*
D03*
Y033215D02*
D03*
Y033018D02*
D03*
Y032821D02*
D03*
Y032624D02*
D03*
Y032427D02*
D03*
X029486D02*
D03*
Y032624D02*
D03*
Y032821D02*
D03*
Y033018D02*
D03*
Y033215D02*
D03*
Y033412D02*
D03*
Y033608D02*
D03*
Y033805D02*
D03*
Y034002D02*
D03*
Y034199D02*
D03*
Y034396D02*
D03*
Y034593D02*
D03*
D34*
X026757Y031864D02*
D03*
X026954D02*
D03*
X027151D02*
D03*
X027348D02*
D03*
X027545D02*
D03*
X027742D02*
D03*
X027938D02*
D03*
X028135D02*
D03*
X028332D02*
D03*
X028529D02*
D03*
X028726D02*
D03*
X028923D02*
D03*
Y035156D02*
D03*
X028726D02*
D03*
X028529D02*
D03*
X028332D02*
D03*
X028135D02*
D03*
X027938D02*
D03*
X027742D02*
D03*
X027545D02*
D03*
X027348D02*
D03*
X027151D02*
D03*
X026954D02*
D03*
X026757D02*
D03*
D35*
X02105Y031872D02*
D03*
Y034628D02*
D03*
D62*
X03197Y03187D02*
X03207Y03197D01*
X03279D01*
X03043Y031866D02*
X03115D01*
X02467Y03095D02*
Y031604D01*
X03032Y027828D02*
X030538Y02761D01*
X03249D01*
X03032Y02928D02*
X03163D01*
X03032Y027828D02*
Y02928D01*
Y030112D01*
X03163Y02928D02*
X032355Y030005D01*
X01845Y03565D02*
X018929D01*
X01844Y03564D02*
X01845Y03565D01*
X01839Y0367D02*
X018924D01*
X01838Y03669D02*
X01839Y0367D01*
X02919Y038629D02*
Y03869D01*
Y038629D02*
X029484Y038334D01*
Y03687D02*
Y038334D01*
X03279Y03367D02*
Y03403D01*
X037521Y03306D02*
X03854D01*
Y03247D02*
X03855Y03246D01*
X03854Y03247D02*
Y03306D01*
X03462Y02924D02*
Y030122D01*
Y027838D02*
Y02924D01*
X03463Y02923D01*
X03675D01*
X03674Y02716D02*
X03675Y02717D01*
Y02923D01*
X040592Y02893D02*
X04228D01*
X03315Y02761D02*
X03316Y0276D01*
X03249Y02761D02*
X03315D01*
X025754Y03612D02*
Y036644D01*
X026Y03689D01*
X02629D01*
X0363Y03203D02*
X04371D01*
X03477Y03356D02*
X0363Y03203D01*
X033899Y03356D02*
X03477D01*
X04371Y03203D02*
X04408Y0324D01*
X026975Y027862D02*
X027798D01*
X026152D02*
X026975D01*
X03248Y03013D02*
X033706D01*
X033714Y030122D01*
X0278Y02786D02*
X02839D01*
X029414Y028884D01*
Y030112D01*
X027798Y027862D02*
X0278Y02786D01*
X02615Y027864D02*
X026152Y027862D01*
X026145Y029591D02*
X02615Y029596D01*
X02415Y029587D02*
X024155Y029591D01*
X026145D01*
X024147Y027937D02*
X02415Y027933D01*
X0213Y02794D02*
X021303Y027937D01*
X024147D01*
D63*
X03039Y0434D02*
D03*
X02939D02*
D03*
X02839D02*
D03*
X01841D02*
D03*
X01941D02*
D03*
X02244D02*
D03*
X02344D02*
D03*
X02544D02*
D03*
X02444D02*
D03*
X03341D02*
D03*
X03441D02*
D03*
X03741D02*
D03*
X03841D02*
D03*
X03941D02*
D03*
X04141D02*
D03*
X04241D02*
D03*
X04441D02*
D03*
X04641D02*
D03*
X04741D02*
D03*
X04541D02*
D03*
X04341D02*
D03*
X04041D02*
D03*
X03641D02*
D03*
X03541D02*
D03*
X01838Y03935D02*
D03*
Y04035D02*
D03*
Y04135D02*
D03*
D64*
X03139Y0434D02*
D03*
X02041D02*
D03*
X02644D02*
D03*
X04841D02*
D03*
D65*
X02919Y03869D02*
D03*
X02819D02*
D03*
X02719D02*
D03*
X02619D02*
D03*
X02519D02*
D03*
X02419D02*
D03*
X02319D02*
D03*
X02219D02*
D03*
X02119D02*
D03*
X02019D02*
D03*
Y04169D02*
D03*
X02119D02*
D03*
X02219D02*
D03*
X02319D02*
D03*
X02419D02*
D03*
X02519D02*
D03*
X02619D02*
D03*
X02719D02*
D03*
X02819D02*
D03*
D66*
X02919D02*
D03*
D67*
X01838Y03835D02*
D03*
D68*
X04408Y0324D02*
D03*
D69*
Y0404D02*
D03*
D70*
X04228Y02893D02*
D03*
X0213Y02794D02*
D03*
D71*
X045067Y02893D02*
D03*
D72*
X0213Y029318D02*
D03*
D73*
X02309Y03496D02*
D03*
Y03296D02*
D03*
X0383Y03955D02*
D03*
X0363Y03855D02*
D03*
D74*
Y04055D02*
D03*
D75*
X05Y044D02*
D03*
X0505Y043D02*
D03*
X05Y042D02*
D03*
X0505Y041D02*
D03*
X05Y04D02*
D03*
X0505Y039D02*
D03*
X05Y038D02*
D03*
X0505Y037D02*
D03*
X05Y036D02*
D03*
X0505Y035D02*
D03*
X05Y034D02*
D03*
X0505Y033D02*
D03*
X05Y032D02*
D03*
X0505Y031D02*
D03*
X05Y03D02*
D03*
X0505Y029D02*
D03*
X05Y028D02*
D03*
X0505Y027D02*
D03*
X05Y026D02*
D03*
X049Y044D02*
D03*
X0495Y043D02*
D03*
X049Y042D02*
D03*
X0495Y041D02*
D03*
X049Y04D02*
D03*
X0495Y039D02*
D03*
X049Y038D02*
D03*
X0495Y037D02*
D03*
X049Y036D02*
D03*
X0495Y035D02*
D03*
X049Y034D02*
D03*
X0495Y033D02*
D03*
X049Y032D02*
D03*
X0495Y031D02*
D03*
X049Y03D02*
D03*
X0495Y029D02*
D03*
X049Y028D02*
D03*
X0495Y027D02*
D03*
X049Y026D02*
D03*
X048Y044D02*
D03*
Y042D02*
D03*
X0485Y041D02*
D03*
X048Y04D02*
D03*
X0485Y039D02*
D03*
X048Y038D02*
D03*
X0485Y037D02*
D03*
X048Y036D02*
D03*
X0485Y035D02*
D03*
X048Y034D02*
D03*
X0485Y033D02*
D03*
X048Y032D02*
D03*
X0485Y031D02*
D03*
X048Y03D02*
D03*
X0485Y029D02*
D03*
X048Y028D02*
D03*
X0485Y027D02*
D03*
X048Y026D02*
D03*
X047Y044D02*
D03*
Y04D02*
D03*
Y038D02*
D03*
Y036D02*
D03*
Y034D02*
D03*
Y032D02*
D03*
Y03D02*
D03*
Y028D02*
D03*
X0475Y027D02*
D03*
X047Y026D02*
D03*
X046Y044D02*
D03*
X0465Y041D02*
D03*
X046Y04D02*
D03*
X0465Y039D02*
D03*
X046Y038D02*
D03*
X0465Y037D02*
D03*
X046Y036D02*
D03*
X0465Y035D02*
D03*
X046Y034D02*
D03*
X0465Y033D02*
D03*
X046Y032D02*
D03*
X0465Y031D02*
D03*
X046Y03D02*
D03*
X0465Y029D02*
D03*
Y027D02*
D03*
X046Y026D02*
D03*
X045Y044D02*
D03*
X0455Y041D02*
D03*
X045Y04D02*
D03*
X0455Y039D02*
D03*
X045Y038D02*
D03*
X0455Y037D02*
D03*
X045Y036D02*
D03*
X0455Y035D02*
D03*
X045Y034D02*
D03*
X0455Y033D02*
D03*
X045Y032D02*
D03*
X0455Y031D02*
D03*
X045Y03D02*
D03*
X0455Y027D02*
D03*
X045Y026D02*
D03*
X044Y044D02*
D03*
X0445Y041D02*
D03*
Y039D02*
D03*
X044Y038D02*
D03*
X0445Y037D02*
D03*
X044Y036D02*
D03*
X0445Y035D02*
D03*
X044Y034D02*
D03*
X0445Y031D02*
D03*
X044Y03D02*
D03*
Y028D02*
D03*
X0445Y027D02*
D03*
X044Y026D02*
D03*
X043Y044D02*
D03*
X0435Y041D02*
D03*
X043Y04D02*
D03*
X0435Y039D02*
D03*
X043Y038D02*
D03*
X0435Y037D02*
D03*
X043Y036D02*
D03*
X0435Y035D02*
D03*
X043Y034D02*
D03*
X0435Y031D02*
D03*
X043Y03D02*
D03*
X0435Y029D02*
D03*
X043Y028D02*
D03*
X0435Y027D02*
D03*
X043Y026D02*
D03*
X042Y044D02*
D03*
X0425Y041D02*
D03*
X042Y04D02*
D03*
X0425Y039D02*
D03*
X042Y038D02*
D03*
X0425Y037D02*
D03*
X042Y036D02*
D03*
X0425Y035D02*
D03*
X042Y034D02*
D03*
X0425Y033D02*
D03*
Y031D02*
D03*
X042Y03D02*
D03*
Y028D02*
D03*
X0425Y027D02*
D03*
X042Y026D02*
D03*
X041Y044D02*
D03*
X0415Y041D02*
D03*
X041Y04D02*
D03*
X0415Y039D02*
D03*
X041Y038D02*
D03*
X0415Y037D02*
D03*
X041Y036D02*
D03*
X0415Y035D02*
D03*
X041Y034D02*
D03*
X0415Y033D02*
D03*
Y031D02*
D03*
X041Y03D02*
D03*
Y028D02*
D03*
X0415Y027D02*
D03*
X041Y026D02*
D03*
X04Y044D02*
D03*
X0405Y041D02*
D03*
X04Y04D02*
D03*
X0405Y039D02*
D03*
X04Y038D02*
D03*
X0405Y037D02*
D03*
X04Y036D02*
D03*
X0405Y035D02*
D03*
X04Y034D02*
D03*
X0405Y033D02*
D03*
Y031D02*
D03*
X04Y028D02*
D03*
X0405Y027D02*
D03*
X04Y026D02*
D03*
X039Y044D02*
D03*
X0395Y039D02*
D03*
X039Y038D02*
D03*
X0395Y037D02*
D03*
X039Y036D02*
D03*
X0395Y035D02*
D03*
X039Y034D02*
D03*
X0395Y033D02*
D03*
X039Y03D02*
D03*
Y028D02*
D03*
X0395Y027D02*
D03*
X039Y026D02*
D03*
X038Y044D02*
D03*
X0385Y041D02*
D03*
Y039D02*
D03*
X038Y038D02*
D03*
X0385Y037D02*
D03*
Y035D02*
D03*
Y031D02*
D03*
X038Y03D02*
D03*
X0385Y029D02*
D03*
X038Y028D02*
D03*
X0385Y027D02*
D03*
X038Y026D02*
D03*
X037Y044D02*
D03*
X0375Y041D02*
D03*
X037Y04D02*
D03*
X0375Y039D02*
D03*
X037Y038D02*
D03*
X0375Y037D02*
D03*
Y031D02*
D03*
Y029D02*
D03*
Y027D02*
D03*
X037Y026D02*
D03*
X036Y044D02*
D03*
Y038D02*
D03*
X0365Y037D02*
D03*
X036Y036D02*
D03*
Y034D02*
D03*
X0365Y033D02*
D03*
Y031D02*
D03*
X036Y03D02*
D03*
Y028D02*
D03*
Y026D02*
D03*
X035Y044D02*
D03*
X0355Y041D02*
D03*
X035Y04D02*
D03*
X0355Y039D02*
D03*
X035Y038D02*
D03*
X0355Y037D02*
D03*
X035Y036D02*
D03*
Y034D02*
D03*
X0355Y031D02*
D03*
X035Y026D02*
D03*
X034Y044D02*
D03*
Y04D02*
D03*
X0345Y039D02*
D03*
X034Y038D02*
D03*
X0345Y037D02*
D03*
Y031D02*
D03*
X034Y026D02*
D03*
X033Y044D02*
D03*
Y042D02*
D03*
X0335Y039D02*
D03*
Y037D02*
D03*
Y031D02*
D03*
Y029D02*
D03*
X033Y028D02*
D03*
Y026D02*
D03*
X0325Y043D02*
D03*
Y041D02*
D03*
Y031D02*
D03*
X032Y028D02*
D03*
Y026D02*
D03*
X031Y044D02*
D03*
X0315Y041D02*
D03*
X031Y026D02*
D03*
X03Y044D02*
D03*
X0305Y041D02*
D03*
X03Y04D02*
D03*
Y038D02*
D03*
Y036D02*
D03*
Y026D02*
D03*
X029Y044D02*
D03*
X0295Y041D02*
D03*
X029Y04D02*
D03*
Y03D02*
D03*
Y026D02*
D03*
X028Y044D02*
D03*
Y04D02*
D03*
Y038D02*
D03*
Y034D02*
D03*
X0285Y033D02*
D03*
X028Y03D02*
D03*
X0285Y029D02*
D03*
X028Y026D02*
D03*
X027Y044D02*
D03*
X0275Y043D02*
D03*
Y041D02*
D03*
X027Y04D02*
D03*
Y034D02*
D03*
X0275Y033D02*
D03*
X027Y026D02*
D03*
X026Y044D02*
D03*
X0265Y041D02*
D03*
X026Y04D02*
D03*
Y026D02*
D03*
X025Y044D02*
D03*
Y04D02*
D03*
Y038D02*
D03*
Y034D02*
D03*
Y03D02*
D03*
X0255Y029D02*
D03*
X025Y028D02*
D03*
Y026D02*
D03*
X024Y044D02*
D03*
X0245Y041D02*
D03*
X024Y04D02*
D03*
Y038D02*
D03*
X0245Y037D02*
D03*
X024Y036D02*
D03*
Y034D02*
D03*
X0245Y029D02*
D03*
X024Y026D02*
D03*
X023Y044D02*
D03*
X0235Y041D02*
D03*
X023Y04D02*
D03*
Y038D02*
D03*
X0235Y037D02*
D03*
X023Y036D02*
D03*
Y034D02*
D03*
Y032D02*
D03*
Y03D02*
D03*
X0235Y029D02*
D03*
X023Y026D02*
D03*
X022Y044D02*
D03*
X0225Y041D02*
D03*
X022Y04D02*
D03*
Y038D02*
D03*
X0225Y037D02*
D03*
X022Y036D02*
D03*
X0225Y035D02*
D03*
X022Y034D02*
D03*
X0225Y033D02*
D03*
X022Y03D02*
D03*
X0225Y029D02*
D03*
X022Y026D02*
D03*
X021Y044D02*
D03*
X0215Y043D02*
D03*
Y041D02*
D03*
X021Y04D02*
D03*
Y038D02*
D03*
X0215Y037D02*
D03*
Y035D02*
D03*
X021Y034D02*
D03*
Y03D02*
D03*
Y026D02*
D03*
X02Y044D02*
D03*
X0205Y041D02*
D03*
X02Y04D02*
D03*
Y038D02*
D03*
X0205Y035D02*
D03*
X02Y034D02*
D03*
X0205Y033D02*
D03*
X02Y032D02*
D03*
Y03D02*
D03*
X0205Y029D02*
D03*
X02Y028D02*
D03*
Y026D02*
D03*
X019Y044D02*
D03*
Y042D02*
D03*
X0195Y041D02*
D03*
Y039D02*
D03*
Y035D02*
D03*
X019Y034D02*
D03*
X0195Y033D02*
D03*
X019Y032D02*
D03*
Y03D02*
D03*
X0195Y029D02*
D03*
X019Y026D02*
D03*
X018Y044D02*
D03*
Y042D02*
D03*
Y04D02*
D03*
Y036D02*
D03*
X0185Y035D02*
D03*
X018Y034D02*
D03*
X0185Y033D02*
D03*
X018Y032D02*
D03*
Y03D02*
D03*
X0185Y029D02*
D03*
X018Y028D02*
D03*
X0185Y027D02*
D03*
X018Y026D02*
D03*
X017Y044D02*
D03*
Y042D02*
D03*
Y04D02*
D03*
Y038D02*
D03*
Y036D02*
D03*
Y034D02*
D03*
Y032D02*
D03*
Y03D02*
D03*
Y028D02*
D03*
X0175Y027D02*
D03*
X017Y026D02*
D03*
X025149Y03336D02*
D03*
X03092Y03131D02*
D03*
X03115Y031866D02*
D03*
X03197Y03187D02*
D03*
X02467Y03095D02*
D03*
X01844Y03564D02*
D03*
X01838Y03669D02*
D03*
X03279Y03403D02*
D03*
X03225Y03557D02*
D03*
X031122Y035012D02*
D03*
X03855Y03246D02*
D03*
X03674Y02716D02*
D03*
X03906Y03357D02*
D03*
X04016Y03062D02*
D03*
X02563Y03179D02*
D03*
X03316Y0276D02*
D03*
X02629Y03689D02*
D03*
X02531Y03232D02*
D03*
X02106Y03241D02*
D03*
M02*
