G04*
G04 #@! TF.GenerationSoftware,Altium Limited,Altium Designer,21.9.2 (33)*
G04*
G04 Layer_Color=8421504*
%FSTAX24Y24*%
%MOIN*%
G70*
G04*
G04 #@! TF.SameCoordinates,42221833-7155-40BC-9F66-F4787AFC6187*
G04*
G04*
G04 #@! TF.FilePolarity,Positive*
G04*
G01*
G75*
%ADD22R,0.0433X0.0472*%
%ADD23R,0.0374X0.0315*%
%ADD24R,0.0315X0.0374*%
%ADD25R,0.0550X0.0500*%
%ADD26R,0.0394X0.0945*%
%ADD27R,0.1299X0.0945*%
%ADD28R,0.1264X0.0610*%
%ADD29R,0.0150X0.0150*%
%ADD30R,0.0866X0.0236*%
%ADD31R,0.0472X0.0335*%
%ADD32R,0.0610X0.0827*%
G04:AMPARAMS|DCode=33|XSize=11mil|YSize=61.4mil|CornerRadius=2.8mil|HoleSize=0mil|Usage=FLASHONLY|Rotation=90.000|XOffset=0mil|YOffset=0mil|HoleType=Round|Shape=RoundedRectangle|*
%AMROUNDEDRECTD33*
21,1,0.0110,0.0559,0,0,90.0*
21,1,0.0055,0.0614,0,0,90.0*
1,1,0.0055,0.0280,0.0028*
1,1,0.0055,0.0280,-0.0028*
1,1,0.0055,-0.0280,-0.0028*
1,1,0.0055,-0.0280,0.0028*
%
%ADD33ROUNDEDRECTD33*%
G04:AMPARAMS|DCode=34|XSize=11mil|YSize=61.4mil|CornerRadius=2.8mil|HoleSize=0mil|Usage=FLASHONLY|Rotation=0.000|XOffset=0mil|YOffset=0mil|HoleType=Round|Shape=RoundedRectangle|*
%AMROUNDEDRECTD34*
21,1,0.0110,0.0559,0,0,0.0*
21,1,0.0055,0.0614,0,0,0.0*
1,1,0.0055,0.0028,-0.0280*
1,1,0.0055,-0.0028,-0.0280*
1,1,0.0055,-0.0028,0.0280*
1,1,0.0055,0.0028,0.0280*
%
%ADD34ROUNDEDRECTD34*%
%ADD35R,0.0315X0.0472*%
D22*
X021043Y03565D02*
D03*
X020217D02*
D03*
X021043Y0367D02*
D03*
X020217D02*
D03*
D23*
X03279Y03197D02*
D03*
Y032521D02*
D03*
X02467Y032156D02*
D03*
Y031604D02*
D03*
Y033536D02*
D03*
Y032984D02*
D03*
Y034916D02*
D03*
Y034364D02*
D03*
X03279Y033119D02*
D03*
Y03367D02*
D03*
X03854Y033611D02*
D03*
Y03306D02*
D03*
X03043Y031866D02*
D03*
Y031314D02*
D03*
D24*
X02689Y03083D02*
D03*
X027441D02*
D03*
X02563D02*
D03*
X026181D02*
D03*
X026889Y03612D02*
D03*
X02744D02*
D03*
X040166Y03015D02*
D03*
X039614D02*
D03*
X018924Y0367D02*
D03*
X019476D02*
D03*
X018929Y03565D02*
D03*
X01948D02*
D03*
X029484Y03687D02*
D03*
X030036D02*
D03*
X025754Y03612D02*
D03*
X026306D02*
D03*
D25*
X03249Y02851D02*
D03*
Y02761D02*
D03*
X0278Y02876D02*
D03*
Y02786D02*
D03*
X03248Y02923D02*
D03*
Y03013D02*
D03*
X03675D02*
D03*
Y02923D02*
D03*
D26*
X031226Y030112D02*
D03*
X03032D02*
D03*
X029414D02*
D03*
X035526Y030122D02*
D03*
X03462D02*
D03*
X033714D02*
D03*
D27*
X03032Y027828D02*
D03*
X03462Y027838D02*
D03*
D28*
X02415Y027933D02*
D03*
Y029587D02*
D03*
D29*
X04787Y02677D02*
D03*
D30*
X037521Y03306D02*
D03*
X033899Y03406D02*
D03*
X037521Y03256D02*
D03*
Y03356D02*
D03*
Y03406D02*
D03*
X033899Y03356D02*
D03*
Y03456D02*
D03*
Y03506D02*
D03*
X037521D02*
D03*
X033899Y03606D02*
D03*
X037521Y03456D02*
D03*
Y03556D02*
D03*
X033899D02*
D03*
X037521Y03606D02*
D03*
X033899Y03306D02*
D03*
Y03256D02*
D03*
D31*
X040592Y02893D02*
D03*
X03961Y02856D02*
D03*
X039608Y029304D02*
D03*
D32*
X02615Y029596D02*
D03*
Y027864D02*
D03*
D33*
X026194Y034593D02*
D03*
Y034396D02*
D03*
Y034199D02*
D03*
Y034002D02*
D03*
Y033805D02*
D03*
Y033608D02*
D03*
Y033412D02*
D03*
Y033215D02*
D03*
Y033018D02*
D03*
Y032821D02*
D03*
Y032624D02*
D03*
Y032427D02*
D03*
X029486D02*
D03*
Y032624D02*
D03*
Y032821D02*
D03*
Y033018D02*
D03*
Y033215D02*
D03*
Y033412D02*
D03*
Y033608D02*
D03*
Y033805D02*
D03*
Y034002D02*
D03*
Y034199D02*
D03*
Y034396D02*
D03*
Y034593D02*
D03*
D34*
X026757Y031864D02*
D03*
X026954D02*
D03*
X027151D02*
D03*
X027348D02*
D03*
X027545D02*
D03*
X027742D02*
D03*
X027938D02*
D03*
X028135D02*
D03*
X028332D02*
D03*
X028529D02*
D03*
X028726D02*
D03*
X028923D02*
D03*
Y035156D02*
D03*
X028726D02*
D03*
X028529D02*
D03*
X028332D02*
D03*
X028135D02*
D03*
X027938D02*
D03*
X027742D02*
D03*
X027545D02*
D03*
X027348D02*
D03*
X027151D02*
D03*
X026954D02*
D03*
X026757D02*
D03*
D35*
X02105Y031872D02*
D03*
Y034628D02*
D03*
M02*
