G04*
G04 #@! TF.GenerationSoftware,Altium Limited,Altium Designer,21.9.2 (33)*
G04*
G04 Layer_Color=16711935*
%FSTAX24Y24*%
%MOIN*%
G70*
G04*
G04 #@! TF.SameCoordinates,42221833-7155-40BC-9F66-F4787AFC6187*
G04*
G04*
G04 #@! TF.FilePolarity,Positive*
G04*
G01*
G75*
%ADD10C,0.0000*%
%ADD11C,0.0080*%
%ADD13C,0.0079*%
%ADD15C,0.0050*%
%ADD16C,0.0060*%
%ADD76C,0.0039*%
G36*
X034214Y032657D02*
Y032464D01*
X033616D01*
Y032657D01*
X034214D01*
D02*
G37*
G36*
Y033156D02*
Y032964D01*
X033616D01*
Y033156D01*
X034214D01*
D02*
G37*
G36*
Y033656D02*
Y033463D01*
X033616D01*
Y033656D01*
X034214D01*
D02*
G37*
G36*
Y034156D02*
Y033963D01*
X033616D01*
Y034156D01*
X034214D01*
D02*
G37*
G36*
Y034657D02*
Y034464D01*
X033616D01*
Y034657D01*
X034214D01*
D02*
G37*
G36*
Y035157D02*
Y034964D01*
X033616D01*
Y035157D01*
X034214D01*
D02*
G37*
G36*
Y035656D02*
Y035464D01*
X033616D01*
Y035656D01*
X034214D01*
D02*
G37*
G36*
Y036156D02*
Y035963D01*
X033616D01*
Y036156D01*
X034214D01*
D02*
G37*
G36*
X037804Y032657D02*
Y032464D01*
X037206D01*
Y032657D01*
X037804D01*
D02*
G37*
G36*
Y033156D02*
Y032964D01*
X037206D01*
Y033156D01*
X037804D01*
D02*
G37*
G36*
Y033656D02*
Y033463D01*
X037206D01*
Y033656D01*
X037804D01*
D02*
G37*
G36*
Y034156D02*
Y033963D01*
X037206D01*
Y034156D01*
X037804D01*
D02*
G37*
G36*
Y034657D02*
Y034464D01*
X037206D01*
Y034657D01*
X037804D01*
D02*
G37*
G36*
Y035157D02*
Y034964D01*
X037206D01*
Y035157D01*
X037804D01*
D02*
G37*
G36*
Y035656D02*
Y035464D01*
X037206D01*
Y035656D01*
X037804D01*
D02*
G37*
G36*
Y036156D02*
Y035963D01*
X037206D01*
Y036156D01*
X037804D01*
D02*
G37*
D10*
X02999Y04031D02*
G03*
X02999Y04007I0J-00012D01*
G01*
D11*
X037167Y032267D02*
Y036353D01*
X03697Y032267D02*
X037167D01*
X034253D02*
X03697D01*
X034253D02*
Y036353D01*
X03697Y032267D02*
Y036353D01*
X034253D02*
X03697D01*
X037167D01*
D13*
X025537Y034671D02*
G03*
X025537Y034671I-000059J0D01*
G01*
D15*
X026423Y034927D02*
X029257D01*
Y032093D02*
Y034927D01*
X026423Y032093D02*
X029257D01*
X026423D02*
Y034927D01*
D16*
X01939Y04149D02*
X02999D01*
Y04031D02*
Y04149D01*
Y04007D02*
Y04031D01*
Y03889D02*
Y04007D01*
X01939Y03889D02*
X02999D01*
X01939D02*
Y04149D01*
X02941Y03847D02*
Y03889D01*
X02897Y03847D02*
X02941D01*
X02897D02*
Y03889D01*
X02941D01*
X02841Y03847D02*
Y03889D01*
X02797Y03847D02*
X02841D01*
X02797D02*
Y03889D01*
X02841D01*
X02741Y03847D02*
Y03889D01*
X02697Y03847D02*
X02741D01*
X02697D02*
Y03889D01*
X02741D01*
X02641Y03847D02*
Y03889D01*
X02597Y03847D02*
X02641D01*
X02597D02*
Y03889D01*
X02641D01*
X02541Y03847D02*
Y03889D01*
X02497Y03847D02*
X02541D01*
X02497D02*
Y03889D01*
X02541D01*
X02441Y03847D02*
Y03889D01*
X02397Y03847D02*
X02441D01*
X02397D02*
Y03889D01*
X02441D01*
X02341Y03847D02*
Y03889D01*
X02297Y03847D02*
X02341D01*
X02297D02*
Y03889D01*
X02341D01*
X02241Y03847D02*
Y03889D01*
X02197Y03847D02*
X02241D01*
X02197D02*
Y03889D01*
X02241D01*
X02141Y03847D02*
Y03889D01*
X02097Y03847D02*
X02141D01*
X02097D02*
Y03889D01*
X02141D01*
X02041Y03847D02*
Y03889D01*
X01997Y03847D02*
X02041D01*
X01997D02*
Y03889D01*
X02041D01*
X01997Y04149D02*
Y04191D01*
X02041D01*
Y04149D02*
Y04191D01*
X01997Y04149D02*
X02041D01*
X02097D02*
Y04191D01*
X02141D01*
Y04149D02*
Y04191D01*
X02097Y04149D02*
X02141D01*
X02197D02*
Y04191D01*
X02241D01*
Y04149D02*
Y04191D01*
X02197Y04149D02*
X02241D01*
X02297D02*
Y04191D01*
X02341D01*
Y04149D02*
Y04191D01*
X02297Y04149D02*
X02341D01*
X02397D02*
Y04191D01*
X02441D01*
Y04149D02*
Y04191D01*
X02397Y04149D02*
X02441D01*
X02497D02*
Y04191D01*
X02541D01*
Y04149D02*
Y04191D01*
X02497Y04149D02*
X02541D01*
X02597D02*
Y04191D01*
X02641D01*
Y04149D02*
Y04191D01*
X02597Y04149D02*
X02641D01*
X02697D02*
Y04191D01*
X02741D01*
Y04149D02*
Y04191D01*
X02697Y04149D02*
X02741D01*
X02797D02*
Y04191D01*
X02841D01*
Y04149D02*
Y04191D01*
X02797Y04149D02*
X02841D01*
X02897D02*
Y04191D01*
X02941D01*
Y04149D02*
Y04191D01*
X02897Y04149D02*
X02941D01*
D76*
X02789Y0429D02*
Y0439D01*
X03189Y0429D02*
Y0439D01*
X02789D02*
X03189D01*
X02789Y0429D02*
X03189D01*
X01791D02*
Y0439D01*
X02091Y0429D02*
Y0439D01*
X01791D02*
X02091D01*
X01791Y0429D02*
X02091D01*
X02194D02*
Y0439D01*
X02694Y0429D02*
Y0439D01*
X02194D02*
X02694D01*
X02194Y0429D02*
X02694D01*
X020217Y035384D02*
X021043D01*
X020217Y035916D02*
X021043D01*
Y035384D02*
Y035916D01*
X020217Y035384D02*
Y035916D01*
Y036434D02*
X021043D01*
X020217Y036966D02*
X021043D01*
Y036434D02*
Y036966D01*
X020217Y036434D02*
Y036966D01*
X032613Y031911D02*
Y03258D01*
X032967Y031911D02*
Y03258D01*
X032613Y031911D02*
X032967D01*
X032613Y03258D02*
X032967D01*
X026831Y031007D02*
X0275D01*
X026831Y030653D02*
X0275D01*
X026831D02*
Y031007D01*
X0275Y030653D02*
Y031007D01*
X025571D02*
X02624D01*
X025571Y030653D02*
X02624D01*
X025571D02*
Y031007D01*
X02624Y030653D02*
Y031007D01*
X024493Y032215D02*
X024847D01*
X024493Y031545D02*
X024847D01*
Y032215D01*
X024493Y031545D02*
Y032215D01*
Y033595D02*
X024847D01*
X024493Y032925D02*
X024847D01*
Y033595D01*
X024493Y032925D02*
Y033595D01*
Y034975D02*
X024847D01*
X024493Y034305D02*
X024847D01*
Y034975D01*
X024493Y034305D02*
Y034975D01*
X03291Y0439D02*
X04891D01*
X03291Y0429D02*
X04891D01*
Y0439D01*
X03291Y0429D02*
Y0439D01*
X01788Y04185D02*
X01888D01*
X01788Y03785D02*
X01888D01*
Y04185D01*
X01788Y03785D02*
Y04185D01*
X021237Y032915D02*
Y033585D01*
X020883Y032915D02*
Y033585D01*
Y032915D02*
X021237D01*
X020883Y033585D02*
X021237D01*
X029535Y042657D02*
X030205D01*
X029535Y042303D02*
X030205D01*
Y042657D01*
X029535Y042303D02*
Y042657D01*
X02683Y035943D02*
Y036297D01*
X027499Y035943D02*
Y036297D01*
X02683D02*
X027499D01*
X02683Y035943D02*
X027499D01*
X023479Y027829D02*
Y029691D01*
X024821Y027829D02*
Y029691D01*
X023479Y027829D02*
X024821D01*
X023479Y029691D02*
X024821D01*
X032613Y03306D02*
X032967D01*
X032613Y033729D02*
X032967D01*
X032613Y03306D02*
Y033729D01*
X032967Y03306D02*
Y033729D01*
X038363Y03367D02*
X038717D01*
X038363Y033001D02*
X038717D01*
Y03367D01*
X038363Y033001D02*
Y03367D01*
X040225Y029973D02*
Y030327D01*
X039555Y029973D02*
Y030327D01*
Y029973D02*
X040225D01*
X039555Y030327D02*
X040225D01*
X018865Y036523D02*
Y036877D01*
X019535Y036523D02*
Y036877D01*
X018865D02*
X019535D01*
X018865Y036523D02*
X019535D01*
X01887Y035473D02*
Y035827D01*
X019539Y035473D02*
Y035827D01*
X01887D02*
X019539D01*
X01887Y035473D02*
X019539D01*
X030607Y031255D02*
Y031925D01*
X030253Y031255D02*
Y031925D01*
X030607D01*
X030253Y031255D02*
X030607D01*
X029425Y037047D02*
X030095D01*
X029425Y036693D02*
X030095D01*
X029425D02*
Y037047D01*
X030095Y036693D02*
Y037047D01*
X025695Y036297D02*
X026365D01*
X025695Y035943D02*
X026365D01*
X025695D02*
Y036297D01*
X026365Y035943D02*
Y036297D01*
M02*
