G04*
G04 #@! TF.GenerationSoftware,Altium Limited,Altium Designer,21.9.2 (33)*
G04*
G04 Layer_Color=2752767*
%FSTAX24Y24*%
%MOIN*%
G70*
G04*
G04 #@! TF.SameCoordinates,6253CE77-86D3-43C4-916D-D03A74546D46*
G04*
G04*
G04 #@! TF.FilePolarity,Positive*
G04*
G01*
G75*
%ADD75C,0.0020*%
%ADD76C,0.0027*%
%ADD77C,0.0013*%
D75*
X046439Y028983D02*
Y029143D01*
X046599D01*
Y028983D01*
X046439D01*
X046911D02*
Y029143D01*
X047071D01*
Y028983D01*
X046911D01*
X047384D02*
Y029143D01*
X047544D01*
Y028983D01*
X047384D01*
X047856D02*
Y029143D01*
X048016D01*
Y028983D01*
X047856D01*
X048329D02*
Y029143D01*
X048489D01*
Y028983D01*
X048329D01*
X046439Y029771D02*
Y029931D01*
X046599D01*
Y029771D01*
X046439D01*
X046911D02*
Y029931D01*
X047071D01*
Y029771D01*
X046911D01*
X047384D02*
Y029931D01*
X047544D01*
Y029771D01*
X047384D01*
X047856D02*
Y029931D01*
X048016D01*
Y029771D01*
X047856D01*
X048329D02*
Y029931D01*
X048489D01*
Y029771D01*
X048329D01*
X028722Y028983D02*
Y029143D01*
X028882D01*
Y028983D01*
X028722D01*
X029195D02*
Y029143D01*
X029355D01*
Y028983D01*
X029195D01*
X029667D02*
Y029143D01*
X029827D01*
Y028983D01*
X029667D01*
X03014D02*
Y029143D01*
X0303D01*
Y028983D01*
X03014D01*
X030612D02*
Y029143D01*
X030772D01*
Y028983D01*
X030612D01*
Y029771D02*
Y029931D01*
X030772D01*
Y029771D01*
X030612D01*
X03014D02*
Y029931D01*
X0303D01*
Y029771D01*
X03014D01*
X029667D02*
Y029931D01*
X029827D01*
Y029771D01*
X029667D01*
X029195D02*
Y029931D01*
X029355D01*
Y029771D01*
X029195D01*
X028722D02*
Y029931D01*
X028882D01*
Y029771D01*
X028722D01*
X040236Y02546D02*
X040156Y02562D01*
X040316D01*
X040236Y02546D01*
X042236Y02446D02*
X042156Y02462D01*
X042316D01*
X042236Y02446D01*
X040236Y02346D02*
X040156Y02362D01*
X040316D01*
X040236Y02346D01*
X025856Y02767D02*
X025896Y02771D01*
X025936D01*
X025896Y02775D01*
X025936Y02779D01*
X025896D01*
X025856Y02783D01*
X025816Y02779D01*
X025776D01*
X025816Y02775D01*
X025776Y02771D01*
X025816D01*
X025856Y02767D01*
X024856D02*
X024896Y02771D01*
X024936D01*
X024896Y02775D01*
X024936Y02779D01*
X024896D01*
X024856Y02783D01*
X024816Y02779D01*
X024776D01*
X024816Y02775D01*
X024776Y02771D01*
X024816D01*
X024856Y02767D01*
X023856D02*
X023896Y02771D01*
X023936D01*
X023896Y02775D01*
X023936Y02779D01*
X023896D01*
X023856Y02783D01*
X023816Y02779D01*
X023776D01*
X023816Y02775D01*
X023776Y02771D01*
X023816D01*
X023856Y02767D01*
X029636Y02766D02*
X029676Y0277D01*
X029716D01*
X029676Y02774D01*
X029716Y02778D01*
X029676D01*
X029636Y02782D01*
X029596Y02778D01*
X029556D01*
X029596Y02774D01*
X029556Y0277D01*
X029596D01*
X029636Y02766D01*
X031636D02*
X031676Y0277D01*
X031716D01*
X031676Y02774D01*
X031716Y02778D01*
X031676D01*
X031636Y02782D01*
X031596Y02778D01*
X031556D01*
X031596Y02774D01*
X031556Y0277D01*
X031596D01*
X031636Y02766D01*
X030636D02*
X030676Y0277D01*
X030716D01*
X030676Y02774D01*
X030716Y02778D01*
X030676D01*
X030636Y02782D01*
X030596Y02778D01*
X030556D01*
X030596Y02774D01*
X030556Y0277D01*
X030596D01*
X030636Y02766D01*
X028636D02*
X028676Y0277D01*
X028716D01*
X028676Y02774D01*
X028716Y02778D01*
X028676D01*
X028636Y02782D01*
X028596Y02778D01*
X028556D01*
X028596Y02774D01*
X028556Y0277D01*
X028596D01*
X028636Y02766D01*
X027636D02*
X027676Y0277D01*
X027716D01*
X027676Y02774D01*
X027716Y02778D01*
X027676D01*
X027636Y02782D01*
X027596Y02778D01*
X027556D01*
X027596Y02774D01*
X027556Y0277D01*
X027596D01*
X027636Y02766D01*
X033386D02*
X033426Y0277D01*
X033466D01*
X033426Y02774D01*
X033466Y02778D01*
X033426D01*
X033386Y02782D01*
X033346Y02778D01*
X033306D01*
X033346Y02774D01*
X033306Y0277D01*
X033346D01*
X033386Y02766D01*
X034386D02*
X034426Y0277D01*
X034466D01*
X034426Y02774D01*
X034466Y02778D01*
X034426D01*
X034386Y02782D01*
X034346Y02778D01*
X034306D01*
X034346Y02774D01*
X034306Y0277D01*
X034346D01*
X034386Y02766D01*
X036386D02*
X036426Y0277D01*
X036466D01*
X036426Y02774D01*
X036466Y02778D01*
X036426D01*
X036386Y02782D01*
X036346Y02778D01*
X036306D01*
X036346Y02774D01*
X036306Y0277D01*
X036346D01*
X036386Y02766D01*
X035386D02*
X035426Y0277D01*
X035466D01*
X035426Y02774D01*
X035466Y02778D01*
X035426D01*
X035386Y02782D01*
X035346Y02778D01*
X035306D01*
X035346Y02774D01*
X035306Y0277D01*
X035346D01*
X035386Y02766D01*
X040136D02*
X040176Y0277D01*
X040216D01*
X040176Y02774D01*
X040216Y02778D01*
X040176D01*
X040136Y02782D01*
X040096Y02778D01*
X040056D01*
X040096Y02774D01*
X040056Y0277D01*
X040096D01*
X040136Y02766D01*
X041136D02*
X041176Y0277D01*
X041216D01*
X041176Y02774D01*
X041216Y02778D01*
X041176D01*
X041136Y02782D01*
X041096Y02778D01*
X041056D01*
X041096Y02774D01*
X041056Y0277D01*
X041096D01*
X041136Y02766D01*
X045136D02*
X045176Y0277D01*
X045216D01*
X045176Y02774D01*
X045216Y02778D01*
X045176D01*
X045136Y02782D01*
X045096Y02778D01*
X045056D01*
X045096Y02774D01*
X045056Y0277D01*
X045096D01*
X045136Y02766D01*
X048136D02*
X048176Y0277D01*
X048216D01*
X048176Y02774D01*
X048216Y02778D01*
X048176D01*
X048136Y02782D01*
X048096Y02778D01*
X048056D01*
X048096Y02774D01*
X048056Y0277D01*
X048096D01*
X048136Y02766D01*
X050136D02*
X050176Y0277D01*
X050216D01*
X050176Y02774D01*
X050216Y02778D01*
X050176D01*
X050136Y02782D01*
X050096Y02778D01*
X050056D01*
X050096Y02774D01*
X050056Y0277D01*
X050096D01*
X050136Y02766D01*
X052136D02*
X052176Y0277D01*
X052216D01*
X052176Y02774D01*
X052216Y02778D01*
X052176D01*
X052136Y02782D01*
X052096Y02778D01*
X052056D01*
X052096Y02774D01*
X052056Y0277D01*
X052096D01*
X052136Y02766D01*
X053136D02*
X053176Y0277D01*
X053216D01*
X053176Y02774D01*
X053216Y02778D01*
X053176D01*
X053136Y02782D01*
X053096Y02778D01*
X053056D01*
X053096Y02774D01*
X053056Y0277D01*
X053096D01*
X053136Y02766D01*
X051136D02*
X051176Y0277D01*
X051216D01*
X051176Y02774D01*
X051216Y02778D01*
X051176D01*
X051136Y02782D01*
X051096Y02778D01*
X051056D01*
X051096Y02774D01*
X051056Y0277D01*
X051096D01*
X051136Y02766D01*
X049136D02*
X049176Y0277D01*
X049216D01*
X049176Y02774D01*
X049216Y02778D01*
X049176D01*
X049136Y02782D01*
X049096Y02778D01*
X049056D01*
X049096Y02774D01*
X049056Y0277D01*
X049096D01*
X049136Y02766D01*
X047136D02*
X047176Y0277D01*
X047216D01*
X047176Y02774D01*
X047216Y02778D01*
X047176D01*
X047136Y02782D01*
X047096Y02778D01*
X047056D01*
X047096Y02774D01*
X047056Y0277D01*
X047096D01*
X047136Y02766D01*
X046136D02*
X046176Y0277D01*
X046216D01*
X046176Y02774D01*
X046216Y02778D01*
X046176D01*
X046136Y02782D01*
X046096Y02778D01*
X046056D01*
X046096Y02774D01*
X046056Y0277D01*
X046096D01*
X046136Y02766D01*
X044136D02*
X044176Y0277D01*
X044216D01*
X044176Y02774D01*
X044216Y02778D01*
X044176D01*
X044136Y02782D01*
X044096Y02778D01*
X044056D01*
X044096Y02774D01*
X044056Y0277D01*
X044096D01*
X044136Y02766D01*
X043136D02*
X043176Y0277D01*
X043216D01*
X043176Y02774D01*
X043216Y02778D01*
X043176D01*
X043136Y02782D01*
X043096Y02778D01*
X043056D01*
X043096Y02774D01*
X043056Y0277D01*
X043096D01*
X043136Y02766D01*
X042136D02*
X042176Y0277D01*
X042216D01*
X042176Y02774D01*
X042216Y02778D01*
X042176D01*
X042136Y02782D01*
X042096Y02778D01*
X042056D01*
X042096Y02774D01*
X042056Y0277D01*
X042096D01*
X042136Y02766D01*
X039136D02*
X039176Y0277D01*
X039216D01*
X039176Y02774D01*
X039216Y02778D01*
X039176D01*
X039136Y02782D01*
X039096Y02778D01*
X039056D01*
X039096Y02774D01*
X039056Y0277D01*
X039096D01*
X039136Y02766D01*
X038136D02*
X038176Y0277D01*
X038216D01*
X038176Y02774D01*
X038216Y02778D01*
X038176D01*
X038136Y02782D01*
X038096Y02778D01*
X038056D01*
X038096Y02774D01*
X038056Y0277D01*
X038096D01*
X038136Y02766D01*
X024706Y01631D02*
X024746Y01639D01*
X024706Y01647D01*
X024786Y01643D01*
X024866Y01647D01*
X024826Y01639D01*
X024866Y01631D01*
X024786Y01635D01*
X024706Y01631D01*
Y017688D02*
X024746Y017768D01*
X024706Y017848D01*
X024786Y017808D01*
X024866Y017848D01*
X024826Y017768D01*
X024866Y017688D01*
X024786Y017728D01*
X024706Y017688D01*
Y012982D02*
X024746Y013062D01*
X024706Y013142D01*
X024786Y013102D01*
X024866Y013142D01*
X024826Y013062D01*
X024866Y012982D01*
X024786Y013022D01*
X024706Y012982D01*
Y01436D02*
X024746Y01444D01*
X024706Y01452D01*
X024786Y01448D01*
X024866Y01452D01*
X024826Y01444D01*
X024866Y01436D01*
X024786Y0144D01*
X024706Y01436D01*
X042876Y01733D02*
Y01729D01*
X042956D01*
Y01733D01*
X042996D01*
Y01741D01*
X042956D01*
Y01745D01*
X042876D01*
Y01741D01*
X042836D01*
Y01733D01*
X042876D01*
X041876D02*
Y01729D01*
X041956D01*
Y01733D01*
X041996D01*
Y01741D01*
X041956D01*
Y01745D01*
X041876D01*
Y01741D01*
X041836D01*
Y01733D01*
X041876D01*
X03834Y01581D02*
X03838D01*
X03842Y01585D01*
X03846Y01581D01*
X0385D01*
Y01585D01*
X03846Y01589D01*
X0385Y01593D01*
Y01597D01*
X03846D01*
X03842Y01593D01*
X03838Y01597D01*
X03834D01*
Y01593D01*
X03838Y01589D01*
X03834Y01585D01*
Y01581D01*
Y013023D02*
X03838D01*
X03842Y013063D01*
X03846Y013023D01*
X0385D01*
Y013063D01*
X03846Y013103D01*
X0385Y013143D01*
Y013183D01*
X03846D01*
X03842Y013143D01*
X03838Y013183D01*
X03834D01*
Y013143D01*
X03838Y013103D01*
X03834Y013063D01*
Y013023D01*
X047956Y02589D02*
X048036Y02597D01*
X048116Y02589D01*
X048036Y02581D01*
X047956Y02589D01*
Y01789D02*
X048036Y01797D01*
X048116Y01789D01*
X048036Y01781D01*
X047956Y01789D01*
X029336Y02364D02*
Y0238D01*
X029496D01*
Y02364D01*
X029336D01*
X029376Y02368D02*
Y02376D01*
X029456D01*
Y02368D01*
X029376D01*
X029336Y02164D02*
Y0218D01*
X029496D01*
Y02164D01*
X029336D01*
X029376Y02168D02*
Y02176D01*
X029456D01*
Y02168D01*
X029376D01*
X040236Y044164D02*
X040156Y044324D01*
X040316D01*
X040236Y044164D01*
X042236Y043164D02*
X042156Y043324D01*
X042316D01*
X042236Y043164D01*
X040236Y042164D02*
X040156Y042324D01*
X040316D01*
X040236Y042164D01*
X025856Y046374D02*
X025896Y046414D01*
X025936D01*
X025896Y046454D01*
X025936Y046494D01*
X025896D01*
X025856Y046534D01*
X025816Y046494D01*
X025776D01*
X025816Y046454D01*
X025776Y046414D01*
X025816D01*
X025856Y046374D01*
X024856D02*
X024896Y046414D01*
X024936D01*
X024896Y046454D01*
X024936Y046494D01*
X024896D01*
X024856Y046534D01*
X024816Y046494D01*
X024776D01*
X024816Y046454D01*
X024776Y046414D01*
X024816D01*
X024856Y046374D01*
X023856D02*
X023896Y046414D01*
X023936D01*
X023896Y046454D01*
X023936Y046494D01*
X023896D01*
X023856Y046534D01*
X023816Y046494D01*
X023776D01*
X023816Y046454D01*
X023776Y046414D01*
X023816D01*
X023856Y046374D01*
X029636Y046364D02*
X029676Y046404D01*
X029716D01*
X029676Y046444D01*
X029716Y046484D01*
X029676D01*
X029636Y046524D01*
X029596Y046484D01*
X029556D01*
X029596Y046444D01*
X029556Y046404D01*
X029596D01*
X029636Y046364D01*
X031636D02*
X031676Y046404D01*
X031716D01*
X031676Y046444D01*
X031716Y046484D01*
X031676D01*
X031636Y046524D01*
X031596Y046484D01*
X031556D01*
X031596Y046444D01*
X031556Y046404D01*
X031596D01*
X031636Y046364D01*
X030636D02*
X030676Y046404D01*
X030716D01*
X030676Y046444D01*
X030716Y046484D01*
X030676D01*
X030636Y046524D01*
X030596Y046484D01*
X030556D01*
X030596Y046444D01*
X030556Y046404D01*
X030596D01*
X030636Y046364D01*
X028636D02*
X028676Y046404D01*
X028716D01*
X028676Y046444D01*
X028716Y046484D01*
X028676D01*
X028636Y046524D01*
X028596Y046484D01*
X028556D01*
X028596Y046444D01*
X028556Y046404D01*
X028596D01*
X028636Y046364D01*
X027636D02*
X027676Y046404D01*
X027716D01*
X027676Y046444D01*
X027716Y046484D01*
X027676D01*
X027636Y046524D01*
X027596Y046484D01*
X027556D01*
X027596Y046444D01*
X027556Y046404D01*
X027596D01*
X027636Y046364D01*
X033386D02*
X033426Y046404D01*
X033466D01*
X033426Y046444D01*
X033466Y046484D01*
X033426D01*
X033386Y046524D01*
X033346Y046484D01*
X033306D01*
X033346Y046444D01*
X033306Y046404D01*
X033346D01*
X033386Y046364D01*
X034386D02*
X034426Y046404D01*
X034466D01*
X034426Y046444D01*
X034466Y046484D01*
X034426D01*
X034386Y046524D01*
X034346Y046484D01*
X034306D01*
X034346Y046444D01*
X034306Y046404D01*
X034346D01*
X034386Y046364D01*
X036386D02*
X036426Y046404D01*
X036466D01*
X036426Y046444D01*
X036466Y046484D01*
X036426D01*
X036386Y046524D01*
X036346Y046484D01*
X036306D01*
X036346Y046444D01*
X036306Y046404D01*
X036346D01*
X036386Y046364D01*
X035386D02*
X035426Y046404D01*
X035466D01*
X035426Y046444D01*
X035466Y046484D01*
X035426D01*
X035386Y046524D01*
X035346Y046484D01*
X035306D01*
X035346Y046444D01*
X035306Y046404D01*
X035346D01*
X035386Y046364D01*
X040136D02*
X040176Y046404D01*
X040216D01*
X040176Y046444D01*
X040216Y046484D01*
X040176D01*
X040136Y046524D01*
X040096Y046484D01*
X040056D01*
X040096Y046444D01*
X040056Y046404D01*
X040096D01*
X040136Y046364D01*
X041136D02*
X041176Y046404D01*
X041216D01*
X041176Y046444D01*
X041216Y046484D01*
X041176D01*
X041136Y046524D01*
X041096Y046484D01*
X041056D01*
X041096Y046444D01*
X041056Y046404D01*
X041096D01*
X041136Y046364D01*
X045136D02*
X045176Y046404D01*
X045216D01*
X045176Y046444D01*
X045216Y046484D01*
X045176D01*
X045136Y046524D01*
X045096Y046484D01*
X045056D01*
X045096Y046444D01*
X045056Y046404D01*
X045096D01*
X045136Y046364D01*
X048136D02*
X048176Y046404D01*
X048216D01*
X048176Y046444D01*
X048216Y046484D01*
X048176D01*
X048136Y046524D01*
X048096Y046484D01*
X048056D01*
X048096Y046444D01*
X048056Y046404D01*
X048096D01*
X048136Y046364D01*
X050136D02*
X050176Y046404D01*
X050216D01*
X050176Y046444D01*
X050216Y046484D01*
X050176D01*
X050136Y046524D01*
X050096Y046484D01*
X050056D01*
X050096Y046444D01*
X050056Y046404D01*
X050096D01*
X050136Y046364D01*
X052136D02*
X052176Y046404D01*
X052216D01*
X052176Y046444D01*
X052216Y046484D01*
X052176D01*
X052136Y046524D01*
X052096Y046484D01*
X052056D01*
X052096Y046444D01*
X052056Y046404D01*
X052096D01*
X052136Y046364D01*
X053136D02*
X053176Y046404D01*
X053216D01*
X053176Y046444D01*
X053216Y046484D01*
X053176D01*
X053136Y046524D01*
X053096Y046484D01*
X053056D01*
X053096Y046444D01*
X053056Y046404D01*
X053096D01*
X053136Y046364D01*
X051136D02*
X051176Y046404D01*
X051216D01*
X051176Y046444D01*
X051216Y046484D01*
X051176D01*
X051136Y046524D01*
X051096Y046484D01*
X051056D01*
X051096Y046444D01*
X051056Y046404D01*
X051096D01*
X051136Y046364D01*
X049136D02*
X049176Y046404D01*
X049216D01*
X049176Y046444D01*
X049216Y046484D01*
X049176D01*
X049136Y046524D01*
X049096Y046484D01*
X049056D01*
X049096Y046444D01*
X049056Y046404D01*
X049096D01*
X049136Y046364D01*
X047136D02*
X047176Y046404D01*
X047216D01*
X047176Y046444D01*
X047216Y046484D01*
X047176D01*
X047136Y046524D01*
X047096Y046484D01*
X047056D01*
X047096Y046444D01*
X047056Y046404D01*
X047096D01*
X047136Y046364D01*
X046136D02*
X046176Y046404D01*
X046216D01*
X046176Y046444D01*
X046216Y046484D01*
X046176D01*
X046136Y046524D01*
X046096Y046484D01*
X046056D01*
X046096Y046444D01*
X046056Y046404D01*
X046096D01*
X046136Y046364D01*
X044136D02*
X044176Y046404D01*
X044216D01*
X044176Y046444D01*
X044216Y046484D01*
X044176D01*
X044136Y046524D01*
X044096Y046484D01*
X044056D01*
X044096Y046444D01*
X044056Y046404D01*
X044096D01*
X044136Y046364D01*
X043136D02*
X043176Y046404D01*
X043216D01*
X043176Y046444D01*
X043216Y046484D01*
X043176D01*
X043136Y046524D01*
X043096Y046484D01*
X043056D01*
X043096Y046444D01*
X043056Y046404D01*
X043096D01*
X043136Y046364D01*
X042136D02*
X042176Y046404D01*
X042216D01*
X042176Y046444D01*
X042216Y046484D01*
X042176D01*
X042136Y046524D01*
X042096Y046484D01*
X042056D01*
X042096Y046444D01*
X042056Y046404D01*
X042096D01*
X042136Y046364D01*
X039136D02*
X039176Y046404D01*
X039216D01*
X039176Y046444D01*
X039216Y046484D01*
X039176D01*
X039136Y046524D01*
X039096Y046484D01*
X039056D01*
X039096Y046444D01*
X039056Y046404D01*
X039096D01*
X039136Y046364D01*
X038136D02*
X038176Y046404D01*
X038216D01*
X038176Y046444D01*
X038216Y046484D01*
X038176D01*
X038136Y046524D01*
X038096Y046484D01*
X038056D01*
X038096Y046444D01*
X038056Y046404D01*
X038096D01*
X038136Y046364D01*
X024706Y035014D02*
X024746Y035094D01*
X024706Y035174D01*
X024786Y035134D01*
X024866Y035174D01*
X024826Y035094D01*
X024866Y035014D01*
X024786Y035054D01*
X024706Y035014D01*
Y036392D02*
X024746Y036472D01*
X024706Y036552D01*
X024786Y036512D01*
X024866Y036552D01*
X024826Y036472D01*
X024866Y036392D01*
X024786Y036432D01*
X024706Y036392D01*
Y031686D02*
X024746Y031766D01*
X024706Y031846D01*
X024786Y031806D01*
X024866Y031846D01*
X024826Y031766D01*
X024866Y031686D01*
X024786Y031726D01*
X024706Y031686D01*
Y033064D02*
X024746Y033144D01*
X024706Y033224D01*
X024786Y033184D01*
X024866Y033224D01*
X024826Y033144D01*
X024866Y033064D01*
X024786Y033104D01*
X024706Y033064D01*
X042876Y036034D02*
Y035994D01*
X042956D01*
Y036034D01*
X042996D01*
Y036114D01*
X042956D01*
Y036154D01*
X042876D01*
Y036114D01*
X042836D01*
Y036034D01*
X042876D01*
X041876D02*
Y035994D01*
X041956D01*
Y036034D01*
X041996D01*
Y036114D01*
X041956D01*
Y036154D01*
X041876D01*
Y036114D01*
X041836D01*
Y036034D01*
X041876D01*
X03834Y034514D02*
X03838D01*
X03842Y034554D01*
X03846Y034514D01*
X0385D01*
Y034554D01*
X03846Y034594D01*
X0385Y034634D01*
Y034674D01*
X03846D01*
X03842Y034634D01*
X03838Y034674D01*
X03834D01*
Y034634D01*
X03838Y034594D01*
X03834Y034554D01*
Y034514D01*
Y031727D02*
X03838D01*
X03842Y031767D01*
X03846Y031727D01*
X0385D01*
Y031767D01*
X03846Y031807D01*
X0385Y031847D01*
Y031887D01*
X03846D01*
X03842Y031847D01*
X03838Y031887D01*
X03834D01*
Y031847D01*
X03838Y031807D01*
X03834Y031767D01*
Y031727D01*
X047956Y044594D02*
X048036Y044674D01*
X048116Y044594D01*
X048036Y044514D01*
X047956Y044594D01*
Y036594D02*
X048036Y036674D01*
X048116Y036594D01*
X048036Y036514D01*
X047956Y036594D01*
X029336Y042344D02*
Y042504D01*
X029496D01*
Y042344D01*
X029336D01*
X029376Y042384D02*
Y042464D01*
X029456D01*
Y042384D01*
X029376D01*
X029336Y040344D02*
Y040504D01*
X029496D01*
Y040344D01*
X029336D01*
X029376Y040384D02*
Y040464D01*
X029456D01*
Y040384D01*
X029376D01*
D76*
X045966Y01569D02*
G03*
X045966Y01569I-00008J0D01*
G01*
X044966D02*
G03*
X044966Y01569I-00008J0D01*
G01*
X043966D02*
G03*
X043966Y01569I-00008J0D01*
G01*
X042966D02*
G03*
X042966Y01569I-00008J0D01*
G01*
X045966Y01269D02*
G03*
X045966Y01269I-00008J0D01*
G01*
X044966D02*
G03*
X044966Y01269I-00008J0D01*
G01*
X043966D02*
G03*
X043966Y01269I-00008J0D01*
G01*
X042966D02*
G03*
X042966Y01269I-00008J0D01*
G01*
X053716Y02669D02*
G03*
X053716Y02669I-00008J0D01*
G01*
X053216Y02569D02*
G03*
X053216Y02569I-00008J0D01*
G01*
X053716Y02469D02*
G03*
X053716Y02469I-00008J0D01*
G01*
X053216Y02369D02*
G03*
X053216Y02369I-00008J0D01*
G01*
X053716Y02269D02*
G03*
X053716Y02269I-00008J0D01*
G01*
X053216Y02169D02*
G03*
X053216Y02169I-00008J0D01*
G01*
X053716Y02069D02*
G03*
X053716Y02069I-00008J0D01*
G01*
X053216Y01969D02*
G03*
X053216Y01969I-00008J0D01*
G01*
X053716Y01869D02*
G03*
X053716Y01869I-00008J0D01*
G01*
X053216Y01769D02*
G03*
X053216Y01769I-00008J0D01*
G01*
X053716Y01669D02*
G03*
X053716Y01669I-00008J0D01*
G01*
X053216Y01569D02*
G03*
X053216Y01569I-00008J0D01*
G01*
X053716Y01469D02*
G03*
X053716Y01469I-00008J0D01*
G01*
X053216Y01369D02*
G03*
X053216Y01369I-00008J0D01*
G01*
X053716Y01269D02*
G03*
X053716Y01269I-00008J0D01*
G01*
X053216Y01169D02*
G03*
X053216Y01169I-00008J0D01*
G01*
X052716Y02669D02*
G03*
X052716Y02669I-00008J0D01*
G01*
Y02469D02*
G03*
X052716Y02469I-00008J0D01*
G01*
Y02269D02*
G03*
X052716Y02269I-00008J0D01*
G01*
Y02069D02*
G03*
X052716Y02069I-00008J0D01*
G01*
Y01869D02*
G03*
X052716Y01869I-00008J0D01*
G01*
Y01669D02*
G03*
X052716Y01669I-00008J0D01*
G01*
Y01469D02*
G03*
X052716Y01469I-00008J0D01*
G01*
Y01269D02*
G03*
X052716Y01269I-00008J0D01*
G01*
X052216Y01169D02*
G03*
X052216Y01169I-00008J0D01*
G01*
X051216Y02569D02*
G03*
X051216Y02569I-00008J0D01*
G01*
X051716Y02469D02*
G03*
X051716Y02469I-00008J0D01*
G01*
X051216Y02369D02*
G03*
X051216Y02369I-00008J0D01*
G01*
X051716Y02269D02*
G03*
X051716Y02269I-00008J0D01*
G01*
X051216Y02169D02*
G03*
X051216Y02169I-00008J0D01*
G01*
X051716Y02069D02*
G03*
X051716Y02069I-00008J0D01*
G01*
X051216Y01969D02*
G03*
X051216Y01969I-00008J0D01*
G01*
X051716Y01869D02*
G03*
X051716Y01869I-00008J0D01*
G01*
X051216Y01769D02*
G03*
X051216Y01769I-00008J0D01*
G01*
X051716Y01669D02*
G03*
X051716Y01669I-00008J0D01*
G01*
X051216Y01569D02*
G03*
X051216Y01569I-00008J0D01*
G01*
X051716Y01469D02*
G03*
X051716Y01469I-00008J0D01*
G01*
Y01269D02*
G03*
X051716Y01269I-00008J0D01*
G01*
X051216Y01169D02*
G03*
X051216Y01169I-00008J0D01*
G01*
X050216Y02569D02*
G03*
X050216Y02569I-00008J0D01*
G01*
X050716Y02469D02*
G03*
X050716Y02469I-00008J0D01*
G01*
X050216Y02369D02*
G03*
X050216Y02369I-00008J0D01*
G01*
X050716Y02269D02*
G03*
X050716Y02269I-00008J0D01*
G01*
X050216Y02169D02*
G03*
X050216Y02169I-00008J0D01*
G01*
X050716Y02069D02*
G03*
X050716Y02069I-00008J0D01*
G01*
X050216Y01969D02*
G03*
X050216Y01969I-00008J0D01*
G01*
X050716Y01869D02*
G03*
X050716Y01869I-00008J0D01*
G01*
X050216Y01769D02*
G03*
X050216Y01769I-00008J0D01*
G01*
X050716Y01669D02*
G03*
X050716Y01669I-00008J0D01*
G01*
X050216Y01569D02*
G03*
X050216Y01569I-00008J0D01*
G01*
X050716Y01469D02*
G03*
X050716Y01469I-00008J0D01*
G01*
X050216Y01369D02*
G03*
X050216Y01369I-00008J0D01*
G01*
X049216Y02569D02*
G03*
X049216Y02569I-00008J0D01*
G01*
X049716Y02469D02*
G03*
X049716Y02469I-00008J0D01*
G01*
X049216Y02369D02*
G03*
X049216Y02369I-00008J0D01*
G01*
X049716Y02269D02*
G03*
X049716Y02269I-00008J0D01*
G01*
X049216Y02169D02*
G03*
X049216Y02169I-00008J0D01*
G01*
X049716Y02069D02*
G03*
X049716Y02069I-00008J0D01*
G01*
X049216Y01969D02*
G03*
X049216Y01969I-00008J0D01*
G01*
X049716Y01869D02*
G03*
X049716Y01869I-00008J0D01*
G01*
X049216Y01769D02*
G03*
X049216Y01769I-00008J0D01*
G01*
X049716Y01669D02*
G03*
X049716Y01669I-00008J0D01*
G01*
X049216Y01569D02*
G03*
X049216Y01569I-00008J0D01*
G01*
X049716Y01469D02*
G03*
X049716Y01469I-00008J0D01*
G01*
X049216Y01369D02*
G03*
X049216Y01369I-00008J0D01*
G01*
X049716Y01269D02*
G03*
X049716Y01269I-00008J0D01*
G01*
X048716Y02469D02*
G03*
X048716Y02469I-00008J0D01*
G01*
X048216Y02369D02*
G03*
X048216Y02369I-00008J0D01*
G01*
X048716Y02269D02*
G03*
X048716Y02269I-00008J0D01*
G01*
X048216Y02169D02*
G03*
X048216Y02169I-00008J0D01*
G01*
X048716Y02069D02*
G03*
X048716Y02069I-00008J0D01*
G01*
X048216Y01969D02*
G03*
X048216Y01969I-00008J0D01*
G01*
X048716Y01869D02*
G03*
X048716Y01869I-00008J0D01*
G01*
Y01669D02*
G03*
X048716Y01669I-00008J0D01*
G01*
X048216Y01569D02*
G03*
X048216Y01569I-00008J0D01*
G01*
X048716Y01469D02*
G03*
X048716Y01469I-00008J0D01*
G01*
X048216Y01369D02*
G03*
X048216Y01369I-00008J0D01*
G01*
X048716Y01269D02*
G03*
X048716Y01269I-00008J0D01*
G01*
X047216Y02569D02*
G03*
X047216Y02569I-00008J0D01*
G01*
X047716Y02469D02*
G03*
X047716Y02469I-00008J0D01*
G01*
X047216Y02369D02*
G03*
X047216Y02369I-00008J0D01*
G01*
X047716Y02269D02*
G03*
X047716Y02269I-00008J0D01*
G01*
X047216Y02169D02*
G03*
X047216Y02169I-00008J0D01*
G01*
X047716Y02069D02*
G03*
X047716Y02069I-00008J0D01*
G01*
X047216Y01969D02*
G03*
X047216Y01969I-00008J0D01*
G01*
X047716Y01869D02*
G03*
X047716Y01869I-00008J0D01*
G01*
X047216Y01769D02*
G03*
X047216Y01769I-00008J0D01*
G01*
X047716Y01669D02*
G03*
X047716Y01669I-00008J0D01*
G01*
X047216Y01569D02*
G03*
X047216Y01569I-00008J0D01*
G01*
X047716Y01469D02*
G03*
X047716Y01469I-00008J0D01*
G01*
X047216Y01369D02*
G03*
X047216Y01369I-00008J0D01*
G01*
X047716Y01269D02*
G03*
X047716Y01269I-00008J0D01*
G01*
X046216Y02569D02*
G03*
X046216Y02569I-00008J0D01*
G01*
X046716Y02269D02*
G03*
X046716Y02269I-00008J0D01*
G01*
X046216Y02169D02*
G03*
X046216Y02169I-00008J0D01*
G01*
X046716Y02069D02*
G03*
X046716Y02069I-00008J0D01*
G01*
X046216Y01969D02*
G03*
X046216Y01969I-00008J0D01*
G01*
X046716Y01869D02*
G03*
X046716Y01869I-00008J0D01*
G01*
X046216Y01769D02*
G03*
X046216Y01769I-00008J0D01*
G01*
X046716Y01669D02*
G03*
X046716Y01669I-00008J0D01*
G01*
Y01469D02*
G03*
X046716Y01469I-00008J0D01*
G01*
X046216Y01369D02*
G03*
X046216Y01369I-00008J0D01*
G01*
X046716Y01269D02*
G03*
X046716Y01269I-00008J0D01*
G01*
X045216Y02569D02*
G03*
X045216Y02569I-00008J0D01*
G01*
X045716Y02469D02*
G03*
X045716Y02469I-00008J0D01*
G01*
X045216Y02369D02*
G03*
X045216Y02369I-00008J0D01*
G01*
X045716Y02269D02*
G03*
X045716Y02269I-00008J0D01*
G01*
X045216Y02169D02*
G03*
X045216Y02169I-00008J0D01*
G01*
X045716Y02069D02*
G03*
X045716Y02069I-00008J0D01*
G01*
X045216Y01969D02*
G03*
X045216Y01969I-00008J0D01*
G01*
X045716Y01869D02*
G03*
X045716Y01869I-00008J0D01*
G01*
X045216Y01769D02*
G03*
X045216Y01769I-00008J0D01*
G01*
X045716Y01669D02*
G03*
X045716Y01669I-00008J0D01*
G01*
Y01469D02*
G03*
X045716Y01469I-00008J0D01*
G01*
X045216Y01369D02*
G03*
X045216Y01369I-00008J0D01*
G01*
X044216Y02569D02*
G03*
X044216Y02569I-00008J0D01*
G01*
X044716Y02469D02*
G03*
X044716Y02469I-00008J0D01*
G01*
X044216Y02369D02*
G03*
X044216Y02369I-00008J0D01*
G01*
X044716Y02069D02*
G03*
X044716Y02069I-00008J0D01*
G01*
Y01869D02*
G03*
X044716Y01869I-00008J0D01*
G01*
Y01469D02*
G03*
X044716Y01469I-00008J0D01*
G01*
X044216Y01369D02*
G03*
X044216Y01369I-00008J0D01*
G01*
X043216Y02569D02*
G03*
X043216Y02569I-00008J0D01*
G01*
X043716Y02469D02*
G03*
X043716Y02469I-00008J0D01*
G01*
X043216Y02369D02*
G03*
X043216Y02369I-00008J0D01*
G01*
X043716Y02269D02*
G03*
X043716Y02269I-00008J0D01*
G01*
X043216Y02169D02*
G03*
X043216Y02169I-00008J0D01*
G01*
Y01969D02*
G03*
X043216Y01969I-00008J0D01*
G01*
X043716Y01469D02*
G03*
X043716Y01469I-00008J0D01*
G01*
X042216Y02369D02*
G03*
X042216Y02369I-00008J0D01*
G01*
X042716Y02269D02*
G03*
X042716Y02269I-00008J0D01*
G01*
X042216Y02169D02*
G03*
X042216Y02169I-00008J0D01*
G01*
X042716Y02069D02*
G03*
X042716Y02069I-00008J0D01*
G01*
X042216Y01969D02*
G03*
X042216Y01969I-00008J0D01*
G01*
X042716Y01869D02*
G03*
X042716Y01869I-00008J0D01*
G01*
X042216Y01569D02*
G03*
X042216Y01569I-00008J0D01*
G01*
X041216Y02569D02*
G03*
X041216Y02569I-00008J0D01*
G01*
X041716Y02469D02*
G03*
X041716Y02469I-00008J0D01*
G01*
X041216Y02369D02*
G03*
X041216Y02369I-00008J0D01*
G01*
X041716Y02269D02*
G03*
X041716Y02269I-00008J0D01*
G01*
X041216Y02169D02*
G03*
X041216Y02169I-00008J0D01*
G01*
X041716Y02069D02*
G03*
X041716Y02069I-00008J0D01*
G01*
X041216Y01969D02*
G03*
X041216Y01969I-00008J0D01*
G01*
X041716Y01869D02*
G03*
X041716Y01869I-00008J0D01*
G01*
X041216Y01769D02*
G03*
X041216Y01769I-00008J0D01*
G01*
X041716Y01669D02*
G03*
X041716Y01669I-00008J0D01*
G01*
X041216Y01569D02*
G03*
X041216Y01569I-00008J0D01*
G01*
X041716Y01269D02*
G03*
X041716Y01269I-00008J0D01*
G01*
X040716Y02469D02*
G03*
X040716Y02469I-00008J0D01*
G01*
Y02269D02*
G03*
X040716Y02269I-00008J0D01*
G01*
X040216Y02169D02*
G03*
X040216Y02169I-00008J0D01*
G01*
X040716Y02069D02*
G03*
X040716Y02069I-00008J0D01*
G01*
X040216Y01969D02*
G03*
X040216Y01969I-00008J0D01*
G01*
X040716Y01869D02*
G03*
X040716Y01869I-00008J0D01*
G01*
X040216Y01769D02*
G03*
X040216Y01769I-00008J0D01*
G01*
X040716Y01669D02*
G03*
X040716Y01669I-00008J0D01*
G01*
X040216Y01569D02*
G03*
X040216Y01569I-00008J0D01*
G01*
Y01369D02*
G03*
X040216Y01369I-00008J0D01*
G01*
X040716Y01269D02*
G03*
X040716Y01269I-00008J0D01*
G01*
X039216Y02569D02*
G03*
X039216Y02569I-00008J0D01*
G01*
X039716Y02469D02*
G03*
X039716Y02469I-00008J0D01*
G01*
X039216Y02369D02*
G03*
X039216Y02369I-00008J0D01*
G01*
X039716Y02269D02*
G03*
X039716Y02269I-00008J0D01*
G01*
X039216Y02169D02*
G03*
X039216Y02169I-00008J0D01*
G01*
X039716Y02069D02*
G03*
X039716Y02069I-00008J0D01*
G01*
X039216Y01969D02*
G03*
X039216Y01969I-00008J0D01*
G01*
X039716Y01869D02*
G03*
X039716Y01869I-00008J0D01*
G01*
X039216Y01769D02*
G03*
X039216Y01769I-00008J0D01*
G01*
X039716Y01669D02*
G03*
X039716Y01669I-00008J0D01*
G01*
Y01469D02*
G03*
X039716Y01469I-00008J0D01*
G01*
X039216Y01369D02*
G03*
X039216Y01369I-00008J0D01*
G01*
X039716Y01269D02*
G03*
X039716Y01269I-00008J0D01*
G01*
X038716Y02069D02*
G03*
X038716Y02069I-00008J0D01*
G01*
X038216Y01969D02*
G03*
X038216Y01969I-00008J0D01*
G01*
X038716Y01869D02*
G03*
X038716Y01869I-00008J0D01*
G01*
X038216Y01769D02*
G03*
X038216Y01769I-00008J0D01*
G01*
X038716Y01469D02*
G03*
X038716Y01469I-00008J0D01*
G01*
X037216Y02769D02*
G03*
X037216Y02769I-00008J0D01*
G01*
X037716Y02069D02*
G03*
X037716Y02069I-00008J0D01*
G01*
Y01869D02*
G03*
X037716Y01869I-00008J0D01*
G01*
Y01669D02*
G03*
X037716Y01669I-00008J0D01*
G01*
Y01469D02*
G03*
X037716Y01469I-00008J0D01*
G01*
X037216Y01369D02*
G03*
X037216Y01369I-00008J0D01*
G01*
X037716Y01269D02*
G03*
X037716Y01269I-00008J0D01*
G01*
X036716Y02669D02*
G03*
X036716Y02669I-00008J0D01*
G01*
X036216Y02369D02*
G03*
X036216Y02369I-00008J0D01*
G01*
X036716Y02069D02*
G03*
X036716Y02069I-00008J0D01*
G01*
X036216Y01969D02*
G03*
X036216Y01969I-00008J0D01*
G01*
Y01769D02*
G03*
X036216Y01769I-00008J0D01*
G01*
X036716Y01669D02*
G03*
X036716Y01669I-00008J0D01*
G01*
Y01469D02*
G03*
X036716Y01469I-00008J0D01*
G01*
X036216Y01369D02*
G03*
X036216Y01369I-00008J0D01*
G01*
X036716Y01269D02*
G03*
X036716Y01269I-00008J0D01*
G01*
X035716Y02269D02*
G03*
X035716Y02269I-00008J0D01*
G01*
X035216Y02169D02*
G03*
X035216Y02169I-00008J0D01*
G01*
X035716Y01869D02*
G03*
X035716Y01869I-00008J0D01*
G01*
X035216Y01769D02*
G03*
X035216Y01769I-00008J0D01*
G01*
X035716Y01669D02*
G03*
X035716Y01669I-00008J0D01*
G01*
Y01469D02*
G03*
X035716Y01469I-00008J0D01*
G01*
X035216Y01369D02*
G03*
X035216Y01369I-00008J0D01*
G01*
X035716Y01269D02*
G03*
X035716Y01269I-00008J0D01*
G01*
X034216Y02569D02*
G03*
X034216Y02569I-00008J0D01*
G01*
X034716Y02269D02*
G03*
X034716Y02269I-00008J0D01*
G01*
X034216Y02169D02*
G03*
X034216Y02169I-00008J0D01*
G01*
Y01969D02*
G03*
X034216Y01969I-00008J0D01*
G01*
X034716Y01869D02*
G03*
X034716Y01869I-00008J0D01*
G01*
X034216Y01769D02*
G03*
X034216Y01769I-00008J0D01*
G01*
X034716Y01469D02*
G03*
X034716Y01469I-00008J0D01*
G01*
X034216Y01369D02*
G03*
X034216Y01369I-00008J0D01*
G01*
X034716Y01269D02*
G03*
X034716Y01269I-00008J0D01*
G01*
X033216Y02569D02*
G03*
X033216Y02569I-00008J0D01*
G01*
Y02369D02*
G03*
X033216Y02369I-00008J0D01*
G01*
X033716Y02269D02*
G03*
X033716Y02269I-00008J0D01*
G01*
X033216Y01769D02*
G03*
X033216Y01769I-00008J0D01*
G01*
X033716Y01469D02*
G03*
X033716Y01469I-00008J0D01*
G01*
Y01269D02*
G03*
X033716Y01269I-00008J0D01*
G01*
X033216Y01169D02*
G03*
X033216Y01169I-00008J0D01*
G01*
X032216Y02569D02*
G03*
X032216Y02569I-00008J0D01*
G01*
Y02369D02*
G03*
X032216Y02369I-00008J0D01*
G01*
X032716Y01869D02*
G03*
X032716Y01869I-00008J0D01*
G01*
Y01669D02*
G03*
X032716Y01669I-00008J0D01*
G01*
Y01469D02*
G03*
X032716Y01469I-00008J0D01*
G01*
Y01269D02*
G03*
X032716Y01269I-00008J0D01*
G01*
X032216Y01169D02*
G03*
X032216Y01169I-00008J0D01*
G01*
X031716Y01869D02*
G03*
X031716Y01869I-00008J0D01*
G01*
Y01669D02*
G03*
X031716Y01669I-00008J0D01*
G01*
Y01269D02*
G03*
X031716Y01269I-00008J0D01*
G01*
X030716Y02469D02*
G03*
X030716Y02469I-00008J0D01*
G01*
X030216Y02369D02*
G03*
X030216Y02369I-00008J0D01*
G01*
Y02169D02*
G03*
X030216Y02169I-00008J0D01*
G01*
X030716Y01869D02*
G03*
X030716Y01869I-00008J0D01*
G01*
Y01669D02*
G03*
X030716Y01669I-00008J0D01*
G01*
Y01469D02*
G03*
X030716Y01469I-00008J0D01*
G01*
Y01269D02*
G03*
X030716Y01269I-00008J0D01*
G01*
X029716Y02669D02*
G03*
X029716Y02669I-00008J0D01*
G01*
Y02469D02*
G03*
X029716Y02469I-00008J0D01*
G01*
Y02269D02*
G03*
X029716Y02269I-00008J0D01*
G01*
Y02069D02*
G03*
X029716Y02069I-00008J0D01*
G01*
Y01669D02*
G03*
X029716Y01669I-00008J0D01*
G01*
Y01469D02*
G03*
X029716Y01469I-00008J0D01*
G01*
Y01269D02*
G03*
X029716Y01269I-00008J0D01*
G01*
X028716Y02669D02*
G03*
X028716Y02669I-00008J0D01*
G01*
Y02469D02*
G03*
X028716Y02469I-00008J0D01*
G01*
Y02269D02*
G03*
X028716Y02269I-00008J0D01*
G01*
Y02069D02*
G03*
X028716Y02069I-00008J0D01*
G01*
Y01869D02*
G03*
X028716Y01869I-00008J0D01*
G01*
X027216Y01569D02*
G03*
X027216Y01569I-00008J0D01*
G01*
Y01369D02*
G03*
X027216Y01369I-00008J0D01*
G01*
Y01169D02*
G03*
X027216Y01169I-00008J0D01*
G01*
X026716Y02469D02*
G03*
X026716Y02469I-00008J0D01*
G01*
X026216Y02369D02*
G03*
X026216Y02369I-00008J0D01*
G01*
Y01969D02*
G03*
X026216Y01969I-00008J0D01*
G01*
X026716Y01869D02*
G03*
X026716Y01869I-00008J0D01*
G01*
X026216Y01769D02*
G03*
X026216Y01769I-00008J0D01*
G01*
X026716Y01669D02*
G03*
X026716Y01669I-00008J0D01*
G01*
X026216Y01569D02*
G03*
X026216Y01569I-00008J0D01*
G01*
X026716Y01469D02*
G03*
X026716Y01469I-00008J0D01*
G01*
X026216Y01369D02*
G03*
X026216Y01369I-00008J0D01*
G01*
X026716Y01269D02*
G03*
X026716Y01269I-00008J0D01*
G01*
X026216Y01169D02*
G03*
X026216Y01169I-00008J0D01*
G01*
X025216Y02369D02*
G03*
X025216Y02369I-00008J0D01*
G01*
X025716Y02269D02*
G03*
X025716Y02269I-00008J0D01*
G01*
Y02069D02*
G03*
X025716Y02069I-00008J0D01*
G01*
X025216Y01969D02*
G03*
X025216Y01969I-00008J0D01*
G01*
X025716Y01869D02*
G03*
X025716Y01869I-00008J0D01*
G01*
Y01669D02*
G03*
X025716Y01669I-00008J0D01*
G01*
Y01469D02*
G03*
X025716Y01469I-00008J0D01*
G01*
X025216Y01369D02*
G03*
X025216Y01369I-00008J0D01*
G01*
X025716Y01269D02*
G03*
X025716Y01269I-00008J0D01*
G01*
X025216Y01169D02*
G03*
X025216Y01169I-00008J0D01*
G01*
X024216Y02569D02*
G03*
X024216Y02569I-00008J0D01*
G01*
Y02369D02*
G03*
X024216Y02369I-00008J0D01*
G01*
Y02169D02*
G03*
X024216Y02169I-00008J0D01*
G01*
X024716Y02069D02*
G03*
X024716Y02069I-00008J0D01*
G01*
X024216Y01969D02*
G03*
X024216Y01969I-00008J0D01*
G01*
X024716Y01869D02*
G03*
X024716Y01869I-00008J0D01*
G01*
X024216Y01769D02*
G03*
X024216Y01769I-00008J0D01*
G01*
Y01569D02*
G03*
X024216Y01569I-00008J0D01*
G01*
Y01369D02*
G03*
X024216Y01369I-00008J0D01*
G01*
Y01169D02*
G03*
X024216Y01169I-00008J0D01*
G01*
X023216Y02769D02*
G03*
X023216Y02769I-00008J0D01*
G01*
X023716Y02669D02*
G03*
X023716Y02669I-00008J0D01*
G01*
X023216Y02569D02*
G03*
X023216Y02569I-00008J0D01*
G01*
X023716Y02469D02*
G03*
X023716Y02469I-00008J0D01*
G01*
X023216Y02369D02*
G03*
X023216Y02369I-00008J0D01*
G01*
X023716Y02269D02*
G03*
X023716Y02269I-00008J0D01*
G01*
X023216Y02169D02*
G03*
X023216Y02169I-00008J0D01*
G01*
X023716Y02069D02*
G03*
X023716Y02069I-00008J0D01*
G01*
X023216Y01969D02*
G03*
X023216Y01969I-00008J0D01*
G01*
X023716Y01869D02*
G03*
X023716Y01869I-00008J0D01*
G01*
X023216Y01769D02*
G03*
X023216Y01769I-00008J0D01*
G01*
X023716Y01669D02*
G03*
X023716Y01669I-00008J0D01*
G01*
X023216Y01569D02*
G03*
X023216Y01569I-00008J0D01*
G01*
X023716Y01469D02*
G03*
X023716Y01469I-00008J0D01*
G01*
X023216Y01369D02*
G03*
X023216Y01369I-00008J0D01*
G01*
X023716Y01269D02*
G03*
X023716Y01269I-00008J0D01*
G01*
X023216Y01169D02*
G03*
X023216Y01169I-00008J0D01*
G01*
X025316Y02658D02*
G03*
X025316Y02658I-00008J0D01*
G01*
X032796Y01338D02*
G03*
X032796Y01338I-00008J0D01*
G01*
X033336Y01409D02*
G03*
X033336Y01409I-00008J0D01*
G01*
X029626Y01339D02*
G03*
X029626Y01339I-00008J0D01*
G01*
X029616Y01703D02*
G03*
X029616Y01703I-00008J0D01*
G01*
X032786Y01705D02*
G03*
X032786Y01705I-00008J0D01*
G01*
X031069Y025087D02*
G03*
X031069Y025087I-00008J0D01*
G01*
X031906Y02512D02*
G03*
X031906Y02512I-00008J0D01*
G01*
X023926Y02514D02*
G03*
X023926Y02514I-00008J0D01*
G01*
X026336Y02513D02*
G03*
X026336Y02513I-00008J0D01*
G01*
X031066Y02013D02*
G03*
X031066Y02013I-00008J0D01*
G01*
X032716Y02544D02*
G03*
X032716Y02544I-00008J0D01*
G01*
X028056Y01177D02*
G03*
X028056Y01177I-00008J0D01*
G01*
X042496Y01419D02*
G03*
X042496Y01419I-00008J0D01*
G01*
X036426Y02548D02*
G03*
X036426Y02548I-00008J0D01*
G01*
X037248Y020727D02*
G03*
X037248Y020727I-00008J0D01*
G01*
X035116Y01738D02*
G03*
X035116Y01738I-00008J0D01*
G01*
X032124Y020275D02*
G03*
X032124Y020275I-00008J0D01*
G01*
X032786Y01977D02*
G03*
X032786Y01977I-00008J0D01*
G01*
X031634Y0219D02*
G03*
X031634Y0219I-00008J0D01*
G01*
X037746Y02204D02*
G03*
X037746Y02204I-00008J0D01*
G01*
X045966Y034394D02*
G03*
X045966Y034394I-00008J0D01*
G01*
X044966D02*
G03*
X044966Y034394I-00008J0D01*
G01*
X043966D02*
G03*
X043966Y034394I-00008J0D01*
G01*
X042966D02*
G03*
X042966Y034394I-00008J0D01*
G01*
X045966Y031394D02*
G03*
X045966Y031394I-00008J0D01*
G01*
X044966D02*
G03*
X044966Y031394I-00008J0D01*
G01*
X043966D02*
G03*
X043966Y031394I-00008J0D01*
G01*
X042966D02*
G03*
X042966Y031394I-00008J0D01*
G01*
X053716Y045394D02*
G03*
X053716Y045394I-00008J0D01*
G01*
X053216Y044394D02*
G03*
X053216Y044394I-00008J0D01*
G01*
X053716Y043394D02*
G03*
X053716Y043394I-00008J0D01*
G01*
X053216Y042394D02*
G03*
X053216Y042394I-00008J0D01*
G01*
X053716Y041394D02*
G03*
X053716Y041394I-00008J0D01*
G01*
X053216Y040394D02*
G03*
X053216Y040394I-00008J0D01*
G01*
X053716Y039394D02*
G03*
X053716Y039394I-00008J0D01*
G01*
X053216Y038394D02*
G03*
X053216Y038394I-00008J0D01*
G01*
X053716Y037394D02*
G03*
X053716Y037394I-00008J0D01*
G01*
X053216Y036394D02*
G03*
X053216Y036394I-00008J0D01*
G01*
X053716Y035394D02*
G03*
X053716Y035394I-00008J0D01*
G01*
X053216Y034394D02*
G03*
X053216Y034394I-00008J0D01*
G01*
X053716Y033394D02*
G03*
X053716Y033394I-00008J0D01*
G01*
X053216Y032394D02*
G03*
X053216Y032394I-00008J0D01*
G01*
X053716Y031394D02*
G03*
X053716Y031394I-00008J0D01*
G01*
X053216Y030394D02*
G03*
X053216Y030394I-00008J0D01*
G01*
X052716Y045394D02*
G03*
X052716Y045394I-00008J0D01*
G01*
Y043394D02*
G03*
X052716Y043394I-00008J0D01*
G01*
Y041394D02*
G03*
X052716Y041394I-00008J0D01*
G01*
Y039394D02*
G03*
X052716Y039394I-00008J0D01*
G01*
Y037394D02*
G03*
X052716Y037394I-00008J0D01*
G01*
Y035394D02*
G03*
X052716Y035394I-00008J0D01*
G01*
Y033394D02*
G03*
X052716Y033394I-00008J0D01*
G01*
Y031394D02*
G03*
X052716Y031394I-00008J0D01*
G01*
X052216Y030394D02*
G03*
X052216Y030394I-00008J0D01*
G01*
X051216Y044394D02*
G03*
X051216Y044394I-00008J0D01*
G01*
X051716Y043394D02*
G03*
X051716Y043394I-00008J0D01*
G01*
X051216Y042394D02*
G03*
X051216Y042394I-00008J0D01*
G01*
X051716Y041394D02*
G03*
X051716Y041394I-00008J0D01*
G01*
X051216Y040394D02*
G03*
X051216Y040394I-00008J0D01*
G01*
X051716Y039394D02*
G03*
X051716Y039394I-00008J0D01*
G01*
X051216Y038394D02*
G03*
X051216Y038394I-00008J0D01*
G01*
X051716Y037394D02*
G03*
X051716Y037394I-00008J0D01*
G01*
X051216Y036394D02*
G03*
X051216Y036394I-00008J0D01*
G01*
X051716Y035394D02*
G03*
X051716Y035394I-00008J0D01*
G01*
X051216Y034394D02*
G03*
X051216Y034394I-00008J0D01*
G01*
X051716Y033394D02*
G03*
X051716Y033394I-00008J0D01*
G01*
Y031394D02*
G03*
X051716Y031394I-00008J0D01*
G01*
X051216Y030394D02*
G03*
X051216Y030394I-00008J0D01*
G01*
X050216Y044394D02*
G03*
X050216Y044394I-00008J0D01*
G01*
X050716Y043394D02*
G03*
X050716Y043394I-00008J0D01*
G01*
X050216Y042394D02*
G03*
X050216Y042394I-00008J0D01*
G01*
X050716Y041394D02*
G03*
X050716Y041394I-00008J0D01*
G01*
X050216Y040394D02*
G03*
X050216Y040394I-00008J0D01*
G01*
X050716Y039394D02*
G03*
X050716Y039394I-00008J0D01*
G01*
X050216Y038394D02*
G03*
X050216Y038394I-00008J0D01*
G01*
X050716Y037394D02*
G03*
X050716Y037394I-00008J0D01*
G01*
X050216Y036394D02*
G03*
X050216Y036394I-00008J0D01*
G01*
X050716Y035394D02*
G03*
X050716Y035394I-00008J0D01*
G01*
X050216Y034394D02*
G03*
X050216Y034394I-00008J0D01*
G01*
X050716Y033394D02*
G03*
X050716Y033394I-00008J0D01*
G01*
X050216Y032394D02*
G03*
X050216Y032394I-00008J0D01*
G01*
X049216Y044394D02*
G03*
X049216Y044394I-00008J0D01*
G01*
X049716Y043394D02*
G03*
X049716Y043394I-00008J0D01*
G01*
X049216Y042394D02*
G03*
X049216Y042394I-00008J0D01*
G01*
X049716Y041394D02*
G03*
X049716Y041394I-00008J0D01*
G01*
X049216Y040394D02*
G03*
X049216Y040394I-00008J0D01*
G01*
X049716Y039394D02*
G03*
X049716Y039394I-00008J0D01*
G01*
X049216Y038394D02*
G03*
X049216Y038394I-00008J0D01*
G01*
X049716Y037394D02*
G03*
X049716Y037394I-00008J0D01*
G01*
X049216Y036394D02*
G03*
X049216Y036394I-00008J0D01*
G01*
X049716Y035394D02*
G03*
X049716Y035394I-00008J0D01*
G01*
X049216Y034394D02*
G03*
X049216Y034394I-00008J0D01*
G01*
X049716Y033394D02*
G03*
X049716Y033394I-00008J0D01*
G01*
X049216Y032394D02*
G03*
X049216Y032394I-00008J0D01*
G01*
X049716Y031394D02*
G03*
X049716Y031394I-00008J0D01*
G01*
X048716Y043394D02*
G03*
X048716Y043394I-00008J0D01*
G01*
X048216Y042394D02*
G03*
X048216Y042394I-00008J0D01*
G01*
X048716Y041394D02*
G03*
X048716Y041394I-00008J0D01*
G01*
X048216Y040394D02*
G03*
X048216Y040394I-00008J0D01*
G01*
X048716Y039394D02*
G03*
X048716Y039394I-00008J0D01*
G01*
X048216Y038394D02*
G03*
X048216Y038394I-00008J0D01*
G01*
X048716Y037394D02*
G03*
X048716Y037394I-00008J0D01*
G01*
Y035394D02*
G03*
X048716Y035394I-00008J0D01*
G01*
X048216Y034394D02*
G03*
X048216Y034394I-00008J0D01*
G01*
X048716Y033394D02*
G03*
X048716Y033394I-00008J0D01*
G01*
X048216Y032394D02*
G03*
X048216Y032394I-00008J0D01*
G01*
X048716Y031394D02*
G03*
X048716Y031394I-00008J0D01*
G01*
X047216Y044394D02*
G03*
X047216Y044394I-00008J0D01*
G01*
X047716Y043394D02*
G03*
X047716Y043394I-00008J0D01*
G01*
X047216Y042394D02*
G03*
X047216Y042394I-00008J0D01*
G01*
X047716Y041394D02*
G03*
X047716Y041394I-00008J0D01*
G01*
X047216Y040394D02*
G03*
X047216Y040394I-00008J0D01*
G01*
X047716Y039394D02*
G03*
X047716Y039394I-00008J0D01*
G01*
X047216Y038394D02*
G03*
X047216Y038394I-00008J0D01*
G01*
X047716Y037394D02*
G03*
X047716Y037394I-00008J0D01*
G01*
X047216Y036394D02*
G03*
X047216Y036394I-00008J0D01*
G01*
X047716Y035394D02*
G03*
X047716Y035394I-00008J0D01*
G01*
X047216Y034394D02*
G03*
X047216Y034394I-00008J0D01*
G01*
X047716Y033394D02*
G03*
X047716Y033394I-00008J0D01*
G01*
X047216Y032394D02*
G03*
X047216Y032394I-00008J0D01*
G01*
X047716Y031394D02*
G03*
X047716Y031394I-00008J0D01*
G01*
X046216Y044394D02*
G03*
X046216Y044394I-00008J0D01*
G01*
X046716Y041394D02*
G03*
X046716Y041394I-00008J0D01*
G01*
X046216Y040394D02*
G03*
X046216Y040394I-00008J0D01*
G01*
X046716Y039394D02*
G03*
X046716Y039394I-00008J0D01*
G01*
X046216Y038394D02*
G03*
X046216Y038394I-00008J0D01*
G01*
X046716Y037394D02*
G03*
X046716Y037394I-00008J0D01*
G01*
X046216Y036394D02*
G03*
X046216Y036394I-00008J0D01*
G01*
X046716Y035394D02*
G03*
X046716Y035394I-00008J0D01*
G01*
Y033394D02*
G03*
X046716Y033394I-00008J0D01*
G01*
X046216Y032394D02*
G03*
X046216Y032394I-00008J0D01*
G01*
X046716Y031394D02*
G03*
X046716Y031394I-00008J0D01*
G01*
X045216Y044394D02*
G03*
X045216Y044394I-00008J0D01*
G01*
X045716Y043394D02*
G03*
X045716Y043394I-00008J0D01*
G01*
X045216Y042394D02*
G03*
X045216Y042394I-00008J0D01*
G01*
X045716Y041394D02*
G03*
X045716Y041394I-00008J0D01*
G01*
X045216Y040394D02*
G03*
X045216Y040394I-00008J0D01*
G01*
X045716Y039394D02*
G03*
X045716Y039394I-00008J0D01*
G01*
X045216Y038394D02*
G03*
X045216Y038394I-00008J0D01*
G01*
X045716Y037394D02*
G03*
X045716Y037394I-00008J0D01*
G01*
X045216Y036394D02*
G03*
X045216Y036394I-00008J0D01*
G01*
X045716Y035394D02*
G03*
X045716Y035394I-00008J0D01*
G01*
Y033394D02*
G03*
X045716Y033394I-00008J0D01*
G01*
X045216Y032394D02*
G03*
X045216Y032394I-00008J0D01*
G01*
X044216Y044394D02*
G03*
X044216Y044394I-00008J0D01*
G01*
X044716Y043394D02*
G03*
X044716Y043394I-00008J0D01*
G01*
X044216Y042394D02*
G03*
X044216Y042394I-00008J0D01*
G01*
X044716Y039394D02*
G03*
X044716Y039394I-00008J0D01*
G01*
Y037394D02*
G03*
X044716Y037394I-00008J0D01*
G01*
Y033394D02*
G03*
X044716Y033394I-00008J0D01*
G01*
X044216Y032394D02*
G03*
X044216Y032394I-00008J0D01*
G01*
X043216Y044394D02*
G03*
X043216Y044394I-00008J0D01*
G01*
X043716Y043394D02*
G03*
X043716Y043394I-00008J0D01*
G01*
X043216Y042394D02*
G03*
X043216Y042394I-00008J0D01*
G01*
X043716Y041394D02*
G03*
X043716Y041394I-00008J0D01*
G01*
X043216Y040394D02*
G03*
X043216Y040394I-00008J0D01*
G01*
Y038394D02*
G03*
X043216Y038394I-00008J0D01*
G01*
X043716Y033394D02*
G03*
X043716Y033394I-00008J0D01*
G01*
X042216Y042394D02*
G03*
X042216Y042394I-00008J0D01*
G01*
X042716Y041394D02*
G03*
X042716Y041394I-00008J0D01*
G01*
X042216Y040394D02*
G03*
X042216Y040394I-00008J0D01*
G01*
X042716Y039394D02*
G03*
X042716Y039394I-00008J0D01*
G01*
X042216Y038394D02*
G03*
X042216Y038394I-00008J0D01*
G01*
X042716Y037394D02*
G03*
X042716Y037394I-00008J0D01*
G01*
X042216Y034394D02*
G03*
X042216Y034394I-00008J0D01*
G01*
X041216Y044394D02*
G03*
X041216Y044394I-00008J0D01*
G01*
X041716Y043394D02*
G03*
X041716Y043394I-00008J0D01*
G01*
X041216Y042394D02*
G03*
X041216Y042394I-00008J0D01*
G01*
X041716Y041394D02*
G03*
X041716Y041394I-00008J0D01*
G01*
X041216Y040394D02*
G03*
X041216Y040394I-00008J0D01*
G01*
X041716Y039394D02*
G03*
X041716Y039394I-00008J0D01*
G01*
X041216Y038394D02*
G03*
X041216Y038394I-00008J0D01*
G01*
X041716Y037394D02*
G03*
X041716Y037394I-00008J0D01*
G01*
X041216Y036394D02*
G03*
X041216Y036394I-00008J0D01*
G01*
X041716Y035394D02*
G03*
X041716Y035394I-00008J0D01*
G01*
X041216Y034394D02*
G03*
X041216Y034394I-00008J0D01*
G01*
X041716Y031394D02*
G03*
X041716Y031394I-00008J0D01*
G01*
X040716Y043394D02*
G03*
X040716Y043394I-00008J0D01*
G01*
Y041394D02*
G03*
X040716Y041394I-00008J0D01*
G01*
X040216Y040394D02*
G03*
X040216Y040394I-00008J0D01*
G01*
X040716Y039394D02*
G03*
X040716Y039394I-00008J0D01*
G01*
X040216Y038394D02*
G03*
X040216Y038394I-00008J0D01*
G01*
X040716Y037394D02*
G03*
X040716Y037394I-00008J0D01*
G01*
X040216Y036394D02*
G03*
X040216Y036394I-00008J0D01*
G01*
X040716Y035394D02*
G03*
X040716Y035394I-00008J0D01*
G01*
X040216Y034394D02*
G03*
X040216Y034394I-00008J0D01*
G01*
Y032394D02*
G03*
X040216Y032394I-00008J0D01*
G01*
X040716Y031394D02*
G03*
X040716Y031394I-00008J0D01*
G01*
X039216Y044394D02*
G03*
X039216Y044394I-00008J0D01*
G01*
X039716Y043394D02*
G03*
X039716Y043394I-00008J0D01*
G01*
X039216Y042394D02*
G03*
X039216Y042394I-00008J0D01*
G01*
X039716Y041394D02*
G03*
X039716Y041394I-00008J0D01*
G01*
X039216Y040394D02*
G03*
X039216Y040394I-00008J0D01*
G01*
X039716Y039394D02*
G03*
X039716Y039394I-00008J0D01*
G01*
X039216Y038394D02*
G03*
X039216Y038394I-00008J0D01*
G01*
X039716Y037394D02*
G03*
X039716Y037394I-00008J0D01*
G01*
X039216Y036394D02*
G03*
X039216Y036394I-00008J0D01*
G01*
X039716Y035394D02*
G03*
X039716Y035394I-00008J0D01*
G01*
Y033394D02*
G03*
X039716Y033394I-00008J0D01*
G01*
X039216Y032394D02*
G03*
X039216Y032394I-00008J0D01*
G01*
X039716Y031394D02*
G03*
X039716Y031394I-00008J0D01*
G01*
X038716Y039394D02*
G03*
X038716Y039394I-00008J0D01*
G01*
X038216Y038394D02*
G03*
X038216Y038394I-00008J0D01*
G01*
X038716Y037394D02*
G03*
X038716Y037394I-00008J0D01*
G01*
X038216Y036394D02*
G03*
X038216Y036394I-00008J0D01*
G01*
X038716Y033394D02*
G03*
X038716Y033394I-00008J0D01*
G01*
X037216Y046394D02*
G03*
X037216Y046394I-00008J0D01*
G01*
X037716Y039394D02*
G03*
X037716Y039394I-00008J0D01*
G01*
Y037394D02*
G03*
X037716Y037394I-00008J0D01*
G01*
Y035394D02*
G03*
X037716Y035394I-00008J0D01*
G01*
Y033394D02*
G03*
X037716Y033394I-00008J0D01*
G01*
X037216Y032394D02*
G03*
X037216Y032394I-00008J0D01*
G01*
X037716Y031394D02*
G03*
X037716Y031394I-00008J0D01*
G01*
X036716Y045394D02*
G03*
X036716Y045394I-00008J0D01*
G01*
X036216Y042394D02*
G03*
X036216Y042394I-00008J0D01*
G01*
X036716Y039394D02*
G03*
X036716Y039394I-00008J0D01*
G01*
X036216Y038394D02*
G03*
X036216Y038394I-00008J0D01*
G01*
Y036394D02*
G03*
X036216Y036394I-00008J0D01*
G01*
X036716Y035394D02*
G03*
X036716Y035394I-00008J0D01*
G01*
Y033394D02*
G03*
X036716Y033394I-00008J0D01*
G01*
X036216Y032394D02*
G03*
X036216Y032394I-00008J0D01*
G01*
X036716Y031394D02*
G03*
X036716Y031394I-00008J0D01*
G01*
X035716Y041394D02*
G03*
X035716Y041394I-00008J0D01*
G01*
X035216Y040394D02*
G03*
X035216Y040394I-00008J0D01*
G01*
X035716Y037394D02*
G03*
X035716Y037394I-00008J0D01*
G01*
X035216Y036394D02*
G03*
X035216Y036394I-00008J0D01*
G01*
X035716Y035394D02*
G03*
X035716Y035394I-00008J0D01*
G01*
Y033394D02*
G03*
X035716Y033394I-00008J0D01*
G01*
X035216Y032394D02*
G03*
X035216Y032394I-00008J0D01*
G01*
X035716Y031394D02*
G03*
X035716Y031394I-00008J0D01*
G01*
X034216Y044394D02*
G03*
X034216Y044394I-00008J0D01*
G01*
X034716Y041394D02*
G03*
X034716Y041394I-00008J0D01*
G01*
X034216Y040394D02*
G03*
X034216Y040394I-00008J0D01*
G01*
Y038394D02*
G03*
X034216Y038394I-00008J0D01*
G01*
X034716Y037394D02*
G03*
X034716Y037394I-00008J0D01*
G01*
X034216Y036394D02*
G03*
X034216Y036394I-00008J0D01*
G01*
X034716Y033394D02*
G03*
X034716Y033394I-00008J0D01*
G01*
X034216Y032394D02*
G03*
X034216Y032394I-00008J0D01*
G01*
X034716Y031394D02*
G03*
X034716Y031394I-00008J0D01*
G01*
X033216Y044394D02*
G03*
X033216Y044394I-00008J0D01*
G01*
Y042394D02*
G03*
X033216Y042394I-00008J0D01*
G01*
X033716Y041394D02*
G03*
X033716Y041394I-00008J0D01*
G01*
X033216Y036394D02*
G03*
X033216Y036394I-00008J0D01*
G01*
X033716Y033394D02*
G03*
X033716Y033394I-00008J0D01*
G01*
Y031394D02*
G03*
X033716Y031394I-00008J0D01*
G01*
X033216Y030394D02*
G03*
X033216Y030394I-00008J0D01*
G01*
X032216Y044394D02*
G03*
X032216Y044394I-00008J0D01*
G01*
Y042394D02*
G03*
X032216Y042394I-00008J0D01*
G01*
X032716Y037394D02*
G03*
X032716Y037394I-00008J0D01*
G01*
Y035394D02*
G03*
X032716Y035394I-00008J0D01*
G01*
Y033394D02*
G03*
X032716Y033394I-00008J0D01*
G01*
Y031394D02*
G03*
X032716Y031394I-00008J0D01*
G01*
X032216Y030394D02*
G03*
X032216Y030394I-00008J0D01*
G01*
X031716Y037394D02*
G03*
X031716Y037394I-00008J0D01*
G01*
Y035394D02*
G03*
X031716Y035394I-00008J0D01*
G01*
Y031394D02*
G03*
X031716Y031394I-00008J0D01*
G01*
X030716Y043394D02*
G03*
X030716Y043394I-00008J0D01*
G01*
X030216Y042394D02*
G03*
X030216Y042394I-00008J0D01*
G01*
Y040394D02*
G03*
X030216Y040394I-00008J0D01*
G01*
X030716Y037394D02*
G03*
X030716Y037394I-00008J0D01*
G01*
Y035394D02*
G03*
X030716Y035394I-00008J0D01*
G01*
Y033394D02*
G03*
X030716Y033394I-00008J0D01*
G01*
Y031394D02*
G03*
X030716Y031394I-00008J0D01*
G01*
X029716Y045394D02*
G03*
X029716Y045394I-00008J0D01*
G01*
Y043394D02*
G03*
X029716Y043394I-00008J0D01*
G01*
Y041394D02*
G03*
X029716Y041394I-00008J0D01*
G01*
Y039394D02*
G03*
X029716Y039394I-00008J0D01*
G01*
Y035394D02*
G03*
X029716Y035394I-00008J0D01*
G01*
Y033394D02*
G03*
X029716Y033394I-00008J0D01*
G01*
Y031394D02*
G03*
X029716Y031394I-00008J0D01*
G01*
X028716Y045394D02*
G03*
X028716Y045394I-00008J0D01*
G01*
Y043394D02*
G03*
X028716Y043394I-00008J0D01*
G01*
Y041394D02*
G03*
X028716Y041394I-00008J0D01*
G01*
Y039394D02*
G03*
X028716Y039394I-00008J0D01*
G01*
Y037394D02*
G03*
X028716Y037394I-00008J0D01*
G01*
X027216Y034394D02*
G03*
X027216Y034394I-00008J0D01*
G01*
Y032394D02*
G03*
X027216Y032394I-00008J0D01*
G01*
Y030394D02*
G03*
X027216Y030394I-00008J0D01*
G01*
X026716Y043394D02*
G03*
X026716Y043394I-00008J0D01*
G01*
X026216Y042394D02*
G03*
X026216Y042394I-00008J0D01*
G01*
Y038394D02*
G03*
X026216Y038394I-00008J0D01*
G01*
X026716Y037394D02*
G03*
X026716Y037394I-00008J0D01*
G01*
X026216Y036394D02*
G03*
X026216Y036394I-00008J0D01*
G01*
X026716Y035394D02*
G03*
X026716Y035394I-00008J0D01*
G01*
X026216Y034394D02*
G03*
X026216Y034394I-00008J0D01*
G01*
X026716Y033394D02*
G03*
X026716Y033394I-00008J0D01*
G01*
X026216Y032394D02*
G03*
X026216Y032394I-00008J0D01*
G01*
X026716Y031394D02*
G03*
X026716Y031394I-00008J0D01*
G01*
X026216Y030394D02*
G03*
X026216Y030394I-00008J0D01*
G01*
X025216Y042394D02*
G03*
X025216Y042394I-00008J0D01*
G01*
X025716Y041394D02*
G03*
X025716Y041394I-00008J0D01*
G01*
Y039394D02*
G03*
X025716Y039394I-00008J0D01*
G01*
X025216Y038394D02*
G03*
X025216Y038394I-00008J0D01*
G01*
X025716Y037394D02*
G03*
X025716Y037394I-00008J0D01*
G01*
Y035394D02*
G03*
X025716Y035394I-00008J0D01*
G01*
Y033394D02*
G03*
X025716Y033394I-00008J0D01*
G01*
X025216Y032394D02*
G03*
X025216Y032394I-00008J0D01*
G01*
X025716Y031394D02*
G03*
X025716Y031394I-00008J0D01*
G01*
X025216Y030394D02*
G03*
X025216Y030394I-00008J0D01*
G01*
X024216Y044394D02*
G03*
X024216Y044394I-00008J0D01*
G01*
Y042394D02*
G03*
X024216Y042394I-00008J0D01*
G01*
Y040394D02*
G03*
X024216Y040394I-00008J0D01*
G01*
X024716Y039394D02*
G03*
X024716Y039394I-00008J0D01*
G01*
X024216Y038394D02*
G03*
X024216Y038394I-00008J0D01*
G01*
X024716Y037394D02*
G03*
X024716Y037394I-00008J0D01*
G01*
X024216Y036394D02*
G03*
X024216Y036394I-00008J0D01*
G01*
Y034394D02*
G03*
X024216Y034394I-00008J0D01*
G01*
Y032394D02*
G03*
X024216Y032394I-00008J0D01*
G01*
Y030394D02*
G03*
X024216Y030394I-00008J0D01*
G01*
X023216Y046394D02*
G03*
X023216Y046394I-00008J0D01*
G01*
X023716Y045394D02*
G03*
X023716Y045394I-00008J0D01*
G01*
X023216Y044394D02*
G03*
X023216Y044394I-00008J0D01*
G01*
X023716Y043394D02*
G03*
X023716Y043394I-00008J0D01*
G01*
X023216Y042394D02*
G03*
X023216Y042394I-00008J0D01*
G01*
X023716Y041394D02*
G03*
X023716Y041394I-00008J0D01*
G01*
X023216Y040394D02*
G03*
X023216Y040394I-00008J0D01*
G01*
X023716Y039394D02*
G03*
X023716Y039394I-00008J0D01*
G01*
X023216Y038394D02*
G03*
X023216Y038394I-00008J0D01*
G01*
X023716Y037394D02*
G03*
X023716Y037394I-00008J0D01*
G01*
X023216Y036394D02*
G03*
X023216Y036394I-00008J0D01*
G01*
X023716Y035394D02*
G03*
X023716Y035394I-00008J0D01*
G01*
X023216Y034394D02*
G03*
X023216Y034394I-00008J0D01*
G01*
X023716Y033394D02*
G03*
X023716Y033394I-00008J0D01*
G01*
X023216Y032394D02*
G03*
X023216Y032394I-00008J0D01*
G01*
X023716Y031394D02*
G03*
X023716Y031394I-00008J0D01*
G01*
X023216Y030394D02*
G03*
X023216Y030394I-00008J0D01*
G01*
X025316Y045284D02*
G03*
X025316Y045284I-00008J0D01*
G01*
X032796Y032084D02*
G03*
X032796Y032084I-00008J0D01*
G01*
X033336Y032794D02*
G03*
X033336Y032794I-00008J0D01*
G01*
X029626Y032094D02*
G03*
X029626Y032094I-00008J0D01*
G01*
X029616Y035734D02*
G03*
X029616Y035734I-00008J0D01*
G01*
X032786Y035754D02*
G03*
X032786Y035754I-00008J0D01*
G01*
X031069Y043791D02*
G03*
X031069Y043791I-00008J0D01*
G01*
X031906Y043824D02*
G03*
X031906Y043824I-00008J0D01*
G01*
X023926Y043844D02*
G03*
X023926Y043844I-00008J0D01*
G01*
X026336Y043834D02*
G03*
X026336Y043834I-00008J0D01*
G01*
X031066Y038834D02*
G03*
X031066Y038834I-00008J0D01*
G01*
X032716Y044144D02*
G03*
X032716Y044144I-00008J0D01*
G01*
X028056Y030474D02*
G03*
X028056Y030474I-00008J0D01*
G01*
X042496Y032894D02*
G03*
X042496Y032894I-00008J0D01*
G01*
X036426Y044184D02*
G03*
X036426Y044184I-00008J0D01*
G01*
X037248Y039432D02*
G03*
X037248Y039432I-00008J0D01*
G01*
X035116Y036084D02*
G03*
X035116Y036084I-00008J0D01*
G01*
X032124Y038979D02*
G03*
X032124Y038979I-00008J0D01*
G01*
X032786Y038474D02*
G03*
X032786Y038474I-00008J0D01*
G01*
X031634Y040604D02*
G03*
X031634Y040604I-00008J0D01*
G01*
X037746Y040744D02*
G03*
X037746Y040744I-00008J0D01*
G01*
D77*
X053676Y02669D02*
G03*
X053676Y02669I-00004J0D01*
G01*
X053176Y02569D02*
G03*
X053176Y02569I-00004J0D01*
G01*
X053676Y02469D02*
G03*
X053676Y02469I-00004J0D01*
G01*
X053176Y02369D02*
G03*
X053176Y02369I-00004J0D01*
G01*
X053676Y02269D02*
G03*
X053676Y02269I-00004J0D01*
G01*
X053176Y02169D02*
G03*
X053176Y02169I-00004J0D01*
G01*
X053676Y02069D02*
G03*
X053676Y02069I-00004J0D01*
G01*
X053176Y01969D02*
G03*
X053176Y01969I-00004J0D01*
G01*
X053676Y01869D02*
G03*
X053676Y01869I-00004J0D01*
G01*
X053176Y01769D02*
G03*
X053176Y01769I-00004J0D01*
G01*
X053676Y01669D02*
G03*
X053676Y01669I-00004J0D01*
G01*
X053176Y01569D02*
G03*
X053176Y01569I-00004J0D01*
G01*
X053676Y01469D02*
G03*
X053676Y01469I-00004J0D01*
G01*
X053176Y01369D02*
G03*
X053176Y01369I-00004J0D01*
G01*
X053676Y01269D02*
G03*
X053676Y01269I-00004J0D01*
G01*
X053176Y01169D02*
G03*
X053176Y01169I-00004J0D01*
G01*
X052676Y02669D02*
G03*
X052676Y02669I-00004J0D01*
G01*
Y02469D02*
G03*
X052676Y02469I-00004J0D01*
G01*
Y02269D02*
G03*
X052676Y02269I-00004J0D01*
G01*
Y02069D02*
G03*
X052676Y02069I-00004J0D01*
G01*
Y01869D02*
G03*
X052676Y01869I-00004J0D01*
G01*
Y01669D02*
G03*
X052676Y01669I-00004J0D01*
G01*
Y01469D02*
G03*
X052676Y01469I-00004J0D01*
G01*
Y01269D02*
G03*
X052676Y01269I-00004J0D01*
G01*
X052176Y01169D02*
G03*
X052176Y01169I-00004J0D01*
G01*
X051176Y02569D02*
G03*
X051176Y02569I-00004J0D01*
G01*
X051676Y02469D02*
G03*
X051676Y02469I-00004J0D01*
G01*
X051176Y02369D02*
G03*
X051176Y02369I-00004J0D01*
G01*
X051676Y02269D02*
G03*
X051676Y02269I-00004J0D01*
G01*
X051176Y02169D02*
G03*
X051176Y02169I-00004J0D01*
G01*
X051676Y02069D02*
G03*
X051676Y02069I-00004J0D01*
G01*
X051176Y01969D02*
G03*
X051176Y01969I-00004J0D01*
G01*
X051676Y01869D02*
G03*
X051676Y01869I-00004J0D01*
G01*
X051176Y01769D02*
G03*
X051176Y01769I-00004J0D01*
G01*
X051676Y01669D02*
G03*
X051676Y01669I-00004J0D01*
G01*
X051176Y01569D02*
G03*
X051176Y01569I-00004J0D01*
G01*
X051676Y01469D02*
G03*
X051676Y01469I-00004J0D01*
G01*
Y01269D02*
G03*
X051676Y01269I-00004J0D01*
G01*
X051176Y01169D02*
G03*
X051176Y01169I-00004J0D01*
G01*
X050176Y02569D02*
G03*
X050176Y02569I-00004J0D01*
G01*
X050676Y02469D02*
G03*
X050676Y02469I-00004J0D01*
G01*
X050176Y02369D02*
G03*
X050176Y02369I-00004J0D01*
G01*
X050676Y02269D02*
G03*
X050676Y02269I-00004J0D01*
G01*
X050176Y02169D02*
G03*
X050176Y02169I-00004J0D01*
G01*
X050676Y02069D02*
G03*
X050676Y02069I-00004J0D01*
G01*
X050176Y01969D02*
G03*
X050176Y01969I-00004J0D01*
G01*
X050676Y01869D02*
G03*
X050676Y01869I-00004J0D01*
G01*
X050176Y01769D02*
G03*
X050176Y01769I-00004J0D01*
G01*
X050676Y01669D02*
G03*
X050676Y01669I-00004J0D01*
G01*
X050176Y01569D02*
G03*
X050176Y01569I-00004J0D01*
G01*
X050676Y01469D02*
G03*
X050676Y01469I-00004J0D01*
G01*
X050176Y01369D02*
G03*
X050176Y01369I-00004J0D01*
G01*
X049176Y02569D02*
G03*
X049176Y02569I-00004J0D01*
G01*
X049676Y02469D02*
G03*
X049676Y02469I-00004J0D01*
G01*
X049176Y02369D02*
G03*
X049176Y02369I-00004J0D01*
G01*
X049676Y02269D02*
G03*
X049676Y02269I-00004J0D01*
G01*
X049176Y02169D02*
G03*
X049176Y02169I-00004J0D01*
G01*
X049676Y02069D02*
G03*
X049676Y02069I-00004J0D01*
G01*
X049176Y01969D02*
G03*
X049176Y01969I-00004J0D01*
G01*
X049676Y01869D02*
G03*
X049676Y01869I-00004J0D01*
G01*
X049176Y01769D02*
G03*
X049176Y01769I-00004J0D01*
G01*
X049676Y01669D02*
G03*
X049676Y01669I-00004J0D01*
G01*
X049176Y01569D02*
G03*
X049176Y01569I-00004J0D01*
G01*
X049676Y01469D02*
G03*
X049676Y01469I-00004J0D01*
G01*
X049176Y01369D02*
G03*
X049176Y01369I-00004J0D01*
G01*
X049676Y01269D02*
G03*
X049676Y01269I-00004J0D01*
G01*
X048676Y02469D02*
G03*
X048676Y02469I-00004J0D01*
G01*
X048176Y02369D02*
G03*
X048176Y02369I-00004J0D01*
G01*
X048676Y02269D02*
G03*
X048676Y02269I-00004J0D01*
G01*
X048176Y02169D02*
G03*
X048176Y02169I-00004J0D01*
G01*
X048676Y02069D02*
G03*
X048676Y02069I-00004J0D01*
G01*
X048176Y01969D02*
G03*
X048176Y01969I-00004J0D01*
G01*
X048676Y01869D02*
G03*
X048676Y01869I-00004J0D01*
G01*
Y01669D02*
G03*
X048676Y01669I-00004J0D01*
G01*
X048176Y01569D02*
G03*
X048176Y01569I-00004J0D01*
G01*
X048676Y01469D02*
G03*
X048676Y01469I-00004J0D01*
G01*
X048176Y01369D02*
G03*
X048176Y01369I-00004J0D01*
G01*
X048676Y01269D02*
G03*
X048676Y01269I-00004J0D01*
G01*
X047176Y02569D02*
G03*
X047176Y02569I-00004J0D01*
G01*
X047676Y02469D02*
G03*
X047676Y02469I-00004J0D01*
G01*
X047176Y02369D02*
G03*
X047176Y02369I-00004J0D01*
G01*
X047676Y02269D02*
G03*
X047676Y02269I-00004J0D01*
G01*
X047176Y02169D02*
G03*
X047176Y02169I-00004J0D01*
G01*
X047676Y02069D02*
G03*
X047676Y02069I-00004J0D01*
G01*
X047176Y01969D02*
G03*
X047176Y01969I-00004J0D01*
G01*
X047676Y01869D02*
G03*
X047676Y01869I-00004J0D01*
G01*
X047176Y01769D02*
G03*
X047176Y01769I-00004J0D01*
G01*
X047676Y01669D02*
G03*
X047676Y01669I-00004J0D01*
G01*
X047176Y01569D02*
G03*
X047176Y01569I-00004J0D01*
G01*
X047676Y01469D02*
G03*
X047676Y01469I-00004J0D01*
G01*
X047176Y01369D02*
G03*
X047176Y01369I-00004J0D01*
G01*
X047676Y01269D02*
G03*
X047676Y01269I-00004J0D01*
G01*
X046176Y02569D02*
G03*
X046176Y02569I-00004J0D01*
G01*
X046676Y02269D02*
G03*
X046676Y02269I-00004J0D01*
G01*
X046176Y02169D02*
G03*
X046176Y02169I-00004J0D01*
G01*
X046676Y02069D02*
G03*
X046676Y02069I-00004J0D01*
G01*
X046176Y01969D02*
G03*
X046176Y01969I-00004J0D01*
G01*
X046676Y01869D02*
G03*
X046676Y01869I-00004J0D01*
G01*
X046176Y01769D02*
G03*
X046176Y01769I-00004J0D01*
G01*
X046676Y01669D02*
G03*
X046676Y01669I-00004J0D01*
G01*
Y01469D02*
G03*
X046676Y01469I-00004J0D01*
G01*
X046176Y01369D02*
G03*
X046176Y01369I-00004J0D01*
G01*
X046676Y01269D02*
G03*
X046676Y01269I-00004J0D01*
G01*
X045176Y02569D02*
G03*
X045176Y02569I-00004J0D01*
G01*
X045676Y02469D02*
G03*
X045676Y02469I-00004J0D01*
G01*
X045176Y02369D02*
G03*
X045176Y02369I-00004J0D01*
G01*
X045676Y02269D02*
G03*
X045676Y02269I-00004J0D01*
G01*
X045176Y02169D02*
G03*
X045176Y02169I-00004J0D01*
G01*
X045676Y02069D02*
G03*
X045676Y02069I-00004J0D01*
G01*
X045176Y01969D02*
G03*
X045176Y01969I-00004J0D01*
G01*
X045676Y01869D02*
G03*
X045676Y01869I-00004J0D01*
G01*
X045176Y01769D02*
G03*
X045176Y01769I-00004J0D01*
G01*
X045676Y01669D02*
G03*
X045676Y01669I-00004J0D01*
G01*
Y01469D02*
G03*
X045676Y01469I-00004J0D01*
G01*
X045176Y01369D02*
G03*
X045176Y01369I-00004J0D01*
G01*
X044176Y02569D02*
G03*
X044176Y02569I-00004J0D01*
G01*
X044676Y02469D02*
G03*
X044676Y02469I-00004J0D01*
G01*
X044176Y02369D02*
G03*
X044176Y02369I-00004J0D01*
G01*
X044676Y02069D02*
G03*
X044676Y02069I-00004J0D01*
G01*
Y01869D02*
G03*
X044676Y01869I-00004J0D01*
G01*
Y01469D02*
G03*
X044676Y01469I-00004J0D01*
G01*
X044176Y01369D02*
G03*
X044176Y01369I-00004J0D01*
G01*
X043176Y02569D02*
G03*
X043176Y02569I-00004J0D01*
G01*
X043676Y02469D02*
G03*
X043676Y02469I-00004J0D01*
G01*
X043176Y02369D02*
G03*
X043176Y02369I-00004J0D01*
G01*
X043676Y02269D02*
G03*
X043676Y02269I-00004J0D01*
G01*
X043176Y02169D02*
G03*
X043176Y02169I-00004J0D01*
G01*
Y01969D02*
G03*
X043176Y01969I-00004J0D01*
G01*
X043676Y01469D02*
G03*
X043676Y01469I-00004J0D01*
G01*
X042176Y02369D02*
G03*
X042176Y02369I-00004J0D01*
G01*
X042676Y02269D02*
G03*
X042676Y02269I-00004J0D01*
G01*
X042176Y02169D02*
G03*
X042176Y02169I-00004J0D01*
G01*
X042676Y02069D02*
G03*
X042676Y02069I-00004J0D01*
G01*
X042176Y01969D02*
G03*
X042176Y01969I-00004J0D01*
G01*
X042676Y01869D02*
G03*
X042676Y01869I-00004J0D01*
G01*
X042176Y01569D02*
G03*
X042176Y01569I-00004J0D01*
G01*
X041176Y02569D02*
G03*
X041176Y02569I-00004J0D01*
G01*
X041676Y02469D02*
G03*
X041676Y02469I-00004J0D01*
G01*
X041176Y02369D02*
G03*
X041176Y02369I-00004J0D01*
G01*
X041676Y02269D02*
G03*
X041676Y02269I-00004J0D01*
G01*
X041176Y02169D02*
G03*
X041176Y02169I-00004J0D01*
G01*
X041676Y02069D02*
G03*
X041676Y02069I-00004J0D01*
G01*
X041176Y01969D02*
G03*
X041176Y01969I-00004J0D01*
G01*
X041676Y01869D02*
G03*
X041676Y01869I-00004J0D01*
G01*
X041176Y01769D02*
G03*
X041176Y01769I-00004J0D01*
G01*
X041676Y01669D02*
G03*
X041676Y01669I-00004J0D01*
G01*
X041176Y01569D02*
G03*
X041176Y01569I-00004J0D01*
G01*
X041676Y01269D02*
G03*
X041676Y01269I-00004J0D01*
G01*
X040676Y02469D02*
G03*
X040676Y02469I-00004J0D01*
G01*
Y02269D02*
G03*
X040676Y02269I-00004J0D01*
G01*
X040176Y02169D02*
G03*
X040176Y02169I-00004J0D01*
G01*
X040676Y02069D02*
G03*
X040676Y02069I-00004J0D01*
G01*
X040176Y01969D02*
G03*
X040176Y01969I-00004J0D01*
G01*
X040676Y01869D02*
G03*
X040676Y01869I-00004J0D01*
G01*
X040176Y01769D02*
G03*
X040176Y01769I-00004J0D01*
G01*
X040676Y01669D02*
G03*
X040676Y01669I-00004J0D01*
G01*
X040176Y01569D02*
G03*
X040176Y01569I-00004J0D01*
G01*
Y01369D02*
G03*
X040176Y01369I-00004J0D01*
G01*
X040676Y01269D02*
G03*
X040676Y01269I-00004J0D01*
G01*
X039176Y02569D02*
G03*
X039176Y02569I-00004J0D01*
G01*
X039676Y02469D02*
G03*
X039676Y02469I-00004J0D01*
G01*
X039176Y02369D02*
G03*
X039176Y02369I-00004J0D01*
G01*
X039676Y02269D02*
G03*
X039676Y02269I-00004J0D01*
G01*
X039176Y02169D02*
G03*
X039176Y02169I-00004J0D01*
G01*
X039676Y02069D02*
G03*
X039676Y02069I-00004J0D01*
G01*
X039176Y01969D02*
G03*
X039176Y01969I-00004J0D01*
G01*
X039676Y01869D02*
G03*
X039676Y01869I-00004J0D01*
G01*
X039176Y01769D02*
G03*
X039176Y01769I-00004J0D01*
G01*
X039676Y01669D02*
G03*
X039676Y01669I-00004J0D01*
G01*
Y01469D02*
G03*
X039676Y01469I-00004J0D01*
G01*
X039176Y01369D02*
G03*
X039176Y01369I-00004J0D01*
G01*
X039676Y01269D02*
G03*
X039676Y01269I-00004J0D01*
G01*
X038676Y02069D02*
G03*
X038676Y02069I-00004J0D01*
G01*
X038176Y01969D02*
G03*
X038176Y01969I-00004J0D01*
G01*
X038676Y01869D02*
G03*
X038676Y01869I-00004J0D01*
G01*
X038176Y01769D02*
G03*
X038176Y01769I-00004J0D01*
G01*
X038676Y01469D02*
G03*
X038676Y01469I-00004J0D01*
G01*
X037176Y02769D02*
G03*
X037176Y02769I-00004J0D01*
G01*
X037676Y02069D02*
G03*
X037676Y02069I-00004J0D01*
G01*
Y01869D02*
G03*
X037676Y01869I-00004J0D01*
G01*
Y01669D02*
G03*
X037676Y01669I-00004J0D01*
G01*
Y01469D02*
G03*
X037676Y01469I-00004J0D01*
G01*
X037176Y01369D02*
G03*
X037176Y01369I-00004J0D01*
G01*
X037676Y01269D02*
G03*
X037676Y01269I-00004J0D01*
G01*
X036676Y02669D02*
G03*
X036676Y02669I-00004J0D01*
G01*
X036176Y02369D02*
G03*
X036176Y02369I-00004J0D01*
G01*
X036676Y02069D02*
G03*
X036676Y02069I-00004J0D01*
G01*
X036176Y01969D02*
G03*
X036176Y01969I-00004J0D01*
G01*
Y01769D02*
G03*
X036176Y01769I-00004J0D01*
G01*
X036676Y01669D02*
G03*
X036676Y01669I-00004J0D01*
G01*
Y01469D02*
G03*
X036676Y01469I-00004J0D01*
G01*
X036176Y01369D02*
G03*
X036176Y01369I-00004J0D01*
G01*
X036676Y01269D02*
G03*
X036676Y01269I-00004J0D01*
G01*
X035676Y02269D02*
G03*
X035676Y02269I-00004J0D01*
G01*
X035176Y02169D02*
G03*
X035176Y02169I-00004J0D01*
G01*
X035676Y01869D02*
G03*
X035676Y01869I-00004J0D01*
G01*
X035176Y01769D02*
G03*
X035176Y01769I-00004J0D01*
G01*
X035676Y01669D02*
G03*
X035676Y01669I-00004J0D01*
G01*
Y01469D02*
G03*
X035676Y01469I-00004J0D01*
G01*
X035176Y01369D02*
G03*
X035176Y01369I-00004J0D01*
G01*
X035676Y01269D02*
G03*
X035676Y01269I-00004J0D01*
G01*
X034176Y02569D02*
G03*
X034176Y02569I-00004J0D01*
G01*
X034676Y02269D02*
G03*
X034676Y02269I-00004J0D01*
G01*
X034176Y02169D02*
G03*
X034176Y02169I-00004J0D01*
G01*
Y01969D02*
G03*
X034176Y01969I-00004J0D01*
G01*
X034676Y01869D02*
G03*
X034676Y01869I-00004J0D01*
G01*
X034176Y01769D02*
G03*
X034176Y01769I-00004J0D01*
G01*
X034676Y01469D02*
G03*
X034676Y01469I-00004J0D01*
G01*
X034176Y01369D02*
G03*
X034176Y01369I-00004J0D01*
G01*
X034676Y01269D02*
G03*
X034676Y01269I-00004J0D01*
G01*
X033176Y02569D02*
G03*
X033176Y02569I-00004J0D01*
G01*
Y02369D02*
G03*
X033176Y02369I-00004J0D01*
G01*
X033676Y02269D02*
G03*
X033676Y02269I-00004J0D01*
G01*
X033176Y01769D02*
G03*
X033176Y01769I-00004J0D01*
G01*
X033676Y01469D02*
G03*
X033676Y01469I-00004J0D01*
G01*
Y01269D02*
G03*
X033676Y01269I-00004J0D01*
G01*
X033176Y01169D02*
G03*
X033176Y01169I-00004J0D01*
G01*
X032176Y02569D02*
G03*
X032176Y02569I-00004J0D01*
G01*
Y02369D02*
G03*
X032176Y02369I-00004J0D01*
G01*
X032676Y01869D02*
G03*
X032676Y01869I-00004J0D01*
G01*
Y01669D02*
G03*
X032676Y01669I-00004J0D01*
G01*
Y01469D02*
G03*
X032676Y01469I-00004J0D01*
G01*
Y01269D02*
G03*
X032676Y01269I-00004J0D01*
G01*
X032176Y01169D02*
G03*
X032176Y01169I-00004J0D01*
G01*
X031676Y01869D02*
G03*
X031676Y01869I-00004J0D01*
G01*
Y01669D02*
G03*
X031676Y01669I-00004J0D01*
G01*
Y01269D02*
G03*
X031676Y01269I-00004J0D01*
G01*
X030676Y02469D02*
G03*
X030676Y02469I-00004J0D01*
G01*
X030176Y02369D02*
G03*
X030176Y02369I-00004J0D01*
G01*
Y02169D02*
G03*
X030176Y02169I-00004J0D01*
G01*
X030676Y01869D02*
G03*
X030676Y01869I-00004J0D01*
G01*
Y01669D02*
G03*
X030676Y01669I-00004J0D01*
G01*
Y01469D02*
G03*
X030676Y01469I-00004J0D01*
G01*
Y01269D02*
G03*
X030676Y01269I-00004J0D01*
G01*
X029676Y02669D02*
G03*
X029676Y02669I-00004J0D01*
G01*
Y02469D02*
G03*
X029676Y02469I-00004J0D01*
G01*
Y02269D02*
G03*
X029676Y02269I-00004J0D01*
G01*
Y02069D02*
G03*
X029676Y02069I-00004J0D01*
G01*
Y01669D02*
G03*
X029676Y01669I-00004J0D01*
G01*
Y01469D02*
G03*
X029676Y01469I-00004J0D01*
G01*
Y01269D02*
G03*
X029676Y01269I-00004J0D01*
G01*
X028676Y02669D02*
G03*
X028676Y02669I-00004J0D01*
G01*
Y02469D02*
G03*
X028676Y02469I-00004J0D01*
G01*
Y02269D02*
G03*
X028676Y02269I-00004J0D01*
G01*
Y02069D02*
G03*
X028676Y02069I-00004J0D01*
G01*
Y01869D02*
G03*
X028676Y01869I-00004J0D01*
G01*
X027176Y01569D02*
G03*
X027176Y01569I-00004J0D01*
G01*
Y01369D02*
G03*
X027176Y01369I-00004J0D01*
G01*
Y01169D02*
G03*
X027176Y01169I-00004J0D01*
G01*
X026676Y02469D02*
G03*
X026676Y02469I-00004J0D01*
G01*
X026176Y02369D02*
G03*
X026176Y02369I-00004J0D01*
G01*
Y01969D02*
G03*
X026176Y01969I-00004J0D01*
G01*
X026676Y01869D02*
G03*
X026676Y01869I-00004J0D01*
G01*
X026176Y01769D02*
G03*
X026176Y01769I-00004J0D01*
G01*
X026676Y01669D02*
G03*
X026676Y01669I-00004J0D01*
G01*
X026176Y01569D02*
G03*
X026176Y01569I-00004J0D01*
G01*
X026676Y01469D02*
G03*
X026676Y01469I-00004J0D01*
G01*
X026176Y01369D02*
G03*
X026176Y01369I-00004J0D01*
G01*
X026676Y01269D02*
G03*
X026676Y01269I-00004J0D01*
G01*
X026176Y01169D02*
G03*
X026176Y01169I-00004J0D01*
G01*
X025176Y02369D02*
G03*
X025176Y02369I-00004J0D01*
G01*
X025676Y02269D02*
G03*
X025676Y02269I-00004J0D01*
G01*
Y02069D02*
G03*
X025676Y02069I-00004J0D01*
G01*
X025176Y01969D02*
G03*
X025176Y01969I-00004J0D01*
G01*
X025676Y01869D02*
G03*
X025676Y01869I-00004J0D01*
G01*
Y01669D02*
G03*
X025676Y01669I-00004J0D01*
G01*
Y01469D02*
G03*
X025676Y01469I-00004J0D01*
G01*
X025176Y01369D02*
G03*
X025176Y01369I-00004J0D01*
G01*
X025676Y01269D02*
G03*
X025676Y01269I-00004J0D01*
G01*
X025176Y01169D02*
G03*
X025176Y01169I-00004J0D01*
G01*
X024176Y02569D02*
G03*
X024176Y02569I-00004J0D01*
G01*
Y02369D02*
G03*
X024176Y02369I-00004J0D01*
G01*
Y02169D02*
G03*
X024176Y02169I-00004J0D01*
G01*
X024676Y02069D02*
G03*
X024676Y02069I-00004J0D01*
G01*
X024176Y01969D02*
G03*
X024176Y01969I-00004J0D01*
G01*
X024676Y01869D02*
G03*
X024676Y01869I-00004J0D01*
G01*
X024176Y01769D02*
G03*
X024176Y01769I-00004J0D01*
G01*
Y01569D02*
G03*
X024176Y01569I-00004J0D01*
G01*
Y01369D02*
G03*
X024176Y01369I-00004J0D01*
G01*
Y01169D02*
G03*
X024176Y01169I-00004J0D01*
G01*
X023176Y02769D02*
G03*
X023176Y02769I-00004J0D01*
G01*
X023676Y02669D02*
G03*
X023676Y02669I-00004J0D01*
G01*
X023176Y02569D02*
G03*
X023176Y02569I-00004J0D01*
G01*
X023676Y02469D02*
G03*
X023676Y02469I-00004J0D01*
G01*
X023176Y02369D02*
G03*
X023176Y02369I-00004J0D01*
G01*
X023676Y02269D02*
G03*
X023676Y02269I-00004J0D01*
G01*
X023176Y02169D02*
G03*
X023176Y02169I-00004J0D01*
G01*
X023676Y02069D02*
G03*
X023676Y02069I-00004J0D01*
G01*
X023176Y01969D02*
G03*
X023176Y01969I-00004J0D01*
G01*
X023676Y01869D02*
G03*
X023676Y01869I-00004J0D01*
G01*
X023176Y01769D02*
G03*
X023176Y01769I-00004J0D01*
G01*
X023676Y01669D02*
G03*
X023676Y01669I-00004J0D01*
G01*
X023176Y01569D02*
G03*
X023176Y01569I-00004J0D01*
G01*
X023676Y01469D02*
G03*
X023676Y01469I-00004J0D01*
G01*
X023176Y01369D02*
G03*
X023176Y01369I-00004J0D01*
G01*
X023676Y01269D02*
G03*
X023676Y01269I-00004J0D01*
G01*
X023176Y01169D02*
G03*
X023176Y01169I-00004J0D01*
G01*
X025276Y02658D02*
G03*
X025276Y02658I-00004J0D01*
G01*
X032756Y01338D02*
G03*
X032756Y01338I-00004J0D01*
G01*
X033296Y01409D02*
G03*
X033296Y01409I-00004J0D01*
G01*
X029586Y01339D02*
G03*
X029586Y01339I-00004J0D01*
G01*
X029576Y01703D02*
G03*
X029576Y01703I-00004J0D01*
G01*
X032746Y01705D02*
G03*
X032746Y01705I-00004J0D01*
G01*
X031029Y025087D02*
G03*
X031029Y025087I-00004J0D01*
G01*
X031866Y02512D02*
G03*
X031866Y02512I-00004J0D01*
G01*
X023886Y02514D02*
G03*
X023886Y02514I-00004J0D01*
G01*
X026296Y02513D02*
G03*
X026296Y02513I-00004J0D01*
G01*
X031026Y02013D02*
G03*
X031026Y02013I-00004J0D01*
G01*
X032676Y02544D02*
G03*
X032676Y02544I-00004J0D01*
G01*
X028016Y01177D02*
G03*
X028016Y01177I-00004J0D01*
G01*
X042456Y01419D02*
G03*
X042456Y01419I-00004J0D01*
G01*
X036386Y02548D02*
G03*
X036386Y02548I-00004J0D01*
G01*
X037208Y020727D02*
G03*
X037208Y020727I-00004J0D01*
G01*
X035076Y01738D02*
G03*
X035076Y01738I-00004J0D01*
G01*
X032084Y020275D02*
G03*
X032084Y020275I-00004J0D01*
G01*
X032746Y01977D02*
G03*
X032746Y01977I-00004J0D01*
G01*
X031594Y0219D02*
G03*
X031594Y0219I-00004J0D01*
G01*
X037706Y02204D02*
G03*
X037706Y02204I-00004J0D01*
G01*
X053676Y045394D02*
G03*
X053676Y045394I-00004J0D01*
G01*
X053176Y044394D02*
G03*
X053176Y044394I-00004J0D01*
G01*
X053676Y043394D02*
G03*
X053676Y043394I-00004J0D01*
G01*
X053176Y042394D02*
G03*
X053176Y042394I-00004J0D01*
G01*
X053676Y041394D02*
G03*
X053676Y041394I-00004J0D01*
G01*
X053176Y040394D02*
G03*
X053176Y040394I-00004J0D01*
G01*
X053676Y039394D02*
G03*
X053676Y039394I-00004J0D01*
G01*
X053176Y038394D02*
G03*
X053176Y038394I-00004J0D01*
G01*
X053676Y037394D02*
G03*
X053676Y037394I-00004J0D01*
G01*
X053176Y036394D02*
G03*
X053176Y036394I-00004J0D01*
G01*
X053676Y035394D02*
G03*
X053676Y035394I-00004J0D01*
G01*
X053176Y034394D02*
G03*
X053176Y034394I-00004J0D01*
G01*
X053676Y033394D02*
G03*
X053676Y033394I-00004J0D01*
G01*
X053176Y032394D02*
G03*
X053176Y032394I-00004J0D01*
G01*
X053676Y031394D02*
G03*
X053676Y031394I-00004J0D01*
G01*
X053176Y030394D02*
G03*
X053176Y030394I-00004J0D01*
G01*
X052676Y045394D02*
G03*
X052676Y045394I-00004J0D01*
G01*
Y043394D02*
G03*
X052676Y043394I-00004J0D01*
G01*
Y041394D02*
G03*
X052676Y041394I-00004J0D01*
G01*
Y039394D02*
G03*
X052676Y039394I-00004J0D01*
G01*
Y037394D02*
G03*
X052676Y037394I-00004J0D01*
G01*
Y035394D02*
G03*
X052676Y035394I-00004J0D01*
G01*
Y033394D02*
G03*
X052676Y033394I-00004J0D01*
G01*
Y031394D02*
G03*
X052676Y031394I-00004J0D01*
G01*
X052176Y030394D02*
G03*
X052176Y030394I-00004J0D01*
G01*
X051176Y044394D02*
G03*
X051176Y044394I-00004J0D01*
G01*
X051676Y043394D02*
G03*
X051676Y043394I-00004J0D01*
G01*
X051176Y042394D02*
G03*
X051176Y042394I-00004J0D01*
G01*
X051676Y041394D02*
G03*
X051676Y041394I-00004J0D01*
G01*
X051176Y040394D02*
G03*
X051176Y040394I-00004J0D01*
G01*
X051676Y039394D02*
G03*
X051676Y039394I-00004J0D01*
G01*
X051176Y038394D02*
G03*
X051176Y038394I-00004J0D01*
G01*
X051676Y037394D02*
G03*
X051676Y037394I-00004J0D01*
G01*
X051176Y036394D02*
G03*
X051176Y036394I-00004J0D01*
G01*
X051676Y035394D02*
G03*
X051676Y035394I-00004J0D01*
G01*
X051176Y034394D02*
G03*
X051176Y034394I-00004J0D01*
G01*
X051676Y033394D02*
G03*
X051676Y033394I-00004J0D01*
G01*
Y031394D02*
G03*
X051676Y031394I-00004J0D01*
G01*
X051176Y030394D02*
G03*
X051176Y030394I-00004J0D01*
G01*
X050176Y044394D02*
G03*
X050176Y044394I-00004J0D01*
G01*
X050676Y043394D02*
G03*
X050676Y043394I-00004J0D01*
G01*
X050176Y042394D02*
G03*
X050176Y042394I-00004J0D01*
G01*
X050676Y041394D02*
G03*
X050676Y041394I-00004J0D01*
G01*
X050176Y040394D02*
G03*
X050176Y040394I-00004J0D01*
G01*
X050676Y039394D02*
G03*
X050676Y039394I-00004J0D01*
G01*
X050176Y038394D02*
G03*
X050176Y038394I-00004J0D01*
G01*
X050676Y037394D02*
G03*
X050676Y037394I-00004J0D01*
G01*
X050176Y036394D02*
G03*
X050176Y036394I-00004J0D01*
G01*
X050676Y035394D02*
G03*
X050676Y035394I-00004J0D01*
G01*
X050176Y034394D02*
G03*
X050176Y034394I-00004J0D01*
G01*
X050676Y033394D02*
G03*
X050676Y033394I-00004J0D01*
G01*
X050176Y032394D02*
G03*
X050176Y032394I-00004J0D01*
G01*
X049176Y044394D02*
G03*
X049176Y044394I-00004J0D01*
G01*
X049676Y043394D02*
G03*
X049676Y043394I-00004J0D01*
G01*
X049176Y042394D02*
G03*
X049176Y042394I-00004J0D01*
G01*
X049676Y041394D02*
G03*
X049676Y041394I-00004J0D01*
G01*
X049176Y040394D02*
G03*
X049176Y040394I-00004J0D01*
G01*
X049676Y039394D02*
G03*
X049676Y039394I-00004J0D01*
G01*
X049176Y038394D02*
G03*
X049176Y038394I-00004J0D01*
G01*
X049676Y037394D02*
G03*
X049676Y037394I-00004J0D01*
G01*
X049176Y036394D02*
G03*
X049176Y036394I-00004J0D01*
G01*
X049676Y035394D02*
G03*
X049676Y035394I-00004J0D01*
G01*
X049176Y034394D02*
G03*
X049176Y034394I-00004J0D01*
G01*
X049676Y033394D02*
G03*
X049676Y033394I-00004J0D01*
G01*
X049176Y032394D02*
G03*
X049176Y032394I-00004J0D01*
G01*
X049676Y031394D02*
G03*
X049676Y031394I-00004J0D01*
G01*
X048676Y043394D02*
G03*
X048676Y043394I-00004J0D01*
G01*
X048176Y042394D02*
G03*
X048176Y042394I-00004J0D01*
G01*
X048676Y041394D02*
G03*
X048676Y041394I-00004J0D01*
G01*
X048176Y040394D02*
G03*
X048176Y040394I-00004J0D01*
G01*
X048676Y039394D02*
G03*
X048676Y039394I-00004J0D01*
G01*
X048176Y038394D02*
G03*
X048176Y038394I-00004J0D01*
G01*
X048676Y037394D02*
G03*
X048676Y037394I-00004J0D01*
G01*
Y035394D02*
G03*
X048676Y035394I-00004J0D01*
G01*
X048176Y034394D02*
G03*
X048176Y034394I-00004J0D01*
G01*
X048676Y033394D02*
G03*
X048676Y033394I-00004J0D01*
G01*
X048176Y032394D02*
G03*
X048176Y032394I-00004J0D01*
G01*
X048676Y031394D02*
G03*
X048676Y031394I-00004J0D01*
G01*
X047176Y044394D02*
G03*
X047176Y044394I-00004J0D01*
G01*
X047676Y043394D02*
G03*
X047676Y043394I-00004J0D01*
G01*
X047176Y042394D02*
G03*
X047176Y042394I-00004J0D01*
G01*
X047676Y041394D02*
G03*
X047676Y041394I-00004J0D01*
G01*
X047176Y040394D02*
G03*
X047176Y040394I-00004J0D01*
G01*
X047676Y039394D02*
G03*
X047676Y039394I-00004J0D01*
G01*
X047176Y038394D02*
G03*
X047176Y038394I-00004J0D01*
G01*
X047676Y037394D02*
G03*
X047676Y037394I-00004J0D01*
G01*
X047176Y036394D02*
G03*
X047176Y036394I-00004J0D01*
G01*
X047676Y035394D02*
G03*
X047676Y035394I-00004J0D01*
G01*
X047176Y034394D02*
G03*
X047176Y034394I-00004J0D01*
G01*
X047676Y033394D02*
G03*
X047676Y033394I-00004J0D01*
G01*
X047176Y032394D02*
G03*
X047176Y032394I-00004J0D01*
G01*
X047676Y031394D02*
G03*
X047676Y031394I-00004J0D01*
G01*
X046176Y044394D02*
G03*
X046176Y044394I-00004J0D01*
G01*
X046676Y041394D02*
G03*
X046676Y041394I-00004J0D01*
G01*
X046176Y040394D02*
G03*
X046176Y040394I-00004J0D01*
G01*
X046676Y039394D02*
G03*
X046676Y039394I-00004J0D01*
G01*
X046176Y038394D02*
G03*
X046176Y038394I-00004J0D01*
G01*
X046676Y037394D02*
G03*
X046676Y037394I-00004J0D01*
G01*
X046176Y036394D02*
G03*
X046176Y036394I-00004J0D01*
G01*
X046676Y035394D02*
G03*
X046676Y035394I-00004J0D01*
G01*
Y033394D02*
G03*
X046676Y033394I-00004J0D01*
G01*
X046176Y032394D02*
G03*
X046176Y032394I-00004J0D01*
G01*
X046676Y031394D02*
G03*
X046676Y031394I-00004J0D01*
G01*
X045176Y044394D02*
G03*
X045176Y044394I-00004J0D01*
G01*
X045676Y043394D02*
G03*
X045676Y043394I-00004J0D01*
G01*
X045176Y042394D02*
G03*
X045176Y042394I-00004J0D01*
G01*
X045676Y041394D02*
G03*
X045676Y041394I-00004J0D01*
G01*
X045176Y040394D02*
G03*
X045176Y040394I-00004J0D01*
G01*
X045676Y039394D02*
G03*
X045676Y039394I-00004J0D01*
G01*
X045176Y038394D02*
G03*
X045176Y038394I-00004J0D01*
G01*
X045676Y037394D02*
G03*
X045676Y037394I-00004J0D01*
G01*
X045176Y036394D02*
G03*
X045176Y036394I-00004J0D01*
G01*
X045676Y035394D02*
G03*
X045676Y035394I-00004J0D01*
G01*
Y033394D02*
G03*
X045676Y033394I-00004J0D01*
G01*
X045176Y032394D02*
G03*
X045176Y032394I-00004J0D01*
G01*
X044176Y044394D02*
G03*
X044176Y044394I-00004J0D01*
G01*
X044676Y043394D02*
G03*
X044676Y043394I-00004J0D01*
G01*
X044176Y042394D02*
G03*
X044176Y042394I-00004J0D01*
G01*
X044676Y039394D02*
G03*
X044676Y039394I-00004J0D01*
G01*
Y037394D02*
G03*
X044676Y037394I-00004J0D01*
G01*
Y033394D02*
G03*
X044676Y033394I-00004J0D01*
G01*
X044176Y032394D02*
G03*
X044176Y032394I-00004J0D01*
G01*
X043176Y044394D02*
G03*
X043176Y044394I-00004J0D01*
G01*
X043676Y043394D02*
G03*
X043676Y043394I-00004J0D01*
G01*
X043176Y042394D02*
G03*
X043176Y042394I-00004J0D01*
G01*
X043676Y041394D02*
G03*
X043676Y041394I-00004J0D01*
G01*
X043176Y040394D02*
G03*
X043176Y040394I-00004J0D01*
G01*
Y038394D02*
G03*
X043176Y038394I-00004J0D01*
G01*
X043676Y033394D02*
G03*
X043676Y033394I-00004J0D01*
G01*
X042176Y042394D02*
G03*
X042176Y042394I-00004J0D01*
G01*
X042676Y041394D02*
G03*
X042676Y041394I-00004J0D01*
G01*
X042176Y040394D02*
G03*
X042176Y040394I-00004J0D01*
G01*
X042676Y039394D02*
G03*
X042676Y039394I-00004J0D01*
G01*
X042176Y038394D02*
G03*
X042176Y038394I-00004J0D01*
G01*
X042676Y037394D02*
G03*
X042676Y037394I-00004J0D01*
G01*
X042176Y034394D02*
G03*
X042176Y034394I-00004J0D01*
G01*
X041176Y044394D02*
G03*
X041176Y044394I-00004J0D01*
G01*
X041676Y043394D02*
G03*
X041676Y043394I-00004J0D01*
G01*
X041176Y042394D02*
G03*
X041176Y042394I-00004J0D01*
G01*
X041676Y041394D02*
G03*
X041676Y041394I-00004J0D01*
G01*
X041176Y040394D02*
G03*
X041176Y040394I-00004J0D01*
G01*
X041676Y039394D02*
G03*
X041676Y039394I-00004J0D01*
G01*
X041176Y038394D02*
G03*
X041176Y038394I-00004J0D01*
G01*
X041676Y037394D02*
G03*
X041676Y037394I-00004J0D01*
G01*
X041176Y036394D02*
G03*
X041176Y036394I-00004J0D01*
G01*
X041676Y035394D02*
G03*
X041676Y035394I-00004J0D01*
G01*
X041176Y034394D02*
G03*
X041176Y034394I-00004J0D01*
G01*
X041676Y031394D02*
G03*
X041676Y031394I-00004J0D01*
G01*
X040676Y043394D02*
G03*
X040676Y043394I-00004J0D01*
G01*
Y041394D02*
G03*
X040676Y041394I-00004J0D01*
G01*
X040176Y040394D02*
G03*
X040176Y040394I-00004J0D01*
G01*
X040676Y039394D02*
G03*
X040676Y039394I-00004J0D01*
G01*
X040176Y038394D02*
G03*
X040176Y038394I-00004J0D01*
G01*
X040676Y037394D02*
G03*
X040676Y037394I-00004J0D01*
G01*
X040176Y036394D02*
G03*
X040176Y036394I-00004J0D01*
G01*
X040676Y035394D02*
G03*
X040676Y035394I-00004J0D01*
G01*
X040176Y034394D02*
G03*
X040176Y034394I-00004J0D01*
G01*
Y032394D02*
G03*
X040176Y032394I-00004J0D01*
G01*
X040676Y031394D02*
G03*
X040676Y031394I-00004J0D01*
G01*
X039176Y044394D02*
G03*
X039176Y044394I-00004J0D01*
G01*
X039676Y043394D02*
G03*
X039676Y043394I-00004J0D01*
G01*
X039176Y042394D02*
G03*
X039176Y042394I-00004J0D01*
G01*
X039676Y041394D02*
G03*
X039676Y041394I-00004J0D01*
G01*
X039176Y040394D02*
G03*
X039176Y040394I-00004J0D01*
G01*
X039676Y039394D02*
G03*
X039676Y039394I-00004J0D01*
G01*
X039176Y038394D02*
G03*
X039176Y038394I-00004J0D01*
G01*
X039676Y037394D02*
G03*
X039676Y037394I-00004J0D01*
G01*
X039176Y036394D02*
G03*
X039176Y036394I-00004J0D01*
G01*
X039676Y035394D02*
G03*
X039676Y035394I-00004J0D01*
G01*
Y033394D02*
G03*
X039676Y033394I-00004J0D01*
G01*
X039176Y032394D02*
G03*
X039176Y032394I-00004J0D01*
G01*
X039676Y031394D02*
G03*
X039676Y031394I-00004J0D01*
G01*
X038676Y039394D02*
G03*
X038676Y039394I-00004J0D01*
G01*
X038176Y038394D02*
G03*
X038176Y038394I-00004J0D01*
G01*
X038676Y037394D02*
G03*
X038676Y037394I-00004J0D01*
G01*
X038176Y036394D02*
G03*
X038176Y036394I-00004J0D01*
G01*
X038676Y033394D02*
G03*
X038676Y033394I-00004J0D01*
G01*
X037176Y046394D02*
G03*
X037176Y046394I-00004J0D01*
G01*
X037676Y039394D02*
G03*
X037676Y039394I-00004J0D01*
G01*
Y037394D02*
G03*
X037676Y037394I-00004J0D01*
G01*
Y035394D02*
G03*
X037676Y035394I-00004J0D01*
G01*
Y033394D02*
G03*
X037676Y033394I-00004J0D01*
G01*
X037176Y032394D02*
G03*
X037176Y032394I-00004J0D01*
G01*
X037676Y031394D02*
G03*
X037676Y031394I-00004J0D01*
G01*
X036676Y045394D02*
G03*
X036676Y045394I-00004J0D01*
G01*
X036176Y042394D02*
G03*
X036176Y042394I-00004J0D01*
G01*
X036676Y039394D02*
G03*
X036676Y039394I-00004J0D01*
G01*
X036176Y038394D02*
G03*
X036176Y038394I-00004J0D01*
G01*
Y036394D02*
G03*
X036176Y036394I-00004J0D01*
G01*
X036676Y035394D02*
G03*
X036676Y035394I-00004J0D01*
G01*
Y033394D02*
G03*
X036676Y033394I-00004J0D01*
G01*
X036176Y032394D02*
G03*
X036176Y032394I-00004J0D01*
G01*
X036676Y031394D02*
G03*
X036676Y031394I-00004J0D01*
G01*
X035676Y041394D02*
G03*
X035676Y041394I-00004J0D01*
G01*
X035176Y040394D02*
G03*
X035176Y040394I-00004J0D01*
G01*
X035676Y037394D02*
G03*
X035676Y037394I-00004J0D01*
G01*
X035176Y036394D02*
G03*
X035176Y036394I-00004J0D01*
G01*
X035676Y035394D02*
G03*
X035676Y035394I-00004J0D01*
G01*
Y033394D02*
G03*
X035676Y033394I-00004J0D01*
G01*
X035176Y032394D02*
G03*
X035176Y032394I-00004J0D01*
G01*
X035676Y031394D02*
G03*
X035676Y031394I-00004J0D01*
G01*
X034176Y044394D02*
G03*
X034176Y044394I-00004J0D01*
G01*
X034676Y041394D02*
G03*
X034676Y041394I-00004J0D01*
G01*
X034176Y040394D02*
G03*
X034176Y040394I-00004J0D01*
G01*
Y038394D02*
G03*
X034176Y038394I-00004J0D01*
G01*
X034676Y037394D02*
G03*
X034676Y037394I-00004J0D01*
G01*
X034176Y036394D02*
G03*
X034176Y036394I-00004J0D01*
G01*
X034676Y033394D02*
G03*
X034676Y033394I-00004J0D01*
G01*
X034176Y032394D02*
G03*
X034176Y032394I-00004J0D01*
G01*
X034676Y031394D02*
G03*
X034676Y031394I-00004J0D01*
G01*
X033176Y044394D02*
G03*
X033176Y044394I-00004J0D01*
G01*
Y042394D02*
G03*
X033176Y042394I-00004J0D01*
G01*
X033676Y041394D02*
G03*
X033676Y041394I-00004J0D01*
G01*
X033176Y036394D02*
G03*
X033176Y036394I-00004J0D01*
G01*
X033676Y033394D02*
G03*
X033676Y033394I-00004J0D01*
G01*
Y031394D02*
G03*
X033676Y031394I-00004J0D01*
G01*
X033176Y030394D02*
G03*
X033176Y030394I-00004J0D01*
G01*
X032176Y044394D02*
G03*
X032176Y044394I-00004J0D01*
G01*
Y042394D02*
G03*
X032176Y042394I-00004J0D01*
G01*
X032676Y037394D02*
G03*
X032676Y037394I-00004J0D01*
G01*
Y035394D02*
G03*
X032676Y035394I-00004J0D01*
G01*
Y033394D02*
G03*
X032676Y033394I-00004J0D01*
G01*
Y031394D02*
G03*
X032676Y031394I-00004J0D01*
G01*
X032176Y030394D02*
G03*
X032176Y030394I-00004J0D01*
G01*
X031676Y037394D02*
G03*
X031676Y037394I-00004J0D01*
G01*
Y035394D02*
G03*
X031676Y035394I-00004J0D01*
G01*
Y031394D02*
G03*
X031676Y031394I-00004J0D01*
G01*
X030676Y043394D02*
G03*
X030676Y043394I-00004J0D01*
G01*
X030176Y042394D02*
G03*
X030176Y042394I-00004J0D01*
G01*
Y040394D02*
G03*
X030176Y040394I-00004J0D01*
G01*
X030676Y037394D02*
G03*
X030676Y037394I-00004J0D01*
G01*
Y035394D02*
G03*
X030676Y035394I-00004J0D01*
G01*
Y033394D02*
G03*
X030676Y033394I-00004J0D01*
G01*
Y031394D02*
G03*
X030676Y031394I-00004J0D01*
G01*
X029676Y045394D02*
G03*
X029676Y045394I-00004J0D01*
G01*
Y043394D02*
G03*
X029676Y043394I-00004J0D01*
G01*
Y041394D02*
G03*
X029676Y041394I-00004J0D01*
G01*
Y039394D02*
G03*
X029676Y039394I-00004J0D01*
G01*
Y035394D02*
G03*
X029676Y035394I-00004J0D01*
G01*
Y033394D02*
G03*
X029676Y033394I-00004J0D01*
G01*
Y031394D02*
G03*
X029676Y031394I-00004J0D01*
G01*
X028676Y045394D02*
G03*
X028676Y045394I-00004J0D01*
G01*
Y043394D02*
G03*
X028676Y043394I-00004J0D01*
G01*
Y041394D02*
G03*
X028676Y041394I-00004J0D01*
G01*
Y039394D02*
G03*
X028676Y039394I-00004J0D01*
G01*
Y037394D02*
G03*
X028676Y037394I-00004J0D01*
G01*
X027176Y034394D02*
G03*
X027176Y034394I-00004J0D01*
G01*
Y032394D02*
G03*
X027176Y032394I-00004J0D01*
G01*
Y030394D02*
G03*
X027176Y030394I-00004J0D01*
G01*
X026676Y043394D02*
G03*
X026676Y043394I-00004J0D01*
G01*
X026176Y042394D02*
G03*
X026176Y042394I-00004J0D01*
G01*
Y038394D02*
G03*
X026176Y038394I-00004J0D01*
G01*
X026676Y037394D02*
G03*
X026676Y037394I-00004J0D01*
G01*
X026176Y036394D02*
G03*
X026176Y036394I-00004J0D01*
G01*
X026676Y035394D02*
G03*
X026676Y035394I-00004J0D01*
G01*
X026176Y034394D02*
G03*
X026176Y034394I-00004J0D01*
G01*
X026676Y033394D02*
G03*
X026676Y033394I-00004J0D01*
G01*
X026176Y032394D02*
G03*
X026176Y032394I-00004J0D01*
G01*
X026676Y031394D02*
G03*
X026676Y031394I-00004J0D01*
G01*
X026176Y030394D02*
G03*
X026176Y030394I-00004J0D01*
G01*
X025176Y042394D02*
G03*
X025176Y042394I-00004J0D01*
G01*
X025676Y041394D02*
G03*
X025676Y041394I-00004J0D01*
G01*
Y039394D02*
G03*
X025676Y039394I-00004J0D01*
G01*
X025176Y038394D02*
G03*
X025176Y038394I-00004J0D01*
G01*
X025676Y037394D02*
G03*
X025676Y037394I-00004J0D01*
G01*
Y035394D02*
G03*
X025676Y035394I-00004J0D01*
G01*
Y033394D02*
G03*
X025676Y033394I-00004J0D01*
G01*
X025176Y032394D02*
G03*
X025176Y032394I-00004J0D01*
G01*
X025676Y031394D02*
G03*
X025676Y031394I-00004J0D01*
G01*
X025176Y030394D02*
G03*
X025176Y030394I-00004J0D01*
G01*
X024176Y044394D02*
G03*
X024176Y044394I-00004J0D01*
G01*
Y042394D02*
G03*
X024176Y042394I-00004J0D01*
G01*
Y040394D02*
G03*
X024176Y040394I-00004J0D01*
G01*
X024676Y039394D02*
G03*
X024676Y039394I-00004J0D01*
G01*
X024176Y038394D02*
G03*
X024176Y038394I-00004J0D01*
G01*
X024676Y037394D02*
G03*
X024676Y037394I-00004J0D01*
G01*
X024176Y036394D02*
G03*
X024176Y036394I-00004J0D01*
G01*
Y034394D02*
G03*
X024176Y034394I-00004J0D01*
G01*
Y032394D02*
G03*
X024176Y032394I-00004J0D01*
G01*
Y030394D02*
G03*
X024176Y030394I-00004J0D01*
G01*
X023176Y046394D02*
G03*
X023176Y046394I-00004J0D01*
G01*
X023676Y045394D02*
G03*
X023676Y045394I-00004J0D01*
G01*
X023176Y044394D02*
G03*
X023176Y044394I-00004J0D01*
G01*
X023676Y043394D02*
G03*
X023676Y043394I-00004J0D01*
G01*
X023176Y042394D02*
G03*
X023176Y042394I-00004J0D01*
G01*
X023676Y041394D02*
G03*
X023676Y041394I-00004J0D01*
G01*
X023176Y040394D02*
G03*
X023176Y040394I-00004J0D01*
G01*
X023676Y039394D02*
G03*
X023676Y039394I-00004J0D01*
G01*
X023176Y038394D02*
G03*
X023176Y038394I-00004J0D01*
G01*
X023676Y037394D02*
G03*
X023676Y037394I-00004J0D01*
G01*
X023176Y036394D02*
G03*
X023176Y036394I-00004J0D01*
G01*
X023676Y035394D02*
G03*
X023676Y035394I-00004J0D01*
G01*
X023176Y034394D02*
G03*
X023176Y034394I-00004J0D01*
G01*
X023676Y033394D02*
G03*
X023676Y033394I-00004J0D01*
G01*
X023176Y032394D02*
G03*
X023176Y032394I-00004J0D01*
G01*
X023676Y031394D02*
G03*
X023676Y031394I-00004J0D01*
G01*
X023176Y030394D02*
G03*
X023176Y030394I-00004J0D01*
G01*
X025276Y045284D02*
G03*
X025276Y045284I-00004J0D01*
G01*
X032756Y032084D02*
G03*
X032756Y032084I-00004J0D01*
G01*
X033296Y032794D02*
G03*
X033296Y032794I-00004J0D01*
G01*
X029586Y032094D02*
G03*
X029586Y032094I-00004J0D01*
G01*
X029576Y035734D02*
G03*
X029576Y035734I-00004J0D01*
G01*
X032746Y035754D02*
G03*
X032746Y035754I-00004J0D01*
G01*
X031029Y043791D02*
G03*
X031029Y043791I-00004J0D01*
G01*
X031866Y043824D02*
G03*
X031866Y043824I-00004J0D01*
G01*
X023886Y043844D02*
G03*
X023886Y043844I-00004J0D01*
G01*
X026296Y043834D02*
G03*
X026296Y043834I-00004J0D01*
G01*
X031026Y038834D02*
G03*
X031026Y038834I-00004J0D01*
G01*
X032676Y044144D02*
G03*
X032676Y044144I-00004J0D01*
G01*
X028016Y030474D02*
G03*
X028016Y030474I-00004J0D01*
G01*
X042456Y032894D02*
G03*
X042456Y032894I-00004J0D01*
G01*
X036386Y044184D02*
G03*
X036386Y044184I-00004J0D01*
G01*
X037208Y039432D02*
G03*
X037208Y039432I-00004J0D01*
G01*
X035076Y036084D02*
G03*
X035076Y036084I-00004J0D01*
G01*
X032084Y038979D02*
G03*
X032084Y038979I-00004J0D01*
G01*
X032746Y038474D02*
G03*
X032746Y038474I-00004J0D01*
G01*
X031594Y040604D02*
G03*
X031594Y040604I-00004J0D01*
G01*
X037706Y040744D02*
G03*
X037706Y040744I-00004J0D01*
G01*
M02*
