G04*
G04 #@! TF.GenerationSoftware,Altium Limited,Altium Designer,21.9.2 (33)*
G04*
G04 Layer_Color=255*
%FSTAX24Y24*%
%MOIN*%
G70*
G04*
G04 #@! TF.SameCoordinates,6253CE77-86D3-43C4-916D-D03A74546D46*
G04*
G04*
G04 #@! TF.FilePolarity,Positive*
G04*
G01*
G75*
%ADD13R,0.0315X0.0374*%
%ADD26C,0.0394*%
%ADD27R,0.0591X0.0591*%
%ADD28C,0.0591*%
%ADD29R,0.0750X0.0750*%
%ADD30C,0.0750*%
%ADD31R,0.0630X0.0630*%
%ADD32C,0.0630*%
%ADD33C,0.0800*%
%ADD34R,0.0800X0.0800*%
%ADD35O,0.0650X0.0850*%
%ADD36R,0.0900X0.0900*%
%ADD37C,0.0900*%
D13*
X035392Y02685D02*
D03*
X034841D02*
D03*
X035392Y045554D02*
D03*
X034841D02*
D03*
D26*
X046519Y029063D02*
D03*
X046991D02*
D03*
X047464D02*
D03*
X047936D02*
D03*
X048409D02*
D03*
X046519Y029851D02*
D03*
X046991D02*
D03*
X047464D02*
D03*
X047936D02*
D03*
X048409D02*
D03*
X028802Y029063D02*
D03*
X029275D02*
D03*
X029747D02*
D03*
X03022D02*
D03*
X030692D02*
D03*
Y029851D02*
D03*
X03022D02*
D03*
X029747D02*
D03*
X029275D02*
D03*
X028802D02*
D03*
D27*
X045886Y01569D02*
D03*
Y034394D02*
D03*
D28*
X044886Y01569D02*
D03*
X043886D02*
D03*
X042886D02*
D03*
X045886Y01269D02*
D03*
X044886D02*
D03*
X043886D02*
D03*
X042886D02*
D03*
X044886Y034394D02*
D03*
X043886D02*
D03*
X042886D02*
D03*
X045886Y031394D02*
D03*
X044886D02*
D03*
X043886D02*
D03*
X042886D02*
D03*
D29*
X040236Y02554D02*
D03*
Y044244D02*
D03*
D30*
X042236Y02454D02*
D03*
X040236Y02354D02*
D03*
X029416Y02372D02*
D03*
Y02172D02*
D03*
X042236Y043244D02*
D03*
X040236Y042244D02*
D03*
X029416Y042424D02*
D03*
Y040424D02*
D03*
D31*
X025856Y02775D02*
D03*
X031636Y02774D02*
D03*
X036386D02*
D03*
X053136D02*
D03*
X025856Y046454D02*
D03*
X031636Y046444D02*
D03*
X036386D02*
D03*
X053136D02*
D03*
D32*
X024856Y02775D02*
D03*
X023856D02*
D03*
X029636Y02774D02*
D03*
X030636D02*
D03*
X028636D02*
D03*
X027636D02*
D03*
X033386D02*
D03*
X034386D02*
D03*
X035386D02*
D03*
X040136D02*
D03*
X041136D02*
D03*
X045136D02*
D03*
X048136D02*
D03*
X050136D02*
D03*
X052136D02*
D03*
X051136D02*
D03*
X049136D02*
D03*
X047136D02*
D03*
X046136D02*
D03*
X044136D02*
D03*
X043136D02*
D03*
X042136D02*
D03*
X039136D02*
D03*
X038136D02*
D03*
X024856Y046454D02*
D03*
X023856D02*
D03*
X029636Y046444D02*
D03*
X030636D02*
D03*
X028636D02*
D03*
X027636D02*
D03*
X033386D02*
D03*
X034386D02*
D03*
X035386D02*
D03*
X040136D02*
D03*
X041136D02*
D03*
X045136D02*
D03*
X048136D02*
D03*
X050136D02*
D03*
X052136D02*
D03*
X051136D02*
D03*
X049136D02*
D03*
X047136D02*
D03*
X046136D02*
D03*
X044136D02*
D03*
X043136D02*
D03*
X042136D02*
D03*
X039136D02*
D03*
X038136D02*
D03*
D33*
X024786Y01639D02*
D03*
Y013062D02*
D03*
X03842Y01589D02*
D03*
X024786Y035094D02*
D03*
Y031766D02*
D03*
X03842Y034594D02*
D03*
D34*
X024786Y017768D02*
D03*
Y01444D02*
D03*
X03842Y013103D02*
D03*
X024786Y036472D02*
D03*
Y033144D02*
D03*
X03842Y031807D02*
D03*
D35*
X042916Y01737D02*
D03*
X041916D02*
D03*
X042916Y036074D02*
D03*
X041916D02*
D03*
D36*
X048036Y02589D02*
D03*
Y044594D02*
D03*
D37*
Y01789D02*
D03*
Y036594D02*
D03*
M02*
