G04*
G04 #@! TF.GenerationSoftware,Altium Limited,Altium Designer,21.9.2 (33)*
G04*
G04 Layer_Color=255*
%FSTAX24Y24*%
%MOIN*%
G70*
G04*
G04 #@! TF.SameCoordinates,6253CE77-86D3-43C4-916D-D03A74546D46*
G04*
G04*
G04 #@! TF.FilePolarity,Positive*
G04*
G01*
G75*
%ADD10R,0.0315X0.0472*%
%ADD11R,0.0150X0.0150*%
%ADD12R,0.0374X0.0315*%
%ADD13R,0.0315X0.0374*%
%ADD14R,0.0472X0.0335*%
%ADD15R,0.0550X0.0500*%
%ADD16R,0.1264X0.0610*%
%ADD17R,0.0610X0.0827*%
%ADD18R,0.0394X0.0945*%
%ADD19R,0.1299X0.0945*%
G04:AMPARAMS|DCode=20|XSize=11mil|YSize=61.4mil|CornerRadius=2.8mil|HoleSize=0mil|Usage=FLASHONLY|Rotation=90.000|XOffset=0mil|YOffset=0mil|HoleType=Round|Shape=RoundedRectangle|*
%AMROUNDEDRECTD20*
21,1,0.0110,0.0559,0,0,90.0*
21,1,0.0055,0.0614,0,0,90.0*
1,1,0.0055,0.0280,0.0028*
1,1,0.0055,0.0280,-0.0028*
1,1,0.0055,-0.0280,-0.0028*
1,1,0.0055,-0.0280,0.0028*
%
%ADD20ROUNDEDRECTD20*%
G04:AMPARAMS|DCode=21|XSize=11mil|YSize=61.4mil|CornerRadius=2.8mil|HoleSize=0mil|Usage=FLASHONLY|Rotation=0.000|XOffset=0mil|YOffset=0mil|HoleType=Round|Shape=RoundedRectangle|*
%AMROUNDEDRECTD21*
21,1,0.0110,0.0559,0,0,0.0*
21,1,0.0055,0.0614,0,0,0.0*
1,1,0.0055,0.0028,-0.0280*
1,1,0.0055,-0.0028,-0.0280*
1,1,0.0055,-0.0028,0.0280*
1,1,0.0055,0.0028,0.0280*
%
%ADD21ROUNDEDRECTD21*%
%ADD22R,0.0433X0.0472*%
%ADD26C,0.0394*%
%ADD27R,0.0591X0.0591*%
%ADD28C,0.0591*%
%ADD29R,0.0750X0.0750*%
%ADD30C,0.0750*%
%ADD31R,0.0630X0.0630*%
%ADD32C,0.0630*%
%ADD33C,0.0800*%
%ADD34R,0.0800X0.0800*%
%ADD35O,0.0650X0.0850*%
%ADD36R,0.0900X0.0900*%
%ADD37C,0.0900*%
D10*
X025636Y024618D02*
D03*
Y021862D02*
D03*
Y043322D02*
D03*
Y040566D02*
D03*
D11*
X049656Y0122D02*
D03*
Y030904D02*
D03*
D12*
X041896Y013329D02*
D03*
Y01388D02*
D03*
X041899Y015034D02*
D03*
Y014483D02*
D03*
X037166Y020136D02*
D03*
Y019585D02*
D03*
X030989Y023001D02*
D03*
Y023552D02*
D03*
X026886Y022915D02*
D03*
Y023466D02*
D03*
X030989Y021855D02*
D03*
Y022406D02*
D03*
X030986Y020685D02*
D03*
Y021236D02*
D03*
X041896Y032033D02*
D03*
Y032584D02*
D03*
X041899Y033738D02*
D03*
Y033187D02*
D03*
X037166Y03884D02*
D03*
Y038289D02*
D03*
X030989Y041705D02*
D03*
Y042256D02*
D03*
X026886Y041619D02*
D03*
Y04217D02*
D03*
X030989Y040559D02*
D03*
Y04111D02*
D03*
X030986Y039389D02*
D03*
Y03994D02*
D03*
D13*
X034892Y01929D02*
D03*
X034341D02*
D03*
X033688D02*
D03*
X033136D02*
D03*
X035048Y01683D02*
D03*
X034496D02*
D03*
X025811Y02567D02*
D03*
X026362D02*
D03*
X025771Y026573D02*
D03*
X026322D02*
D03*
X036351Y02484D02*
D03*
X036902D02*
D03*
X032641D02*
D03*
X033192D02*
D03*
X033835D02*
D03*
X034386D02*
D03*
X034892Y037994D02*
D03*
X034341D02*
D03*
X033688D02*
D03*
X033136D02*
D03*
X035048Y035534D02*
D03*
X034496D02*
D03*
X025811Y044374D02*
D03*
X026362D02*
D03*
X025771Y045277D02*
D03*
X026322D02*
D03*
X036351Y043544D02*
D03*
X036902D02*
D03*
X032641D02*
D03*
X033192D02*
D03*
X033835D02*
D03*
X034386D02*
D03*
D14*
X035479Y01549D02*
D03*
X034496Y01512D02*
D03*
X034494Y015864D02*
D03*
X035479Y034194D02*
D03*
X034496Y033824D02*
D03*
X034494Y034568D02*
D03*
D15*
X028946Y01265D02*
D03*
Y01175D02*
D03*
X028936Y01704D02*
D03*
Y01794D02*
D03*
Y01339D02*
D03*
Y01429D02*
D03*
X033256Y01653D02*
D03*
Y01563D02*
D03*
X028946Y031354D02*
D03*
Y030454D02*
D03*
X028936Y035744D02*
D03*
Y036644D02*
D03*
Y032094D02*
D03*
Y032994D02*
D03*
X033256Y035234D02*
D03*
Y034334D02*
D03*
D16*
X027636Y013063D02*
D03*
Y014717D02*
D03*
Y031768D02*
D03*
Y033421D02*
D03*
D17*
Y016224D02*
D03*
Y017956D02*
D03*
Y034928D02*
D03*
Y036661D02*
D03*
D18*
X031992Y014282D02*
D03*
X031086D02*
D03*
X030181D02*
D03*
X031992Y017932D02*
D03*
X031086D02*
D03*
X030181D02*
D03*
X031992Y032986D02*
D03*
X031086D02*
D03*
X030181D02*
D03*
X031992Y036636D02*
D03*
X031086D02*
D03*
X030181D02*
D03*
D19*
X031086Y011998D02*
D03*
Y015648D02*
D03*
Y030703D02*
D03*
Y034353D02*
D03*
D20*
X033041Y023273D02*
D03*
Y023076D02*
D03*
Y022879D02*
D03*
Y022682D02*
D03*
Y022485D02*
D03*
Y022289D02*
D03*
Y022092D02*
D03*
Y021895D02*
D03*
Y021698D02*
D03*
Y021501D02*
D03*
Y021304D02*
D03*
Y021107D02*
D03*
X036332D02*
D03*
Y021304D02*
D03*
Y021501D02*
D03*
Y021698D02*
D03*
Y021895D02*
D03*
Y022092D02*
D03*
Y022289D02*
D03*
Y022485D02*
D03*
Y022682D02*
D03*
Y022879D02*
D03*
Y023076D02*
D03*
Y023273D02*
D03*
X033041Y041977D02*
D03*
Y04178D02*
D03*
Y041583D02*
D03*
Y041387D02*
D03*
Y04119D02*
D03*
Y040993D02*
D03*
Y040796D02*
D03*
Y040599D02*
D03*
Y040402D02*
D03*
Y040205D02*
D03*
Y040009D02*
D03*
Y039812D02*
D03*
X036332D02*
D03*
Y040009D02*
D03*
Y040205D02*
D03*
Y040402D02*
D03*
Y040599D02*
D03*
Y040796D02*
D03*
Y040993D02*
D03*
Y04119D02*
D03*
Y041387D02*
D03*
Y041583D02*
D03*
Y04178D02*
D03*
Y041977D02*
D03*
D21*
X033604Y020544D02*
D03*
X033801D02*
D03*
X033997D02*
D03*
X034194D02*
D03*
X034391D02*
D03*
X034588D02*
D03*
X034785D02*
D03*
X034982D02*
D03*
X035179D02*
D03*
X035375D02*
D03*
X035572D02*
D03*
X035769D02*
D03*
Y023836D02*
D03*
X035572D02*
D03*
X035375D02*
D03*
X035179D02*
D03*
X034982D02*
D03*
X034785D02*
D03*
X034588D02*
D03*
X034391D02*
D03*
X034194D02*
D03*
X033997D02*
D03*
X033801D02*
D03*
X033604D02*
D03*
Y039249D02*
D03*
X033801D02*
D03*
X033997D02*
D03*
X034194D02*
D03*
X034391D02*
D03*
X034588D02*
D03*
X034785D02*
D03*
X034982D02*
D03*
X035179D02*
D03*
X035375D02*
D03*
X035572D02*
D03*
X035769D02*
D03*
Y04254D02*
D03*
X035572D02*
D03*
X035375D02*
D03*
X035179D02*
D03*
X034982D02*
D03*
X034785D02*
D03*
X034588D02*
D03*
X034391D02*
D03*
X034194D02*
D03*
X033997D02*
D03*
X033801D02*
D03*
X033604D02*
D03*
D22*
X027253Y02567D02*
D03*
X02808D02*
D03*
X027246Y02657D02*
D03*
X028073D02*
D03*
X027253Y044374D02*
D03*
X02808D02*
D03*
X027246Y045274D02*
D03*
X028073D02*
D03*
D26*
X046519Y029063D02*
D03*
X046991D02*
D03*
X047464D02*
D03*
X047936D02*
D03*
X048409D02*
D03*
X046519Y029851D02*
D03*
X046991D02*
D03*
X047464D02*
D03*
X047936D02*
D03*
X048409D02*
D03*
X028802Y029063D02*
D03*
X029275D02*
D03*
X029747D02*
D03*
X03022D02*
D03*
X030692D02*
D03*
Y029851D02*
D03*
X03022D02*
D03*
X029747D02*
D03*
X029275D02*
D03*
X028802D02*
D03*
D27*
X045886Y01569D02*
D03*
Y034394D02*
D03*
D28*
X044886Y01569D02*
D03*
X043886D02*
D03*
X042886D02*
D03*
X045886Y01269D02*
D03*
X044886D02*
D03*
X043886D02*
D03*
X042886D02*
D03*
X044886Y034394D02*
D03*
X043886D02*
D03*
X042886D02*
D03*
X045886Y031394D02*
D03*
X044886D02*
D03*
X043886D02*
D03*
X042886D02*
D03*
D29*
X040236Y02554D02*
D03*
Y044244D02*
D03*
D30*
X042236Y02454D02*
D03*
X040236Y02354D02*
D03*
X029416Y02372D02*
D03*
Y02172D02*
D03*
X042236Y043244D02*
D03*
X040236Y042244D02*
D03*
X029416Y042424D02*
D03*
Y040424D02*
D03*
D31*
X025856Y02775D02*
D03*
X031636Y02774D02*
D03*
X036386D02*
D03*
X053136D02*
D03*
X025856Y046454D02*
D03*
X031636Y046444D02*
D03*
X036386D02*
D03*
X053136D02*
D03*
D32*
X024856Y02775D02*
D03*
X023856D02*
D03*
X029636Y02774D02*
D03*
X030636D02*
D03*
X028636D02*
D03*
X027636D02*
D03*
X033386D02*
D03*
X034386D02*
D03*
X035386D02*
D03*
X040136D02*
D03*
X041136D02*
D03*
X045136D02*
D03*
X048136D02*
D03*
X050136D02*
D03*
X052136D02*
D03*
X051136D02*
D03*
X049136D02*
D03*
X047136D02*
D03*
X046136D02*
D03*
X044136D02*
D03*
X043136D02*
D03*
X042136D02*
D03*
X039136D02*
D03*
X038136D02*
D03*
X024856Y046454D02*
D03*
X023856D02*
D03*
X029636Y046444D02*
D03*
X030636D02*
D03*
X028636D02*
D03*
X027636D02*
D03*
X033386D02*
D03*
X034386D02*
D03*
X035386D02*
D03*
X040136D02*
D03*
X041136D02*
D03*
X045136D02*
D03*
X048136D02*
D03*
X050136D02*
D03*
X052136D02*
D03*
X051136D02*
D03*
X049136D02*
D03*
X047136D02*
D03*
X046136D02*
D03*
X044136D02*
D03*
X043136D02*
D03*
X042136D02*
D03*
X039136D02*
D03*
X038136D02*
D03*
D33*
X024786Y01639D02*
D03*
Y013062D02*
D03*
X03842Y01589D02*
D03*
X024786Y035094D02*
D03*
Y031766D02*
D03*
X03842Y034594D02*
D03*
D34*
X024786Y017768D02*
D03*
Y01444D02*
D03*
X03842Y013103D02*
D03*
X024786Y036472D02*
D03*
Y033144D02*
D03*
X03842Y031807D02*
D03*
D35*
X042916Y01737D02*
D03*
X041916D02*
D03*
X042916Y036074D02*
D03*
X041916D02*
D03*
D36*
X048036Y02589D02*
D03*
Y044594D02*
D03*
D37*
Y01789D02*
D03*
Y036594D02*
D03*
M02*
