G04*
G04 #@! TF.GenerationSoftware,Altium Limited,Altium Designer,21.9.2 (33)*
G04*
G04 Layer_Color=128*
%FSTAX24Y24*%
%MOIN*%
G70*
G04*
G04 #@! TF.SameCoordinates,6253CE77-86D3-43C4-916D-D03A74546D46*
G04*
G04*
G04 #@! TF.FilePolarity,Positive*
G04*
G01*
G75*
%ADD75C,0.0020*%
D75*
X046322Y029063D02*
X046716D01*
X046519Y028867D02*
Y02926D01*
X046794Y029063D02*
X047188D01*
X046991Y028867D02*
Y02926D01*
X047267Y029063D02*
X047661D01*
X047464Y028867D02*
Y02926D01*
X047739Y029063D02*
X048133D01*
X047936Y028867D02*
Y02926D01*
X048212Y029063D02*
X048606D01*
X048409Y028867D02*
Y02926D01*
X046322Y029851D02*
X046716D01*
X046519Y029654D02*
Y030048D01*
X046794Y029851D02*
X047188D01*
X046991Y029654D02*
Y030048D01*
X047267Y029851D02*
X047661D01*
X047464Y029654D02*
Y030048D01*
X047739Y029851D02*
X048133D01*
X047936Y029654D02*
Y030048D01*
X048212Y029851D02*
X048606D01*
X048409Y029654D02*
Y030048D01*
X028606Y029063D02*
X028999D01*
X028802Y028867D02*
Y02926D01*
X029078Y029063D02*
X029472D01*
X029275Y028867D02*
Y02926D01*
X02955Y029063D02*
X029944D01*
X029747Y028867D02*
Y02926D01*
X030023Y029063D02*
X030417D01*
X03022Y028867D02*
Y02926D01*
X030495Y029063D02*
X030889D01*
X030692Y028867D02*
Y02926D01*
X030495Y029851D02*
X030889D01*
X030692Y029654D02*
Y030048D01*
X030023Y029851D02*
X030417D01*
X03022Y029654D02*
Y030048D01*
X02955Y029851D02*
X029944D01*
X029747Y029654D02*
Y030048D01*
X029078Y029851D02*
X029472D01*
X029275Y029654D02*
Y030048D01*
X028606Y029851D02*
X028999D01*
X028802Y029654D02*
Y030048D01*
X045709Y01569D02*
X046064D01*
X045886Y015513D02*
Y015867D01*
X044709Y01569D02*
X045064D01*
X044886Y015513D02*
Y015867D01*
X043709Y01569D02*
X044064D01*
X043886Y015513D02*
Y015867D01*
X042709Y01569D02*
X043064D01*
X042886Y015513D02*
Y015867D01*
X045709Y01269D02*
X046064D01*
X045886Y012513D02*
Y012867D01*
X044709Y01269D02*
X045064D01*
X044886Y012513D02*
Y012867D01*
X043709Y01269D02*
X044064D01*
X043886Y012513D02*
Y012867D01*
X042709Y01269D02*
X043064D01*
X042886Y012513D02*
Y012867D01*
X040061Y02554D02*
X040411D01*
X040236Y025365D02*
Y025715D01*
X042061Y02454D02*
X042411D01*
X042236Y024365D02*
Y024715D01*
X040061Y02354D02*
X040411D01*
X040236Y023365D02*
Y023715D01*
X02564Y02775D02*
X026073D01*
X025856Y027534D02*
Y027967D01*
X02464Y02775D02*
X025073D01*
X024856Y027534D02*
Y027967D01*
X02364Y02775D02*
X024073D01*
X023856Y027534D02*
Y027967D01*
X02942Y02774D02*
X029853D01*
X029636Y027524D02*
Y027957D01*
X03142Y02774D02*
X031853D01*
X031636Y027524D02*
Y027957D01*
X03042Y02774D02*
X030853D01*
X030636Y027524D02*
Y027957D01*
X02842Y02774D02*
X028853D01*
X028636Y027524D02*
Y027957D01*
X02742Y02774D02*
X027853D01*
X027636Y027524D02*
Y027957D01*
X03317Y02774D02*
X033603D01*
X033386Y027524D02*
Y027957D01*
X03417Y02774D02*
X034603D01*
X034386Y027524D02*
Y027957D01*
X03617Y02774D02*
X036603D01*
X036386Y027524D02*
Y027957D01*
X03517Y02774D02*
X035603D01*
X035386Y027524D02*
Y027957D01*
X03992Y02774D02*
X040353D01*
X040136Y027524D02*
Y027957D01*
X04092Y02774D02*
X041353D01*
X041136Y027524D02*
Y027957D01*
X04492Y02774D02*
X045353D01*
X045136Y027524D02*
Y027957D01*
X04792Y02774D02*
X048353D01*
X048136Y027524D02*
Y027957D01*
X04992Y02774D02*
X050353D01*
X050136Y027524D02*
Y027957D01*
X05192Y02774D02*
X052353D01*
X052136Y027524D02*
Y027957D01*
X05292Y02774D02*
X053353D01*
X053136Y027524D02*
Y027957D01*
X05092Y02774D02*
X051353D01*
X051136Y027524D02*
Y027957D01*
X04892Y02774D02*
X049353D01*
X049136Y027524D02*
Y027957D01*
X04692Y02774D02*
X047353D01*
X047136Y027524D02*
Y027957D01*
X04592Y02774D02*
X046353D01*
X046136Y027524D02*
Y027957D01*
X04392Y02774D02*
X044353D01*
X044136Y027524D02*
Y027957D01*
X04292Y02774D02*
X043353D01*
X043136Y027524D02*
Y027957D01*
X04192Y02774D02*
X042353D01*
X042136Y027524D02*
Y027957D01*
X03892Y02774D02*
X039353D01*
X039136Y027524D02*
Y027957D01*
X03792Y02774D02*
X038353D01*
X038136Y027524D02*
Y027957D01*
X024561Y01639D02*
X025011D01*
X024786Y016165D02*
Y016615D01*
X024561Y017768D02*
X025011D01*
X024786Y017543D02*
Y017993D01*
X024561Y013062D02*
X025011D01*
X024786Y012837D02*
Y013287D01*
X024561Y01444D02*
X025011D01*
X024786Y014215D02*
Y014665D01*
X042761Y01737D02*
X043071D01*
X042916Y017215D02*
Y017525D01*
X041761Y01737D02*
X042071D01*
X041916Y017215D02*
Y017525D01*
X03824Y01589D02*
X0386D01*
X03842Y01571D02*
Y01607D01*
X03824Y013103D02*
X0386D01*
X03842Y012923D02*
Y013283D01*
X047736Y02589D02*
X048336D01*
X048036Y02559D02*
Y02619D01*
X047736Y01789D02*
X048336D01*
X048036Y01759D02*
Y01819D01*
X029246Y02372D02*
X029586D01*
X029416Y02355D02*
Y02389D01*
X029246Y02172D02*
X029586D01*
X029416Y02155D02*
Y02189D01*
X053577Y02669D02*
X053696D01*
X053636Y026631D02*
Y026749D01*
X053077Y02569D02*
X053196D01*
X053136Y025631D02*
Y025749D01*
X053577Y02469D02*
X053696D01*
X053636Y024631D02*
Y024749D01*
X053077Y02369D02*
X053196D01*
X053136Y023631D02*
Y023749D01*
X053577Y02269D02*
X053696D01*
X053636Y022631D02*
Y022749D01*
X053077Y02169D02*
X053196D01*
X053136Y021631D02*
Y021749D01*
X053577Y02069D02*
X053696D01*
X053636Y020631D02*
Y020749D01*
X053077Y01969D02*
X053196D01*
X053136Y019631D02*
Y019749D01*
X053577Y01869D02*
X053696D01*
X053636Y018631D02*
Y018749D01*
X053077Y01769D02*
X053196D01*
X053136Y017631D02*
Y017749D01*
X053577Y01669D02*
X053696D01*
X053636Y016631D02*
Y016749D01*
X053077Y01569D02*
X053196D01*
X053136Y015631D02*
Y015749D01*
X053577Y01469D02*
X053696D01*
X053636Y014631D02*
Y014749D01*
X053077Y01369D02*
X053196D01*
X053136Y013631D02*
Y013749D01*
X053577Y01269D02*
X053696D01*
X053636Y012631D02*
Y012749D01*
X053077Y01169D02*
X053196D01*
X053136Y011631D02*
Y011749D01*
X052577Y02669D02*
X052695D01*
X052636Y026631D02*
Y026749D01*
X052577Y02469D02*
X052695D01*
X052636Y024631D02*
Y024749D01*
X052577Y02269D02*
X052695D01*
X052636Y022631D02*
Y022749D01*
X052577Y02069D02*
X052695D01*
X052636Y020631D02*
Y020749D01*
X052577Y01869D02*
X052695D01*
X052636Y018631D02*
Y018749D01*
X052577Y01669D02*
X052695D01*
X052636Y016631D02*
Y016749D01*
X052577Y01469D02*
X052695D01*
X052636Y014631D02*
Y014749D01*
X052577Y01269D02*
X052695D01*
X052636Y012631D02*
Y012749D01*
X052077Y01169D02*
X052196D01*
X052136Y011631D02*
Y011749D01*
X051077Y02569D02*
X051196D01*
X051136Y025631D02*
Y025749D01*
X051577Y02469D02*
X051695D01*
X051636Y024631D02*
Y024749D01*
X051077Y02369D02*
X051196D01*
X051136Y023631D02*
Y023749D01*
X051577Y02269D02*
X051695D01*
X051636Y022631D02*
Y022749D01*
X051077Y02169D02*
X051196D01*
X051136Y021631D02*
Y021749D01*
X051577Y02069D02*
X051695D01*
X051636Y020631D02*
Y020749D01*
X051077Y01969D02*
X051196D01*
X051136Y019631D02*
Y019749D01*
X051577Y01869D02*
X051695D01*
X051636Y018631D02*
Y018749D01*
X051077Y01769D02*
X051196D01*
X051136Y017631D02*
Y017749D01*
X051577Y01669D02*
X051695D01*
X051636Y016631D02*
Y016749D01*
X051077Y01569D02*
X051196D01*
X051136Y015631D02*
Y015749D01*
X051577Y01469D02*
X051695D01*
X051636Y014631D02*
Y014749D01*
X051577Y01269D02*
X051695D01*
X051636Y012631D02*
Y012749D01*
X051077Y01169D02*
X051196D01*
X051136Y011631D02*
Y011749D01*
X050077Y02569D02*
X050195D01*
X050136Y025631D02*
Y025749D01*
X050577Y02469D02*
X050696D01*
X050636Y024631D02*
Y024749D01*
X050077Y02369D02*
X050195D01*
X050136Y023631D02*
Y023749D01*
X050577Y02269D02*
X050696D01*
X050636Y022631D02*
Y022749D01*
X050077Y02169D02*
X050195D01*
X050136Y021631D02*
Y021749D01*
X050577Y02069D02*
X050696D01*
X050636Y020631D02*
Y020749D01*
X050077Y01969D02*
X050195D01*
X050136Y019631D02*
Y019749D01*
X050577Y01869D02*
X050696D01*
X050636Y018631D02*
Y018749D01*
X050077Y01769D02*
X050195D01*
X050136Y017631D02*
Y017749D01*
X050577Y01669D02*
X050696D01*
X050636Y016631D02*
Y016749D01*
X050077Y01569D02*
X050195D01*
X050136Y015631D02*
Y015749D01*
X050577Y01469D02*
X050696D01*
X050636Y014631D02*
Y014749D01*
X050077Y01369D02*
X050195D01*
X050136Y013631D02*
Y013749D01*
X049077Y02569D02*
X049195D01*
X049136Y025631D02*
Y025749D01*
X049577Y02469D02*
X049696D01*
X049636Y024631D02*
Y024749D01*
X049077Y02369D02*
X049195D01*
X049136Y023631D02*
Y023749D01*
X049577Y02269D02*
X049696D01*
X049636Y022631D02*
Y022749D01*
X049077Y02169D02*
X049195D01*
X049136Y021631D02*
Y021749D01*
X049577Y02069D02*
X049696D01*
X049636Y020631D02*
Y020749D01*
X049077Y01969D02*
X049195D01*
X049136Y019631D02*
Y019749D01*
X049577Y01869D02*
X049696D01*
X049636Y018631D02*
Y018749D01*
X049077Y01769D02*
X049195D01*
X049136Y017631D02*
Y017749D01*
X049577Y01669D02*
X049696D01*
X049636Y016631D02*
Y016749D01*
X049077Y01569D02*
X049195D01*
X049136Y015631D02*
Y015749D01*
X049577Y01469D02*
X049696D01*
X049636Y014631D02*
Y014749D01*
X049077Y01369D02*
X049195D01*
X049136Y013631D02*
Y013749D01*
X049577Y01269D02*
X049696D01*
X049636Y012631D02*
Y012749D01*
X048577Y02469D02*
X048696D01*
X048636Y024631D02*
Y024749D01*
X048077Y02369D02*
X048196D01*
X048136Y023631D02*
Y023749D01*
X048577Y02269D02*
X048696D01*
X048636Y022631D02*
Y022749D01*
X048077Y02169D02*
X048196D01*
X048136Y021631D02*
Y021749D01*
X048577Y02069D02*
X048696D01*
X048636Y020631D02*
Y020749D01*
X048077Y01969D02*
X048196D01*
X048136Y019631D02*
Y019749D01*
X048577Y01869D02*
X048696D01*
X048636Y018631D02*
Y018749D01*
X048577Y01669D02*
X048696D01*
X048636Y016631D02*
Y016749D01*
X048077Y01569D02*
X048196D01*
X048136Y015631D02*
Y015749D01*
X048577Y01469D02*
X048696D01*
X048636Y014631D02*
Y014749D01*
X048077Y01369D02*
X048196D01*
X048136Y013631D02*
Y013749D01*
X048577Y01269D02*
X048696D01*
X048636Y012631D02*
Y012749D01*
X047077Y02569D02*
X047196D01*
X047136Y025631D02*
Y025749D01*
X047577Y02469D02*
X047695D01*
X047636Y024631D02*
Y024749D01*
X047077Y02369D02*
X047196D01*
X047136Y023631D02*
Y023749D01*
X047577Y02269D02*
X047695D01*
X047636Y022631D02*
Y022749D01*
X047077Y02169D02*
X047196D01*
X047136Y021631D02*
Y021749D01*
X047577Y02069D02*
X047695D01*
X047636Y020631D02*
Y020749D01*
X047077Y01969D02*
X047196D01*
X047136Y019631D02*
Y019749D01*
X047577Y01869D02*
X047695D01*
X047636Y018631D02*
Y018749D01*
X047077Y01769D02*
X047196D01*
X047136Y017631D02*
Y017749D01*
X047577Y01669D02*
X047695D01*
X047636Y016631D02*
Y016749D01*
X047077Y01569D02*
X047196D01*
X047136Y015631D02*
Y015749D01*
X047577Y01469D02*
X047695D01*
X047636Y014631D02*
Y014749D01*
X047077Y01369D02*
X047196D01*
X047136Y013631D02*
Y013749D01*
X047577Y01269D02*
X047695D01*
X047636Y012631D02*
Y012749D01*
X046077Y02569D02*
X046196D01*
X046136Y025631D02*
Y025749D01*
X046577Y02269D02*
X046695D01*
X046636Y022631D02*
Y022749D01*
X046077Y02169D02*
X046196D01*
X046136Y021631D02*
Y021749D01*
X046577Y02069D02*
X046695D01*
X046636Y020631D02*
Y020749D01*
X046077Y01969D02*
X046196D01*
X046136Y019631D02*
Y019749D01*
X046577Y01869D02*
X046695D01*
X046636Y018631D02*
Y018749D01*
X046077Y01769D02*
X046196D01*
X046136Y017631D02*
Y017749D01*
X046577Y01669D02*
X046695D01*
X046636Y016631D02*
Y016749D01*
X046577Y01469D02*
X046695D01*
X046636Y014631D02*
Y014749D01*
X046077Y01369D02*
X046196D01*
X046136Y013631D02*
Y013749D01*
X046577Y01269D02*
X046695D01*
X046636Y012631D02*
Y012749D01*
X045077Y02569D02*
X045195D01*
X045136Y025631D02*
Y025749D01*
X045577Y02469D02*
X045696D01*
X045636Y024631D02*
Y024749D01*
X045077Y02369D02*
X045195D01*
X045136Y023631D02*
Y023749D01*
X045577Y02269D02*
X045696D01*
X045636Y022631D02*
Y022749D01*
X045077Y02169D02*
X045195D01*
X045136Y021631D02*
Y021749D01*
X045577Y02069D02*
X045696D01*
X045636Y020631D02*
Y020749D01*
X045077Y01969D02*
X045195D01*
X045136Y019631D02*
Y019749D01*
X045577Y01869D02*
X045696D01*
X045636Y018631D02*
Y018749D01*
X045077Y01769D02*
X045195D01*
X045136Y017631D02*
Y017749D01*
X045577Y01669D02*
X045696D01*
X045636Y016631D02*
Y016749D01*
X045577Y01469D02*
X045696D01*
X045636Y014631D02*
Y014749D01*
X045077Y01369D02*
X045195D01*
X045136Y013631D02*
Y013749D01*
X044077Y02569D02*
X044195D01*
X044136Y025631D02*
Y025749D01*
X044577Y02469D02*
X044696D01*
X044636Y024631D02*
Y024749D01*
X044077Y02369D02*
X044195D01*
X044136Y023631D02*
Y023749D01*
X044577Y02069D02*
X044696D01*
X044636Y020631D02*
Y020749D01*
X044577Y01869D02*
X044696D01*
X044636Y018631D02*
Y018749D01*
X044577Y01469D02*
X044696D01*
X044636Y014631D02*
Y014749D01*
X044077Y01369D02*
X044195D01*
X044136Y013631D02*
Y013749D01*
X043077Y02569D02*
X043196D01*
X043136Y025631D02*
Y025749D01*
X043577Y02469D02*
X043696D01*
X043636Y024631D02*
Y024749D01*
X043077Y02369D02*
X043196D01*
X043136Y023631D02*
Y023749D01*
X043577Y02269D02*
X043696D01*
X043636Y022631D02*
Y022749D01*
X043077Y02169D02*
X043196D01*
X043136Y021631D02*
Y021749D01*
X043077Y01969D02*
X043196D01*
X043136Y019631D02*
Y019749D01*
X043577Y01469D02*
X043696D01*
X043636Y014631D02*
Y014749D01*
X042077Y02369D02*
X042196D01*
X042136Y023631D02*
Y023749D01*
X042577Y02269D02*
X042695D01*
X042636Y022631D02*
Y022749D01*
X042077Y02169D02*
X042196D01*
X042136Y021631D02*
Y021749D01*
X042577Y02069D02*
X042695D01*
X042636Y020631D02*
Y020749D01*
X042077Y01969D02*
X042196D01*
X042136Y019631D02*
Y019749D01*
X042577Y01869D02*
X042695D01*
X042636Y018631D02*
Y018749D01*
X042077Y01569D02*
X042196D01*
X042136Y015631D02*
Y015749D01*
X041077Y02569D02*
X041196D01*
X041136Y025631D02*
Y025749D01*
X041577Y02469D02*
X041695D01*
X041636Y024631D02*
Y024749D01*
X041077Y02369D02*
X041196D01*
X041136Y023631D02*
Y023749D01*
X041577Y02269D02*
X041695D01*
X041636Y022631D02*
Y022749D01*
X041077Y02169D02*
X041196D01*
X041136Y021631D02*
Y021749D01*
X041577Y02069D02*
X041695D01*
X041636Y020631D02*
Y020749D01*
X041077Y01969D02*
X041196D01*
X041136Y019631D02*
Y019749D01*
X041577Y01869D02*
X041695D01*
X041636Y018631D02*
Y018749D01*
X041077Y01769D02*
X041196D01*
X041136Y017631D02*
Y017749D01*
X041577Y01669D02*
X041695D01*
X041636Y016631D02*
Y016749D01*
X041077Y01569D02*
X041196D01*
X041136Y015631D02*
Y015749D01*
X041577Y01269D02*
X041695D01*
X041636Y012631D02*
Y012749D01*
X040577Y02469D02*
X040696D01*
X040636Y024631D02*
Y024749D01*
X040577Y02269D02*
X040696D01*
X040636Y022631D02*
Y022749D01*
X040077Y02169D02*
X040195D01*
X040136Y021631D02*
Y021749D01*
X040577Y02069D02*
X040696D01*
X040636Y020631D02*
Y020749D01*
X040077Y01969D02*
X040195D01*
X040136Y019631D02*
Y019749D01*
X040577Y01869D02*
X040696D01*
X040636Y018631D02*
Y018749D01*
X040077Y01769D02*
X040195D01*
X040136Y017631D02*
Y017749D01*
X040577Y01669D02*
X040696D01*
X040636Y016631D02*
Y016749D01*
X040077Y01569D02*
X040195D01*
X040136Y015631D02*
Y015749D01*
X040077Y01369D02*
X040195D01*
X040136Y013631D02*
Y013749D01*
X040577Y01269D02*
X040696D01*
X040636Y012631D02*
Y012749D01*
X039077Y02569D02*
X039195D01*
X039136Y025631D02*
Y025749D01*
X039577Y02469D02*
X039695D01*
X039636Y024631D02*
Y024749D01*
X039077Y02369D02*
X039195D01*
X039136Y023631D02*
Y023749D01*
X039577Y02269D02*
X039695D01*
X039636Y022631D02*
Y022749D01*
X039077Y02169D02*
X039195D01*
X039136Y021631D02*
Y021749D01*
X039577Y02069D02*
X039695D01*
X039636Y020631D02*
Y020749D01*
X039077Y01969D02*
X039195D01*
X039136Y019631D02*
Y019749D01*
X039577Y01869D02*
X039695D01*
X039636Y018631D02*
Y018749D01*
X039077Y01769D02*
X039195D01*
X039136Y017631D02*
Y017749D01*
X039577Y01669D02*
X039695D01*
X039636Y016631D02*
Y016749D01*
X039577Y01469D02*
X039695D01*
X039636Y014631D02*
Y014749D01*
X039077Y01369D02*
X039195D01*
X039136Y013631D02*
Y013749D01*
X039577Y01269D02*
X039695D01*
X039636Y012631D02*
Y012749D01*
X038577Y02069D02*
X038695D01*
X038636Y020631D02*
Y020749D01*
X038077Y01969D02*
X038196D01*
X038136Y019631D02*
Y019749D01*
X038577Y01869D02*
X038695D01*
X038636Y018631D02*
Y018749D01*
X038077Y01769D02*
X038196D01*
X038136Y017631D02*
Y017749D01*
X038577Y01469D02*
X038695D01*
X038636Y014631D02*
Y014749D01*
X037077Y02769D02*
X037195D01*
X037136Y027631D02*
Y027749D01*
X037577Y02069D02*
X037696D01*
X037636Y020631D02*
Y020749D01*
X037577Y01869D02*
X037696D01*
X037636Y018631D02*
Y018749D01*
X037577Y01669D02*
X037696D01*
X037636Y016631D02*
Y016749D01*
X037577Y01469D02*
X037696D01*
X037636Y014631D02*
Y014749D01*
X037077Y01369D02*
X037195D01*
X037136Y013631D02*
Y013749D01*
X037577Y01269D02*
X037696D01*
X037636Y012631D02*
Y012749D01*
X036577Y02669D02*
X036695D01*
X036636Y026631D02*
Y026749D01*
X036077Y02369D02*
X036195D01*
X036136Y023631D02*
Y023749D01*
X036577Y02069D02*
X036695D01*
X036636Y020631D02*
Y020749D01*
X036077Y01969D02*
X036195D01*
X036136Y019631D02*
Y019749D01*
X036077Y01769D02*
X036195D01*
X036136Y017631D02*
Y017749D01*
X036577Y01669D02*
X036695D01*
X036636Y016631D02*
Y016749D01*
X036577Y01469D02*
X036695D01*
X036636Y014631D02*
Y014749D01*
X036077Y01369D02*
X036195D01*
X036136Y013631D02*
Y013749D01*
X036577Y01269D02*
X036695D01*
X036636Y012631D02*
Y012749D01*
X035577Y02269D02*
X035696D01*
X035636Y022631D02*
Y022749D01*
X035077Y02169D02*
X035196D01*
X035136Y021631D02*
Y021749D01*
X035577Y01869D02*
X035696D01*
X035636Y018631D02*
Y018749D01*
X035077Y01769D02*
X035196D01*
X035136Y017631D02*
Y017749D01*
X035577Y01669D02*
X035696D01*
X035636Y016631D02*
Y016749D01*
X035577Y01469D02*
X035696D01*
X035636Y014631D02*
Y014749D01*
X035077Y01369D02*
X035196D01*
X035136Y013631D02*
Y013749D01*
X035577Y01269D02*
X035696D01*
X035636Y012631D02*
Y012749D01*
X034077Y02569D02*
X034195D01*
X034136Y025631D02*
Y025749D01*
X034577Y02269D02*
X034695D01*
X034636Y022631D02*
Y022749D01*
X034077Y02169D02*
X034195D01*
X034136Y021631D02*
Y021749D01*
X034077Y01969D02*
X034195D01*
X034136Y019631D02*
Y019749D01*
X034577Y01869D02*
X034695D01*
X034636Y018631D02*
Y018749D01*
X034077Y01769D02*
X034195D01*
X034136Y017631D02*
Y017749D01*
X034577Y01469D02*
X034695D01*
X034636Y014631D02*
Y014749D01*
X034077Y01369D02*
X034195D01*
X034136Y013631D02*
Y013749D01*
X034577Y01269D02*
X034695D01*
X034636Y012631D02*
Y012749D01*
X033077Y02569D02*
X033196D01*
X033136Y025631D02*
Y025749D01*
X033077Y02369D02*
X033196D01*
X033136Y023631D02*
Y023749D01*
X033577Y02269D02*
X033695D01*
X033636Y022631D02*
Y022749D01*
X033077Y01769D02*
X033196D01*
X033136Y017631D02*
Y017749D01*
X033577Y01469D02*
X033695D01*
X033636Y014631D02*
Y014749D01*
X033577Y01269D02*
X033695D01*
X033636Y012631D02*
Y012749D01*
X033077Y01169D02*
X033196D01*
X033136Y011631D02*
Y011749D01*
X032077Y02569D02*
X032195D01*
X032136Y025631D02*
Y025749D01*
X032077Y02369D02*
X032195D01*
X032136Y023631D02*
Y023749D01*
X032577Y01869D02*
X032696D01*
X032636Y018631D02*
Y018749D01*
X032577Y01669D02*
X032696D01*
X032636Y016631D02*
Y016749D01*
X032577Y01469D02*
X032696D01*
X032636Y014631D02*
Y014749D01*
X032577Y01269D02*
X032696D01*
X032636Y012631D02*
Y012749D01*
X032077Y01169D02*
X032195D01*
X032136Y011631D02*
Y011749D01*
X031577Y01869D02*
X031695D01*
X031636Y018631D02*
Y018749D01*
X031577Y01669D02*
X031695D01*
X031636Y016631D02*
Y016749D01*
X031577Y01269D02*
X031695D01*
X031636Y012631D02*
Y012749D01*
X030577Y02469D02*
X030696D01*
X030636Y024631D02*
Y024749D01*
X030077Y02369D02*
X030196D01*
X030136Y023631D02*
Y023749D01*
X030077Y02169D02*
X030196D01*
X030136Y021631D02*
Y021749D01*
X030577Y01869D02*
X030696D01*
X030636Y018631D02*
Y018749D01*
X030577Y01669D02*
X030696D01*
X030636Y016631D02*
Y016749D01*
X030577Y01469D02*
X030696D01*
X030636Y014631D02*
Y014749D01*
X030577Y01269D02*
X030696D01*
X030636Y012631D02*
Y012749D01*
X029577Y02669D02*
X029695D01*
X029636Y026631D02*
Y026749D01*
X029577Y02469D02*
X029695D01*
X029636Y024631D02*
Y024749D01*
X029577Y02269D02*
X029695D01*
X029636Y022631D02*
Y022749D01*
X029577Y02069D02*
X029695D01*
X029636Y020631D02*
Y020749D01*
X029577Y01669D02*
X029695D01*
X029636Y016631D02*
Y016749D01*
X029577Y01469D02*
X029695D01*
X029636Y014631D02*
Y014749D01*
X029577Y01269D02*
X029695D01*
X029636Y012631D02*
Y012749D01*
X028577Y02669D02*
X028695D01*
X028636Y026631D02*
Y026749D01*
X028577Y02469D02*
X028695D01*
X028636Y024631D02*
Y024749D01*
X028577Y02269D02*
X028695D01*
X028636Y022631D02*
Y022749D01*
X028577Y02069D02*
X028695D01*
X028636Y020631D02*
Y020749D01*
X028577Y01869D02*
X028695D01*
X028636Y018631D02*
Y018749D01*
X027077Y01569D02*
X027195D01*
X027136Y015631D02*
Y015749D01*
X027077Y01369D02*
X027195D01*
X027136Y013631D02*
Y013749D01*
X027077Y01169D02*
X027195D01*
X027136Y011631D02*
Y011749D01*
X026577Y02469D02*
X026695D01*
X026636Y024631D02*
Y024749D01*
X026077Y02369D02*
X026195D01*
X026136Y023631D02*
Y023749D01*
X026077Y01969D02*
X026195D01*
X026136Y019631D02*
Y019749D01*
X026577Y01869D02*
X026695D01*
X026636Y018631D02*
Y018749D01*
X026077Y01769D02*
X026195D01*
X026136Y017631D02*
Y017749D01*
X026577Y01669D02*
X026695D01*
X026636Y016631D02*
Y016749D01*
X026077Y01569D02*
X026195D01*
X026136Y015631D02*
Y015749D01*
X026577Y01469D02*
X026695D01*
X026636Y014631D02*
Y014749D01*
X026077Y01369D02*
X026195D01*
X026136Y013631D02*
Y013749D01*
X026577Y01269D02*
X026695D01*
X026636Y012631D02*
Y012749D01*
X026077Y01169D02*
X026195D01*
X026136Y011631D02*
Y011749D01*
X025077Y02369D02*
X025196D01*
X025136Y023631D02*
Y023749D01*
X025577Y02269D02*
X025696D01*
X025636Y022631D02*
Y022749D01*
X025577Y02069D02*
X025696D01*
X025636Y020631D02*
Y020749D01*
X025077Y01969D02*
X025196D01*
X025136Y019631D02*
Y019749D01*
X025577Y01869D02*
X025696D01*
X025636Y018631D02*
Y018749D01*
X025577Y01669D02*
X025696D01*
X025636Y016631D02*
Y016749D01*
X025577Y01469D02*
X025696D01*
X025636Y014631D02*
Y014749D01*
X025077Y01369D02*
X025196D01*
X025136Y013631D02*
Y013749D01*
X025577Y01269D02*
X025696D01*
X025636Y012631D02*
Y012749D01*
X025077Y01169D02*
X025196D01*
X025136Y011631D02*
Y011749D01*
X024077Y02569D02*
X024195D01*
X024136Y025631D02*
Y025749D01*
X024077Y02369D02*
X024195D01*
X024136Y023631D02*
Y023749D01*
X024077Y02169D02*
X024195D01*
X024136Y021631D02*
Y021749D01*
X024577Y02069D02*
X024695D01*
X024636Y020631D02*
Y020749D01*
X024077Y01969D02*
X024195D01*
X024136Y019631D02*
Y019749D01*
X024577Y01869D02*
X024695D01*
X024636Y018631D02*
Y018749D01*
X024077Y01769D02*
X024195D01*
X024136Y017631D02*
Y017749D01*
X024077Y01569D02*
X024195D01*
X024136Y015631D02*
Y015749D01*
X024077Y01369D02*
X024195D01*
X024136Y013631D02*
Y013749D01*
X024077Y01169D02*
X024195D01*
X024136Y011631D02*
Y011749D01*
X023077Y02769D02*
X023196D01*
X023136Y027631D02*
Y027749D01*
X023577Y02669D02*
X023695D01*
X023636Y026631D02*
Y026749D01*
X023077Y02569D02*
X023196D01*
X023136Y025631D02*
Y025749D01*
X023577Y02469D02*
X023695D01*
X023636Y024631D02*
Y024749D01*
X023077Y02369D02*
X023196D01*
X023136Y023631D02*
Y023749D01*
X023577Y02269D02*
X023695D01*
X023636Y022631D02*
Y022749D01*
X023077Y02169D02*
X023196D01*
X023136Y021631D02*
Y021749D01*
X023577Y02069D02*
X023695D01*
X023636Y020631D02*
Y020749D01*
X023077Y01969D02*
X023196D01*
X023136Y019631D02*
Y019749D01*
X023577Y01869D02*
X023695D01*
X023636Y018631D02*
Y018749D01*
X023077Y01769D02*
X023196D01*
X023136Y017631D02*
Y017749D01*
X023577Y01669D02*
X023695D01*
X023636Y016631D02*
Y016749D01*
X023077Y01569D02*
X023196D01*
X023136Y015631D02*
Y015749D01*
X023577Y01469D02*
X023695D01*
X023636Y014631D02*
Y014749D01*
X023077Y01369D02*
X023196D01*
X023136Y013631D02*
Y013749D01*
X023577Y01269D02*
X023695D01*
X023636Y012631D02*
Y012749D01*
X023077Y01169D02*
X023196D01*
X023136Y011631D02*
Y011749D01*
X025177Y02658D02*
X025296D01*
X025236Y026521D02*
Y026639D01*
X032657Y01338D02*
X032775D01*
X032716Y013321D02*
Y013439D01*
X033197Y01409D02*
X033315D01*
X033256Y014031D02*
Y014149D01*
X029487Y01339D02*
X029606D01*
X029546Y013331D02*
Y013449D01*
X029477Y01703D02*
X029595D01*
X029536Y016971D02*
Y017089D01*
X032647Y01705D02*
X032766D01*
X032706Y016991D02*
Y017109D01*
X03093Y025087D02*
X031049D01*
X030989Y025028D02*
Y025146D01*
X031767Y02512D02*
X031885D01*
X031826Y025061D02*
Y025179D01*
X023787Y02514D02*
X023905D01*
X023846Y025081D02*
Y025199D01*
X026197Y02513D02*
X026316D01*
X026256Y025071D02*
Y025189D01*
X030927Y02013D02*
X031045D01*
X030986Y020071D02*
Y020189D01*
X032577Y02544D02*
X032696D01*
X032636Y025381D02*
Y025499D01*
X027917Y01177D02*
X028036D01*
X027976Y011711D02*
Y011829D01*
X042357Y01419D02*
X042476D01*
X042416Y014131D02*
Y014249D01*
X036287Y02548D02*
X036405D01*
X036346Y025421D02*
Y025539D01*
X037109Y020727D02*
X037227D01*
X037168Y020668D02*
Y020787D01*
X034977Y01738D02*
X035096D01*
X035036Y017321D02*
Y017439D01*
X031985Y020275D02*
X032103D01*
X032044Y020216D02*
Y020334D01*
X032647Y01977D02*
X032766D01*
X032706Y019711D02*
Y019829D01*
X031495Y0219D02*
X031613D01*
X031554Y021841D02*
Y021959D01*
X037607Y02204D02*
X037726D01*
X037666Y021981D02*
Y022099D01*
X045709Y034394D02*
X046064D01*
X045886Y034217D02*
Y034572D01*
X044709Y034394D02*
X045064D01*
X044886Y034217D02*
Y034572D01*
X043709Y034394D02*
X044064D01*
X043886Y034217D02*
Y034572D01*
X042709Y034394D02*
X043064D01*
X042886Y034217D02*
Y034572D01*
X045709Y031394D02*
X046064D01*
X045886Y031217D02*
Y031572D01*
X044709Y031394D02*
X045064D01*
X044886Y031217D02*
Y031572D01*
X043709Y031394D02*
X044064D01*
X043886Y031217D02*
Y031572D01*
X042709Y031394D02*
X043064D01*
X042886Y031217D02*
Y031572D01*
X040061Y044244D02*
X040411D01*
X040236Y044069D02*
Y044419D01*
X042061Y043244D02*
X042411D01*
X042236Y043069D02*
Y043419D01*
X040061Y042244D02*
X040411D01*
X040236Y042069D02*
Y042419D01*
X02564Y046454D02*
X026073D01*
X025856Y046238D02*
Y046671D01*
X02464Y046454D02*
X025073D01*
X024856Y046238D02*
Y046671D01*
X02364Y046454D02*
X024073D01*
X023856Y046238D02*
Y046671D01*
X02942Y046444D02*
X029853D01*
X029636Y046228D02*
Y046661D01*
X03142Y046444D02*
X031853D01*
X031636Y046228D02*
Y046661D01*
X03042Y046444D02*
X030853D01*
X030636Y046228D02*
Y046661D01*
X02842Y046444D02*
X028853D01*
X028636Y046228D02*
Y046661D01*
X02742Y046444D02*
X027853D01*
X027636Y046228D02*
Y046661D01*
X03317Y046444D02*
X033603D01*
X033386Y046228D02*
Y046661D01*
X03417Y046444D02*
X034603D01*
X034386Y046228D02*
Y046661D01*
X03617Y046444D02*
X036603D01*
X036386Y046228D02*
Y046661D01*
X03517Y046444D02*
X035603D01*
X035386Y046228D02*
Y046661D01*
X03992Y046444D02*
X040353D01*
X040136Y046228D02*
Y046661D01*
X04092Y046444D02*
X041353D01*
X041136Y046228D02*
Y046661D01*
X04492Y046444D02*
X045353D01*
X045136Y046228D02*
Y046661D01*
X04792Y046444D02*
X048353D01*
X048136Y046228D02*
Y046661D01*
X04992Y046444D02*
X050353D01*
X050136Y046228D02*
Y046661D01*
X05192Y046444D02*
X052353D01*
X052136Y046228D02*
Y046661D01*
X05292Y046444D02*
X053353D01*
X053136Y046228D02*
Y046661D01*
X05092Y046444D02*
X051353D01*
X051136Y046228D02*
Y046661D01*
X04892Y046444D02*
X049353D01*
X049136Y046228D02*
Y046661D01*
X04692Y046444D02*
X047353D01*
X047136Y046228D02*
Y046661D01*
X04592Y046444D02*
X046353D01*
X046136Y046228D02*
Y046661D01*
X04392Y046444D02*
X044353D01*
X044136Y046228D02*
Y046661D01*
X04292Y046444D02*
X043353D01*
X043136Y046228D02*
Y046661D01*
X04192Y046444D02*
X042353D01*
X042136Y046228D02*
Y046661D01*
X03892Y046444D02*
X039353D01*
X039136Y046228D02*
Y046661D01*
X03792Y046444D02*
X038353D01*
X038136Y046228D02*
Y046661D01*
X024561Y035094D02*
X025011D01*
X024786Y034869D02*
Y035319D01*
X024561Y036472D02*
X025011D01*
X024786Y036247D02*
Y036697D01*
X024561Y031766D02*
X025011D01*
X024786Y031541D02*
Y031991D01*
X024561Y033144D02*
X025011D01*
X024786Y032919D02*
Y033369D01*
X042761Y036074D02*
X043071D01*
X042916Y035919D02*
Y036229D01*
X041761Y036074D02*
X042071D01*
X041916Y035919D02*
Y036229D01*
X03824Y034594D02*
X0386D01*
X03842Y034414D02*
Y034774D01*
X03824Y031807D02*
X0386D01*
X03842Y031627D02*
Y031987D01*
X047736Y044594D02*
X048336D01*
X048036Y044294D02*
Y044894D01*
X047736Y036594D02*
X048336D01*
X048036Y036294D02*
Y036894D01*
X029246Y042424D02*
X029586D01*
X029416Y042254D02*
Y042594D01*
X029246Y040424D02*
X029586D01*
X029416Y040254D02*
Y040594D01*
X053577Y045394D02*
X053696D01*
X053636Y045335D02*
Y045453D01*
X053077Y044394D02*
X053196D01*
X053136Y044335D02*
Y044453D01*
X053577Y043394D02*
X053696D01*
X053636Y043335D02*
Y043453D01*
X053077Y042394D02*
X053196D01*
X053136Y042335D02*
Y042453D01*
X053577Y041394D02*
X053696D01*
X053636Y041335D02*
Y041453D01*
X053077Y040394D02*
X053196D01*
X053136Y040335D02*
Y040453D01*
X053577Y039394D02*
X053696D01*
X053636Y039335D02*
Y039453D01*
X053077Y038394D02*
X053196D01*
X053136Y038335D02*
Y038453D01*
X053577Y037394D02*
X053696D01*
X053636Y037335D02*
Y037453D01*
X053077Y036394D02*
X053196D01*
X053136Y036335D02*
Y036453D01*
X053577Y035394D02*
X053696D01*
X053636Y035335D02*
Y035453D01*
X053077Y034394D02*
X053196D01*
X053136Y034335D02*
Y034453D01*
X053577Y033394D02*
X053696D01*
X053636Y033335D02*
Y033453D01*
X053077Y032394D02*
X053196D01*
X053136Y032335D02*
Y032453D01*
X053577Y031394D02*
X053696D01*
X053636Y031335D02*
Y031453D01*
X053077Y030394D02*
X053196D01*
X053136Y030335D02*
Y030453D01*
X052577Y045394D02*
X052695D01*
X052636Y045335D02*
Y045453D01*
X052577Y043394D02*
X052695D01*
X052636Y043335D02*
Y043453D01*
X052577Y041394D02*
X052695D01*
X052636Y041335D02*
Y041453D01*
X052577Y039394D02*
X052695D01*
X052636Y039335D02*
Y039453D01*
X052577Y037394D02*
X052695D01*
X052636Y037335D02*
Y037453D01*
X052577Y035394D02*
X052695D01*
X052636Y035335D02*
Y035453D01*
X052577Y033394D02*
X052695D01*
X052636Y033335D02*
Y033453D01*
X052577Y031394D02*
X052695D01*
X052636Y031335D02*
Y031453D01*
X052077Y030394D02*
X052196D01*
X052136Y030335D02*
Y030453D01*
X051077Y044394D02*
X051196D01*
X051136Y044335D02*
Y044453D01*
X051577Y043394D02*
X051695D01*
X051636Y043335D02*
Y043453D01*
X051077Y042394D02*
X051196D01*
X051136Y042335D02*
Y042453D01*
X051577Y041394D02*
X051695D01*
X051636Y041335D02*
Y041453D01*
X051077Y040394D02*
X051196D01*
X051136Y040335D02*
Y040453D01*
X051577Y039394D02*
X051695D01*
X051636Y039335D02*
Y039453D01*
X051077Y038394D02*
X051196D01*
X051136Y038335D02*
Y038453D01*
X051577Y037394D02*
X051695D01*
X051636Y037335D02*
Y037453D01*
X051077Y036394D02*
X051196D01*
X051136Y036335D02*
Y036453D01*
X051577Y035394D02*
X051695D01*
X051636Y035335D02*
Y035453D01*
X051077Y034394D02*
X051196D01*
X051136Y034335D02*
Y034453D01*
X051577Y033394D02*
X051695D01*
X051636Y033335D02*
Y033453D01*
X051577Y031394D02*
X051695D01*
X051636Y031335D02*
Y031453D01*
X051077Y030394D02*
X051196D01*
X051136Y030335D02*
Y030453D01*
X050077Y044394D02*
X050195D01*
X050136Y044335D02*
Y044453D01*
X050577Y043394D02*
X050696D01*
X050636Y043335D02*
Y043453D01*
X050077Y042394D02*
X050195D01*
X050136Y042335D02*
Y042453D01*
X050577Y041394D02*
X050696D01*
X050636Y041335D02*
Y041453D01*
X050077Y040394D02*
X050195D01*
X050136Y040335D02*
Y040453D01*
X050577Y039394D02*
X050696D01*
X050636Y039335D02*
Y039453D01*
X050077Y038394D02*
X050195D01*
X050136Y038335D02*
Y038453D01*
X050577Y037394D02*
X050696D01*
X050636Y037335D02*
Y037453D01*
X050077Y036394D02*
X050195D01*
X050136Y036335D02*
Y036453D01*
X050577Y035394D02*
X050696D01*
X050636Y035335D02*
Y035453D01*
X050077Y034394D02*
X050195D01*
X050136Y034335D02*
Y034453D01*
X050577Y033394D02*
X050696D01*
X050636Y033335D02*
Y033453D01*
X050077Y032394D02*
X050195D01*
X050136Y032335D02*
Y032453D01*
X049077Y044394D02*
X049195D01*
X049136Y044335D02*
Y044453D01*
X049577Y043394D02*
X049696D01*
X049636Y043335D02*
Y043453D01*
X049077Y042394D02*
X049195D01*
X049136Y042335D02*
Y042453D01*
X049577Y041394D02*
X049696D01*
X049636Y041335D02*
Y041453D01*
X049077Y040394D02*
X049195D01*
X049136Y040335D02*
Y040453D01*
X049577Y039394D02*
X049696D01*
X049636Y039335D02*
Y039453D01*
X049077Y038394D02*
X049195D01*
X049136Y038335D02*
Y038453D01*
X049577Y037394D02*
X049696D01*
X049636Y037335D02*
Y037453D01*
X049077Y036394D02*
X049195D01*
X049136Y036335D02*
Y036453D01*
X049577Y035394D02*
X049696D01*
X049636Y035335D02*
Y035453D01*
X049077Y034394D02*
X049195D01*
X049136Y034335D02*
Y034453D01*
X049577Y033394D02*
X049696D01*
X049636Y033335D02*
Y033453D01*
X049077Y032394D02*
X049195D01*
X049136Y032335D02*
Y032453D01*
X049577Y031394D02*
X049696D01*
X049636Y031335D02*
Y031453D01*
X048577Y043394D02*
X048696D01*
X048636Y043335D02*
Y043453D01*
X048077Y042394D02*
X048196D01*
X048136Y042335D02*
Y042453D01*
X048577Y041394D02*
X048696D01*
X048636Y041335D02*
Y041453D01*
X048077Y040394D02*
X048196D01*
X048136Y040335D02*
Y040453D01*
X048577Y039394D02*
X048696D01*
X048636Y039335D02*
Y039453D01*
X048077Y038394D02*
X048196D01*
X048136Y038335D02*
Y038453D01*
X048577Y037394D02*
X048696D01*
X048636Y037335D02*
Y037453D01*
X048577Y035394D02*
X048696D01*
X048636Y035335D02*
Y035453D01*
X048077Y034394D02*
X048196D01*
X048136Y034335D02*
Y034453D01*
X048577Y033394D02*
X048696D01*
X048636Y033335D02*
Y033453D01*
X048077Y032394D02*
X048196D01*
X048136Y032335D02*
Y032453D01*
X048577Y031394D02*
X048696D01*
X048636Y031335D02*
Y031453D01*
X047077Y044394D02*
X047196D01*
X047136Y044335D02*
Y044453D01*
X047577Y043394D02*
X047695D01*
X047636Y043335D02*
Y043453D01*
X047077Y042394D02*
X047196D01*
X047136Y042335D02*
Y042453D01*
X047577Y041394D02*
X047695D01*
X047636Y041335D02*
Y041453D01*
X047077Y040394D02*
X047196D01*
X047136Y040335D02*
Y040453D01*
X047577Y039394D02*
X047695D01*
X047636Y039335D02*
Y039453D01*
X047077Y038394D02*
X047196D01*
X047136Y038335D02*
Y038453D01*
X047577Y037394D02*
X047695D01*
X047636Y037335D02*
Y037453D01*
X047077Y036394D02*
X047196D01*
X047136Y036335D02*
Y036453D01*
X047577Y035394D02*
X047695D01*
X047636Y035335D02*
Y035453D01*
X047077Y034394D02*
X047196D01*
X047136Y034335D02*
Y034453D01*
X047577Y033394D02*
X047695D01*
X047636Y033335D02*
Y033453D01*
X047077Y032394D02*
X047196D01*
X047136Y032335D02*
Y032453D01*
X047577Y031394D02*
X047695D01*
X047636Y031335D02*
Y031453D01*
X046077Y044394D02*
X046196D01*
X046136Y044335D02*
Y044453D01*
X046577Y041394D02*
X046695D01*
X046636Y041335D02*
Y041453D01*
X046077Y040394D02*
X046196D01*
X046136Y040335D02*
Y040453D01*
X046577Y039394D02*
X046695D01*
X046636Y039335D02*
Y039453D01*
X046077Y038394D02*
X046196D01*
X046136Y038335D02*
Y038453D01*
X046577Y037394D02*
X046695D01*
X046636Y037335D02*
Y037453D01*
X046077Y036394D02*
X046196D01*
X046136Y036335D02*
Y036453D01*
X046577Y035394D02*
X046695D01*
X046636Y035335D02*
Y035453D01*
X046577Y033394D02*
X046695D01*
X046636Y033335D02*
Y033453D01*
X046077Y032394D02*
X046196D01*
X046136Y032335D02*
Y032453D01*
X046577Y031394D02*
X046695D01*
X046636Y031335D02*
Y031453D01*
X045077Y044394D02*
X045195D01*
X045136Y044335D02*
Y044453D01*
X045577Y043394D02*
X045696D01*
X045636Y043335D02*
Y043453D01*
X045077Y042394D02*
X045195D01*
X045136Y042335D02*
Y042453D01*
X045577Y041394D02*
X045696D01*
X045636Y041335D02*
Y041453D01*
X045077Y040394D02*
X045195D01*
X045136Y040335D02*
Y040453D01*
X045577Y039394D02*
X045696D01*
X045636Y039335D02*
Y039453D01*
X045077Y038394D02*
X045195D01*
X045136Y038335D02*
Y038453D01*
X045577Y037394D02*
X045696D01*
X045636Y037335D02*
Y037453D01*
X045077Y036394D02*
X045195D01*
X045136Y036335D02*
Y036453D01*
X045577Y035394D02*
X045696D01*
X045636Y035335D02*
Y035453D01*
X045577Y033394D02*
X045696D01*
X045636Y033335D02*
Y033453D01*
X045077Y032394D02*
X045195D01*
X045136Y032335D02*
Y032453D01*
X044077Y044394D02*
X044195D01*
X044136Y044335D02*
Y044453D01*
X044577Y043394D02*
X044696D01*
X044636Y043335D02*
Y043453D01*
X044077Y042394D02*
X044195D01*
X044136Y042335D02*
Y042453D01*
X044577Y039394D02*
X044696D01*
X044636Y039335D02*
Y039453D01*
X044577Y037394D02*
X044696D01*
X044636Y037335D02*
Y037453D01*
X044577Y033394D02*
X044696D01*
X044636Y033335D02*
Y033453D01*
X044077Y032394D02*
X044195D01*
X044136Y032335D02*
Y032453D01*
X043077Y044394D02*
X043196D01*
X043136Y044335D02*
Y044453D01*
X043577Y043394D02*
X043696D01*
X043636Y043335D02*
Y043453D01*
X043077Y042394D02*
X043196D01*
X043136Y042335D02*
Y042453D01*
X043577Y041394D02*
X043696D01*
X043636Y041335D02*
Y041453D01*
X043077Y040394D02*
X043196D01*
X043136Y040335D02*
Y040453D01*
X043077Y038394D02*
X043196D01*
X043136Y038335D02*
Y038453D01*
X043577Y033394D02*
X043696D01*
X043636Y033335D02*
Y033453D01*
X042077Y042394D02*
X042196D01*
X042136Y042335D02*
Y042453D01*
X042577Y041394D02*
X042695D01*
X042636Y041335D02*
Y041453D01*
X042077Y040394D02*
X042196D01*
X042136Y040335D02*
Y040453D01*
X042577Y039394D02*
X042695D01*
X042636Y039335D02*
Y039453D01*
X042077Y038394D02*
X042196D01*
X042136Y038335D02*
Y038453D01*
X042577Y037394D02*
X042695D01*
X042636Y037335D02*
Y037453D01*
X042077Y034394D02*
X042196D01*
X042136Y034335D02*
Y034453D01*
X041077Y044394D02*
X041196D01*
X041136Y044335D02*
Y044453D01*
X041577Y043394D02*
X041695D01*
X041636Y043335D02*
Y043453D01*
X041077Y042394D02*
X041196D01*
X041136Y042335D02*
Y042453D01*
X041577Y041394D02*
X041695D01*
X041636Y041335D02*
Y041453D01*
X041077Y040394D02*
X041196D01*
X041136Y040335D02*
Y040453D01*
X041577Y039394D02*
X041695D01*
X041636Y039335D02*
Y039453D01*
X041077Y038394D02*
X041196D01*
X041136Y038335D02*
Y038453D01*
X041577Y037394D02*
X041695D01*
X041636Y037335D02*
Y037453D01*
X041077Y036394D02*
X041196D01*
X041136Y036335D02*
Y036453D01*
X041577Y035394D02*
X041695D01*
X041636Y035335D02*
Y035453D01*
X041077Y034394D02*
X041196D01*
X041136Y034335D02*
Y034453D01*
X041577Y031394D02*
X041695D01*
X041636Y031335D02*
Y031453D01*
X040577Y043394D02*
X040696D01*
X040636Y043335D02*
Y043453D01*
X040577Y041394D02*
X040696D01*
X040636Y041335D02*
Y041453D01*
X040077Y040394D02*
X040195D01*
X040136Y040335D02*
Y040453D01*
X040577Y039394D02*
X040696D01*
X040636Y039335D02*
Y039453D01*
X040077Y038394D02*
X040195D01*
X040136Y038335D02*
Y038453D01*
X040577Y037394D02*
X040696D01*
X040636Y037335D02*
Y037453D01*
X040077Y036394D02*
X040195D01*
X040136Y036335D02*
Y036453D01*
X040577Y035394D02*
X040696D01*
X040636Y035335D02*
Y035453D01*
X040077Y034394D02*
X040195D01*
X040136Y034335D02*
Y034453D01*
X040077Y032394D02*
X040195D01*
X040136Y032335D02*
Y032453D01*
X040577Y031394D02*
X040696D01*
X040636Y031335D02*
Y031453D01*
X039077Y044394D02*
X039195D01*
X039136Y044335D02*
Y044453D01*
X039577Y043394D02*
X039695D01*
X039636Y043335D02*
Y043453D01*
X039077Y042394D02*
X039195D01*
X039136Y042335D02*
Y042453D01*
X039577Y041394D02*
X039695D01*
X039636Y041335D02*
Y041453D01*
X039077Y040394D02*
X039195D01*
X039136Y040335D02*
Y040453D01*
X039577Y039394D02*
X039695D01*
X039636Y039335D02*
Y039453D01*
X039077Y038394D02*
X039195D01*
X039136Y038335D02*
Y038453D01*
X039577Y037394D02*
X039695D01*
X039636Y037335D02*
Y037453D01*
X039077Y036394D02*
X039195D01*
X039136Y036335D02*
Y036453D01*
X039577Y035394D02*
X039695D01*
X039636Y035335D02*
Y035453D01*
X039577Y033394D02*
X039695D01*
X039636Y033335D02*
Y033453D01*
X039077Y032394D02*
X039195D01*
X039136Y032335D02*
Y032453D01*
X039577Y031394D02*
X039695D01*
X039636Y031335D02*
Y031453D01*
X038577Y039394D02*
X038695D01*
X038636Y039335D02*
Y039453D01*
X038077Y038394D02*
X038196D01*
X038136Y038335D02*
Y038453D01*
X038577Y037394D02*
X038695D01*
X038636Y037335D02*
Y037453D01*
X038077Y036394D02*
X038196D01*
X038136Y036335D02*
Y036453D01*
X038577Y033394D02*
X038695D01*
X038636Y033335D02*
Y033453D01*
X037077Y046394D02*
X037195D01*
X037136Y046335D02*
Y046453D01*
X037577Y039394D02*
X037696D01*
X037636Y039335D02*
Y039453D01*
X037577Y037394D02*
X037696D01*
X037636Y037335D02*
Y037453D01*
X037577Y035394D02*
X037696D01*
X037636Y035335D02*
Y035453D01*
X037577Y033394D02*
X037696D01*
X037636Y033335D02*
Y033453D01*
X037077Y032394D02*
X037195D01*
X037136Y032335D02*
Y032453D01*
X037577Y031394D02*
X037696D01*
X037636Y031335D02*
Y031453D01*
X036577Y045394D02*
X036695D01*
X036636Y045335D02*
Y045453D01*
X036077Y042394D02*
X036195D01*
X036136Y042335D02*
Y042453D01*
X036577Y039394D02*
X036695D01*
X036636Y039335D02*
Y039453D01*
X036077Y038394D02*
X036195D01*
X036136Y038335D02*
Y038453D01*
X036077Y036394D02*
X036195D01*
X036136Y036335D02*
Y036453D01*
X036577Y035394D02*
X036695D01*
X036636Y035335D02*
Y035453D01*
X036577Y033394D02*
X036695D01*
X036636Y033335D02*
Y033453D01*
X036077Y032394D02*
X036195D01*
X036136Y032335D02*
Y032453D01*
X036577Y031394D02*
X036695D01*
X036636Y031335D02*
Y031453D01*
X035577Y041394D02*
X035696D01*
X035636Y041335D02*
Y041453D01*
X035077Y040394D02*
X035196D01*
X035136Y040335D02*
Y040453D01*
X035577Y037394D02*
X035696D01*
X035636Y037335D02*
Y037453D01*
X035077Y036394D02*
X035196D01*
X035136Y036335D02*
Y036453D01*
X035577Y035394D02*
X035696D01*
X035636Y035335D02*
Y035453D01*
X035577Y033394D02*
X035696D01*
X035636Y033335D02*
Y033453D01*
X035077Y032394D02*
X035196D01*
X035136Y032335D02*
Y032453D01*
X035577Y031394D02*
X035696D01*
X035636Y031335D02*
Y031453D01*
X034077Y044394D02*
X034195D01*
X034136Y044335D02*
Y044453D01*
X034577Y041394D02*
X034695D01*
X034636Y041335D02*
Y041453D01*
X034077Y040394D02*
X034195D01*
X034136Y040335D02*
Y040453D01*
X034077Y038394D02*
X034195D01*
X034136Y038335D02*
Y038453D01*
X034577Y037394D02*
X034695D01*
X034636Y037335D02*
Y037453D01*
X034077Y036394D02*
X034195D01*
X034136Y036335D02*
Y036453D01*
X034577Y033394D02*
X034695D01*
X034636Y033335D02*
Y033453D01*
X034077Y032394D02*
X034195D01*
X034136Y032335D02*
Y032453D01*
X034577Y031394D02*
X034695D01*
X034636Y031335D02*
Y031453D01*
X033077Y044394D02*
X033196D01*
X033136Y044335D02*
Y044453D01*
X033077Y042394D02*
X033196D01*
X033136Y042335D02*
Y042453D01*
X033577Y041394D02*
X033695D01*
X033636Y041335D02*
Y041453D01*
X033077Y036394D02*
X033196D01*
X033136Y036335D02*
Y036453D01*
X033577Y033394D02*
X033695D01*
X033636Y033335D02*
Y033453D01*
X033577Y031394D02*
X033695D01*
X033636Y031335D02*
Y031453D01*
X033077Y030394D02*
X033196D01*
X033136Y030335D02*
Y030453D01*
X032077Y044394D02*
X032195D01*
X032136Y044335D02*
Y044453D01*
X032077Y042394D02*
X032195D01*
X032136Y042335D02*
Y042453D01*
X032577Y037394D02*
X032696D01*
X032636Y037335D02*
Y037453D01*
X032577Y035394D02*
X032696D01*
X032636Y035335D02*
Y035453D01*
X032577Y033394D02*
X032696D01*
X032636Y033335D02*
Y033453D01*
X032577Y031394D02*
X032696D01*
X032636Y031335D02*
Y031453D01*
X032077Y030394D02*
X032195D01*
X032136Y030335D02*
Y030453D01*
X031577Y037394D02*
X031695D01*
X031636Y037335D02*
Y037453D01*
X031577Y035394D02*
X031695D01*
X031636Y035335D02*
Y035453D01*
X031577Y031394D02*
X031695D01*
X031636Y031335D02*
Y031453D01*
X030577Y043394D02*
X030696D01*
X030636Y043335D02*
Y043453D01*
X030077Y042394D02*
X030196D01*
X030136Y042335D02*
Y042453D01*
X030077Y040394D02*
X030196D01*
X030136Y040335D02*
Y040453D01*
X030577Y037394D02*
X030696D01*
X030636Y037335D02*
Y037453D01*
X030577Y035394D02*
X030696D01*
X030636Y035335D02*
Y035453D01*
X030577Y033394D02*
X030696D01*
X030636Y033335D02*
Y033453D01*
X030577Y031394D02*
X030696D01*
X030636Y031335D02*
Y031453D01*
X029577Y045394D02*
X029695D01*
X029636Y045335D02*
Y045453D01*
X029577Y043394D02*
X029695D01*
X029636Y043335D02*
Y043453D01*
X029577Y041394D02*
X029695D01*
X029636Y041335D02*
Y041453D01*
X029577Y039394D02*
X029695D01*
X029636Y039335D02*
Y039453D01*
X029577Y035394D02*
X029695D01*
X029636Y035335D02*
Y035453D01*
X029577Y033394D02*
X029695D01*
X029636Y033335D02*
Y033453D01*
X029577Y031394D02*
X029695D01*
X029636Y031335D02*
Y031453D01*
X028577Y045394D02*
X028695D01*
X028636Y045335D02*
Y045453D01*
X028577Y043394D02*
X028695D01*
X028636Y043335D02*
Y043453D01*
X028577Y041394D02*
X028695D01*
X028636Y041335D02*
Y041453D01*
X028577Y039394D02*
X028695D01*
X028636Y039335D02*
Y039453D01*
X028577Y037394D02*
X028695D01*
X028636Y037335D02*
Y037453D01*
X027077Y034394D02*
X027195D01*
X027136Y034335D02*
Y034453D01*
X027077Y032394D02*
X027195D01*
X027136Y032335D02*
Y032453D01*
X027077Y030394D02*
X027195D01*
X027136Y030335D02*
Y030453D01*
X026577Y043394D02*
X026695D01*
X026636Y043335D02*
Y043453D01*
X026077Y042394D02*
X026195D01*
X026136Y042335D02*
Y042453D01*
X026077Y038394D02*
X026195D01*
X026136Y038335D02*
Y038453D01*
X026577Y037394D02*
X026695D01*
X026636Y037335D02*
Y037453D01*
X026077Y036394D02*
X026195D01*
X026136Y036335D02*
Y036453D01*
X026577Y035394D02*
X026695D01*
X026636Y035335D02*
Y035453D01*
X026077Y034394D02*
X026195D01*
X026136Y034335D02*
Y034453D01*
X026577Y033394D02*
X026695D01*
X026636Y033335D02*
Y033453D01*
X026077Y032394D02*
X026195D01*
X026136Y032335D02*
Y032453D01*
X026577Y031394D02*
X026695D01*
X026636Y031335D02*
Y031453D01*
X026077Y030394D02*
X026195D01*
X026136Y030335D02*
Y030453D01*
X025077Y042394D02*
X025196D01*
X025136Y042335D02*
Y042453D01*
X025577Y041394D02*
X025696D01*
X025636Y041335D02*
Y041453D01*
X025577Y039394D02*
X025696D01*
X025636Y039335D02*
Y039453D01*
X025077Y038394D02*
X025196D01*
X025136Y038335D02*
Y038453D01*
X025577Y037394D02*
X025696D01*
X025636Y037335D02*
Y037453D01*
X025577Y035394D02*
X025696D01*
X025636Y035335D02*
Y035453D01*
X025577Y033394D02*
X025696D01*
X025636Y033335D02*
Y033453D01*
X025077Y032394D02*
X025196D01*
X025136Y032335D02*
Y032453D01*
X025577Y031394D02*
X025696D01*
X025636Y031335D02*
Y031453D01*
X025077Y030394D02*
X025196D01*
X025136Y030335D02*
Y030453D01*
X024077Y044394D02*
X024195D01*
X024136Y044335D02*
Y044453D01*
X024077Y042394D02*
X024195D01*
X024136Y042335D02*
Y042453D01*
X024077Y040394D02*
X024195D01*
X024136Y040335D02*
Y040453D01*
X024577Y039394D02*
X024695D01*
X024636Y039335D02*
Y039453D01*
X024077Y038394D02*
X024195D01*
X024136Y038335D02*
Y038453D01*
X024577Y037394D02*
X024695D01*
X024636Y037335D02*
Y037453D01*
X024077Y036394D02*
X024195D01*
X024136Y036335D02*
Y036453D01*
X024077Y034394D02*
X024195D01*
X024136Y034335D02*
Y034453D01*
X024077Y032394D02*
X024195D01*
X024136Y032335D02*
Y032453D01*
X024077Y030394D02*
X024195D01*
X024136Y030335D02*
Y030453D01*
X023077Y046394D02*
X023196D01*
X023136Y046335D02*
Y046453D01*
X023577Y045394D02*
X023695D01*
X023636Y045335D02*
Y045453D01*
X023077Y044394D02*
X023196D01*
X023136Y044335D02*
Y044453D01*
X023577Y043394D02*
X023695D01*
X023636Y043335D02*
Y043453D01*
X023077Y042394D02*
X023196D01*
X023136Y042335D02*
Y042453D01*
X023577Y041394D02*
X023695D01*
X023636Y041335D02*
Y041453D01*
X023077Y040394D02*
X023196D01*
X023136Y040335D02*
Y040453D01*
X023577Y039394D02*
X023695D01*
X023636Y039335D02*
Y039453D01*
X023077Y038394D02*
X023196D01*
X023136Y038335D02*
Y038453D01*
X023577Y037394D02*
X023695D01*
X023636Y037335D02*
Y037453D01*
X023077Y036394D02*
X023196D01*
X023136Y036335D02*
Y036453D01*
X023577Y035394D02*
X023695D01*
X023636Y035335D02*
Y035453D01*
X023077Y034394D02*
X023196D01*
X023136Y034335D02*
Y034453D01*
X023577Y033394D02*
X023695D01*
X023636Y033335D02*
Y033453D01*
X023077Y032394D02*
X023196D01*
X023136Y032335D02*
Y032453D01*
X023577Y031394D02*
X023695D01*
X023636Y031335D02*
Y031453D01*
X023077Y030394D02*
X023196D01*
X023136Y030335D02*
Y030453D01*
X025177Y045284D02*
X025296D01*
X025236Y045225D02*
Y045343D01*
X032657Y032084D02*
X032775D01*
X032716Y032025D02*
Y032143D01*
X033197Y032794D02*
X033315D01*
X033256Y032735D02*
Y032853D01*
X029487Y032094D02*
X029606D01*
X029546Y032035D02*
Y032153D01*
X029477Y035734D02*
X029595D01*
X029536Y035675D02*
Y035793D01*
X032647Y035754D02*
X032766D01*
X032706Y035695D02*
Y035813D01*
X03093Y043791D02*
X031049D01*
X030989Y043732D02*
Y04385D01*
X031767Y043824D02*
X031885D01*
X031826Y043765D02*
Y043883D01*
X023787Y043844D02*
X023905D01*
X023846Y043785D02*
Y043903D01*
X026197Y043834D02*
X026316D01*
X026256Y043775D02*
Y043893D01*
X030927Y038834D02*
X031045D01*
X030986Y038775D02*
Y038893D01*
X032577Y044144D02*
X032696D01*
X032636Y044085D02*
Y044203D01*
X027917Y030474D02*
X028036D01*
X027976Y030415D02*
Y030533D01*
X042357Y032894D02*
X042476D01*
X042416Y032835D02*
Y032953D01*
X036287Y044184D02*
X036405D01*
X036346Y044125D02*
Y044243D01*
X037109Y039432D02*
X037227D01*
X037168Y039373D02*
Y039491D01*
X034977Y036084D02*
X035096D01*
X035036Y036025D02*
Y036143D01*
X031985Y038979D02*
X032103D01*
X032044Y03892D02*
Y039038D01*
X032647Y038474D02*
X032766D01*
X032706Y038415D02*
Y038533D01*
X031495Y040604D02*
X031613D01*
X031554Y040545D02*
Y040663D01*
X037607Y040744D02*
X037726D01*
X037666Y040685D02*
Y040803D01*
M02*
